<?xml version="1.0" encoding="UTF-8" standalone="no"?>
<!-- Created with Inkscape (http://www.inkscape.org/) -->
<svg
   xmlns:i="http://ns.adobe.com/AdobeIllustrator/10.0/"
   xmlns:dc="http://purl.org/dc/elements/1.1/"
   xmlns:cc="http://web.resource.org/cc/"
   xmlns:rdf="http://www.w3.org/1999/02/22-rdf-syntax-ns#"
   xmlns:svg="http://www.w3.org/2000/svg"
   xmlns="http://www.w3.org/2000/svg"
   xmlns:xlink="http://www.w3.org/1999/xlink"
   xmlns:sodipodi="http://sodipodi.sourceforge.net/DTD/sodipodi-0.dtd"
   xmlns:inkscape="http://www.inkscape.org/namespaces/inkscape"
   width="200"
   height="200"
   id="svg2"
   sodipodi:version="0.32"
   inkscape:version="0.45"
   version="1.0"
   sodipodi:docbase="/usr/local/share/screenlets/Test/themes/debian"
   sodipodi:docname="example-bg.svg"
   inkscape:output_extension="org.inkscape.output.svg.inkscape"
   sodipodi:modified="true">
  <defs
     id="defs4">
    <linearGradient
       inkscape:collect="always"
       id="linearGradient3184">
      <stop
         style="stop-color:#ffffff;stop-opacity:1;"
         offset="0"
         id="stop3186" />
      <stop
         style="stop-color:#ffffff;stop-opacity:0;"
         offset="1"
         id="stop3188" />
    </linearGradient>
    <linearGradient
       inkscape:collect="always"
       id="linearGradient3160">
      <stop
         style="stop-color:#ffffff;stop-opacity:1"
         offset="0"
         id="stop3162" />
      <stop
         style="stop-color:#ffffff;stop-opacity:0;"
         offset="1"
         id="stop3164" />
    </linearGradient>
    <linearGradient
       inkscape:collect="always"
       xlink:href="#linearGradient3160"
       id="linearGradient3170"
       x1="94.191589"
       y1="-104.59877"
       x2="91.932655"
       y2="44.338131"
       gradientUnits="userSpaceOnUse" />
    <linearGradient
       inkscape:collect="always"
       xlink:href="#linearGradient3184"
       id="linearGradient3190"
       x1="102.47833"
       y1="117.63724"
       x2="95.924446"
       y2="137.98761"
       gradientUnits="userSpaceOnUse" />
    <linearGradient
       inkscape:collect="always"
       xlink:href="#linearGradient3184"
       id="linearGradient3192"
       x1="116.62047"
       y1="120.49561"
       x2="119.85333"
       y2="142.57461"
       gradientUnits="userSpaceOnUse" />
    <linearGradient
       inkscape:collect="always"
       xlink:href="#linearGradient3184"
       id="linearGradient3194"
       x1="138.10564"
       y1="117.2918"
       x2="139.84033"
       y2="137.98761"
       gradientUnits="userSpaceOnUse" />
    <linearGradient
       inkscape:collect="always"
       xlink:href="#linearGradient3184"
       id="linearGradient3196"
       x1="145.20332"
       y1="124.03931"
       x2="148.74833"
       y2="142.32061"
       gradientUnits="userSpaceOnUse" />
    <linearGradient
       inkscape:collect="always"
       xlink:href="#linearGradient3184"
       id="linearGradient3198"
       x1="159.97183"
       y1="122.89109"
       x2="159.97183"
       y2="142.55211"
       gradientUnits="userSpaceOnUse" />
    <linearGradient
       inkscape:collect="always"
       xlink:href="#linearGradient3184"
       id="linearGradient3200"
       x1="181.44884"
       y1="122.12083"
       x2="190.97133"
       y2="142.29861"
       gradientUnits="userSpaceOnUse" />
    <filter
       inkscape:collect="always"
       id="filter3230">
      <feGaussianBlur
         inkscape:collect="always"
         stdDeviation="1.2676669"
         id="feGaussianBlur3232" />
    </filter>
  </defs>
  <sodipodi:namedview
     id="base"
     pagecolor="#ffffff"
     bordercolor="#666666"
     borderopacity="1.0"
     inkscape:pageopacity="0.0"
     inkscape:pageshadow="2"
     inkscape:zoom="2.8991378"
     inkscape:cx="121.99616"
     inkscape:cy="97.6298"
     inkscape:document-units="px"
     inkscape:current-layer="layer1"
     width="200px"
     height="200px"
     inkscape:window-width="989"
     inkscape:window-height="626"
     inkscape:window-x="128"
     inkscape:window-y="119" />
  <metadata
     id="metadata7">
    <rdf:RDF>
      <cc:Work
         rdf:about="">
        <dc:format>image/svg+xml</dc:format>
        <dc:type
           rdf:resource="http://purl.org/dc/dcmitype/StillImage" />
      </cc:Work>
    </rdf:RDF>
  </metadata>
  <g
     inkscape:label="Ebene 1"
     inkscape:groupmode="layer"
     id="layer1">
    <g
       id="g2658">
      <path
         style="fill:#d70751"
         id="path2557"
         d="M 71.436862,58.992614 C 69.942862,59.012614 71.717862,59.760614 73.668862,60.061614 C 74.209862,59.639614 74.695862,59.215614 75.131862,58.801614 C 73.918862,59.098614 72.682862,59.105614 71.436862,58.992614"
         i:knockout="Off" />
      <path
         style="fill:#d70751"
         id="path2559"
         d="M 79.453862,56.993614 C 80.346862,55.764614 80.994862,54.420614 81.223862,53.030614 C 81.022862,54.020614 80.487862,54.875614 79.979862,55.779614 C 77.186862,57.538614 79.715862,54.735614 79.977862,53.668614 C 76.975862,57.451614 79.563862,55.936614 79.453862,56.993614"
         i:knockout="Off" />
      <path
         i:knockout="Off"
         d="M 116.68044,80.988229 C 116.82176,84.781731 115.57348,86.625096 114.44454,89.884744 L 112.41432,90.894356 C 110.75467,94.11946 112.57919,92.941842 111.39058,95.50591 C 108.79668,97.809331 103.53037,102.71136 101.84403,103.16043 C 100.61146,103.13374 102.67778,101.70646 102.94784,101.14906 C 99.479365,103.52942 100.16396,104.72274 94.858395,106.17199 L 94.704515,105.82499 C 81.625102,111.98 63.455235,99.78459 63.693899,83.147196 C 63.555725,84.202342 63.296649,83.938556 63.00774,84.362499 C 62.332572,75.803568 66.961397,67.206953 74.768223,63.691369 C 82.403901,59.913569 91.355375,61.461745 96.821095,66.563188 C 93.818945,62.628372 87.838217,58.456462 80.755235,58.842721 C 73.813567,58.955773 67.317823,63.366346 65.151005,68.156898 C 61.596168,70.394373 61.181646,76.786486 59.63347,77.957824 C 57.54673,93.282566 63.554155,99.900782 73.717787,107.69033 C 75.313067,108.76746 74.166852,108.93233 74.380394,109.75195 C 71.004554,108.17237 67.914483,105.78573 65.370827,102.86367 C 66.721163,104.83736 68.1767,106.75609 70.059319,108.26344 C 66.873468,107.18788 62.619911,100.54926 61.381056,100.27919 C 66.868758,110.10524 83.642755,117.51167 92.430925,113.83593 C 88.364225,113.98667 83.199971,113.91915 78.633952,112.23123 C 76.710508,111.2436 74.105616,109.20083 74.571953,108.81928 C 86.561679,113.2958 98.943945,112.20768 109.3164,103.89369 C 111.95741,101.83679 114.84022,98.340045 115.67397,98.29294 C 114.41942,100.18027 115.88908,99.200491 114.92501,100.86643 C 117.55031,96.625432 113.78036,99.139255 117.64138,93.543212 L 119.06708,95.50591 C 118.53323,91.982475 123.43997,87.708505 122.94066,82.140725 C 124.06647,80.438674 124.19522,83.97467 123.0019,87.890643 C 124.65842,83.546016 123.43997,82.847296 123.86392,79.261055 C 124.32083,80.466937 124.92848,81.746615 125.2378,83.020014 C 124.15754,78.819841 126.34163,75.949592 126.8849,73.507997 C 126.34791,73.272473 125.21896,75.363923 124.95832,70.405365 C 124.99757,68.251108 125.55969,69.276421 125.7748,68.745708 C 125.354,68.502333 124.24389,66.850527 123.5703,63.683518 C 124.05548,62.937693 124.87667,65.613242 125.54242,65.721583 C 125.11376,63.20462 124.37736,61.284317 124.34596,59.351453 C 122.39896,55.284743 123.65666,59.894727 122.08022,57.605437 C 120.00761,51.145807 123.79797,56.105936 124.05548,53.172881 C 127.19265,57.718488 128.98106,64.768497 129.80539,67.687421 C 129.17733,64.127873 128.16458,60.678236 126.92572,57.34165 C 127.88195,57.745181 125.38854,50.020004 128.16772,55.135578 C 125.20169,44.230831 115.48398,34.040506 106.54193,29.260945 C 107.63319,30.261136 109.01336,31.517262 108.52033,31.715102 C 104.07051,29.069386 104.85244,28.860555 104.21496,27.742603 C 100.59575,26.268224 100.35394,27.863505 97.959455,27.745743 C 91.129265,24.121818 89.813475,24.506507 83.528134,22.239199 L 83.813903,23.576974 C 79.290278,22.069622 78.542882,24.145371 73.654981,23.580114 C 73.358221,23.349301 75.221998,22.738509 76.757613,22.517117 C 72.383153,23.094935 72.587273,21.65353 68.307023,22.675703 C 69.360599,21.936159 70.478551,21.444699 71.602784,20.816636 C 68.036956,21.033318 63.086247,22.892385 64.614011,21.199755 C 58.796576,23.796796 48.463366,27.441132 42.664773,32.878589 L 42.482635,31.660147 C 39.825928,34.849138 30.896439,41.184725 30.185158,45.318951 L 29.473876,45.483817 C 28.093707,47.824923 27.197147,50.47692 26.101177,52.883972 C 24.293925,55.966192 23.45075,54.071011 23.708256,54.55462 C 20.151848,61.764785 18.38228,67.822455 16.857657,72.793575 C 17.944206,74.418688 16.88435,82.578799 17.294161,89.109086 C 15.510461,121.36641 39.932698,152.68321 66.628524,159.91221 C 70.541357,161.31436 76.358793,161.26412 81.307931,161.40229 C 75.470083,159.73164 74.716407,160.51829 69.026155,158.53519 C 64.923332,156.60075 64.025202,154.39468 61.117269,151.87144 L 62.268195,153.90479 C 56.568522,151.88714 58.953592,151.40824 54.315345,149.94014 L 55.544779,148.33701 C 53.696703,148.1957 50.650596,145.22496 49.818413,143.57472 L 47.796049,143.6548 C 45.368585,140.66208 44.073205,138.49997 44.168984,136.82461 L 43.515799,137.98967 C 42.776254,136.71941 34.58003,126.75048 38.832018,129.07117 C 38.042228,128.35204 36.991792,127.89827 35.853428,125.82723 L 36.718585,124.8396 C 34.675809,122.20644 32.953346,118.83217 33.085239,117.70794 C 34.176499,119.18075 34.933315,119.4571 35.683851,119.70989 C 30.516461,106.89112 30.225982,119.00489 26.314718,106.66188 L 27.140621,106.59593 C 26.507848,105.63657 26.120019,104.60183 25.611288,103.5828 L 25.972424,99.994991 C 22.25429,95.699039 24.932979,81.710502 25.471544,74.04028 C 25.840531,70.921946 28.575746,67.601062 30.653065,62.392848 L 29.387517,62.176167 C 31.808701,57.955582 43.208048,45.220031 48.490059,45.873217 C 51.047846,42.660673 47.981328,45.860655 47.480448,45.053594 C 53.100043,39.239299 54.866471,40.946061 58.658402,39.898766 C 62.745523,37.472872 55.149099,40.847141 57.086674,38.973943 C 64.157095,37.169831 62.095478,34.86955 71.317015,33.954148 C 72.290513,34.506843 69.060699,34.808314 68.250497,35.525876 C 74.138589,32.643066 86.886702,33.300962 95.170855,37.124297 C 104.77551,41.616518 115.57348,54.889064 116.00057,67.37653 L 116.48574,67.506853 C 116.2408,72.471692 117.2457,78.21376 115.50126,83.48635 L 116.68044,80.988229"
         id="path2177"
         style="fill:#100005;fill-opacity:1;filter:url(#filter3230);opacity:0.7388172" />
      <path
         style="fill:#d70751"
         id="path2561"
         d="M 82.416862,49.289614 C 82.598862,46.598614 81.887862,47.450614 81.648862,48.475614 C 81.926862,48.621614 82.147862,50.373614 82.416862,49.289614"
         i:knockout="Off" />
      <path
         style="fill:#d70751"
         id="path2563"
         d="M 65.768862,12.510614 C 66.566862,12.652614 67.492862,12.762614 67.359862,12.953614 C 68.235862,12.760614 68.432862,12.586614 65.768862,12.510614"
         i:knockout="Off" />
      <path
         style="fill:#d70751"
         id="path2565"
         d="M 67.360862,12.953614 L 66.799862,13.070614 L 67.322862,13.022614 L 67.360862,12.953614"
         i:knockout="Off" />
      <path
         style="fill:#d70751;stroke:#000000;stroke-opacity:1;stroke-width:0.6;stroke-miterlimit:4;stroke-dasharray:none"
         id="path2567"
         d="M 114.68044,76.988229 C 114.82176,80.781731 113.57348,82.625096 112.44454,85.884744 L 110.41432,86.894356 C 108.75467,90.11946 110.57919,88.941842 109.39058,91.50591 C 106.79668,93.809331 101.53037,98.711364 99.844025,99.16043 C 98.611455,99.133737 100.67778,97.706463 100.94784,97.149057 C 97.479365,99.529417 98.163955,100.72274 92.858395,102.17199 L 92.704515,101.82499 C 79.625102,107.98 61.455235,95.78459 61.693899,79.147196 C 61.555725,80.202342 61.296649,79.938556 61.00774,80.362499 C 60.332572,71.803568 64.961397,63.206953 72.768223,59.691369 C 80.403901,55.913569 89.355375,57.461745 94.821095,62.563188 C 91.818945,58.628372 85.838217,54.456462 78.755235,54.842721 C 71.813567,54.955773 65.317823,59.366346 63.151005,64.156898 C 59.596168,66.394373 59.181646,72.786486 57.63347,73.957824 C 55.54673,89.282566 61.554155,95.900782 71.717787,103.69033 C 73.313067,104.76746 72.166852,104.93233 72.380394,105.75195 C 69.004554,104.17237 65.914483,101.78573 63.370827,98.86367 C 64.721163,100.83736 66.1767,102.75609 68.059319,104.26344 C 64.873468,103.18788 60.619911,96.549257 59.381056,96.27919 C 64.868758,106.10524 81.642755,113.51167 90.430925,109.83593 C 86.364225,109.98667 81.199971,109.91915 76.633952,108.23123 C 74.710508,107.2436 72.105616,105.20083 72.571953,104.81928 C 84.561679,109.2958 96.943945,108.20768 107.3164,99.893693 C 109.95741,97.836786 112.84022,94.340045 113.67397,94.29294 C 112.41942,96.18027 113.88908,95.200491 112.92501,96.866429 C 115.55031,92.625432 111.78036,95.139255 115.64138,89.543212 L 117.06708,91.50591 C 116.53323,87.982475 121.43997,83.708505 120.94066,78.140725 C 122.06647,76.438674 122.19522,79.97467 121.0019,83.890643 C 122.65842,79.546016 121.43997,78.847296 121.86392,75.261055 C 122.32083,76.466937 122.92848,77.746615 123.2378,79.020014 C 122.15754,74.819841 124.34163,71.949592 124.8849,69.507997 C 124.34791,69.272473 123.21896,71.363923 122.95832,66.405365 C 122.99757,64.251108 123.55969,65.276421 123.7748,64.745708 C 123.354,64.502333 122.24389,62.850527 121.5703,59.683518 C 122.05548,58.937693 122.87667,61.613242 123.54242,61.721583 C 123.11376,59.20462 122.37736,57.284317 122.34596,55.351453 C 120.39896,51.284743 121.65666,55.894727 120.08022,53.605437 C 118.00761,47.145807 121.79797,52.105936 122.05548,49.172881 C 125.19265,53.718488 126.98106,60.768497 127.80539,63.687421 C 127.17733,60.127873 126.16458,56.678236 124.92572,53.34165 C 125.88195,53.745181 123.38854,46.020004 126.16772,51.135578 C 123.20169,40.230831 113.48398,30.040506 104.54193,25.260945 C 105.63319,26.261136 107.01336,27.517262 106.52033,27.715102 C 102.07051,25.069386 102.85244,24.860555 102.21496,23.742603 C 98.595755,22.268224 98.353945,23.863505 95.959455,23.745743 C 89.129265,20.121818 87.813475,20.506507 81.528134,18.239199 L 81.813903,19.576974 C 77.290278,18.069622 76.542882,20.145371 71.654981,19.580114 C 71.358221,19.349301 73.221998,18.738509 74.757613,18.517117 C 70.383153,19.094935 70.587273,17.65353 66.307023,18.675703 C 67.360599,17.936159 68.478551,17.444699 69.602784,16.816636 C 66.036956,17.033318 61.086247,18.892385 62.614011,17.199755 C 56.796576,19.796796 46.463366,23.441132 40.664773,28.878589 L 40.482635,27.660147 C 37.825928,30.849138 28.896439,37.184725 28.185158,41.318951 L 27.473876,41.483817 C 26.093707,43.824923 25.197147,46.47692 24.101177,48.883972 C 22.293925,51.966192 21.45075,50.071011 21.708256,50.55462 C 18.151848,57.764785 16.38228,63.822455 14.857657,68.793575 C 15.944206,70.418688 14.88435,78.578799 15.294161,85.109086 C 13.510461,117.36641 37.932698,148.68321 64.628524,155.91221 C 68.541357,157.31436 74.358793,157.26412 79.307931,157.40229 C 73.470083,155.73164 72.716407,156.51829 67.026155,154.53519 C 62.923332,152.60075 62.025202,150.39468 59.117269,147.87144 L 60.268195,149.90479 C 54.568522,147.88714 56.953592,147.40824 52.315345,145.94014 L 53.544779,144.33701 C 51.696703,144.1957 48.650596,141.22496 47.818413,139.57472 L 45.796049,139.6548 C 43.368585,136.66208 42.073205,134.49997 42.168984,132.82461 L 41.515799,133.98967 C 40.776254,132.71941 32.58003,122.75048 36.832018,125.07117 C 36.042228,124.35204 34.991792,123.89827 33.853428,121.82723 L 34.718585,120.8396 C 32.675809,118.20644 30.953346,114.83217 31.085239,113.70794 C 32.176499,115.18075 32.933315,115.4571 33.683851,115.70989 C 28.516461,102.89112 28.225982,115.00489 24.314718,102.66188 L 25.140621,102.59593 C 24.507848,101.63657 24.120019,100.60183 23.611288,99.582802 L 23.972424,95.994991 C 20.25429,91.699039 22.932979,77.710502 23.471544,70.04028 C 23.840531,66.921946 26.575746,63.601062 28.653065,58.392848 L 27.387517,58.176167 C 29.808701,53.955582 41.208048,41.220031 46.490059,41.873217 C 49.047846,38.660673 45.981328,41.860655 45.480448,41.053594 C 51.100043,35.239299 52.866471,36.946061 56.658402,35.898766 C 60.745523,33.472872 53.149099,36.847141 55.086674,34.973943 C 62.157095,33.169831 60.095478,30.86955 69.317015,29.954148 C 70.290513,30.506843 67.060699,30.808314 66.250497,31.525876 C 72.138589,28.643066 84.886702,29.300962 93.170855,33.124297 C 102.77551,37.616518 113.57348,50.889064 114.00057,63.37653 L 114.48574,63.506853 C 114.2408,68.471692 115.2457,74.21376 113.50126,79.48635 L 114.68044,76.988229"
         i:knockout="Off" />
      <path
         style="fill:#d70751"
         id="path2569"
         d="M 55.125862,61.042614 L 54.914862,62.089614 C 55.897862,63.424614 56.677862,64.870614 57.930862,65.910614 C 57.028862,64.151614 56.359862,63.424614 55.125862,61.042614"
         i:knockout="Off" />
      <path
         style="fill:#d70751"
         id="path2571"
         d="M 57.446862,60.952614 C 56.926862,60.376614 56.620862,59.684614 56.274862,58.996614 C 56.604862,60.207614 57.280862,61.248614 57.907862,62.308614 L 57.446862,60.952614"
         i:knockout="Off" />
      <path
         style="fill:#d70751"
         id="path2573"
         d="M 98.530862,52.022614 L 98.311862,52.574614 C 97.909862,55.432614 97.038862,58.260614 95.706862,60.883614 C 97.178862,58.116614 98.127862,55.089614 98.530862,52.022614"
         i:knockout="Off" />
      <path
         style="fill:#d70751"
         id="path2575"
         d="M 66.065862,11.793614 C 67.074862,11.424614 68.547862,11.590614 69.621862,11.347614 C 68.223862,11.464614 66.832862,11.534614 65.459862,11.709614 L 66.065862,11.793614"
         i:knockout="Off" />
      <path
         style="fill:#d70751"
         id="path2577"
         d="M 30.594862,30.655614 C 30.827862,32.809614 28.974862,33.646614 31.004862,32.224614 C 32.094862,29.770614 30.580862,31.547614 30.594862,30.655614"
         i:knockout="Off" />
      <path
         style="fill:#d70751"
         id="path2579"
         d="M 28.206862,40.629614 C 28.675862,39.192614 28.759862,38.330614 28.938862,37.497614 C 27.645862,39.151614 28.342862,39.504614 28.206862,40.629614"
         i:knockout="Off" />
      <path
         id="path2581"
         d="M 95.650328,136.85361 C 95.605328,136.90061 95.605328,144.35961 95.512328,146.30661 C 95.420328,147.88061 95.280328,151.26361 91.944328,151.26361 C 88.515328,151.26361 87.681328,147.32461 87.403328,145.61161 C 87.079328,143.71161 87.079328,142.13461 87.079328,141.44161 C 87.079328,139.21661 87.218328,133.00561 92.454328,133.00561 C 94.030328,133.00561 94.910328,133.47061 95.605328,133.83961 L 95.650328,136.85361 z M 82.213328,142.32261 C 82.213328,155.38861 89.164328,155.38861 90.183328,155.38861 C 93.056328,155.38861 94.910328,153.81261 95.697328,151.07961 L 95.790328,155.20261 C 96.671328,155.15561 97.551328,155.06361 98.987328,155.06361 C 99.497328,155.06361 99.913328,155.06361 100.28533,155.11061 C 100.65633,155.11061 101.02633,155.15561 101.44333,155.20261 C 100.70233,153.72061 100.14633,150.38461 100.14633,143.15361 C 100.14633,136.11061 100.14633,124.20261 100.74833,120.58761 C 99.081328,121.37661 97.643328,121.88661 94.492328,122.16361 C 95.743328,123.50761 95.743328,124.20261 95.743328,130.31761 C 94.864328,130.04061 93.751328,129.71561 91.851328,129.71561 C 83.557328,129.71661 82.213328,136.94561 82.213328,142.32261"
         i:knockout="Off" />
      <path
         id="path2583"
         d="M 107.34333,139.95661 C 107.39033,136.11061 108.17833,132.68161 111.46733,132.68161 C 115.08233,132.68161 115.35833,136.66561 115.26633,139.95661 L 107.34333,139.95661 z M 119.85333,140.42161 C 119.85333,134.99961 118.78833,129.66961 111.93033,129.66961 C 102.47833,129.66961 102.47833,140.14461 102.47833,142.36661 C 102.47833,151.77261 106.69433,155.47961 113.78433,155.47961 C 116.93333,155.47961 118.46433,155.01861 119.29833,154.78461 C 119.25233,153.11661 119.48333,152.05061 119.76333,150.61461 C 118.78833,151.21861 117.53733,152.00561 114.75733,152.00561 C 107.52833,152.00561 107.43533,145.42361 107.43533,143.15361 L 119.76333,143.15361 L 119.85333,140.42161"
         i:knockout="Off" />
      <path
         id="path2585"
         d="M 134.92833,142.41361 C 134.92833,146.72261 134.14133,152.51561 128.76633,152.51561 C 128.02433,152.51561 127.09833,152.37461 126.49633,152.23661 C 126.40333,150.56861 126.40333,147.69561 126.40333,144.35961 C 126.40333,140.37361 126.81933,138.29161 127.14533,137.26961 C 128.11733,133.98061 130.29533,133.93561 130.71133,133.93561 C 134.23333,133.93561 134.92833,138.80061 134.92833,142.41361 z M 121.63033,147.46461 C 121.63033,150.89461 121.63033,152.83961 121.07433,154.32161 C 122.97433,155.06361 125.33633,155.47961 128.16433,155.47961 C 129.97133,155.47961 135.20733,155.47961 138.03333,149.68861 C 139.37733,147.00061 139.84033,143.38561 139.84033,140.65161 C 139.84033,138.98361 139.65433,135.32361 138.31133,133.00561 C 137.01533,130.82961 134.92933,129.71661 132.70633,129.71661 C 128.25733,129.71661 126.96033,133.42361 126.26633,135.32361 C 126.26633,132.96061 126.31133,124.71261 126.68133,120.49561 C 123.67033,121.88661 121.81533,122.11661 119.82433,122.30261 C 121.63133,123.04261 121.63133,126.10361 121.63133,136.06661 L 121.63133,147.46461"
         i:knockout="Off" />
      <path
         id="path2587"
         d="M 148.74833,155.20261 C 147.82033,155.06361 147.17033,154.97061 145.82633,154.97061 C 144.34633,154.97061 143.32433,155.06461 142.26033,155.20261 C 142.72333,154.32161 142.90833,153.90361 143.04733,150.89361 C 143.23333,146.76861 143.27933,135.73961 142.95533,133.42261 C 142.72333,131.66061 142.30733,131.38361 141.65833,130.92061 C 145.45733,130.54961 146.52333,130.27261 148.28333,129.43861 C 147.91433,131.47561 147.86533,132.49761 147.86533,135.60061 C 147.77433,151.58961 147.72733,153.30261 148.74833,155.20261"
         i:knockout="Off" />
      <path
         id="path2589"
         d="M 163.58633,142.08761 C 163.49433,145.00761 163.44733,147.04661 162.65833,148.66761 C 161.68533,150.75361 160.06433,151.35561 158.85933,151.35561 C 156.07633,151.35561 155.47633,149.03961 155.47633,146.76961 C 155.47633,142.41461 159.36933,142.08761 161.12833,142.08761 L 163.58633,142.08761 z M 150.84233,147.78861 C 150.84233,150.70861 151.72333,153.62661 154.31933,154.87861 C 155.47733,155.38861 156.63533,155.38861 157.00733,155.38861 C 161.27133,155.38861 162.70633,152.23661 163.58733,150.29061 C 163.54033,152.32961 163.58733,153.57961 163.72633,155.20261 C 164.56033,155.15561 165.39433,155.06361 166.78533,155.06361 C 167.57233,155.06361 168.31433,155.15561 169.10133,155.20261 C 168.59133,154.41561 168.31433,153.95061 168.17333,152.14361 C 168.08133,150.38361 168.08133,148.62261 168.08133,146.16661 L 168.12833,136.71361 C 168.12833,133.19061 167.20033,129.71561 160.24933,129.71561 C 155.66333,129.71561 152.97633,131.10661 151.63233,131.80161 C 152.18933,132.82161 152.65233,133.69961 153.06833,135.69461 C 154.87733,134.11861 157.24033,133.28461 159.64833,133.28461 C 163.49633,133.28461 163.49633,135.83361 163.49633,139.44661 C 162.61533,139.40161 161.87333,139.30961 160.62133,139.30961 C 154.73433,139.31061 150.84233,141.57761 150.84233,147.78861"
         i:knockout="Off" />
      <path
         id="path2591"
         d="M 190.27633,150.61561 C 190.32333,152.19161 190.32333,153.85961 190.97133,155.20361 C 189.95033,155.11161 189.34833,154.97161 187.45033,154.97161 C 186.33733,154.97161 185.73533,155.06561 184.85433,155.20361 C 185.03833,154.60161 185.13333,154.36961 185.22533,153.58061 C 185.36433,152.51661 185.45733,148.94761 185.45733,147.69561 L 185.45733,142.69161 C 185.45733,140.51361 185.45733,137.36161 185.31633,136.25061 C 185.22433,135.46361 184.99433,133.33261 182.30433,133.33261 C 179.66333,133.33261 178.78333,135.27761 178.45833,136.85361 C 178.08933,138.47461 178.08933,140.23661 178.08933,147.09361 C 178.13433,153.02561 178.13433,153.57961 178.59733,155.20261 C 177.81033,155.11061 176.83733,155.01861 175.44733,155.01861 C 174.33433,155.01861 173.59333,155.06361 172.66833,155.20261 C 172.99233,154.46061 173.17833,154.08961 173.27033,151.49561 C 173.36433,148.94661 173.54933,136.43461 173.12933,133.47061 C 172.89933,131.66161 172.43433,131.24561 171.92633,130.78261 C 175.68033,130.59661 176.88333,129.99361 178.04333,129.39361 L 178.04333,134.30361 C 178.59833,132.86561 179.75633,129.66861 184.39133,129.66861 C 190.18433,129.66861 190.22933,133.88561 190.27633,136.66461 L 190.27633,150.61561"
         i:knockout="Off" />
      <path
         style="fill:#d70751"
         id="path2593"
         d="M 149.13933,122.88061 L 145.30133,126.71661 L 141.46533,122.88061 L 145.30133,119.04461 L 149.13933,122.88061"
         i:knockout="Off" />
      <path
         i:knockout="Off"
         d="M 114.68044,76.988229 C 114.82176,80.781731 113.57348,82.625096 112.44454,85.884744 L 110.41432,86.894356 C 108.75467,90.11946 110.57919,88.941842 109.39058,91.50591 C 106.79668,93.809331 101.53037,98.711364 99.844025,99.16043 C 98.611455,99.133737 100.67778,97.706463 100.94784,97.149057 C 97.479365,99.529417 98.163955,100.72274 92.858395,102.17199 L 92.704515,101.82499 C 79.625102,107.98 61.455235,95.78459 61.693899,79.147196 C 61.555725,80.202342 61.296649,79.938556 61.00774,80.362499 C 60.332572,71.803568 64.961397,63.206953 72.768223,59.691369 C 80.403901,55.913569 89.355375,57.461745 94.821095,62.563188 C 91.818945,58.628372 85.838217,54.456462 78.755235,54.842721 C 71.813567,54.955773 65.317823,59.366346 63.151005,64.156898 C 59.596168,66.394373 59.181646,72.786486 57.63347,73.957824 C 55.54673,89.282566 61.554155,95.900782 71.717787,103.69033 C 73.313067,104.76746 72.166852,104.93233 72.380394,105.75195 C 69.004554,104.17237 65.914483,101.78573 63.370827,98.86367 C 64.721163,100.83736 66.1767,102.75609 68.059319,104.26344 C 64.873468,103.18788 60.619911,96.549257 59.381056,96.27919 C 64.868758,106.10524 81.642755,113.51167 90.430925,109.83593 C 86.364225,109.98667 81.199971,109.91915 76.633952,108.23123 C 74.710508,107.2436 72.105616,105.20083 72.571953,104.81928 C 84.561679,109.2958 96.943945,108.20768 107.3164,99.893693 C 109.95741,97.836786 112.84022,94.340045 113.67397,94.29294 C 112.41942,96.18027 113.88908,95.200491 112.92501,96.866429 C 115.55031,92.625432 111.78036,95.139255 115.64138,89.543212 L 117.06708,91.50591 C 116.53323,87.982475 121.43997,83.708505 120.94066,78.140725 C 122.06647,76.438674 122.19522,79.97467 121.0019,83.890643 C 122.65842,79.546016 121.43997,78.847296 121.86392,75.261055 C 122.32083,76.466937 122.92848,77.746615 123.2378,79.020014 C 122.15754,74.819841 124.34163,71.949592 124.8849,69.507997 C 124.34791,69.272473 123.21896,71.363923 122.95832,66.405365 C 122.99757,64.251108 123.55969,65.276421 123.7748,64.745708 C 123.354,64.502333 122.24389,62.850527 121.5703,59.683518 C 122.05548,58.937693 122.87667,61.613242 123.54242,61.721583 C 123.11376,59.20462 122.37736,57.284317 122.34596,55.351453 C 120.39896,51.284743 121.65666,55.894727 120.08022,53.605437 C 118.00761,47.145807 121.79797,52.105936 122.05548,49.172881 C 125.19265,53.718488 126.98106,60.768497 127.80539,63.687421 C 127.17733,60.127873 126.16458,56.678236 124.92572,53.34165 C 125.88195,53.745181 123.38854,46.020004 126.16772,51.135578 C 123.20169,40.230831 113.48398,30.040506 104.54193,25.260945 C 105.63319,26.261136 107.01336,27.517262 106.52033,27.715102 C 102.07051,25.069386 102.85244,24.860555 102.21496,23.742603 C 98.595755,22.268224 98.353945,23.863505 95.959455,23.745743 C 89.129265,20.121818 87.813475,20.506507 81.528134,18.239199 L 81.813903,19.576974 C 77.290278,18.069622 76.542882,20.145371 71.654981,19.580114 C 71.358221,19.349301 73.221998,18.738509 74.757613,18.517117 C 70.383153,19.094935 70.587273,17.65353 66.307023,18.675703 C 67.360599,17.936159 68.478551,17.444699 69.602784,16.816636 C 66.036956,17.033318 61.086247,18.892385 62.614011,17.199755 C 56.796576,19.796796 46.463366,23.441132 40.664773,28.878589 L 40.482635,27.660147 C 37.825928,30.849138 28.896439,37.184725 28.185158,41.318951 L 27.473876,41.483817 C 26.093707,43.824923 25.197147,46.47692 24.101177,48.883972 C 22.293925,51.966192 21.45075,50.071011 21.708256,50.55462 C 18.151848,57.764785 16.38228,63.822455 14.857657,68.793575 C 15.944206,70.418688 14.88435,78.578799 15.294161,85.109086 C 13.510461,117.36641 37.932698,148.68321 64.628524,155.91221 C 68.541357,157.31436 74.358793,157.26412 79.307931,157.40229 C 73.470083,155.73164 72.716407,156.51829 67.026155,154.53519 C 62.923332,152.60075 62.025202,150.39468 59.117269,147.87144 L 60.268195,149.90479 C 54.568522,147.88714 56.953592,147.40824 52.315345,145.94014 L 53.544779,144.33701 C 51.696703,144.1957 48.650596,141.22496 47.818413,139.57472 L 45.796049,139.6548 C 43.368585,136.66208 42.073205,134.49997 42.168984,132.82461 L 41.515799,133.98967 C 40.776254,132.71941 32.58003,122.75048 36.832018,125.07117 C 36.042228,124.35204 34.991792,123.89827 33.853428,121.82723 L 34.718585,120.8396 C 32.675809,118.20644 30.953346,114.83217 31.085239,113.70794 C 32.176499,115.18075 32.933315,115.4571 33.683851,115.70989 C 28.516461,102.89112 28.225982,115.00489 24.314718,102.66188 L 25.140621,102.59593 C 24.507848,101.63657 24.120019,100.60183 23.611288,99.582802 L 23.972424,95.994991 C 20.25429,91.699039 22.932979,77.710502 23.471544,70.04028 C 23.840531,66.921946 26.575746,63.601062 28.653065,58.392848 L 27.387517,58.176167 C 29.808701,53.955582 41.208048,41.220031 46.490059,41.873217 C 49.047846,38.660673 45.981328,41.860655 45.480448,41.053594 C 51.100043,35.239299 52.866471,36.946061 56.658402,35.898766 C 60.745523,33.472872 53.149099,36.847141 55.086674,34.973943 C 62.157095,33.169831 60.095478,30.86955 69.317015,29.954148 C 70.290513,30.506843 67.060699,30.808314 66.250497,31.525876 C 72.138589,28.643066 84.886702,29.300962 93.170855,33.124297 C 102.77551,37.616518 113.57348,50.889064 114.00057,63.37653 L 114.48574,63.506853 C 114.2408,68.471692 115.2457,74.21376 113.50126,79.48635 L 114.68044,76.988229"
         id="path3158"
         style="fill:url(#linearGradient3170);fill-opacity:1.0" />
    </g>
  </g>
</svg>
