<?xml version="1.0" encoding="UTF-8" standalone="no"?>
<!-- Created with Inkscape (http://www.inkscape.org/) -->
<svg
   xmlns:dc="http://purl.org/dc/elements/1.1/"
   xmlns:cc="http://web.resource.org/cc/"
   xmlns:rdf="http://www.w3.org/1999/02/22-rdf-syntax-ns#"
   xmlns:svg="http://www.w3.org/2000/svg"
   xmlns="http://www.w3.org/2000/svg"
   xmlns:xlink="http://www.w3.org/1999/xlink"
   xmlns:sodipodi="http://sodipodi.sourceforge.net/DTD/sodipodi-0.dtd"
   xmlns:inkscape="http://www.inkscape.org/namespaces/inkscape"
   width="100"
   height="100"
   id="svg3025"
   sodipodi:version="0.32"
   inkscape:version="0.44"
   version="1.0"
   sodipodi:docbase="/home/ryx/Documents/scripts/python/screenlets/control/themes/heart"
   sodipodi:docname="control-bg.svg">
  <defs
     id="defs3027">
    <linearGradient
       id="linearGradient2802">
      <stop
         style="stop-color:black;stop-opacity:1;"
         offset="0"
         id="stop2804" />
      <stop
         style="stop-color:black;stop-opacity:0;"
         offset="1"
         id="stop2806" />
    </linearGradient>
    <linearGradient
       id="linearGradient3060">
      <stop
         style="stop-color:black;stop-opacity:0.36725664;"
         offset="0"
         id="stop3062" />
      <stop
         style="stop-color:black;stop-opacity:0;"
         offset="1"
         id="stop3064" />
    </linearGradient>
    <linearGradient
       id="linearGradient3047">
      <stop
         style="stop-color:#ffadfe;stop-opacity:0.7079646;"
         offset="0"
         id="stop3049" />
      <stop
         style="stop-color:#ff3ffd;stop-opacity:0.74336284;"
         offset="1"
         id="stop3051" />
    </linearGradient>
    <linearGradient
       id="linearGradient3039">
      <stop
         style="stop-color:white;stop-opacity:0.84955752;"
         offset="0"
         id="stop3041" />
      <stop
         style="stop-color:white;stop-opacity:0;"
         offset="1"
         id="stop3043" />
    </linearGradient>
    <linearGradient
       inkscape:collect="always"
       xlink:href="#linearGradient3039"
       id="linearGradient3045"
       x1="50.048698"
       y1="26.315668"
       x2="50.048698"
       y2="56.626064"
       gradientUnits="userSpaceOnUse"
       gradientTransform="matrix(1.019089,0,0,1.035956,-2.832548,-4.036014)" />
    <linearGradient
       inkscape:collect="always"
       xlink:href="#linearGradient3047"
       id="linearGradient3053"
       x1="49.938641"
       y1="18.868622"
       x2="49.938641"
       y2="80.919876"
       gradientUnits="userSpaceOnUse" />
    <linearGradient
       inkscape:collect="always"
       xlink:href="#linearGradient3060"
       id="linearGradient3066"
       x1="50.178387"
       y1="80.462364"
       x2="50.581326"
       y2="62.50639"
       gradientUnits="userSpaceOnUse"
       gradientTransform="translate(-1.7543,-2)" />
    <linearGradient
       inkscape:collect="always"
       xlink:href="#linearGradient3047"
       id="linearGradient3070"
       gradientUnits="userSpaceOnUse"
       x1="49.938641"
       y1="18.868622"
       x2="49.938641"
       y2="80.919876"
       gradientTransform="translate(-1.7543,-2)" />
    <linearGradient
       inkscape:collect="always"
       xlink:href="#linearGradient3060"
       id="linearGradient3083"
       x1="49.053978"
       y1="78.315651"
       x2="49.189114"
       y2="54.378147"
       gradientUnits="userSpaceOnUse" />
    <linearGradient
       inkscape:collect="always"
       xlink:href="#linearGradient3039"
       id="linearGradient3094"
       gradientUnits="userSpaceOnUse"
       gradientTransform="matrix(0.962069,0,0,0.954303,1.661083e-2,0.862044)"
       x1="49.938641"
       y1="18.868622"
       x2="49.927395"
       y2="51.125" />
    <linearGradient
       inkscape:collect="always"
       xlink:href="#linearGradient3039"
       id="linearGradient2787"
       x1="48.790741"
       y1="19.110142"
       x2="48.790741"
       y2="58.00745"
       gradientUnits="userSpaceOnUse"
       gradientTransform="matrix(0.913319,0,0,1,4.406201,0)" />
    <linearGradient
       inkscape:collect="always"
       xlink:href="#linearGradient3060"
       id="linearGradient2810"
       x1="48.873619"
       y1="79.9375"
       x2="48.31181"
       y2="53.1875"
       gradientUnits="userSpaceOnUse"
       gradientTransform="matrix(0.862986,0,0,0.94489,6.984474,3.422582)" />
    <linearGradient
       inkscape:collect="always"
       xlink:href="#linearGradient3047"
       id="linearGradient2818"
       x1="48.832424"
       y1="17.986219"
       x2="48.832424"
       y2="67.148186"
       gradientUnits="userSpaceOnUse"
       gradientTransform="matrix(0.913319,0,0,1,4.406201,0)" />
  </defs>
  <sodipodi:namedview
     id="base"
     pagecolor="#ffffff"
     bordercolor="#666666"
     borderopacity="1.0"
     inkscape:pageopacity="0.0"
     inkscape:pageshadow="2"
     inkscape:zoom="4.07"
     inkscape:cx="50"
     inkscape:cy="39.92629"
     inkscape:current-layer="layer1"
     showgrid="true"
     inkscape:document-units="px"
     inkscape:grid-bbox="true"
     width="100px"
     height="100px"
     inkscape:window-width="989"
     inkscape:window-height="624"
     inkscape:window-x="122"
     inkscape:window-y="141" />
  <metadata
     id="metadata3030">
    <rdf:RDF>
      <cc:Work
         rdf:about="">
        <dc:format>image/svg+xml</dc:format>
        <dc:type
           rdf:resource="http://purl.org/dc/dcmitype/StillImage" />
      </cc:Work>
    </rdf:RDF>
  </metadata>
  <g
     id="layer1"
     inkscape:label="Layer 1"
     inkscape:groupmode="layer">
    <path
       style="fill:black;fill-opacity:0.23549488;stroke:none;stroke-width:2;stroke-linejoin:miter;stroke-miterlimit:4;stroke-dashoffset:0;stroke-opacity:0.33447098"
       d="M 27.81393,21.9871 C 18.551345,21.913569 10.332802,26.440362 10.318161,37.95585 C 10.279181,68.613384 42.822374,76.436911 52.559169,83.76835 L 52.559169,83.9246 C 52.586136,83.903649 52.617447,83.883057 52.644793,83.8621 C 52.677902,83.887403 52.726399,83.899306 52.758957,83.9246 L 52.758957,83.76835 C 62.50093,76.437824 95.038945,68.608959 94.999965,37.95585 C 94.985325,26.440362 86.766782,21.913569 77.504196,21.9871 C 67.352643,22.067688 55.91676,27.671437 52.644793,35.70585 C 49.366339,27.677858 37.960426,22.067648 27.81393,21.9871 z "
       id="path2820" />
    <path
       style="fill:url(#linearGradient2818);fill-opacity:1;stroke:none;stroke-width:2;stroke-linejoin:miter;stroke-miterlimit:4;stroke-dashoffset:0;stroke-opacity:0.33447098"
       d="M 24.160654,17.9871 C 14.898068,17.913569 6.6795253,22.440362 6.6648848,33.95585 C 6.6259043,64.613384 39.169097,72.436911 48.905893,79.76835 L 48.905893,79.9246 C 48.93286,79.903649 48.964171,79.883057 48.991516,79.8621 C 49.024626,79.887403 49.073122,79.899306 49.105681,79.9246 L 49.105681,79.76835 C 58.847654,72.437824 91.385669,64.608959 91.346689,33.95585 C 91.332048,22.440362 83.113505,17.913569 73.85092,17.9871 C 63.699367,18.067688 52.263484,23.671437 48.991516,31.70585 C 45.713062,23.677858 34.30715,18.067648 24.160654,17.9871 z "
       id="path2789" />
    <path
       style="fill:url(#linearGradient2787);fill-opacity:1;stroke:none;stroke-width:2;stroke-linejoin:miter;stroke-miterlimit:4;stroke-dashoffset:0;stroke-opacity:0.33447098"
       d="M 73.346434,19.120074 C 62.330257,19.415957 49.90163,26.295297 49.059095,35.403979 C 55.452482,33.899126 62.49008,33.052513 69.857344,33.052513 C 77.120389,33.052513 84.035321,33.88043 90.355748,35.345192 C 90.371098,34.824539 90.360798,34.292596 90.355748,33.757953 C 90.27481,22.977885 82.292369,18.879796 73.346434,19.120074 z M 24.281103,19.472794 C 15.434798,19.403632 7.5856135,23.661472 7.5716312,34.492785 C 7.5584156,44.729235 11.482638,52.243239 16.948561,58.007449 C 20.061162,47.831064 32.307975,39.402236 48.813769,35.462765 C 47.756856,26.299818 35.245686,19.558517 24.281103,19.472794 z "
       id="path1890" />
    <path
       style="opacity:0.65410958;fill:url(#linearGradient2810);fill-opacity:1;stroke:none;stroke-width:2;stroke-linejoin:miter;stroke-miterlimit:4;stroke-dashoffset:0;stroke-opacity:0.33447098"
       d="M 84.086858,53.678901 C 71.042267,63.937599 53.272089,70.300751 33.683096,70.421164 C 39.939698,73.865407 45.807623,76.382192 49.028061,78.80706 L 49.028061,78.954699 C 49.053543,78.934904 49.083128,78.915446 49.108966,78.895644 C 49.140252,78.919553 49.186075,78.930799 49.216839,78.954699 L 49.216839,78.80706 C 56.092873,73.633065 74.980931,68.171029 84.086858,53.678901 z "
       id="path2797" />
  </g>
</svg>
