<?xml version="1.0" encoding="UTF-8" standalone="no"?>
<!-- Created with Inkscape (http://www.inkscape.org/) -->
<svg
   xmlns:dc="http://purl.org/dc/elements/1.1/"
   xmlns:cc="http://web.resource.org/cc/"
   xmlns:rdf="http://www.w3.org/1999/02/22-rdf-syntax-ns#"
   xmlns:svg="http://www.w3.org/2000/svg"
   xmlns="http://www.w3.org/2000/svg"
   xmlns:xlink="http://www.w3.org/1999/xlink"
   xmlns:sodipodi="http://sodipodi.sourceforge.net/DTD/sodipodi-0.dtd"
   xmlns:inkscape="http://www.inkscape.org/namespaces/inkscape"
   width="200"
   height="88"
   id="svg2"
   sodipodi:version="0.32"
   inkscape:version="0.45"
   version="1.0"
   sodipodi:docbase="/home/cosimo321/Desktop/graphfreak"
   sodipodi:docname="example-bg.svg"
   inkscape:output_extension="org.inkscape.output.svg.inkscape"
   sodipodi:modified="true">
  <defs
     id="defs4">
    <linearGradient
       inkscape:collect="always"
       id="linearGradient4704">
      <stop
         style="stop-color:#ffffff;stop-opacity:1;"
         offset="0"
         id="stop4706" />
      <stop
         style="stop-color:#ffffff;stop-opacity:0;"
         offset="1"
         id="stop4708" />
    </linearGradient>
    <radialGradient
       inkscape:collect="always"
       xlink:href="#linearGradient4704"
       id="radialGradient4710"
       cx="79.375244"
       cy="73.701958"
       fx="79.375244"
       fy="73.701958"
       r="25.089266"
       gradientTransform="matrix(0.3256063,7.6952728e-3,-1.8061265e-2,0.7642173,-2.0980842,-30.674874)"
       gradientUnits="userSpaceOnUse" />
    <linearGradient
       inkscape:collect="always"
       id="linearGradient4712">
      <stop
         style="stop-color:#ffffff;stop-opacity:1;"
         offset="0"
         id="stop4714" />
      <stop
         style="stop-color:#ffffff;stop-opacity:0;"
         offset="1"
         id="stop4716" />
    </linearGradient>
    <radialGradient
       inkscape:collect="always"
       xlink:href="#linearGradient4712"
       id="radialGradient4718"
       cx="166.65843"
       cy="163.51553"
       fx="166.65843"
       fy="163.51553"
       r="30.862188"
       gradientTransform="matrix(0.5018211,-6.2202835e-3,1.4293101e-2,0.9801578,-32.818394,-99.093833)"
       gradientUnits="userSpaceOnUse" />
    <linearGradient
       inkscape:collect="always"
       id="linearGradient4690">
      <stop
         style="stop-color:#ffffff;stop-opacity:1;"
         offset="0"
         id="stop4692" />
      <stop
         style="stop-color:#ffffff;stop-opacity:0;"
         offset="1"
         id="stop4694" />
    </linearGradient>
    <linearGradient
       inkscape:collect="always"
       xlink:href="#linearGradient4690"
       id="linearGradient4696"
       x1="188.9375"
       y1="9.625"
       x2="148.58968"
       y2="214.90286"
       gradientUnits="userSpaceOnUse"
       gradientTransform="matrix(0.3256972,0,0,0.3256972,-1.4736517,-4.46561e-2)" />
    <linearGradient
       id="linearGradient6423">
      <stop
         style="stop-color:#ffffff;stop-opacity:1;"
         offset="0"
         id="stop6425" />
      <stop
         style="stop-color:#ffffff;stop-opacity:0;"
         offset="1"
         id="stop6427" />
    </linearGradient>
    <linearGradient
       inkscape:collect="always"
       xlink:href="#linearGradient6423"
       id="linearGradient2507"
       gradientUnits="userSpaceOnUse"
       gradientTransform="matrix(-0.2384449,0,0,-0.3545847,103.92125,89.602871)"
       x1="98.380074"
       y1="13.493117"
       x2="182.49374"
       y2="234.84828" />
    <linearGradient
       id="linearGradient16789">
      <stop
         style="stop-color:#000000;stop-opacity:1;"
         offset="0"
         id="stop16791" />
      <stop
         id="stop16801"
         offset="0.5"
         style="stop-color:#000000;stop-opacity:1;" />
      <stop
         id="stop16797"
         offset="0.55555558"
         style="stop-color:#c80000;stop-opacity:1;" />
      <stop
         style="stop-color:#c80000;stop-opacity:1;"
         offset="1"
         id="stop16793" />
    </linearGradient>
    <linearGradient
       inkscape:collect="always"
       xlink:href="#linearGradient16789"
       id="linearGradient16795"
       x1="262.0625"
       y1="123.83102"
       x2="567.40625"
       y2="123.83102"
       gradientUnits="userSpaceOnUse"
       gradientTransform="matrix(0.3256972,0,0,-0.3256972,2.9730254,84.320921)" />
    <filter
       inkscape:collect="always"
       x="-0.1437856"
       width="1.2875712"
       y="-0.016747089"
       height="1.0334942"
       id="filter10611">
      <feGaussianBlur
         inkscape:collect="always"
         stdDeviation="1.5777183"
         id="feGaussianBlur10613" />
    </filter>
    <linearGradient
       id="linearGradient6204">
      <stop
         id="stop6206"
         offset="0"
         style="stop-color:#464646;stop-opacity:1;" />
      <stop
         style="stop-color:#464646;stop-opacity:1;"
         offset="0.34567901"
         id="stop6214" />
      <stop
         id="stop6216"
         offset="0.44444445"
         style="stop-color:#242424;stop-opacity:1;" />
      <stop
         id="stop6208"
         offset="1"
         style="stop-color:#242424;stop-opacity:1;" />
    </linearGradient>
    <filter
       inkscape:collect="always"
       id="filter4526">
      <feGaussianBlur
         inkscape:collect="always"
         stdDeviation="5.1445312"
         id="feGaussianBlur4528" />
    </filter>
    <linearGradient
       id="linearGradient6434">
      <stop
         style="stop-color:#ffffff;stop-opacity:1;"
         offset="0"
         id="stop6436" />
      <stop
         id="stop8227"
         offset="0.25"
         style="stop-color:#ffbd7c;stop-opacity:1;" />
      <stop
         id="stop8223"
         offset="0.5"
         style="stop-color:#fa0000;stop-opacity:1;" />
      <stop
         style="stop-color:#c80000;stop-opacity:1;"
         offset="1"
         id="stop6438" />
    </linearGradient>
    <radialGradient
       inkscape:collect="always"
       xlink:href="#linearGradient6434"
       id="radialGradient3264"
       gradientUnits="userSpaceOnUse"
       gradientTransform="matrix(1.8308992,8.9302682e-2,-8.7589893e-2,1.7957949,-74.135296,-177.87312)"
       cx="103.09141"
       cy="155.05023"
       fx="103.09141"
       fy="155.05023"
       r="99.226646" />
    <linearGradient
       id="linearGradient19510">
      <stop
         style="stop-color:#b30000;stop-opacity:1;"
         offset="0"
         id="stop19512" />
      <stop
         style="stop-color:#000000;stop-opacity:0;"
         offset="1"
         id="stop19514" />
    </linearGradient>
    <linearGradient
       inkscape:collect="always"
       xlink:href="#linearGradient19510"
       id="linearGradient6212"
       gradientUnits="userSpaceOnUse"
       x1="128.39073"
       y1="205.08287"
       x2="128.39073"
       y2="254.00908"
       gradientTransform="translate(0,-20)" />
    <filter
       inkscape:collect="always"
       x="-0.089900658"
       width="1.1798013"
       y="-0.3813248"
       height="1.7626497"
       id="filter3232">
      <feGaussianBlur
         inkscape:collect="always"
         stdDeviation="9.3283887"
         id="feGaussianBlur3234" />
    </filter>
    <filter
       inkscape:collect="always"
       id="filter3190">
      <feGaussianBlur
         inkscape:collect="always"
         stdDeviation="0.94044196"
         id="feGaussianBlur3192" />
    </filter>
  </defs>
  <sodipodi:namedview
     id="base"
     pagecolor="#ffffff"
     bordercolor="#666666"
     borderopacity="1.0"
     inkscape:pageopacity="0.0"
     inkscape:pageshadow="2"
     inkscape:zoom="2.8991378"
     inkscape:cx="121.99616"
     inkscape:cy="97.6298"
     inkscape:document-units="px"
     inkscape:current-layer="layer1"
     width="200px"
     height="88px"
     inkscape:window-width="989"
     inkscape:window-height="626"
     inkscape:window-x="128"
     inkscape:window-y="119" />
  <metadata
     id="metadata7">
    <rdf:RDF>
      <cc:Work
         rdf:about="">
        <dc:format>image/svg+xml</dc:format>
        <dc:type
           rdf:resource="http://purl.org/dc/dcmitype/StillImage" />
      </cc:Work>
    </rdf:RDF>
  </metadata>
  <g
     inkscape:label="Ebene 1"
     inkscape:groupmode="layer"
     id="layer1">
    <path
       sodipodi:nodetypes="ccccc"
       id="path6210"
       d="M 232.15404,233.48763 L 232.15404,185.25669 L 24.62744,185.08287 L 26.05854,234.00908 L 232.15404,233.48763 z "
       style="opacity:0.5;fill:url(#linearGradient6212);fill-opacity:1;fill-rule:evenodd;stroke:none;stroke-width:3;stroke-linecap:butt;stroke-linejoin:miter;stroke-miterlimit:4;stroke-dasharray:none;stroke-opacity:1;filter:url(#filter3232)"
       transform="matrix(0.3411373,0,0,0.4330141,-3.0161058,-20.268578)" />
    <path
       sodipodi:nodetypes="ccccccc"
       id="path3262"
       d="M 181.28188,18.948615 L 224.14866,42.654942 L 224.14866,181.34242 L 181.28188,200.59462 L 29.69536,177.79655 L 31.05774,41.292562 L 181.28188,18.948615 z "
       style="fill:url(#radialGradient3264);fill-opacity:1;fill-rule:evenodd;stroke:none;stroke-width:3;stroke-linecap:butt;stroke-linejoin:miter;stroke-miterlimit:4;stroke-dasharray:none;stroke-opacity:1;filter:url(#filter3190)"
       transform="matrix(0.3528109,0,0,0.3488879,-3.996211,-2.7875233)" />
    <path
       id="path3555"
       d="M 188.65625,17.46875 L 123.5,22.65625 C 112.11163,30.799732 91.415825,45.077833 74.84375,79.03125 C 59.036577,111.41751 92.9375,129.96875 92.9375,129.96875 C 92.937502,129.96876 38.503105,115.86276 37.0625,66 C 36.622996,50.976861 40.84796,44.686164 45.75,35.625 L 28.625,42.875 L 29.1875,183.6875 L 61.5625,189.28125 C 77.84146,179.71792 119.25655,153.91426 130,132.875 C 148.26087,97.114134 105.3125,78.96875 105.3125,78.96875 C 105.3125,78.968752 169.46603,91.533967 171.03125,147.46875 C 171.79395,174.38583 159.63177,193.4228 152.21875,202.46875 L 187.5625,207.625 L 230.03125,186.40625 L 230.03125,42.53125 L 188.65625,17.46875 z M 93.28125,84.90625 C 99.783636,85.026765 107.42159,88.41063 113.625,94.5 C 123.55045,104.24299 126.09805,117.29105 119.3125,123.625 C 112.52695,129.95896 98.9567,127.18049 89.03125,117.4375 C 79.105801,107.69451 76.558199,94.646453 83.34375,88.3125 C 85.888332,85.937268 89.379818,84.833941 93.28125,84.90625 z "
       style="fill:#aa0000;fill-opacity:1;fill-rule:evenodd;stroke:none;stroke-width:1px;stroke-linecap:butt;stroke-linejoin:miter;stroke-opacity:1;filter:url(#filter4526)"
       sodipodi:nodetypes="ccsccccccsccccccccssssc"
       transform="matrix(0.3256972,0,0,0.3003022,-1.1287216,2.7438933)" />
    <path
       style="fill:#000000;fill-opacity:1;fill-rule:evenodd;stroke:#000000;stroke-width:0.32133722px;stroke-linecap:butt;stroke-linejoin:miter;stroke-opacity:1"
       d="M 60.317308,4.0023145 L 39.094765,6.9148971 C 29.457211,12.303432 25.27976,20.436987 23.246572,26.054726 C 19.346636,36.830339 29.140021,42.202711 29.140021,42.202711 C 29.140021,42.202711 11.409781,37.730886 10.940545,21.923618 C 10.79739,17.161037 12.173537,13.264698 13.770218,10.392164 L 6.2379957,11.422472 L 6.421216,59.232401 L 18.920631,61.005701 C 24.222974,57.973974 37.71259,49.793818 41.211928,43.124032 C 47.159811,31.787275 33.170774,26.034911 33.170774,26.034911 C 33.170774,26.034911 54.066716,30.018282 54.576523,47.750486 C 54.824957,56.283615 50.863517,62.318645 48.448958,65.186353 L 59.961047,66.82096 L 75.748177,60.094289 L 75.748177,11.947526 L 60.317308,4.0023145 z M 29.251978,27.917187 C 31.369922,27.955398 33.857748,29.028134 35.878304,30.958555 C 39.111197,34.047247 39.940999,38.183681 37.730831,40.191648 C 35.520642,42.199602 31.100585,41.318788 27.867681,38.230112 C 24.634799,35.141419 23.804996,31.004985 26.015165,28.997018 C 26.843977,28.244047 27.981219,27.894262 29.251978,27.917187 z "
       id="path3538"
       sodipodi:nodetypes="ccsccccccsccccccccssssc" />
    <path
       style="opacity:0.3;fill:#ffffff;fill-opacity:1;fill-rule:evenodd;stroke:none;stroke-width:1px;stroke-linecap:butt;stroke-linejoin:miter;stroke-opacity:1;filter:url(#filter10611)"
       d="M 181.91309,17.172788 L 170.04663,19.017358 C 170.04663,19.017358 179.78028,19.595168 179.89884,22.130641 L 182.24246,205.58979 L 183.4781,197.49245 L 184.64864,25.896281 C 184.64864,23.452371 191.99206,21.63064 191.99206,21.63064 L 181.91309,17.172788 z "
       id="path5671"
       sodipodi:nodetypes="cccccccc"
       transform="matrix(0.3545847,0,0,0.3545847,-4.3938162,-1.170818)" />
    <path
       style="font-size:40px;font-style:normal;font-weight:normal;fill:url(#linearGradient16795);fill-opacity:1;stroke:none;stroke-width:1px;stroke-linecap:butt;stroke-linejoin:miter;stroke-opacity:1;font-family:Neuropol"
       d="M 129.37407,38.422132 C 129.03905,38.422132 128.87536,38.590065 128.87536,38.920849 L 128.87536,44.040402 C 128.87536,44.28213 128.95593,44.434802 129.1298,44.498417 C 129.18493,44.528093 129.3834,44.549312 129.70995,44.549312 C 130.04497,44.549312 130.20867,44.375436 130.20867,44.040402 L 130.20867,38.920849 C 130.20867,38.683371 130.12215,38.536643 129.94404,38.473013 C 129.88891,38.443337 129.69639,38.422132 129.37407,38.422132 z M 91.186071,38.44249 C 89.27769,38.44249 88.326041,39.0608 88.326041,40.29488 L 88.326041,42.696909 C 88.326041,43.456018 88.683974,43.986119 89.404921,44.274492 C 89.824761,44.456854 90.516866,44.549312 91.471057,44.549312 L 96.437937,44.549312 C 96.853547,44.549312 97.058787,44.375436 97.058807,44.040402 C 97.058787,43.624798 96.895087,43.419551 96.560077,43.419537 L 91.511773,43.419537 C 90.286164,43.419551 89.669548,43.163395 89.669548,42.646014 L 89.669548,40.254177 C 89.669548,39.800412 90.210676,39.572252 91.287848,39.572252 L 96.509187,39.572252 C 96.856927,39.572252 97.028257,39.38989 97.028267,39.01246 C 97.028257,38.635017 96.856927,38.44249 96.509187,38.44249 L 91.186071,38.44249 z M 100.85521,38.44249 C 100.05793,38.44249 99.388717,38.578192 98.850137,38.84961 C 98.116467,39.201599 97.750907,39.724076 97.750907,40.406849 L 97.750907,42.646014 C 97.750907,43.328787 98.122407,43.841932 98.860307,44.172716 C 99.458277,44.422928 100.12749,44.549312 100.86539,44.549312 L 103.09438,44.549312 C 103.90438,44.549312 104.56086,44.418693 105.04857,44.172716 C 105.73556,43.850417 106.07654,43.341507 106.07654,42.646014 L 106.07654,40.386491 C 106.07654,39.088796 105.07909,38.44249 103.09438,38.44249 L 100.85521,38.44249 z M 109.90348,38.44249 C 107.95269,38.44249 106.98239,39.110001 106.98239,40.437372 L 106.98239,44.040402 C 106.98239,44.375436 107.14014,44.549312 107.47094,44.549312 C 107.80173,44.549312 107.99595,44.528093 108.05108,44.498417 C 108.2292,44.434802 108.3157,44.28213 108.31572,44.040402 L 108.31572,40.29488 C 108.3157,39.802953 108.89247,39.562073 110.04597,39.562073 C 110.08838,39.562073 110.14521,39.557837 110.20882,39.562073 C 110.27244,39.562073 110.34793,39.568002 110.43275,39.572252 C 110.43698,39.576487 110.45988,39.572252 110.49381,39.572252 L 110.5447,39.572252 L 110.65666,39.572252 L 110.81951,39.572252 C 111.22238,39.572252 111.5167,39.625688 111.69482,39.714744 C 111.95351,39.841975 112.08159,40.076912 112.08159,40.437372 L 112.08159,44.040402 C 112.08159,44.375436 112.24527,44.549312 112.58032,44.549312 C 112.91109,44.549312 113.10532,44.528093 113.16045,44.498417 C 113.34281,44.434802 113.43526,44.28213 113.43527,44.040402 L 113.43527,40.45773 C 113.43526,40.059095 113.63712,39.792774 114.03577,39.674028 C 114.21388,39.618897 114.57774,39.583278 115.12482,39.562073 C 115.12905,39.557837 115.1494,39.562073 115.19606,39.562073 L 115.2775,39.562073 L 115.46069,39.562073 C 116.60148,39.562073 117.1706,39.801259 117.1706,40.284714 L 117.1706,44.040402 C 117.1706,44.28213 117.26305,44.434802 117.44541,44.498417 C 117.50054,44.528093 117.69476,44.549312 118.02556,44.549312 C 118.35633,44.549312 118.5141,44.375436 118.51411,44.040402 L 118.51411,40.437372 C 118.5141,39.110001 117.57347,38.44249 115.69479,38.44249 C 114.99504,38.44249 114.50564,38.46539 114.2088,38.503551 C 113.64899,38.575651 113.17571,38.724087 112.79405,38.961565 C 112.36572,38.707117 111.89414,38.557001 111.38948,38.493371 C 111.27073,38.476416 111.09601,38.456905 110.85005,38.452655 C 110.60831,38.444184 110.2894,38.44249 109.90348,38.44249 z M 122.46318,38.44249 C 121.5302,38.44249 120.85505,38.534935 120.44793,38.717296 C 119.74395,39.001434 119.39959,39.512025 119.3996,40.254177 L 119.3996,45.729955 C 119.39959,46.060739 119.55736,46.228672 119.88814,46.228686 C 120.21469,46.228672 120.41316,46.21766 120.46829,46.18797 C 120.65064,46.124354 120.73292,45.967433 120.73292,45.729955 L 120.73292,44.498417 L 124.92627,44.498417 C 126.8601,44.498417 127.827,43.864831 127.82701,42.605298 L 127.82701,40.233819 C 127.827,39.037901 126.75067,38.44249 124.60057,38.44249 L 122.46318,38.44249 z M 132.01019,38.44249 C 131.66245,38.44249 131.49112,38.635017 131.4911,39.01246 C 131.49112,39.38989 131.66244,39.572252 132.01019,39.572252 L 137.11957,39.572252 L 131.40968,43.266879 C 131.17219,43.419551 131.05345,43.600204 131.05345,43.816491 C 131.05345,44.032778 131.15524,44.211738 131.35879,44.355925 C 131.54539,44.478906 131.75488,44.549312 131.97965,44.549312 L 143.36888,44.549312 L 143.36888,49.027642 C 143.36888,49.26937 143.46557,49.422041 143.64369,49.485657 C 143.69882,49.515347 143.89304,49.526373 144.22384,49.526359 C 144.55462,49.526359 144.71237,49.362675 144.71237,49.027642 L 144.73273,44.549312 L 148.80394,44.549312 C 149.1517,44.549312 149.32302,44.356772 149.32303,43.979342 C 149.32302,43.606148 149.1517,43.419551 148.80394,43.419537 L 144.74291,43.419537 C 144.78257,43.174407 145.06232,43.009418 145.58769,42.930999 C 145.77003,42.905558 146.16614,42.890297 146.76834,42.890283 C 147.09913,42.890297 147.25688,42.732529 147.25688,42.401745 C 147.25688,42.100651 147.1797,41.90811 147.02279,41.831775 C 146.93797,41.793614 146.72509,41.770714 146.38158,41.7707 C 144.47088,41.770714 143.46975,42.320451 143.37906,43.409372 L 133.42494,43.399193 L 139.22642,39.623133 C 139.34515,39.546811 139.39943,39.428065 139.39945,39.266908 C 139.39123,38.759762 139.18991,38.448031 138.63609,38.44249 L 132.01019,38.44249 z M 100.87557,39.572252 L 103.06385,39.572252 C 104.16645,39.572252 104.71267,39.821617 104.71269,40.305059 L 104.71269,42.646014 C 104.71267,42.917432 104.49386,43.126928 104.0613,43.266879 C 103.74746,43.368656 103.41583,43.419551 103.06385,43.419537 L 100.88575,43.419537 C 100.47014,43.419551 100.10628,43.376293 99.796697,43.287223 C 99.330197,43.151521 99.094397,42.934387 99.094417,42.646014 L 99.094417,40.406849 C 99.094397,40.105741 99.328507,39.873345 99.786517,39.724909 C 100.10882,39.623133 100.46845,39.572252 100.87557,39.572252 z M 122.51408,39.572252 L 124.61075,39.572252 C 125.15357,39.572252 125.52082,39.584972 125.72016,39.623133 C 126.21633,39.720674 126.47332,39.931878 126.47333,40.254177 L 126.47333,42.625656 C 126.47332,43.126081 125.95679,43.378835 124.92627,43.378835 L 120.73292,43.378835 L 120.73292,40.284714 C 120.73292,39.805495 121.32663,39.572252 122.51408,39.572252 z M 168.35596,43.409372 C 168.02093,43.409372 167.85722,43.577305 167.85723,43.908089 L 167.85723,49.027642 C 167.85723,49.26937 167.9378,49.422041 168.11168,49.485657 C 168.16681,49.515347 168.35511,49.526373 168.68165,49.526359 C 169.01668,49.526359 169.19054,49.362675 169.19056,49.027642 L 169.19056,43.908089 C 169.19056,43.67061 169.10403,43.513689 168.92593,43.450074 C 168.87079,43.420398 168.67824,43.409372 168.35596,43.409372 z M 150.43243,43.429716 C 150.10165,43.42973 149.94388,43.593428 149.94388,43.928447 L 149.94388,47.714672 C 149.94388,48.92756 151.03125,49.526373 153.21103,49.526359 L 153.49602,49.526359 L 153.67923,49.526359 L 153.781,49.526359 L 153.84208,49.526359 C 153.87177,49.526359 153.88872,49.532303 153.89297,49.536538 C 154.04563,49.540787 154.1754,49.546717 154.28991,49.546717 C 154.40441,49.550966 154.5028,49.546717 154.5749,49.546717 C 157.17029,49.546717 158.4629,48.94028 158.4629,47.714672 L 158.4629,43.928447 C 158.4629,43.593428 158.2992,43.42973 157.96418,43.429716 C 157.62915,43.42973 157.42897,43.440756 157.37385,43.470432 C 157.19149,43.534048 157.09905,43.686719 157.09905,43.928447 L 157.09905,47.724851 C 157.09905,48.174381 156.47564,48.406777 155.21611,48.406777 L 153.21103,48.406777 C 151.92606,48.406777 151.27721,48.176936 151.27721,47.714672 L 151.27721,43.928447 C 151.27721,43.686719 151.1907,43.534048 151.01258,43.470432 C 150.95745,43.440756 150.76322,43.42973 150.43243,43.429716 z M 163.12445,43.429716 C 162.53072,43.42973 162.04303,43.444991 161.64863,43.470432 C 161.25847,43.491637 160.95653,43.525577 160.75296,43.572209 C 159.74364,43.780025 159.23644,44.254995 159.23644,44.997134 L 159.23644,45.322835 C 159.23644,46.442418 160.24322,47.002209 162.24914,47.002209 L 164.42723,47.002209 C 165.19059,47.002209 165.57735,47.193055 165.57735,47.562 L 165.57735,47.785925 C 165.57735,48.19728 165.15495,48.406777 164.31527,48.406777 L 159.76569,48.406777 C 159.43491,48.406777 159.26697,48.612037 159.26697,49.027642 C 159.26697,49.362675 159.43491,49.526373 159.76569,49.526359 L 164.30509,49.526359 C 166.07777,49.526359 166.97175,48.947918 166.97175,47.785925 L 166.97175,47.511119 C 166.97174,46.412742 166.13629,45.862269 164.47812,45.862269 L 162.25932,45.862269 C 161.14397,45.862282 160.57993,45.67738 160.57994,45.312656 L 160.57994,44.997134 C 160.57993,44.780861 160.8064,44.639215 161.25169,44.579835 C 161.35347,44.567115 161.65287,44.559491 162.15753,44.559477 L 163.12445,44.559477 C 163.45947,44.559491 163.63335,44.391544 163.63335,44.06076 C 163.63335,43.636685 163.45947,43.42973 163.12445,43.429716 z M 173.32284,43.429716 C 172.52556,43.42973 171.85634,43.565432 171.31777,43.836849 C 170.5841,44.188838 170.21854,44.701137 170.21854,45.38391 L 170.21854,47.633253 C 170.21854,48.316026 170.59003,48.818993 171.32795,49.149776 C 171.9259,49.399989 172.59512,49.526373 173.33302,49.526359 L 175.56201,49.526359 C 176.372,49.526359 177.01832,49.405919 177.50601,49.159955 C 178.19302,48.837656 178.54416,48.328747 178.54417,47.633253 L 178.54417,45.373731 C 178.54416,44.076036 177.54672,43.42973 175.56201,43.429716 L 173.32284,43.429716 z M 182.53396,43.429716 C 180.48139,43.42973 179.46019,44.01242 179.4602,45.170164 L 179.4602,49.027642 C 179.4602,49.26937 179.5467,49.422041 179.72483,49.485657 C 179.77996,49.515347 179.97419,49.526373 180.30498,49.526359 C 180.63576,49.526359 180.79353,49.362675 180.79351,49.027642 L 180.79351,45.149806 C 180.79351,44.874153 181.01233,44.695193 181.44492,44.610373 C 181.53821,44.593417 181.66459,44.578141 181.8215,44.569656 C 181.98264,44.561185 182.17856,44.559491 182.41183,44.559477 L 184.73241,44.559477 C 184.98686,44.559491 185.19805,44.561185 185.36346,44.569656 C 185.53308,44.573906 185.64929,44.593417 185.72986,44.610373 C 186.18787,44.695193 186.42195,44.874153 186.42198,45.149806 L 186.42198,49.027642 C 186.42196,49.26937 186.51441,49.422041 186.69678,49.485657 C 186.7519,49.515347 186.94614,49.526373 187.27693,49.526359 C 187.61194,49.526359 187.77565,49.362675 187.77565,49.027642 L 187.77565,45.149806 C 187.77564,44.000547 186.76379,43.42973 184.73241,43.429716 L 182.53396,43.429716 z M 173.3432,44.559477 L 175.52129,44.559477 C 176.6239,44.559491 177.18029,44.798678 177.18032,45.282119 L 177.18032,47.633253 C 177.18031,47.904671 176.96149,48.114168 176.52892,48.254105 C 176.21509,48.355895 175.88344,48.406777 175.53147,48.406777 L 173.35338,48.406777 C 172.93776,48.406777 172.57391,48.363519 172.26432,48.274463 C 171.79782,48.138761 171.56202,47.921627 171.56204,47.633253 L 171.56204,45.38391 C 171.56204,45.082802 171.78596,44.860585 172.24396,44.712149 C 172.56627,44.610373 172.93607,44.559491 173.3432,44.559477 z "
       id="text14821"
       sodipodi:nodetypes="ccccsccccccccccsccccccscccccccccccccccccscccsssccccsccscccscccccccsccsscsscccccscccccccccscccscccccscccsccsssssccccccccccsccsccccccsccccccccccsccccccccccccsssccsccccccccccccccccccccsccccccccsccscccccccccccccccccsccssccsscccsccccccccsccscccc" />
    <path
       style="opacity:0.3;fill:url(#linearGradient2507);fill-opacity:1;fill-rule:evenodd;stroke:none;stroke-width:1px;stroke-linecap:butt;stroke-linejoin:miter;stroke-opacity:1"
       d="M 60.406554,5.433319 L 60.406554,5.710346 L 60.406554,42.753373 C 60.406554,42.753373 61.50114,39.831727 64.041051,37.778104 C 66.567951,35.734979 73.055327,38.493469 75.742341,39.351576 L 75.742341,13.544452 L 60.406554,5.433319 z "
       id="path9728"
       sodipodi:nodetypes="cccsccc" />
    <path
       style="opacity:0.3;fill:url(#linearGradient4696);fill-opacity:1;fill-rule:evenodd;stroke:none;stroke-width:1px;stroke-linecap:butt;stroke-linejoin:miter;stroke-opacity:1"
       d="M 60.062762,3.0901799 L 41.335176,5.6652249 L 38.749952,6.0316289 C 29.113006,11.56773 24.935812,19.924023 22.902755,25.695603 C 21.272999,30.322244 22.033774,33.977669 23.472725,36.66753 C 24.635884,38.122285 25.96756,38.264514 26.28186,36.769307 C 24.123183,33.847216 23.780943,30.482901 25.671174,28.71847 C 26.499939,27.944878 27.637102,27.585515 28.907787,27.609067 C 31.025595,27.648325 33.513264,28.750438 35.533698,30.733724 C 37.534301,32.697555 38.618791,35.069895 38.627818,37.084829 C 39.801712,35.627478 41.092227,35.467168 42.322445,37.115352 C 41.917478,29.521183 32.826339,25.675245 32.826339,25.675245 C 32.826339,25.675245 44.803602,28.022505 50.841462,37.07465 C 51.851852,37.626304 53.400079,37.696779 54.352881,37.675144 C 60.237069,37.553453 60.062762,31.944918 60.062762,31.944918 L 60.062762,3.3649859 L 60.062762,3.0901799 z M 13.426993,9.604122 L 5.8952452,10.662644 L 5.9868562,35.710785 C 10.286241,35.182878 13.123982,37.581991 17.905336,36.423248 C 14.137928,33.186524 10.797733,28.381604 10.5975,21.451364 C 10.454354,16.55836 11.830412,12.55532 13.426993,9.604122 z "
       id="path4683"
       sodipodi:nodetypes="cccsccssscccccccccccccc" />
    <path
       style="opacity:0.2;fill:url(#radialGradient4718);fill-opacity:1;fill-rule:evenodd;stroke:none;stroke-width:1px;stroke-linecap:butt;stroke-linejoin:miter;stroke-opacity:1"
       d="M 35.849438,28.223325 C 35.849438,28.223325 52.198907,33.296829 54.268125,43.49035 C 57.008659,56.990997 49.538444,64.90176 49.538444,64.90176 C 49.538444,64.90176 58.183706,56.15989 55.400983,43.385902 C 53.083122,32.74587 35.849438,28.223325 35.849438,28.223325 z "
       id="path4698"
       sodipodi:nodetypes="cscsc" />
    <path
       sodipodi:nodetypes="cscsc"
       id="path4700"
       d="M 28.005542,44.725869 C 28.005542,44.725869 14.934901,40.612249 11.847572,31.240999 C 8.1199353,19.926164 13.102148,12.354408 13.102148,12.354408 C 13.102148,12.354408 7.6721133,19.786074 11.01035,31.193006 C 14.072753,41.657412 28.005542,44.725869 28.005542,44.725869 z "
       style="opacity:0.2;fill:#000000;fill-rule:evenodd;stroke:none;stroke-width:1px;stroke-linecap:butt;stroke-linejoin:miter;stroke-opacity:1" />
    <path
       style="opacity:0.2;fill:url(#radialGradient4710);fill-opacity:1;fill-rule:evenodd;stroke:none;stroke-width:1px;stroke-linecap:butt;stroke-linejoin:miter;stroke-opacity:1"
       d="M 26.968467,44.074481 C 26.968467,44.074481 18.183574,38.522048 22.648892,27.332639 C 28.001355,13.920145 37.157928,8.446034 37.157928,8.446034 C 37.157928,8.446034 27.286628,14.239056 22.009918,27.284633 C 17.560598,38.284639 26.968467,44.074481 26.968467,44.074481 z "
       id="path4702"
       sodipodi:nodetypes="cscsc" />
    <path
       sodipodi:nodetypes="cscsc"
       id="path4720"
       d="M 31.864134,27.878395 C 31.864134,27.878395 44.199705,35.27215 38.55773,44.437583 C 32.097391,54.932461 17.543181,62.450051 17.543181,62.450051 C 17.543181,62.450051 33.604374,55.185401 39.690588,44.324295 C 44.715725,35.35672 31.864134,27.878395 31.864134,27.878395 z "
       style="opacity:0.2;fill:#000000;fill-opacity:1;fill-rule:evenodd;stroke:none;stroke-width:1px;stroke-linecap:butt;stroke-linejoin:miter;stroke-opacity:1" />
  </g>
</svg>
