<?xml version="1.0" encoding="UTF-8" standalone="no"?>
<!-- Created with Inkscape (http://www.inkscape.org/) -->
<svg
   xmlns:dc="http://purl.org/dc/elements/1.1/"
   xmlns:cc="http://web.resource.org/cc/"
   xmlns:rdf="http://www.w3.org/1999/02/22-rdf-syntax-ns#"
   xmlns:svg="http://www.w3.org/2000/svg"
   xmlns="http://www.w3.org/2000/svg"
   xmlns:xlink="http://www.w3.org/1999/xlink"
   xmlns:sodipodi="http://sodipodi.sourceforge.net/DTD/sodipodi-0.dtd"
   xmlns:inkscape="http://www.inkscape.org/namespaces/inkscape"
   width="64"
   height="64"
   id="svg2"
   sodipodi:version="0.32"
   inkscape:version="0.45"
   version="1.0"
   sodipodi:docbase="/home/ryx/Documents/scripts/python/screenlets/screenlets-0.0.9/src/share/screenlets/Control"
   sodipodi:docname="icon.svg"
   inkscape:output_extension="org.inkscape.output.svg.inkscape"
   sodipodi:modified="true">
  <defs
     id="defs4">
    <linearGradient
       id="linearGradient2973">
      <stop
         style="stop-color:black;stop-opacity:0.77433628;"
         offset="0"
         id="stop2975" />
      <stop
         style="stop-color:black;stop-opacity:0;"
         offset="1"
         id="stop2977" />
    </linearGradient>
    <linearGradient
       inkscape:collect="always"
       id="linearGradient2965">
      <stop
         style="stop-color:white;stop-opacity:1;"
         offset="0"
         id="stop2967" />
      <stop
         style="stop-color:white;stop-opacity:0;"
         offset="1"
         id="stop2969" />
    </linearGradient>
    <linearGradient
       id="linearGradient2867">
      <stop
         style="stop-color:#7f7f7f;stop-opacity:1;"
         offset="0"
         id="stop2869" />
      <stop
         style="stop-color:#e1e1e1;stop-opacity:1;"
         offset="1"
         id="stop2871" />
    </linearGradient>
    <linearGradient
       inkscape:collect="always"
       xlink:href="#linearGradient2867"
       id="linearGradient2888"
       gradientUnits="userSpaceOnUse"
       x1="92.500008"
       y1="145"
       x2="92.499992"
       y2="61.714279" />
    <linearGradient
       inkscape:collect="always"
       xlink:href="#linearGradient2867"
       id="linearGradient1913"
       gradientUnits="userSpaceOnUse"
       x1="92.500008"
       y1="145"
       x2="92.499992"
       y2="61.714279" />
    <linearGradient
       inkscape:collect="always"
       xlink:href="#linearGradient2965"
       id="linearGradient2971"
       x1="45.302471"
       y1="8.7087736"
       x2="45.805725"
       y2="36.261765"
       gradientUnits="userSpaceOnUse"
       gradientTransform="matrix(0.6114797,0,0,0.611388,1.0796579,2.2587963)" />
    <linearGradient
       inkscape:collect="always"
       xlink:href="#linearGradient2973"
       id="linearGradient2979"
       x1="48.552006"
       y1="85.840416"
       x2="48.419849"
       y2="70.528786"
       gradientUnits="userSpaceOnUse"
       gradientTransform="matrix(0.6421062,0,0,0.6420099,0.2464492,0.9350819)" />
  </defs>
  <sodipodi:namedview
     id="base"
     pagecolor="#ffffff"
     bordercolor="#666666"
     borderopacity="1.0"
     inkscape:pageopacity="0.0"
     inkscape:pageshadow="2"
     inkscape:zoom="2.8284271"
     inkscape:cx="77.700302"
     inkscape:cy="30.741249"
     inkscape:document-units="px"
     inkscape:current-layer="layer1"
     width="64px"
     height="64px"
     inkscape:window-width="989"
     inkscape:window-height="626"
     inkscape:window-x="68"
     inkscape:window-y="70" />
  <metadata
     id="metadata7">
    <rdf:RDF>
      <cc:Work
         rdf:about="">
        <dc:format>image/svg+xml</dc:format>
        <dc:type
           rdf:resource="http://purl.org/dc/dcmitype/StillImage" />
      </cc:Work>
    </rdf:RDF>
  </metadata>
  <g
     inkscape:label="Ebene 1"
     inkscape:groupmode="layer"
     id="layer1">
    <path
       sodipodi:type="arc"
       style="opacity:1;fill:#000000;fill-opacity:0.29692832;stroke:none;stroke-width:1.58599997;stroke-linejoin:miter;stroke-miterlimit:4;stroke-dasharray:none;stroke-dashoffset:0;stroke-opacity:1"
       id="path2918"
       sodipodi:cx="98"
       sodipodi:cy="101"
       sodipodi:rx="44"
       sodipodi:ry="44"
       d="M 142 101 A 44 44 0 1 1  54,101 A 44 44 0 1 1  142 101 z"
       transform="matrix(0.5837331,0,0,0.5836455,-22.882166,-24.628598)" />
    <path
       sodipodi:type="arc"
       style="opacity:1;fill:url(#linearGradient2888);fill-opacity:1;stroke:#000000;stroke-width:3.66976094;stroke-linejoin:miter;stroke-miterlimit:4;stroke-dasharray:none;stroke-dashoffset:0;stroke-opacity:1"
       id="path2843"
       sodipodi:cx="98"
       sodipodi:cy="101"
       sodipodi:rx="44"
       sodipodi:ry="44"
       d="M 142 101 A 44 44 0 1 1  54,101 A 44 44 0 1 1  142 101 z"
       transform="matrix(0.5837331,0,0,0.5836455,-25.450585,-27.196631)" />
    <path
       style="fill:#eeeeee;fill-opacity:1;stroke:none;stroke-width:0.38600001;stroke-linejoin:miter;stroke-miterlimit:4;stroke-dasharray:none;stroke-dashoffset:0;stroke-opacity:1"
       d="M 31.674977,9.2812079 C 19.314804,9.2812089 9.2815206,19.312983 9.2815206,31.671304 C 9.2815206,44.029622 19.314804,54.061399 31.674977,54.061399 C 44.03515,54.061393 54.068432,44.029622 54.068432,31.671304 C 54.068432,19.312984 44.03515,9.2812079 31.674977,9.2812079 z M 31.75524,13.895654 C 32.581413,13.895654 33.38673,13.947412 34.183204,14.056157 L 34.183204,13.955843 C 37.850864,14.474086 41.151618,16.137233 43.754601,18.530164 C 44.181319,18.922449 44.591605,19.322413 44.978616,19.753995 C 45.168608,19.965866 45.360598,20.175224 45.540458,20.396004 C 45.722502,20.616526 45.890696,20.84893 46.062171,21.07814 C 46.15046,21.197653 46.237664,21.317513 46.323026,21.439271 C 46.531453,21.733027 46.734256,22.035584 46.925001,22.342098 C 46.95785,22.394886 46.993019,22.449446 47.02533,22.502599 C 47.240525,22.856585 47.436599,23.216446 47.627304,23.585991 C 47.833324,23.985208 48.033134,24.393813 48.209213,24.809822 C 48.217387,24.829482 48.221169,24.850316 48.229279,24.87001 C 49.117851,26.99055 49.61382,29.309722 49.61382,31.751555 C 49.61382,41.609181 41.614339,49.607456 31.75524,49.607456 C 28.771566,49.607456 25.961259,48.87629 23.488123,47.581112 C 23.152102,47.405137 22.827928,47.215668 22.504897,47.019353 C 22.431427,46.974702 22.356943,46.924586 22.284173,46.878913 C 21.944338,46.665619 21.604838,46.451875 21.280882,46.21684 C 21.211438,46.167124 21.148923,46.107018 21.080223,46.056338 C 20.793665,45.842023 20.510368,45.625011 20.23746,45.394266 C 20.073131,45.257087 19.915141,45.115833 19.755879,44.972947 C 19.325649,44.586952 18.922978,44.174614 18.531864,43.749116 C 16.182899,41.193653 14.543909,37.968541 13.996989,34.379782 L 14.077253,34.379782 C 13.94973,33.519343 13.89666,32.647274 13.89666,31.751555 C 13.89666,30.84115 13.965661,29.957084 14.097318,29.083201 L 13.976924,29.083201 C 15.099563,21.345348 21.174858,15.201945 28.885828,13.995969 L 28.885828,14.116345 C 29.822861,13.964359 30.775489,13.895654 31.75524,13.895654 z "
       id="path1909" />
    <path
       style="opacity:1;fill:url(#linearGradient2971);fill-opacity:1;stroke:none;stroke-width:1.58599997;stroke-linejoin:miter;stroke-miterlimit:4;stroke-dasharray:none;stroke-dashoffset:0;stroke-opacity:1"
       d="M 50.425147,17.075727 C 42.545287,6.5762712 27.608089,4.4637943 17.083197,12.360376 C 12.504936,15.795339 9.5150452,20.55786 8.2430831,25.710977 C 21.96448,19.599124 38.275238,19.711601 54.383263,25.237313 C 53.623938,22.369326 52.313962,19.592464 50.425147,17.075727 z "
       id="path2856" />
    <path
       style="opacity:0.5;fill:url(#linearGradient2979);fill-opacity:1;stroke:none;stroke-width:1.58599997;stroke-linejoin:miter;stroke-miterlimit:4;stroke-dasharray:none;stroke-dashoffset:0;stroke-opacity:1"
       d="M 11.217319,45.713538 C 19.782314,57.125895 35.997207,59.437837 47.411271,50.874131 C 52.376311,47.148978 55.61582,41.980127 56.990269,36.385044 C 51.125703,59.773107 22.219723,50.189705 11.217319,45.713538 z "
       id="path2920"
       sodipodi:nodetypes="cscc" />
    <rect
       style="opacity:1;fill:#ffffff;fill-opacity:1;stroke:none;stroke-width:3;stroke-linecap:butt;stroke-linejoin:miter;stroke-miterlimit:5.4000001;stroke-dasharray:none;stroke-dashoffset:0;stroke-opacity:1"
       id="rect3314"
       width="7.0857944"
       height="23.836979"
       x="27.658957"
       y="-43.816208"
       transform="matrix(0,1,-1,0,0,0)" />
  </g>
</svg>
