<?xml version="1.0" encoding="UTF-8" standalone="no"?>
<!-- Created with Inkscape (http://www.inkscape.org/) -->
<svg
   xmlns:dc="http://purl.org/dc/elements/1.1/"
   xmlns:cc="http://web.resource.org/cc/"
   xmlns:rdf="http://www.w3.org/1999/02/22-rdf-syntax-ns#"
   xmlns:svg="http://www.w3.org/2000/svg"
   xmlns="http://www.w3.org/2000/svg"
   xmlns:xlink="http://www.w3.org/1999/xlink"
   xmlns:sodipodi="http://sodipodi.sourceforge.net/DTD/sodipodi-0.dtd"
   xmlns:inkscape="http://www.inkscape.org/namespaces/inkscape"
   width="100"
   height="100"
   id="svg2"
   sodipodi:version="0.32"
   inkscape:version="0.44"
   version="1.0"
   sodipodi:docbase="/home/ryx/Documents/scripts/python/screenlets/control/themes/plusminus"
   sodipodi:docname="control-bg-hidden.svg">
  <defs
     id="defs4">
    <linearGradient
       id="linearGradient2973">
      <stop
         style="stop-color:black;stop-opacity:0.77433628;"
         offset="0"
         id="stop2975" />
      <stop
         style="stop-color:black;stop-opacity:0;"
         offset="1"
         id="stop2977" />
    </linearGradient>
    <linearGradient
       inkscape:collect="always"
       id="linearGradient2965">
      <stop
         style="stop-color:white;stop-opacity:1;"
         offset="0"
         id="stop2967" />
      <stop
         style="stop-color:white;stop-opacity:0;"
         offset="1"
         id="stop2969" />
    </linearGradient>
    <linearGradient
       id="linearGradient2867">
      <stop
         style="stop-color:#7f7f7f;stop-opacity:1;"
         offset="0"
         id="stop2869" />
      <stop
         style="stop-color:#e1e1e1;stop-opacity:1;"
         offset="1"
         id="stop2871" />
    </linearGradient>
    <linearGradient
       inkscape:collect="always"
       xlink:href="#linearGradient2867"
       id="linearGradient2888"
       gradientUnits="userSpaceOnUse"
       x1="92.500008"
       y1="145"
       x2="92.499992"
       y2="61.714279" />
    <linearGradient
       inkscape:collect="always"
       xlink:href="#linearGradient2867"
       id="linearGradient1913"
       gradientUnits="userSpaceOnUse"
       x1="92.500008"
       y1="145"
       x2="92.499992"
       y2="61.714279" />
    <linearGradient
       inkscape:collect="always"
       xlink:href="#linearGradient2965"
       id="linearGradient2971"
       x1="45.302471"
       y1="8.7087736"
       x2="45.805725"
       y2="36.261765"
       gradientUnits="userSpaceOnUse"
       gradientTransform="matrix(0.952303,0,0,0.952303,1.297618,2.061828)" />
    <linearGradient
       inkscape:collect="always"
       xlink:href="#linearGradient2973"
       id="linearGradient2979"
       x1="48.552006"
       y1="85.840416"
       x2="48.419849"
       y2="70.528786"
       gradientUnits="userSpaceOnUse" />
  </defs>
  <sodipodi:namedview
     id="base"
     pagecolor="#ffffff"
     bordercolor="#666666"
     borderopacity="1.0"
     inkscape:pageopacity="0.0"
     inkscape:pageshadow="2"
     inkscape:zoom="2.8284271"
     inkscape:cx="77.700302"
     inkscape:cy="59.02552"
     inkscape:document-units="px"
     inkscape:current-layer="layer1"
     width="100px"
     height="100px"
     inkscape:window-width="989"
     inkscape:window-height="626"
     inkscape:window-x="68"
     inkscape:window-y="70" />
  <metadata
     id="metadata7">
    <rdf:RDF>
      <cc:Work
         rdf:about="">
        <dc:format>image/svg+xml</dc:format>
        <dc:type
           rdf:resource="http://purl.org/dc/dcmitype/StillImage" />
      </cc:Work>
    </rdf:RDF>
  </metadata>
  <g
     inkscape:label="Ebene 1"
     inkscape:groupmode="layer"
     id="layer1">
    <path
       sodipodi:type="arc"
       style="opacity:1;fill:black;fill-opacity:0.29692832;stroke:none;stroke-width:1.58599997;stroke-linejoin:miter;stroke-miterlimit:4;stroke-dasharray:none;stroke-dashoffset:0;stroke-opacity:1"
       id="path2918"
       sodipodi:cx="98"
       sodipodi:cy="101"
       sodipodi:rx="44"
       sodipodi:ry="44"
       d="M 142 101 A 44 44 0 1 1  54,101 A 44 44 0 1 1  142 101 z"
       transform="matrix(0.909091,0,0,0.909091,-36.01992,-39.8182)" />
    <path
       sodipodi:type="arc"
       style="opacity:1;fill:url(#linearGradient2888);fill-opacity:1.0;stroke:black;stroke-width:2.35619974;stroke-linejoin:miter;stroke-miterlimit:4;stroke-dasharray:none;stroke-dashoffset:0;stroke-opacity:1"
       id="path2843"
       sodipodi:cx="98"
       sodipodi:cy="101"
       sodipodi:rx="44"
       sodipodi:ry="44"
       d="M 142 101 A 44 44 0 1 1  54,101 A 44 44 0 1 1  142 101 z"
       transform="matrix(0.909091,0,0,0.909091,-40.01991,-43.81819)" />
    <path
       style="fill:#eee;fill-opacity:1;stroke:none;stroke-width:0.38600001;stroke-linejoin:miter;stroke-miterlimit:4;stroke-dasharray:none;stroke-dashoffset:0;stroke-opacity:1"
       d="M 48.945992,12.999995 C 29.696572,12.999997 14.070992,28.625572 14.070992,47.874995 C 14.070992,67.124415 29.696572,82.749995 48.945992,82.749995 C 68.195412,82.749985 83.820992,67.124415 83.820992,47.874995 C 83.820992,28.625574 68.195412,12.999995 48.945992,12.999995 z M 49.070992,20.187495 C 50.357652,20.187495 51.611832,20.268113 52.852242,20.437495 L 52.852242,20.281245 C 58.564162,21.088465 63.704672,23.678997 67.758492,27.406245 C 68.423052,28.017273 69.062022,28.64026 69.664742,29.312495 C 69.960632,29.642508 70.259632,29.968605 70.539742,30.312495 C 70.823252,30.655982 71.085192,31.017974 71.352242,31.374995 C 71.489742,31.56115 71.625552,31.747845 71.758492,31.937495 C 72.083092,32.395053 72.398932,32.866318 72.695992,33.343745 C 72.747152,33.425969 72.801922,33.510952 72.852242,33.593745 C 73.187382,34.145117 73.492742,34.705638 73.789742,35.281245 C 74.110592,35.903068 74.421772,36.539515 74.695992,37.187495 C 74.708722,37.218117 74.714612,37.250568 74.727242,37.281245 C 76.111082,40.584214 76.883492,44.196576 76.883492,47.999995 C 76.883492,63.354315 64.425302,75.812495 49.070992,75.812495 C 44.424292,75.812495 40.047592,74.673625 36.195992,72.656245 C 35.672682,72.382145 35.167822,72.087025 34.664742,71.781245 C 34.550322,71.711695 34.434322,71.633635 34.320992,71.562495 C 33.791742,71.230265 33.263012,70.897335 32.758492,70.531245 C 32.650342,70.453805 32.552982,70.360185 32.445992,70.281245 C 31.999712,69.947425 31.558512,69.609405 31.133492,69.249995 C 30.877572,69.036325 30.631522,68.816305 30.383492,68.593745 C 29.713462,67.992515 29.086352,67.350255 28.477242,66.687495 C 24.819022,62.707085 22.266502,57.683625 21.414742,52.093745 L 21.539742,52.093745 C 21.341142,50.753515 21.258492,49.395175 21.258492,47.999995 C 21.258492,46.58194 21.365952,45.204913 21.570992,43.843745 L 21.383492,43.843745 C 23.131862,31.791201 32.593372,22.222186 44.602242,20.343745 L 44.602242,20.531245 C 46.061552,20.294511 47.545152,20.187495 49.070992,20.187495 z "
       id="path1909" />
    <path
       style="opacity:1;fill:url(#linearGradient2971);fill-opacity:1;stroke:none;stroke-width:1.58599997;stroke-linejoin:miter;stroke-miterlimit:4;stroke-dasharray:none;stroke-dashoffset:0;stroke-opacity:1"
       d="M 78.147031,25.140803 C 65.875137,8.7867637 42.612324,5.4963511 26.221123,17.796133 C 19.091056,23.146459 14.434677,30.564603 12.453755,38.591141 C 33.82311,29.071267 59.225072,29.246463 84.3113,37.853359 C 83.128747,33.386158 81.088624,29.060893 78.147031,25.140803 z "
       id="path2856" />
    <path
       style="opacity:0.5;fill:url(#linearGradient2979);fill-opacity:1.0;stroke:none;stroke-width:1.58599997;stroke-linejoin:miter;stroke-miterlimit:4;stroke-dasharray:none;stroke-dashoffset:0;stroke-opacity:1"
       d="M 17.085754,69.747296 C 30.424659,87.523279 55.677323,91.124378 73.453297,77.785479 C 81.185725,71.983148 86.230854,63.932104 88.371386,55.217156 C 79.238059,91.646598 34.22062,76.719411 17.085754,69.747296 z "
       id="path2920"
       sodipodi:nodetypes="cscc" />
    <rect
       style="opacity:1;fill:white;fill-opacity:1;stroke:none;stroke-width:3;stroke-linecap:butt;stroke-linejoin:miter;stroke-miterlimit:5.4000001;stroke-dasharray:none;stroke-dashoffset:0;stroke-opacity:1"
       id="rect3314"
       width="11.036893"
       height="37.123108"
       x="41.62532"
       y="-67.854439"
       transform="matrix(0,1,-1,0,0,0)" />
    <rect
       style="opacity:1;fill:white;fill-opacity:1;stroke:none;stroke-width:3;stroke-linecap:butt;stroke-linejoin:miter;stroke-miterlimit:5.4000001;stroke-dasharray:none;stroke-dashoffset:0;stroke-opacity:1"
       id="rect3016"
       width="11.036893"
       height="37.123108"
       x="-54.811333"
       y="-65.705322"
       transform="scale(-1,-1)" />
  </g>
</svg>
