<?xml version="1.0" encoding="UTF-8" standalone="no"?>
<!-- Created with Inkscape (http://www.inkscape.org/) -->
<svg
   xmlns:dc="http://purl.org/dc/elements/1.1/"
   xmlns:cc="http://web.resource.org/cc/"
   xmlns:rdf="http://www.w3.org/1999/02/22-rdf-syntax-ns#"
   xmlns:svg="http://www.w3.org/2000/svg"
   xmlns="http://www.w3.org/2000/svg"
   xmlns:xlink="http://www.w3.org/1999/xlink"
   xmlns:sodipodi="http://sodipodi.sourceforge.net/DTD/sodipodi-0.dtd"
   xmlns:inkscape="http://www.inkscape.org/namespaces/inkscape"
   width="100"
   height="100"
   id="svg2"
   sodipodi:version="0.32"
   inkscape:version="0.44"
   version="1.0"
   sodipodi:docbase="/home/ryx/Documents/scripts/python/screenlets"
   sodipodi:docname="control-bg-hidden.svg">
  <defs
     id="defs4">
    <linearGradient
       id="linearGradient2867">
      <stop
         style="stop-color:#00ff1f;stop-opacity:1;"
         offset="0"
         id="stop2869" />
      <stop
         style="stop-color:#a5ffb0;stop-opacity:1;"
         offset="1"
         id="stop2871" />
    </linearGradient>
    <linearGradient
       inkscape:collect="always"
       xlink:href="#linearGradient2867"
       id="linearGradient2888"
       gradientUnits="userSpaceOnUse"
       x1="92.500008"
       y1="145"
       x2="92.499992"
       y2="61.714279" />
    <linearGradient
       inkscape:collect="always"
       xlink:href="#linearGradient2867"
       id="linearGradient1913"
       gradientUnits="userSpaceOnUse"
       x1="92.500008"
       y1="145"
       x2="92.499992"
       y2="61.714279" />
  </defs>
  <sodipodi:namedview
     id="base"
     pagecolor="#ffffff"
     bordercolor="#666666"
     borderopacity="1.0"
     inkscape:pageopacity="0.0"
     inkscape:pageshadow="2"
     inkscape:zoom="4.07"
     inkscape:cx="50"
     inkscape:cy="50"
     inkscape:document-units="px"
     inkscape:current-layer="layer1"
     width="100px"
     height="100px"
     inkscape:window-width="989"
     inkscape:window-height="626"
     inkscape:window-x="126"
     inkscape:window-y="101" />
  <metadata
     id="metadata7">
    <rdf:RDF>
      <cc:Work
         rdf:about="">
        <dc:format>image/svg+xml</dc:format>
        <dc:type
           rdf:resource="http://purl.org/dc/dcmitype/StillImage" />
      </cc:Work>
    </rdf:RDF>
  </metadata>
  <g
     inkscape:label="Ebene 1"
     inkscape:groupmode="layer"
     id="layer1">
    <path
       sodipodi:type="arc"
       style="opacity:1;fill:black;fill-opacity:0.29692832;stroke:none;stroke-width:1.58599997;stroke-linejoin:miter;stroke-miterlimit:4;stroke-dasharray:none;stroke-dashoffset:0;stroke-opacity:1"
       id="path2918"
       sodipodi:cx="98"
       sodipodi:cy="101"
       sodipodi:rx="44"
       sodipodi:ry="44"
       d="M 142 101 A 44 44 0 1 1  54,101 A 44 44 0 1 1  142 101 z"
       transform="matrix(0.909091,0,0,0.909091,-36.01992,-39.8182)" />
    <path
       sodipodi:type="arc"
       style="opacity:1;fill:url(#linearGradient2888);fill-opacity:1;stroke:black;stroke-width:2.35619974;stroke-linejoin:miter;stroke-miterlimit:4;stroke-dasharray:none;stroke-dashoffset:0;stroke-opacity:1"
       id="path2843"
       sodipodi:cx="98"
       sodipodi:cy="101"
       sodipodi:rx="44"
       sodipodi:ry="44"
       d="M 142 101 A 44 44 0 1 1  54,101 A 44 44 0 1 1  142 101 z"
       transform="matrix(0.909091,0,0,0.909091,-40.01991,-43.81819)" />
    <path
       style="fill:#eee;fill-opacity:1;stroke:none;stroke-width:0.38600001;stroke-linejoin:miter;stroke-miterlimit:4;stroke-dasharray:none;stroke-dashoffset:0;stroke-opacity:1"
       d="M 48.945992,12.999995 C 29.696572,12.999997 14.070992,28.625572 14.070992,47.874995 C 14.070992,67.124415 29.696572,82.749995 48.945992,82.749995 C 68.195412,82.749985 83.820992,67.124415 83.820992,47.874995 C 83.820992,28.625574 68.195412,12.999995 48.945992,12.999995 z M 49.070992,20.187495 C 50.357652,20.187495 51.611832,20.268113 52.852242,20.437495 L 52.852242,20.281245 C 58.564162,21.088465 63.704672,23.678997 67.758492,27.406245 C 68.423052,28.017273 69.062022,28.64026 69.664742,29.312495 C 69.960632,29.642508 70.259632,29.968605 70.539742,30.312495 C 70.823252,30.655982 71.085192,31.017974 71.352242,31.374995 C 71.489742,31.56115 71.625552,31.747845 71.758492,31.937495 C 72.083092,32.395053 72.398932,32.866318 72.695992,33.343745 C 72.747152,33.425969 72.801922,33.510952 72.852242,33.593745 C 73.187382,34.145117 73.492742,34.705638 73.789742,35.281245 C 74.110592,35.903068 74.421772,36.539515 74.695992,37.187495 C 74.708722,37.218117 74.714612,37.250568 74.727242,37.281245 C 76.111082,40.584214 76.883492,44.196576 76.883492,47.999995 C 76.883492,63.354315 64.425302,75.812495 49.070992,75.812495 C 44.424292,75.812495 40.047592,74.673625 36.195992,72.656245 C 35.672682,72.382145 35.167822,72.087025 34.664742,71.781245 C 34.550322,71.711695 34.434322,71.633635 34.320992,71.562495 C 33.791742,71.230265 33.263012,70.897335 32.758492,70.531245 C 32.650342,70.453805 32.552982,70.360185 32.445992,70.281245 C 31.999712,69.947425 31.558512,69.609405 31.133492,69.249995 C 30.877572,69.036325 30.631522,68.816305 30.383492,68.593745 C 29.713462,67.992515 29.086352,67.350255 28.477242,66.687495 C 24.819022,62.707085 22.266502,57.683625 21.414742,52.093745 L 21.539742,52.093745 C 21.341142,50.753515 21.258492,49.395175 21.258492,47.999995 C 21.258492,46.58194 21.365952,45.204913 21.570992,43.843745 L 21.383492,43.843745 C 23.131862,31.791201 32.593372,22.222186 44.602242,20.343745 L 44.602242,20.531245 C 46.061552,20.294511 47.545152,20.187495 49.070992,20.187495 z "
       id="path1909" />
    <path
       style="opacity:1;fill:white;fill-opacity:0.4778157;stroke:none;stroke-width:1.58599997;stroke-linejoin:miter;stroke-miterlimit:4;stroke-dasharray:none;stroke-dashoffset:0;stroke-opacity:1"
       d="M 48.800744,9.145405 C 27.330307,9.145405 9.905018,26.610293 9.905018,48.12952 C 9.905018,57.490245 13.200872,66.076555 18.693957,72.799165 C 24.166367,48.850795 40.323371,27.625813 63.363262,11.980187 C 58.865892,10.157926 53.947242,9.145405 48.800744,9.145405 z "
       id="path2856" />
    <path
       style="opacity:1;fill:black;fill-opacity:0.09215016;stroke:none;stroke-width:1.58599997;stroke-linejoin:miter;stroke-miterlimit:4;stroke-dasharray:none;stroke-dashoffset:0;stroke-opacity:1"
       d="M 49.144702,88.050205 C 71.368832,88.050205 89.405802,70.013225 89.405802,47.789105 C 89.405802,38.121764 85.994252,29.254184 80.308342,22.311374 C 74.643832,47.044204 57.919662,68.964445 34.070991,85.122565 C 38.726241,87.004515 43.817541,88.050205 49.144702,88.050205 z "
       id="path2920" />
    <path
       style="fill:#eee;fill-opacity:1;stroke:none;stroke-width:0.38600001;stroke-linejoin:miter;stroke-miterlimit:4;stroke-dasharray:none;stroke-dashoffset:0;stroke-opacity:1"
       d="M 48.977234,25.34376 C 47.479194,25.34376 46.018684,25.501776 44.602234,25.78126 L 44.602234,43.84376 L 26.820984,43.84376 C 26.584034,45.152435 26.445984,46.498363 26.445984,47.87501 C 26.445984,49.31782 26.592514,50.72617 26.852234,52.09376 L 71.102234,52.09376 C 71.361774,50.72664 71.477234,49.31729 71.477234,47.87501 C 71.477234,46.499265 71.370134,45.151629 71.133484,43.84376 L 52.852234,43.84376 L 52.852234,25.68751 C 51.588644,25.467207 50.303564,25.34376 48.977234,25.34376 z "
       id="path1904"
       sodipodi:nodetypes="ccccsccscccc" />
  </g>
</svg>
