<?xml version="1.0" encoding="UTF-8" standalone="no"?>
<!-- Created with Inkscape (http://www.inkscape.org/) -->
<svg
   xmlns:dc="http://purl.org/dc/elements/1.1/"
   xmlns:cc="http://web.resource.org/cc/"
   xmlns:rdf="http://www.w3.org/1999/02/22-rdf-syntax-ns#"
   xmlns:svg="http://www.w3.org/2000/svg"
   xmlns="http://www.w3.org/2000/svg"
   xmlns:xlink="http://www.w3.org/1999/xlink"
   xmlns:sodipodi="http://sodipodi.sourceforge.net/DTD/sodipodi-0.dtd"
   xmlns:inkscape="http://www.inkscape.org/namespaces/inkscape"
   width="100"
   height="100"
   id="svg2"
   sodipodi:version="0.32"
   inkscape:version="0.45"
   version="1.0"
   sodipodi:docbase="/home/ryx/Documents/scripts/python/screenlets/screenlets-0.0.9/src/share/screenlets/MailCheck/themes/ryx-glass"
   sodipodi:docname="mailcheck-got-mail.svg"
   inkscape:output_extension="org.inkscape.output.svg.inkscape"
   sodipodi:modified="true">
  <defs
     id="defs4">
    <linearGradient
       id="linearGradient12138">
      <stop
         style="stop-color:#05f;stop-opacity:1;"
         offset="0"
         id="stop12140" />
      <stop
         style="stop-color:#003db9;stop-opacity:1;"
         offset="1"
         id="stop12142" />
    </linearGradient>
    <linearGradient
       id="linearGradient12117">
      <stop
         style="stop-color:white;stop-opacity:0.77876109;"
         offset="0"
         id="stop12119" />
      <stop
         style="stop-color:white;stop-opacity:0;"
         offset="1"
         id="stop12121" />
    </linearGradient>
    <linearGradient
       id="linearGradient2848">
      <stop
         style="stop-color:black;stop-opacity:0.40265486;"
         offset="0"
         id="stop2850" />
      <stop
         style="stop-color:black;stop-opacity:0;"
         offset="1"
         id="stop2852" />
    </linearGradient>
    <linearGradient
       id="linearGradient2829">
      <stop
         style="stop-color:white;stop-opacity:0.79646015;"
         offset="0"
         id="stop2831" />
      <stop
         style="stop-color:white;stop-opacity:0;"
         offset="1"
         id="stop2833" />
    </linearGradient>
    <linearGradient
       id="linearGradient2792">
      <stop
         style="stop-color:#e1e1e1;stop-opacity:0.70588237;"
         offset="0"
         id="stop2794" />
      <stop
         style="stop-color:#a0a0a0;stop-opacity:0.53725493;"
         offset="1"
         id="stop2796" />
    </linearGradient>
    <linearGradient
       inkscape:collect="always"
       xlink:href="#linearGradient2792"
       id="linearGradient2798"
       x1="48.039215"
       y1="23.431374"
       x2="48.039215"
       y2="95"
       gradientUnits="userSpaceOnUse"
       gradientTransform="matrix(0.870265,0,0,0.870265,7.000001,-2.1562)" />
    <linearGradient
       inkscape:collect="always"
       xlink:href="#linearGradient2829"
       id="linearGradient2835"
       x1="52.204044"
       y1="25.621937"
       x2="52.191792"
       y2="56.934437"
       gradientUnits="userSpaceOnUse"
       gradientTransform="matrix(0.870265,0,0,0.870265,7.000001,-2.5828)" />
    <linearGradient
       inkscape:collect="always"
       xlink:href="#linearGradient2848"
       id="linearGradient2854"
       x1="41.176472"
       y1="93.529411"
       x2="41.681984"
       y2="74.251839"
       gradientUnits="userSpaceOnUse"
       gradientTransform="matrix(0.870265,0,0,0.870265,7.000001,-2.1562)" />
    <linearGradient
       inkscape:collect="always"
       xlink:href="#linearGradient12117"
       id="linearGradient12123"
       x1="78.670341"
       y1="62.5"
       x2="78.442406"
       y2="79.8125"
       gradientUnits="userSpaceOnUse"
       gradientTransform="matrix(0.893187,0,0,0.862669,-23.103109,-42.433914)" />
    <linearGradient
       inkscape:collect="always"
       xlink:href="#linearGradient2848"
       id="linearGradient12136"
       x1="85.1875"
       y1="89.40625"
       x2="85.1875"
       y2="78.125"
       gradientUnits="userSpaceOnUse"
       gradientTransform="translate(-31.617647,-52.205884)" />
    <linearGradient
       inkscape:collect="always"
       xlink:href="#linearGradient12138"
       id="linearGradient12144"
       x1="70.827209"
       y1="63.943321"
       x2="85.044121"
       y2="89.40625"
       gradientUnits="userSpaceOnUse"
       gradientTransform="translate(-31.617647,-52.205884)" />
  </defs>
  <sodipodi:namedview
     id="base"
     pagecolor="#ffffff"
     bordercolor="#666666"
     borderopacity="1.0"
     inkscape:pageopacity="0.0"
     inkscape:pageshadow="2"
     inkscape:zoom="4.08"
     inkscape:cx="50"
     inkscape:cy="50"
     inkscape:document-units="px"
     inkscape:current-layer="layer1"
     width="100px"
     height="100px"
     inkscape:window-width="989"
     inkscape:window-height="626"
     inkscape:window-x="267"
     inkscape:window-y="47" />
  <metadata
     id="metadata7">
    <rdf:RDF>
      <cc:Work
         rdf:about="">
        <dc:format>image/svg+xml</dc:format>
        <dc:type
           rdf:resource="http://purl.org/dc/dcmitype/StillImage" />
      </cc:Work>
    </rdf:RDF>
  </metadata>
  <g
     inkscape:label="Ebene 1"
     inkscape:groupmode="layer"
     id="layer1">
    <rect
       style="opacity:1;fill:black;fill-opacity:0.23208193;stroke:none;stroke-width:2;stroke-linecap:butt;stroke-linejoin:miter;stroke-miterlimit:4;stroke-dasharray:none;stroke-dashoffset:0;stroke-opacity:1"
       id="rect2800"
       width="83.613663"
       height="62.283646"
       x="10.481059"
       y="21.716354"
       rx="8.0000038"
       ry="8.0000038" />
    <rect
       style="opacity:1;fill:url(#linearGradient2798);fill-opacity:1;stroke:none;stroke-width:2;stroke-linecap:butt;stroke-linejoin:miter;stroke-miterlimit:4;stroke-dasharray:none;stroke-dashoffset:0;stroke-opacity:1"
       id="rect1872"
       width="83.613663"
       height="62.283646"
       x="7"
       y="18.235296"
       rx="8.0000038"
       ry="8.0000038" />
    <path
       style="opacity:1;fill:white;fill-opacity:0.43344709;stroke:none;stroke-width:2;stroke-linecap:butt;stroke-linejoin:miter;stroke-miterlimit:4;stroke-dashoffset:0;stroke-opacity:1"
       d="M 40.733,49.604461 L 10.59965,72.789912 L 10.289707,73.02237 L 10.289707,73.435628 C 10.289707,74.80286 11.245755,75.918126 12.536796,76.638377 C 13.827838,77.358629 15.530728,77.774836 17.392578,77.774836 L 80.207785,77.774836 C 82.069632,77.774838 83.746696,77.358628 85.037737,76.638377 C 86.328775,75.918127 87.310656,74.802858 87.310656,73.435628 L 87.310656,73.02237 L 86.974883,72.789912 L 56.867362,49.604461 L 55.860046,50.405148 C 55.753093,50.5048 55.656609,50.594689 55.550102,50.689264 L 85.528481,73.745571 C 85.398662,74.230837 85.039904,74.744077 84.23705,75.191974 C 83.259757,75.737186 81.82216,76.121804 80.207785,76.121804 L 17.392578,76.121804 C 15.778201,76.121806 14.340604,75.737185 13.363313,75.191974 C 12.560458,74.744079 12.201698,74.230835 12.071881,73.745571 L 42.050261,50.663435 C 41.950485,50.575099 41.840314,50.497665 41.740317,50.405148 L 40.733,49.604461 z "
       id="path2764"
       sodipodi:nodetypes="ccccsccscccccccsccscccc" />
    <path
       style="opacity:1;fill:white;fill-opacity:0.43344709;stroke:none;stroke-width:2;stroke-linecap:butt;stroke-linejoin:miter;stroke-miterlimit:4;stroke-dashoffset:0;stroke-opacity:1"
       d="M 48.733331,53.825124 C 46.411755,53.797895 44.170362,52.67314 41.992061,50.674032 C 41.972661,50.656229 41.959796,50.640317 41.940404,50.622375 L 10.610285,26.343471 L 10.300342,26.111013 L 10.300342,25.697755 C 10.300342,24.330525 11.256391,23.215257 12.547432,22.495006 C 13.838474,21.774755 15.541363,21.358547 17.403214,21.358547 L 80.218421,21.358547 C 82.08027,21.358547 83.757332,21.774755 85.048372,22.495006 C 86.339414,23.215257 87.321291,24.330525 87.321291,25.697755 L 87.321291,26.111013 L 86.98552,26.343471 L 55.681231,50.622375 C 55.661672,50.640598 55.649134,50.655959 55.629573,50.674032 C 53.356584,52.77417 51.055599,53.852361 48.733331,53.825124 z M 48.759159,52.172092 C 50.571679,52.19335 52.445648,51.364255 54.544771,49.40843 L 54.5706,49.382601 L 54.596428,49.356773 L 85.539116,25.387812 C 85.4093,24.902548 85.050539,24.389306 84.247685,23.941409 C 83.270395,23.396199 81.832796,23.011579 80.218421,23.011579 L 17.403214,23.011579 C 15.788837,23.011579 14.351239,23.396199 13.373948,23.941409 C 12.571094,24.389306 12.212333,24.902548 12.082516,25.387812 L 42.999377,49.356773 L 43.025206,49.382601 L 43.051034,49.40843 C 45.065996,51.272661 46.946641,52.150834 48.759159,52.172092 z "
       id="path2783" />
    <path
       style="opacity:1;fill:url(#linearGradient2835);fill-opacity:1;stroke:none;stroke-width:2;stroke-linecap:butt;stroke-linejoin:miter;stroke-miterlimit:4;stroke-dasharray:none;stroke-dashoffset:0;stroke-opacity:1"
       d="M 15.027019,19.715065 C 11.170003,19.715065 8.0649013,22.820168 8.0649013,26.677182 L 8.0649013,46.965227 C 32.168982,41.00975 60.603206,38.22817 89.108298,39.187237 L 89.108298,26.677182 C 89.108298,22.820168 86.003198,19.715065 82.146181,19.715065 L 15.027019,19.715065 z "
       id="rect2822" />
    <path
       style="opacity:0.8630137;fill:url(#linearGradient2854);fill-opacity:1;stroke:none;stroke-width:2;stroke-linecap:butt;stroke-linejoin:miter;stroke-miterlimit:4;stroke-dasharray:none;stroke-dashoffset:0;stroke-opacity:1"
       d="M 89.773795,62.46255 C 70.988394,72.51201 38.067762,76.862742 7.8532008,73.245816 C 7.8822121,76.569919 10.913082,79.239142 14.673257,79.239142 L 82.953739,79.239142 C 86.732052,79.239142 89.773795,76.54507 89.773795,73.198625 L 89.773795,62.46255 z "
       id="rect2841" />
    <path
       style="opacity:0.86301371;fill:#000000;fill-opacity:0.23549488;stroke:none;stroke-width:2;stroke-linecap:butt;stroke-linejoin:miter;stroke-miterlimit:4;stroke-dasharray:none;stroke-dashoffset:0;stroke-opacity:1"
       d="M 38.887975,14.784308 L 38.887975,29.839975 L 30.915441,29.839975 L 51.064208,40.710166 L 68.661763,29.839975 L 60.718222,29.839975 L 60.718222,14.784308 L 38.887975,14.784308 z "
       id="path13031" />
    <path
       style="opacity:0.86301371;fill:url(#linearGradient12144);fill-opacity:1;stroke:none;stroke-width:2;stroke-linecap:butt;stroke-linejoin:miter;stroke-miterlimit:4;stroke-dasharray:none;stroke-dashoffset:0;stroke-opacity:1"
       d="M 36.038603,10.294112 L 36.038603,25.919112 L 27.444853,25.919112 L 49.163603,37.200362 L 68.132353,25.919112 L 59.569853,25.919112 L 59.569853,10.294112 L 36.038603,10.294112 z "
       id="rect10326" />
    <path
       style="opacity:0.86301371;fill:#5897ff;fill-opacity:1;stroke:none;stroke-width:2;stroke-linecap:butt;stroke-linejoin:miter;stroke-miterlimit:4;stroke-dasharray:none;stroke-dashoffset:0;stroke-opacity:1"
       d="M 36.038603,10.294112 L 36.038603,25.919112 L 27.444853,25.919112 L 49.163603,37.200362 L 49.226103,37.169112 L 31.444853,27.919112 L 40.038603,27.919112 L 40.038603,12.294112 L 59.569853,12.294112 L 59.569853,10.294112 L 36.038603,10.294112 z M 63.569853,25.919112 L 63.569853,27.919112 L 64.757353,27.919112 L 68.132353,25.919112 L 63.569853,25.919112 z "
       id="path10332" />
    <path
       style="opacity:1;fill:url(#linearGradient12123);fill-opacity:1;stroke:none;stroke-width:2;stroke-linecap:butt;stroke-linejoin:miter;stroke-miterlimit:4;stroke-dasharray:none;stroke-dashoffset:0;stroke-opacity:1"
       d="M 37.326559,11.482885 L 37.326559,21.727077 C 42.306059,18.221403 49.749728,15.692605 58.344363,14.798768 L 58.344363,11.482885 L 37.326559,11.482885 z M 29.650735,24.962085 L 32.581504,26.417839 C 32.910001,25.923627 33.288393,25.435545 33.697988,24.962085 L 29.650735,24.962085 z "
       id="path12110" />
    <path
       style="opacity:0.86301371;fill:url(#linearGradient12136);fill-opacity:1;stroke:none;stroke-width:2;stroke-linecap:butt;stroke-linejoin:miter;stroke-miterlimit:4;stroke-dasharray:none;stroke-dashoffset:0;stroke-opacity:1"
       d="M 63.851103,25.919112 C 56.772379,28.661836 48.32969,30.722728 39.007353,31.919112 L 49.163603,37.200362 L 68.132353,25.919112 L 63.851103,25.919112 z "
       id="path12125" />
  </g>
</svg>
