<?xml version="1.0" encoding="UTF-8" standalone="no"?>
<!-- Created with Inkscape (http://www.inkscape.org/) -->
<svg
   xmlns:dc="http://purl.org/dc/elements/1.1/"
   xmlns:cc="http://web.resource.org/cc/"
   xmlns:rdf="http://www.w3.org/1999/02/22-rdf-syntax-ns#"
   xmlns:svg="http://www.w3.org/2000/svg"
   xmlns="http://www.w3.org/2000/svg"
   xmlns:xlink="http://www.w3.org/1999/xlink"
   xmlns:sodipodi="http://sodipodi.sourceforge.net/DTD/sodipodi-0.dtd"
   xmlns:inkscape="http://www.inkscape.org/namespaces/inkscape"
   width="48"
   height="48"
   id="svg2"
   sodipodi:version="0.32"
   inkscape:version="0.45"
   version="1.0"
   sodipodi:docbase="/home/ryx/Documents/scripts/python/screenlets/screenlets-0.0.9/src/share/screenlets/MailCheck/themes/ryx-glass"
   sodipodi:docname="mailcheck-icon-refresh.svg"
   inkscape:output_extension="org.inkscape.output.svg.inkscape"
   sodipodi:modified="true">
  <defs
     id="defs4">
    <linearGradient
       id="linearGradient2848">
      <stop
         style="stop-color:black;stop-opacity:0.40265486;"
         offset="0"
         id="stop2850" />
      <stop
         style="stop-color:black;stop-opacity:0;"
         offset="1"
         id="stop2852" />
    </linearGradient>
    <linearGradient
       id="linearGradient2829">
      <stop
         style="stop-color:white;stop-opacity:0.79646015;"
         offset="0"
         id="stop2831" />
      <stop
         style="stop-color:white;stop-opacity:0;"
         offset="1"
         id="stop2833" />
    </linearGradient>
    <linearGradient
       id="linearGradient2792">
      <stop
         style="stop-color:#707070;stop-opacity:0.70588237;"
         offset="0"
         id="stop2794" />
      <stop
         style="stop-color:black;stop-opacity:0.53539824;"
         offset="1"
         id="stop2796" />
    </linearGradient>
    <linearGradient
       inkscape:collect="always"
       xlink:href="#linearGradient2792"
       id="linearGradient2798"
       x1="48.039215"
       y1="23.431374"
       x2="48.039215"
       y2="95"
       gradientUnits="userSpaceOnUse"
       gradientTransform="matrix(0.870265,0,0,0.870265,51.000001,-2.1562)" />
    <linearGradient
       inkscape:collect="always"
       xlink:href="#linearGradient2829"
       id="linearGradient2835"
       x1="52.204044"
       y1="25.621937"
       x2="52.191792"
       y2="56.934437"
       gradientUnits="userSpaceOnUse"
       gradientTransform="matrix(0.870265,0,0,0.870265,7.000001,-2.5828)" />
    <linearGradient
       inkscape:collect="always"
       xlink:href="#linearGradient2848"
       id="linearGradient2854"
       x1="41.176472"
       y1="93.529411"
       x2="41.681984"
       y2="74.251839"
       gradientUnits="userSpaceOnUse"
       gradientTransform="matrix(0.870265,0,0,0.870265,7.000001,-2.1562)" />
  </defs>
  <sodipodi:namedview
     id="base"
     pagecolor="#ffffff"
     bordercolor="#666666"
     borderopacity="1.0"
     inkscape:pageopacity="0.0"
     inkscape:pageshadow="2"
     inkscape:zoom="4.08"
     inkscape:cx="50"
     inkscape:cy="20.70786"
     inkscape:document-units="px"
     inkscape:current-layer="layer1"
     width="48px"
     height="48px"
     inkscape:window-width="989"
     inkscape:window-height="626"
     inkscape:window-x="243"
     inkscape:window-y="119" />
  <metadata
     id="metadata7">
    <rdf:RDF>
      <cc:Work
         rdf:about="">
        <dc:format>image/svg+xml</dc:format>
        <dc:type
           rdf:resource="http://purl.org/dc/dcmitype/StillImage" />
      </cc:Work>
    </rdf:RDF>
  </metadata>
  <g
     inkscape:label="Ebene 1"
     inkscape:groupmode="layer"
     id="layer1">
    <path
       sodipodi:type="arc"
       style="opacity:1;fill:#999999;fill-opacity:0.25597271;stroke:none;stroke-width:2;stroke-linecap:butt;stroke-linejoin:miter;stroke-miterlimit:4;stroke-dasharray:none;stroke-dashoffset:0;stroke-opacity:1"
       id="path5614"
       sodipodi:cx="80.392159"
       sodipodi:cy="68.872551"
       sodipodi:rx="20.588236"
       sodipodi:ry="20.588236"
       d="M 100.98039 68.872551 A 20.588236 20.588236 0 1 1  59.803923,68.872551 A 20.588236 20.588236 0 1 1  100.98039 68.872551 z"
       transform="translate(-55.882353,-45.098039)" />
    <path
       style="opacity:1;fill:#00ff00;fill-opacity:1;stroke:none;stroke-width:2;stroke-linecap:butt;stroke-linejoin:miter;stroke-miterlimit:4;stroke-dasharray:none;stroke-dashoffset:0;stroke-opacity:1"
       d="M 22.098039,5.8995098 L 22.098039,9.4932598 C 13.786599,10.501581 7.3480392,17.204199 7.3480392,25.36826 C 7.3480392,34.230023 14.918999,41.430759 24.254289,41.43076 C 24.455819,41.430759 24.648199,41.406159 24.848039,41.39951 C 18.533929,40.057778 13.785539,34.702393 13.785539,28.30576 C 13.785539,22.86531 15.791149,20.637654 22.098039,18.58701 L 22.098039,21.83701 L 29.941789,13.99326 L 22.098039,5.8995098 z M 25.035539,5.8995098 C 24.833999,5.8995128 24.641629,5.9241108 24.441789,5.9307598 C 30.755889,7.2724938 35.504289,12.627877 35.504289,19.02451 C 35.504289,24.464962 33.498679,26.692616 27.191789,28.74326 L 27.191789,25.49326 L 19.348039,33.33701 L 27.191789,41.43076 L 27.191789,37.83701 C 35.503229,36.828691 41.941789,30.126071 41.941789,21.96201 C 41.941789,13.100249 34.370829,5.8995108 25.035539,5.8995098 z "
       id="path5595" />
    <path
       style="opacity:1;fill:#79ff79;fill-opacity:1;stroke:none;stroke-width:2;stroke-linecap:butt;stroke-linejoin:miter;stroke-miterlimit:4;stroke-dasharray:none;stroke-dashoffset:0;stroke-opacity:1"
       d="M 22.098039,5.8995098 L 22.098039,9.4932598 C 13.786596,10.501581 7.3480402,17.204199 7.3480392,25.36826 C 7.3480402,30.155623 9.5631822,34.455077 13.066789,37.39951 C 10.748556,34.649633 9.3480382,31.160851 9.3480392,27.36826 C 9.3480402,19.204199 15.786596,12.501581 24.098039,11.49326 L 24.098039,7.9620098 L 22.098039,5.8995098 z M 25.035539,5.8995098 C 24.833999,5.8995128 24.641627,5.9241108 24.441789,5.9307598 C 26.299254,6.3254668 28.030093,7.0732908 29.535539,8.0870098 C 32.837735,8.5548488 35.833977,9.9229908 38.223039,11.93076 C 35.124493,8.2552778 30.375583,5.8995108 25.035539,5.8995098 z M 32.535539,10.80576 C 34.398204,13.076499 35.504289,15.929609 35.504289,19.02451 C 35.504287,23.83478 33.914335,26.139127 29.191789,28.02451 L 29.191789,30.74326 C 35.498679,28.692616 37.504289,26.464962 37.504289,21.02451 C 37.504289,16.940924 35.577888,13.267271 32.535539,10.80576 z M 22.910539,21.02451 C 22.642305,21.122419 22.348316,21.205842 22.098039,21.30576 L 22.098039,21.83701 L 22.910539,21.02451 z M 27.191789,25.49326 L 19.348039,33.33701 L 27.191789,41.43076 L 27.191789,41.36826 L 21.348039,35.33701 L 28.379289,28.30576 C 27.984444,28.449884 27.626808,28.601817 27.191789,28.74326 L 27.191789,25.49326 z M 18.754289,38.52451 C 19.608909,39.566361 20.618258,40.478293 21.754289,41.24326 C 22.57362,41.359339 23.401046,41.43076 24.254289,41.43076 C 24.455823,41.430759 24.648201,41.406159 24.848039,41.39951 C 22.564833,40.914335 20.477552,39.918772 18.754289,38.52451 z "
       id="path7596" />
  </g>
</svg>
