<?xml version="1.0" encoding="UTF-8" standalone="no"?>
<!-- Created with Inkscape (http://www.inkscape.org/) -->
<svg
   xmlns:dc="http://purl.org/dc/elements/1.1/"
   xmlns:cc="http://web.resource.org/cc/"
   xmlns:rdf="http://www.w3.org/1999/02/22-rdf-syntax-ns#"
   xmlns:svg="http://www.w3.org/2000/svg"
   xmlns="http://www.w3.org/2000/svg"
   xmlns:xlink="http://www.w3.org/1999/xlink"
   xmlns:sodipodi="http://sodipodi.sourceforge.net/DTD/sodipodi-0.dtd"
   xmlns:inkscape="http://www.inkscape.org/namespaces/inkscape"
   width="100"
   height="30"
   id="svg2"
   sodipodi:version="0.32"
   inkscape:version="0.45"
   version="1.0"
   sodipodi:docbase="/home/ryx/Documents/scripts/python/screenlets/screenlets-0.0.10/src/share/screenlets/CopyStack/themes/default"
   sodipodi:docname="copystack-file.svg"
   inkscape:output_extension="org.inkscape.output.svg.inkscape"
   sodipodi:modified="true">
  <defs
     id="defs4">
    <linearGradient
       inkscape:collect="always"
       id="linearGradient3184">
      <stop
         style="stop-color:#ffffff;stop-opacity:1;"
         offset="0"
         id="stop3186" />
      <stop
         style="stop-color:#ffffff;stop-opacity:0;"
         offset="1"
         id="stop3188" />
    </linearGradient>
    <linearGradient
       inkscape:collect="always"
       xlink:href="#linearGradient3184"
       id="linearGradient3190"
       x1="24.220844"
       y1="0.55865914"
       x2="31.758907"
       y2="23.12849"
       gradientUnits="userSpaceOnUse"
       gradientTransform="matrix(1,0,0,0.4117647,0,11.764706)" />
  </defs>
  <sodipodi:namedview
     id="base"
     pagecolor="#ffffff"
     bordercolor="#666666"
     borderopacity="1.0"
     inkscape:pageopacity="0.0"
     inkscape:pageshadow="2"
     inkscape:zoom="5.12"
     inkscape:cx="42.850535"
     inkscape:cy="11.469473"
     inkscape:document-units="px"
     inkscape:current-layer="layer1"
     width="100px"
     height="30px"
     inkscape:window-width="989"
     inkscape:window-height="626"
     inkscape:window-x="173"
     inkscape:window-y="170" />
  <metadata
     id="metadata7">
    <rdf:RDF>
      <cc:Work
         rdf:about="">
        <dc:format>image/svg+xml</dc:format>
        <dc:type
           rdf:resource="http://purl.org/dc/dcmitype/StillImage" />
      </cc:Work>
    </rdf:RDF>
  </metadata>
  <g
     inkscape:label="Ebene 1"
     inkscape:groupmode="layer"
     id="layer1">
    <path
       style="color:#000000;fill:#000000;fill-opacity:0.27986348;fill-rule:evenodd;stroke:none;stroke-width:0.99999994;stroke-linecap:butt;stroke-linejoin:round;marker:none;marker-start:none;marker-mid:none;marker-end:none;stroke-miterlimit:4;stroke-dashoffset:0;stroke-opacity:1;visibility:visible;display:inline;overflow:visible"
       d="M 26.613904,16 L 73.386096,16 L 92.094972,30 L 7.9050279,30 L 26.613904,16 z "
       id="path4161"
       sodipodi:nodetypes="ccccc" />
    <path
       style="color:#000000;fill:#f2f2f2;fill-opacity:0.86006829;fill-rule:evenodd;stroke:#797979;stroke-width:0.99999994;stroke-linecap:butt;stroke-linejoin:round;marker:none;marker-start:none;marker-mid:none;marker-end:none;stroke-miterlimit:4;stroke-dashoffset:0;stroke-opacity:1;visibility:visible;display:inline;overflow:visible"
       d="M 25,13 L 75,13 L 95,27 L 5,27 L 25,13 z "
       id="rect2224"
       sodipodi:nodetypes="ccccc" />
    <path
       style="font-size:12px;font-style:normal;font-weight:normal;fill:#000000;fill-opacity:1;stroke:none;stroke-width:1px;stroke-linecap:butt;stroke-linejoin:miter;stroke-opacity:1;font-family:Bitstream Vera Sans"
       d="M 38.828125,14.4375 L 38.828125,15.333984 L 37.796875,15.333984 C 37.410153,15.333993 37.140622,15.412118 36.988281,15.568359 C 36.839841,15.724617 36.765623,16.005867 36.765625,16.412109 L 36.765625,16.992188 L 38.541016,16.992188 L 38.541016,17.830078 L 36.765625,17.830078 L 36.765625,23.554688 L 35.681641,23.554688 L 35.681641,17.830078 L 34.650391,17.830078 L 34.650391,16.992188 L 35.681641,16.992188 L 35.681641,16.535156 C 35.681639,15.804695 35.851561,15.273446 36.191406,14.941406 C 36.531248,14.605478 37.07031,14.437509 37.808594,14.4375 L 38.828125,14.4375 M 39.724609,16.992188 L 40.802734,16.992188 L 40.802734,23.554688 L 39.724609,23.554688 L 39.724609,16.992188 M 39.724609,14.4375 L 40.802734,14.4375 L 40.802734,15.802734 L 39.724609,15.802734 L 39.724609,14.4375 M 43.052734,14.4375 L 44.130859,14.4375 L 44.130859,23.554688 L 43.052734,23.554688 L 43.052734,14.4375 M 51.994141,20.003906 L 51.994141,20.53125 L 47.037109,20.53125 C 47.083983,21.27344 47.306639,21.839845 47.705078,22.230469 C 48.107419,22.617188 48.666012,22.810548 49.380859,22.810547 C 49.794917,22.810548 50.195308,22.759766 50.582031,22.658203 C 50.972651,22.556642 51.359369,22.404298 51.742188,22.201172 L 51.742188,23.220703 C 51.355463,23.384766 50.958979,23.509766 50.552734,23.595703 C 50.146479,23.68164 49.734371,23.724609 49.316406,23.724609 C 48.269528,23.724609 47.439451,23.419922 46.826172,22.810547 C 46.216796,22.201173 45.912109,21.376955 45.912109,20.337891 C 45.912109,19.263676 46.201171,18.412115 46.779297,17.783203 C 47.361326,17.150397 48.144528,16.833991 49.128906,16.833984 C 50.011714,16.833991 50.708979,17.119147 51.220703,17.689453 C 51.736322,18.255865 51.994134,19.027348 51.994141,20.003906 M 50.916016,19.6875 C 50.908197,19.097661 50.742182,18.626958 50.417969,18.275391 C 50.097651,17.923834 49.671871,17.748053 49.140625,17.748047 C 48.539059,17.748053 48.056638,17.917974 47.693359,18.257812 C 47.333982,18.597661 47.126951,19.076176 47.072266,19.693359 L 50.916016,19.6875 M 54.039062,22.066406 L 55.275391,22.066406 L 55.275391,23.554688 L 54.039062,23.554688 L 54.039062,22.066406 M 54.039062,17.349609 L 55.275391,17.349609 L 55.275391,18.837891 L 54.039062,18.837891 L 54.039062,17.349609 M 59.734375,14.806641 L 60.730469,14.806641 L 57.683594,24.667969 L 56.6875,24.667969 L 59.734375,14.806641 M 63.789062,14.806641 L 64.785156,14.806641 L 61.738281,24.667969 L 60.742188,24.667969 L 63.789062,14.806641"
       id="text2173" />
    <path
       style="color:#000000;fill:url(#linearGradient3190);fill-opacity:1;fill-rule:evenodd;stroke:none;stroke-width:1;stroke-linecap:butt;stroke-linejoin:round;marker:none;marker-start:none;marker-mid:none;marker-end:none;stroke-miterlimit:4;stroke-dashoffset:0;stroke-opacity:1;visibility:visible;display:inline;overflow:visible"
       d="M 25.75,13.231618 L 14.65625,20.977941 C 26.013868,17.009183 48.56331,14.299632 74.53125,14.299632 C 74.952113,14.299632 75.362206,14.298217 75.78125,14.299632 L 74.25,13.231618 L 25.75,13.231618 z M 6.875,26.395221 L 6.34375,26.768382 L 6.8125,26.768382 C 6.814554,26.643201 6.8531619,26.519515 6.875,26.395221 z "
       id="path2192" />
  </g>
</svg>
