<?xml version="1.0" encoding="UTF-8" standalone="no"?>
<!-- Created with Inkscape (http://www.inkscape.org/) -->
<svg
   xmlns:dc="http://purl.org/dc/elements/1.1/"
   xmlns:cc="http://web.resource.org/cc/"
   xmlns:rdf="http://www.w3.org/1999/02/22-rdf-syntax-ns#"
   xmlns:svg="http://www.w3.org/2000/svg"
   xmlns="http://www.w3.org/2000/svg"
   xmlns:xlink="http://www.w3.org/1999/xlink"
   xmlns:sodipodi="http://sodipodi.sourceforge.net/DTD/sodipodi-0.dtd"
   xmlns:inkscape="http://www.inkscape.org/namespaces/inkscape"
   width="100"
   height="100"
   id="svg2"
   sodipodi:version="0.32"
   inkscape:version="0.45.1"
   version="1.0"
   sodipodi:docbase="/usr/local/share/screenlets/Clock/themes/glass"
   sodipodi:docname="clock-face.svg"
   inkscape:output_extension="org.inkscape.output.svg.inkscape">
  <defs
     id="defs4">
    <linearGradient
       id="linearGradient2202">
      <stop
         style="stop-color:#a5adad;stop-opacity:1;"
         offset="0"
         id="stop2204" />
      <stop
         style="stop-color:#e8f4ed;stop-opacity:1;"
         offset="1"
         id="stop2206" />
    </linearGradient>
    <linearGradient
       y2="125.2162"
       x2="128.83441"
       y1="229.24899"
       x1="128.83441"
       gradientUnits="userSpaceOnUse"
       id="linearGradient40396"
       xlink:href="#linearGradient12060"
       inkscape:collect="always" />
    <linearGradient
       gradientUnits="userSpaceOnUse"
       y2="125.2162"
       x2="128.83441"
       y1="229.24899"
       x1="128.83441"
       id="linearGradient40364"
       xlink:href="#linearGradient12060"
       inkscape:collect="always" />
    <radialGradient
       r="23.810026"
       fy="71.598946"
       fx="103.85224"
       cy="71.598946"
       cx="103.85224"
       gradientTransform="matrix(1,0,0,1.2879543,0,-20.549948)"
       gradientUnits="userSpaceOnUse"
       id="radialGradient40339"
       xlink:href="#linearGradient38094"
       inkscape:collect="always" />
    <linearGradient
       y2="72.141418"
       x2="148.89612"
       y1="93.964729"
       x1="153.49094"
       gradientUnits="userSpaceOnUse"
       id="linearGradient40336"
       xlink:href="#linearGradient12060"
       inkscape:collect="always" />
    <radialGradient
       r="24.119991"
       fy="73.726906"
       fx="152.60074"
       cy="73.726906"
       cx="152.60074"
       gradientTransform="matrix(1.0057892,0,0,0.8836633,-0.7437988,8.5771438)"
       gradientUnits="userSpaceOnUse"
       id="radialGradient40333"
       xlink:href="#linearGradient38094"
       inkscape:collect="always" />
    <linearGradient
       gradientTransform="matrix(0.8371529,0,0,0.7554692,36.851892,18.953771)"
       y2="63.585667"
       x2="114.78568"
       y1="84.780212"
       x1="116.96175"
       gradientUnits="userSpaceOnUse"
       id="linearGradient40321"
       xlink:href="#linearGradient12060"
       inkscape:collect="always" />
    <linearGradient
       gradientTransform="matrix(0.8371529,0,0,0.7554692,36.851892,18.953771)"
       y2="73.459717"
       x2="121.24662"
       y1="61.396671"
       x1="119.1004"
       gradientUnits="userSpaceOnUse"
       id="linearGradient40319"
       xlink:href="#linearGradient12060"
       inkscape:collect="always" />
    <linearGradient
       gradientUnits="userSpaceOnUse"
       y2="63.585667"
       x2="114.78568"
       y1="84.780212"
       x1="116.96175"
       id="linearGradient40313"
       xlink:href="#linearGradient12060"
       inkscape:collect="always" />
    <linearGradient
       gradientUnits="userSpaceOnUse"
       y2="73.459717"
       x2="121.24662"
       y1="61.396671"
       x1="119.1004"
       id="linearGradient40305"
       xlink:href="#linearGradient12060"
       inkscape:collect="always" />
    <linearGradient
       y2="57.522923"
       x2="154.78125"
       y1="46.06752"
       x1="154.78125"
       gradientUnits="userSpaceOnUse"
       id="linearGradient40271"
       xlink:href="#linearGradient12060"
       inkscape:collect="always" />
    <clipPath
       id="clipPath40265"
       clipPathUnits="userSpaceOnUse">
      <path
         id="path40267"
         d="M 30.71875,20.25 L 30.71875,167.1875 L 218.5,167.1875 L 218.5,20.25 L 30.71875,20.25 z M 103.84375,41 C 116.98688,41 127.65625,54.728493 127.65625,71.65625 C 127.65625,76.956991 126.62166,81.961131 124.78125,86.3125 C 125.40957,86.261963 126.0304,86.21447 126.625,86.1875 C 128.85395,86.174353 131.12048,86.284127 133.375,86.5625 C 130.30351,82.991665 128.46875,78.536238 128.46875,73.71875 C 128.46876,61.953449 139.35869,52.40625 152.75,52.40625 C 166.14132,52.406248 177,61.953449 177,73.71875 C 177,85.484051 166.14131,95.03125 152.75,95.03125 C 152.52572,95.03125 151.71514,95.282481 150.71875,95.625 C 152.3507,99.469183 148.27544,103.89155 145.84375,106.90625 C 141.32338,112.5104 136.49944,120.03559 129.375,123.125 C 122.32854,123.81122 118.10961,116.58819 113.40625,111.53125 C 110.94581,108.89043 106.93182,105.65173 104.71875,102.3125 C 104.42669,102.32619 104.13839,102.34375 103.84375,102.34375 C 90.700616,102.34375 80.03125,88.584007 80.03125,71.65625 C 80.031252,54.728491 90.700616,41 103.84375,41 z "
         style="opacity:1;fill:#f36600;fill-opacity:0.62857145;fill-rule:nonzero;stroke:none;stroke-width:0;stroke-linecap:round;stroke-linejoin:round;stroke-miterlimit:4;stroke-dasharray:none;stroke-opacity:1" />
    </clipPath>
    <filter
       id="filter40258"
       inkscape:collect="always">
      <feGaussianBlur
         id="feGaussianBlur40260"
         stdDeviation="2.3782736"
         inkscape:collect="always" />
    </filter>
    <linearGradient
       gradientUnits="userSpaceOnUse"
       y2="138.29314"
       x2="128.51562"
       y1="96.374802"
       x1="128.51562"
       id="linearGradient40244"
       xlink:href="#linearGradient40238"
       inkscape:collect="always" />
    <linearGradient
       y2="72.141418"
       x2="148.89612"
       y1="93.964729"
       x1="153.49094"
       gradientUnits="userSpaceOnUse"
       id="linearGradient39155"
       xlink:href="#linearGradient12060"
       inkscape:collect="always" />
    <clipPath
       id="clipPath39114"
       clipPathUnits="userSpaceOnUse">
      <path
         clip-path="url(#clipPath27297)"
         id="path39116"
         d="M 126.625,86.1875 C 118.20753,86.569299 105.9313,89.238967 103.40625,96.28125 C 101.53301,101.50567 109.45439,107.30514 113.39947,111.53944 C 118.10283,116.59638 122.32854,123.81122 129.375,123.125 C 136.49944,120.03559 141.3264,112.51345 145.84677,106.9093 C 148.73523,103.32832 154.00389,97.75334 149.1875,93.53125 C 143.38902,87.572589 134.67607,86.140013 126.625,86.1875 z "
         style="opacity:1;fill:#0024ac;fill-opacity:1;stroke:none"
         sodipodi:nodetypes="csscscc" />
    </clipPath>
    <linearGradient
       gradientUnits="userSpaceOnUse"
       y2="55.173664"
       x2="86.562088"
       y1="101.31483"
       x1="97.794289"
       id="linearGradient39109"
       xlink:href="#linearGradient12060"
       inkscape:collect="always" />
    <linearGradient
       gradientUnits="userSpaceOnUse"
       y2="72.141418"
       x2="148.89612"
       y1="93.964729"
       x1="153.49094"
       id="linearGradient39101"
       xlink:href="#linearGradient12060"
       inkscape:collect="always" />
    <linearGradient
       gradientUnits="userSpaceOnUse"
       y2="78.095909"
       x2="104.40923"
       y1="41.999958"
       x1="105.00437"
       id="linearGradient39093"
       xlink:href="#linearGradient12060"
       inkscape:collect="always" />
    <linearGradient
       gradientUnits="userSpaceOnUse"
       y2="76.549019"
       x2="155.412"
       y1="53.410797"
       x1="155.01846"
       id="linearGradient38116"
       xlink:href="#linearGradient12060"
       inkscape:collect="always" />
    <radialGradient
       gradientUnits="userSpaceOnUse"
       gradientTransform="matrix(1.0057892,0,0,0.8836633,-0.7437988,8.5771438)"
       r="24.119991"
       fy="73.726906"
       fx="152.60074"
       cy="73.726906"
       cx="152.60074"
       id="radialGradient38108"
       xlink:href="#linearGradient38094"
       inkscape:collect="always" />
    <radialGradient
       gradientUnits="userSpaceOnUse"
       gradientTransform="matrix(1,0,0,1.2879543,0,-20.549948)"
       r="23.810026"
       fy="71.598946"
       fx="103.85224"
       cy="71.598946"
       cx="103.85224"
       id="radialGradient38100"
       xlink:href="#linearGradient38094"
       inkscape:collect="always" />
    <linearGradient
       y2="117.52934"
       x2="122.42652"
       y1="93.112587"
       x1="139.6817"
       gradientUnits="userSpaceOnUse"
       id="linearGradient30303"
       xlink:href="#linearGradient12060"
       inkscape:collect="always" />
    <clipPath
       id="clipPath30299"
       clipPathUnits="userSpaceOnUse">
      <path
         id="path30301"
         d="M -1,186.4375 L -1,258.6875 L 256,258.6875 L 256,186.4375 L -1,186.4375 z M 77.625,196.125 C 82.846534,196.04375 88.209225,196.64685 93.5,198 C 110.7,202.39903 120.9146,212.72497 120.96875,225.78125 C 120.98661,230.08764 119.60765,232.38961 117.34375,234.03125 C 114.33695,236.21162 95.067465,236.33651 79.9375,236.125 C 64.805395,235.91346 42.406157,237.07107 39.9375,233.0625 C 34.662864,227.78786 36.444484,217.94673 44.25,209.40625 C 51.88973,201.04717 64.28108,196.33263 77.625,196.125 z M 177.0625,196.1875 C 186.3369,195.97695 195.85361,197.84403 204,202 C 215.2047,207.71622 222.71646,220.33992 220.09375,229.09375 C 217.99133,236.11101 218.75668,236 178.40625,236 C 143.52232,235.99999 142.19471,235.94092 139.6875,233.96875 C 134.09575,229.57028 135.627,218.11766 142.9375,209.8125 C 150.47034,201.25472 163.50761,196.49522 177.0625,196.1875 z "
         style="opacity:1;fill:#ffffff;fill-opacity:1;fill-rule:nonzero;stroke:none;stroke-width:0;stroke-linecap:round;stroke-linejoin:round;stroke-miterlimit:4;stroke-dasharray:none;stroke-opacity:1" />
    </clipPath>
    <filter
       id="filter30281"
       height="1.4575849"
       y="-0.22879244"
       width="1.1028873"
       x="-0.051443636"
       inkscape:collect="always">
      <feGaussianBlur
         id="feGaussianBlur30283"
         stdDeviation="3.3157031"
         inkscape:collect="always" />
    </filter>
    <clipPath
       id="clipPath30272"
       clipPathUnits="userSpaceOnUse">
      <path
         style="opacity:1;fill:#ffffff;fill-opacity:1;fill-rule:nonzero;stroke:none;stroke-width:0;stroke-linecap:round;stroke-linejoin:round;stroke-miterlimit:4;stroke-dasharray:none;stroke-opacity:1"
         d="M -1,186.4375 L -1,258.6875 L 256,258.6875 L 256,186.4375 L -1,186.4375 z M 77.625,196.125 C 82.846534,196.04375 88.209225,196.64685 93.5,198 C 110.7,202.39903 120.9146,212.72497 120.96875,225.78125 C 120.98661,230.08764 119.60765,232.38961 117.34375,234.03125 C 114.33695,236.21162 95.067465,236.33651 79.9375,236.125 C 64.805395,235.91346 42.406157,237.07107 39.9375,233.0625 C 34.662864,227.78786 36.444484,217.94673 44.25,209.40625 C 51.88973,201.04717 64.28108,196.33263 77.625,196.125 z M 177.0625,196.1875 C 186.3369,195.97695 195.85361,197.84403 204,202 C 215.2047,207.71622 222.71646,220.33992 220.09375,229.09375 C 217.99133,236.11101 218.75668,236 178.40625,236 C 143.52232,235.99999 142.19471,235.94092 139.6875,233.96875 C 134.09575,229.57028 135.627,218.11766 142.9375,209.8125 C 150.47034,201.25472 163.50761,196.49522 177.0625,196.1875 z "
         id="path30274" />
    </clipPath>
    <filter
       id="filter30266"
       height="1.6150411"
       y="-0.30752054"
       width="1.0972871"
       x="-0.048643552"
       inkscape:collect="always">
      <feGaussianBlur
         id="feGaussianBlur30268"
         stdDeviation="4.4675715"
         inkscape:collect="always" />
    </filter>
    <linearGradient
       y2="230.58064"
       x2="128.1875"
       y1="86.144157"
       x1="128.1875"
       gradientTransform="translate(-0.6875,-0.1441604)"
       gradientUnits="userSpaceOnUse"
       id="linearGradient27305"
       xlink:href="#linearGradient27126"
       inkscape:collect="always" />
    <clipPath
       id="clipPath27297"
       clipPathUnits="userSpaceOnUse">
      <path
         style="opacity:0.3;fill:none;fill-opacity:1;stroke:#ffffff;stroke-width:10;stroke-miterlimit:4;stroke-dasharray:none;stroke-opacity:1;filter:url(#filter27236)"
         d="M 126.625,86.1875 C 118.20753,86.569299 108.33448,88.96812 103.40625,96.28125 C 102.15022,102.95702 109.73797,107.37835 113.28006,112.01706 C 118.17755,115.80891 122.32854,123.81122 129.375,123.125 C 136.49944,120.03559 140.52679,112.31541 145.84677,106.9093 C 148.94072,103.50312 154.00389,97.75334 149.1875,93.53125 C 143.38902,87.572589 134.67607,86.140013 126.625,86.1875 z "
         id="path27299"
         clip-path="none" />
    </clipPath>
    <filter
       id="filter27236"
       height="1.2143292"
       y="-0.10716459"
       width="1.1738844"
       x="-0.086942211"
       inkscape:collect="always">
      <feGaussianBlur
         id="feGaussianBlur27238"
         stdDeviation="2.0977518"
         inkscape:collect="always" />
    </filter>
    <linearGradient
       y2="101.88716"
       x2="124.12808"
       y1="110.96201"
       x1="114.27576"
       gradientUnits="userSpaceOnUse"
       id="linearGradient27200"
       xlink:href="#linearGradient12060"
       inkscape:collect="always" />
    <radialGradient
       r="68.875359"
       fy="158.3676"
       fx="128.0448"
       cy="158.3676"
       cx="128.0448"
       gradientTransform="matrix(1,0,0,1.0486621,0,-7.7065033)"
       gradientUnits="userSpaceOnUse"
       id="radialGradient27166"
       xlink:href="#linearGradient27112"
       inkscape:collect="always" />
    <mask
       id="mask25976"
       maskUnits="userSpaceOnUse">
      <path
         style="opacity:0.47000002;fill:none;fill-opacity:1;stroke:#ffffff;stroke-width:2;stroke-miterlimit:4;stroke-dasharray:none;stroke-opacity:1;display:inline"
         d="M 196.625,93.6875 C 199.79506,109.61536 204.05544,125.7556 210.65625,140.71875 C 222.82437,144.7691 234.00963,151.53496 246.0625,155.625 C 249.97264,155.286 246.88866,149.4018 245.96875,147.375 C 234.02673,128.54444 211.55118,118.4057 201.05102,98.328207 C 199.96792,96.600307 198.67776,94.106805 196.625,93.6875 z M 56.15625,100.125 C 48.065733,112.00525 37.960224,122.18797 26.439494,130.91394 C 19.15437,137.38564 10.615621,145.04655 9.5,155.25 C 12.498276,158.80027 16.815689,153.68947 19.828885,152.7655 C 28.150138,148.36541 37.34662,145.24055 45.71875,141.40625 C 52.74367,132.2407 55.128634,120.65224 55.34375,109.34375 C 55.885929,106.1538 57.069432,102.90238 56.5625,99.625 L 56.15625,100.125 z "
         id="path25978" />
    </mask>
    <linearGradient
       gradientUnits="userSpaceOnUse"
       y2="141.30234"
       x2="213.83217"
       y1="126.97363"
       x1="227.78433"
       id="linearGradient21986"
       xlink:href="#linearGradient12060"
       inkscape:collect="always" />
    <linearGradient
       gradientUnits="userSpaceOnUse"
       y2="138.79617"
       x2="49.102203"
       y1="124.9451"
       x1="33.025894"
       id="linearGradient21978"
       xlink:href="#linearGradient12060"
       inkscape:collect="always" />
    <linearGradient
       y2="232.35884"
       x2="74.131927"
       y1="198.29239"
       x1="74.131927"
       gradientUnits="userSpaceOnUse"
       id="linearGradient14116"
       xlink:href="#linearGradient12060"
       inkscape:collect="always" />
    <linearGradient
       gradientUnits="userSpaceOnUse"
       y2="232.35884"
       x2="74.131927"
       y1="198.29239"
       x1="74.131927"
       id="linearGradient14110"
       xlink:href="#linearGradient12060"
       inkscape:collect="always" />
    <clipPath
       id="clipPath14090"
       clipPathUnits="userSpaceOnUse">
      <path
         sodipodi:nodetypes="csssszccssssc"
         style="fill:#e12600;fill-opacity:1;stroke:none;stroke-opacity:1"
         d="M 39.926188,233.0738 C 34.651553,227.79917 36.457005,217.9439 44.262521,209.40342 C 54.89171,197.7734 74.695333,193.18666 93.506979,197.99787 C 110.70698,202.39689 120.927,212.73605 120.98115,225.79233 C 120.99901,230.09872 119.6184,232.37831 117.3545,234.01995 C 114.3477,236.20031 95.079231,236.3278 79.949266,236.11629 C 64.81716,235.90475 42.394845,237.08237 39.926188,233.0738 z M 139.67515,233.95355 C 134.08341,229.55508 135.63215,218.10807 142.94265,209.80291 C 155.62955,195.38982 183.95768,191.77047 204.01033,202.00056 C 215.21503,207.71678 222.71048,220.35481 220.08777,229.10864 C 217.98535,236.1259 218.76589,235.99688 178.41546,235.99688 C 143.53154,235.99688 142.18236,235.92572 139.67515,233.95355 z "
         id="path14092" />
    </clipPath>
    <filter
       id="filter14086"
       height="1.5709045"
       y="-0.28545228"
       width="1.1519358"
       x="-0.0759679"
       inkscape:collect="always">
      <feGaussianBlur
         id="feGaussianBlur14088"
         stdDeviation="6.1942922"
         inkscape:collect="always" />
    </filter>
    <filter
       id="filter13099"
       inkscape:collect="always">
      <feGaussianBlur
         id="feGaussianBlur13101"
         stdDeviation="0.46379376"
         inkscape:collect="always" />
    </filter>
    <linearGradient
       gradientUnits="userSpaceOnUse"
       y2="50.430573"
       x2="103.01562"
       y1="36.071663"
       x1="103.01562"
       id="linearGradient13089"
       xlink:href="#linearGradient12060"
       inkscape:collect="always" />
    <linearGradient
       gradientTransform="matrix(0.4186992,0,0,0.4871344,46.611011,3.6342814)"
       y2="189.61032"
       x2="194.39279"
       y1="4.2923737"
       x1="194.39279"
       gradientUnits="userSpaceOnUse"
       id="linearGradient12081"
       xlink:href="#linearGradient12060"
       inkscape:collect="always" />
    <clipPath
       id="clipPath11075"
       clipPathUnits="userSpaceOnUse">
      <path
         style="fill:#000000;stroke:none"
         d="M 112.67546,229.17401 C 104.04419,227.4298 94.507893,223.8733 86.619343,219.45656 C 83.075209,217.47222 77.057597,213.2222 73.246874,210.01207 C 69.436151,206.80193 64.008596,201.14098 61.185642,197.43217 C 58.362687,193.72336 54.409845,187.36576 52.401547,183.30417 C 50.39325,179.24259 47.820326,172.60207 46.683939,168.54747 C 45.547552,164.49286 44.335802,157.6457 43.991162,153.33155 L 43.364544,145.48764 L 40.270003,146.09916 C 38.568005,146.43549 31.695611,149.40275 24.998016,152.69307 C 18.300421,155.98338 12.202921,158.67546 11.448016,158.67546 C 9.1982804,158.67546 7.6752197,156.473 7.6791999,153.22546 C 7.6866487,147.1477 16.073682,136.58043 29.157795,126.16344 C 34.117512,122.21473 40.774929,116.17598 43.952056,112.74399 C 47.129183,109.312 50.846883,104.29728 52.213613,101.60017 C 53.580342,98.903065 55.365739,93.52475 56.181162,89.648364 C 56.996585,85.771979 58.313775,77.104782 59.108251,70.387926 C 59.902728,63.671071 61.520162,55.025462 62.70255,51.175462 C 63.884938,47.325462 66.406942,41.367664 68.307002,37.935911 C 70.207063,34.504158 74.260114,28.997729 77.313783,25.699403 C 80.367451,22.401076 86.03257,17.597252 89.902934,15.024239 C 93.773299,12.451225 100.81795,8.9597746 105.55771,7.2654596 C 113.62472,4.3817591 123.85117,4.184887 128.17546,4.184887 C 133.17521,4.184887 142.7262,4.3817591 150.79321,7.2654596 C 155.53297,8.9597746 162.57762,12.451225 166.44799,15.024239 C 170.31835,17.597252 175.98347,22.401076 179.03714,25.699403 C 182.09081,28.997729 186.14672,34.504158 188.05029,37.935911 C 189.95385,41.367664 192.46328,47.100462 193.6268,50.675462 C 194.79033,54.250462 196.39821,62.800462 197.19988,69.675462 C 198.00155,76.550462 199.15705,84.650462 199.76766,87.675462 C 200.37827,90.700462 202.19304,95.665459 203.8005,98.708788 C 205.40795,101.75211 208.97388,106.9904 211.72478,110.34941 C 214.47569,113.70843 221.10246,119.85396 226.45094,124.00615 C 231.79943,128.15833 238.53633,134.3845 241.42183,137.84208 C 244.30733,141.29966 247.49659,146.1432 248.72286,148.49968 C 249.94604,150.85023 250.36201,154.5991 249.3723,156.11744 C 248.38258,157.63578 246.7725,157.67546 245.72524,157.67546 C 244.67798,157.67546 238.27585,155.00243 231.49829,151.73539 C 224.72073,148.46835 218.16296,145.51302 216.92546,145.168 C 214.87631,144.59668 214.67479,144.88144 214.66791,148.35807 C 214.65505,154.85376 212.70115,164.80798 209.75153,173.40475 C 208.19859,177.93086 205.01029,184.86203 202.66642,188.80734 C 200.32256,192.75264 195.01149,199.53241 190.86405,203.87349 C 186.71662,208.21456 180.05397,213.95298 176.05816,216.62554 C 172.06236,219.2981 165.2791,222.83794 160.98426,224.49187 C 156.68942,226.14579 149.70693,228.2137 145.46762,229.08723 C 141.22831,229.96076 133.57831,230.63318 128.46762,230.58149 C 123.35693,230.52981 116.25046,229.89644 112.67546,229.17401 z "
         id="path11077"
         sodipodi:nodetypes="cssssscccsssssssssssssssssssssssssszsssssssssssc" />
    </clipPath>
    <filter
       id="filter11066"
       height="1.2230023"
       y="-0.11150115"
       width="1.2094241"
       x="-0.10471203"
       inkscape:collect="always">
      <feGaussianBlur
         id="feGaussianBlur11068"
         stdDeviation="11.354506"
         inkscape:collect="always" />
    </filter>
    <linearGradient
       id="linearGradient12060">
      <stop
         id="stop12062"
         offset="0"
         style="stop-color:#ffffff;stop-opacity:1;" />
      <stop
         id="stop12064"
         offset="1"
         style="stop-color:#ffffff;stop-opacity:0;" />
    </linearGradient>
    <linearGradient
       id="linearGradient27112">
      <stop
         id="stop27114"
         offset="0"
         style="stop-color:#b1b4b3;stop-opacity:0;" />
      <stop
         style="stop-color:#babdbc;stop-opacity:0.49803922;"
         offset="0.61849713"
         id="stop27144" />
      <stop
         id="stop27116"
         offset="1"
         style="stop-color:#c3c6c5;stop-opacity:1;" />
    </linearGradient>
    <linearGradient
       id="linearGradient27126">
      <stop
         id="stop27128"
         offset="0"
         style="stop-color:#ffffff;stop-opacity:1;" />
      <stop
         style="stop-color:#ffffff;stop-opacity:0;"
         offset="0.89017344"
         id="stop27134" />
      <stop
         id="stop27130"
         offset="1"
         style="stop-color:#ffffff;stop-opacity:0.64453125;" />
    </linearGradient>
    <linearGradient
       id="linearGradient27220">
      <stop
         id="stop27222"
         offset="0"
         style="stop-color:#ffffff;stop-opacity:0;" />
      <stop
         style="stop-color:#ffffff;stop-opacity:0.48235294;"
         offset="0.63005781"
         id="stop27228" />
      <stop
         id="stop27224"
         offset="1"
         style="stop-color:#ffffff;stop-opacity:0.70703125;" />
    </linearGradient>
    <linearGradient
       id="linearGradient38094">
      <stop
         id="stop38096"
         offset="0"
         style="stop-color:#ffffff;stop-opacity:0;" />
      <stop
         id="stop38098"
         offset="1"
         style="stop-color:#ffffff;stop-opacity:1;" />
    </linearGradient>
    <linearGradient
       id="linearGradient40238"
       inkscape:collect="always">
      <stop
         id="stop40240"
         offset="0"
         style="stop-color:#000000;stop-opacity:1;" />
      <stop
         id="stop40242"
         offset="1"
         style="stop-color:#000000;stop-opacity:0;" />
    </linearGradient>
    <linearGradient
       gradientUnits="userSpaceOnUse"
       y2="81.202728"
       x2="50.590183"
       y1="5.2207541"
       x1="49.88113"
       id="linearGradient9051"
       xlink:href="#linearGradient9005"
       inkscape:collect="always" />
    <linearGradient
       gradientUnits="userSpaceOnUse"
       y2="46.050434"
       x2="41.73468"
       y1="11.87335"
       x1="41.548908"
       id="linearGradient6081"
       xlink:href="#linearGradient6075"
       inkscape:collect="always" />
    <radialGradient
       gradientUnits="userSpaceOnUse"
       r="40.369392"
       fy="51.978893"
       fx="54.353561"
       cy="51.978893"
       cx="54.353561"
       id="radialGradient4121"
       xlink:href="#linearGradient4115"
       inkscape:collect="always" />
    <linearGradient
       id="linearGradient3129">
      <stop
         id="stop3131"
         offset="0"
         style="stop-color:#ffffff;stop-opacity:1;" />
      <stop
         style="stop-color:#ffffff;stop-opacity:0.86328125;"
         offset="0.75352436"
         id="stop3139" />
      <stop
         style="stop-color:#ffffff;stop-opacity:0;"
         offset="0.90527582"
         id="stop3137" />
      <stop
         id="stop3133"
         offset="1"
         style="stop-color:#ffffff;stop-opacity:0.828125;" />
    </linearGradient>
    <linearGradient
       id="linearGradient3134">
      <stop
         id="stop3136"
         offset="0"
         style="stop-color:#f4f4f4;stop-opacity:0.73828125;" />
      <stop
         id="stop3138"
         offset="1"
         style="stop-color:#898989;stop-opacity:0.7890625;" />
    </linearGradient>
    <linearGradient
       id="linearGradient4115">
      <stop
         id="stop4117"
         offset="0"
         style="stop-color:#ffffff;stop-opacity:0;" />
      <stop
         style="stop-color:#ffffff;stop-opacity:0;"
         offset="0.70520234"
         id="stop5092" />
      <stop
         id="stop4119"
         offset="1"
         style="stop-color:#ffffff;stop-opacity:0.421875;" />
    </linearGradient>
    <linearGradient
       id="linearGradient6075">
      <stop
         id="stop6077"
         offset="0"
         style="stop-color:#ffffff;stop-opacity:1;" />
      <stop
         id="stop6079"
         offset="1"
         style="stop-color:#fdfdfd;stop-opacity:0;" />
    </linearGradient>
    <linearGradient
       id="linearGradient9005">
      <stop
         id="stop9007"
         offset="0"
         style="stop-color:#000000;stop-opacity:1;" />
      <stop
         id="stop9009"
         offset="1"
         style="stop-color:#000000;stop-opacity:0.3828125;" />
    </linearGradient>
  </defs>
  <sodipodi:namedview
     id="base"
     pagecolor="#ffffff"
     bordercolor="#666666"
     borderopacity="1.0"
     inkscape:pageopacity="0.0"
     inkscape:pageshadow="2"
     inkscape:zoom="5.6568542"
     inkscape:cx="66.295926"
     inkscape:cy="40.130425"
     inkscape:document-units="px"
     inkscape:current-layer="layer1"
     showguides="true"
     inkscape:guide-bbox="true"
     inkscape:window-width="1664"
     inkscape:window-height="992"
     inkscape:window-x="8"
     inkscape:window-y="50">
    <sodipodi:guide
       orientation="horizontal"
       position="50"
       id="guide1307" />
    <sodipodi:guide
       orientation="vertical"
       position="49.851029"
       id="guide1309" />
    <sodipodi:guide
       orientation="horizontal"
       position="100"
       id="guide1311" />
    <sodipodi:guide
       orientation="vertical"
       position="0"
       id="guide1313" />
    <sodipodi:guide
       orientation="vertical"
       position="100"
       id="guide1315" />
    <sodipodi:guide
       orientation="horizontal"
       position="0"
       id="guide1317" />
    <sodipodi:guide
       orientation="horizontal"
       position="90.060241"
       id="guide1319" />
    <sodipodi:guide
       orientation="vertical"
       position="10.040161"
       id="guide1321" />
    <sodipodi:guide
       orientation="vertical"
       position="90.060241"
       id="guide1323" />
    <sodipodi:guide
       orientation="horizontal"
       position="10.040161"
       id="guide1325" />
  </sodipodi:namedview>
  <metadata
     id="metadata7">
    <rdf:RDF>
      <cc:Work
         rdf:about="">
        <dc:format>image/svg+xml</dc:format>
        <dc:type
           rdf:resource="http://purl.org/dc/dcmitype/StillImage" />
      </cc:Work>
    </rdf:RDF>
  </metadata>
  <g
     inkscape:label="Ebene 1"
     inkscape:groupmode="layer"
     id="layer1">
    <g
       id="g2550"
       transform="matrix(0.2064023,0,0,0.2063876,23.414997,24.136286)">
      <g
         style="display:inline"
         inkscape:label="schatten"
         id="layer9">
        <path
           clip-path="url(#clipPath30272)"
           d="M 240.48347 229.01427 A 110.21164 17.43326 0 1 1  20.060196,229.01427 A 110.21164 17.43326 0 1 1  240.48347 229.01427 z"
           sodipodi:ry="17.43326"
           sodipodi:rx="110.21164"
           sodipodi:cy="229.01427"
           sodipodi:cx="130.27184"
           id="path29268"
           style="opacity:0.25;fill:#000000;fill-opacity:1;fill-rule:nonzero;stroke:none;stroke-width:0;stroke-linecap:round;stroke-linejoin:round;stroke-miterlimit:4;stroke-dasharray:none;stroke-opacity:1;filter:url(#filter30266)"
           sodipodi:type="arc" />
        <path
           clip-path="url(#clipPath30299)"
           id="path30276"
           d="M 85.4375,193.53125 C 66.049048,193.53125 50.3125,201.2422 50.3125,210.75 C 50.3125,220.2578 66.049047,227.96875 85.4375,227.96875 C 104.82595,227.96875 120.5625,220.2578 120.5625,210.75 C 120.5625,201.2422 104.82595,193.53125 85.4375,193.53125 z M 169.875,193.84375 C 150.48655,193.84375 134.74999,201.58596 134.75,211.09375 C 134.75,220.60155 150.48654,228.31249 169.875,228.3125 C 189.26345,228.3125 205.00001,220.60156 205,211.09375 C 205,201.58595 189.26344,193.84375 169.875,193.84375 z "
           style="opacity:0.2;fill:#000000;fill-opacity:1;fill-rule:nonzero;stroke:none;stroke-width:0;stroke-linecap:round;stroke-linejoin:round;stroke-miterlimit:4;stroke-dasharray:none;stroke-opacity:1;filter:url(#filter30281)" />
      </g>
      <g
         style="opacity:1;display:inline"
         inkscape:label="koerper"
         id="g2555">
        <path
           clip-path="url(#clipPath11075)"
           sodipodi:nodetypes="cssssscccsssssssssssssssssssssssssszsssssssssssc"
           id="path10083"
           d="M 112.67546,229.17401 C 104.04419,227.4298 94.507893,223.8733 86.619343,219.45656 C 83.075209,217.47222 77.057597,213.2222 73.246874,210.01207 C 69.436151,206.80193 64.008596,201.14098 61.185642,197.43217 C 58.362687,193.72336 54.409845,187.36576 52.401547,183.30417 C 50.39325,179.24259 47.820326,172.60207 46.683939,168.54747 C 45.547552,164.49286 44.335802,157.6457 43.991162,153.33155 L 43.364544,145.48764 L 40.270003,146.09916 C 38.568005,146.43549 31.695611,149.40275 24.998016,152.69307 C 18.300421,155.98338 12.202921,158.67546 11.448016,158.67546 C 9.1982804,158.67546 7.6752197,156.473 7.6791999,153.22546 C 7.6866487,147.1477 16.073682,136.58043 29.157795,126.16344 C 34.117512,122.21473 40.774929,116.17598 43.952056,112.74399 C 47.129183,109.312 50.846883,104.29728 52.213613,101.60017 C 53.580342,98.903065 55.365739,93.52475 56.181162,89.648364 C 56.996585,85.771979 58.313775,77.104782 59.108251,70.387926 C 59.902728,63.671071 61.520162,55.025462 62.70255,51.175462 C 63.884938,47.325462 66.406942,41.367664 68.307002,37.935911 C 70.207063,34.504158 74.260114,28.997729 77.313783,25.699403 C 80.367451,22.401076 86.03257,17.597252 89.902934,15.024239 C 93.773299,12.451225 100.81795,8.9597746 105.55771,7.2654596 C 113.62472,4.3817591 123.85117,4.184887 128.17546,4.184887 C 133.17521,4.184887 142.7262,4.3817591 150.79321,7.2654596 C 155.53297,8.9597746 162.57762,12.451225 166.44799,15.024239 C 170.31835,17.597252 175.98347,22.401076 179.03714,25.699403 C 182.09081,28.997729 186.14672,34.504158 188.05029,37.935911 C 189.95385,41.367664 192.46328,47.100462 193.6268,50.675462 C 194.79033,54.250462 196.39821,62.800462 197.19988,69.675462 C 198.00155,76.550462 199.15705,84.650462 199.76766,87.675462 C 200.37827,90.700462 202.19304,95.665459 203.8005,98.708788 C 205.40795,101.75211 208.97388,106.9904 211.72478,110.34941 C 214.47569,113.70843 221.10246,119.85396 226.45094,124.00615 C 231.79943,128.15833 238.53633,134.3845 241.42183,137.84208 C 244.30733,141.29966 247.49659,146.1432 248.72286,148.49968 C 249.94604,150.85023 250.36201,154.5991 249.3723,156.11744 C 248.38258,157.63578 246.7725,157.67546 245.72524,157.67546 C 244.67798,157.67546 238.27585,155.00243 231.49829,151.73539 C 224.72073,148.46835 218.16296,145.51302 216.92546,145.168 C 214.87631,144.59668 214.67479,144.88144 214.66791,148.35807 C 214.65505,154.85376 212.70115,164.80798 209.75153,173.40475 C 208.19859,177.93086 205.01029,184.86203 202.66642,188.80734 C 200.32256,192.75264 195.01149,199.53241 190.86405,203.87349 C 186.71662,208.21456 180.05397,213.95298 176.05816,216.62554 C 172.06236,219.2981 165.2791,222.83794 160.98426,224.49187 C 156.68942,226.14579 149.70693,228.2137 145.46762,229.08723 C 141.22831,229.96076 133.57831,230.63318 128.46762,230.58149 C 123.35693,230.52981 116.25046,229.89644 112.67546,229.17401 z "
           style="opacity:0.4;fill:none;stroke:#ffffff;stroke-width:15;stroke-miterlimit:4;stroke-dasharray:none;stroke-opacity:1;filter:url(#filter11066)" />
        <path
           id="path11089"
           d="M 128,5.71875 C 101.72749,5.71875 80.244745,24.643402 78.875,48.4375 C 81.61643,43.957776 86.413884,39.304181 90.59375,37.0625 C 94.122181,35.170187 99.579461,34.328545 103.03125,34.25 C 107.46926,34.149015 112.89199,35.173402 117.84375,38.09375 C 122.83206,41.035651 126.95056,47.427088 128.46875,49.9375 C 129.42993,51.526862 129.70139,52.301991 130.4375,53.46875 C 131.56977,52.453259 132.90499,51.698107 135.375,50 C 141.40487,45.854526 148.05134,43.654831 155.875,44.21875 C 164.20107,44.818883 171.56185,48.699393 177,54.59375 C 177.11034,53.360866 177.1875,52.133853 177.1875,50.875 C 177.1875,25.95917 155.15577,5.7187502 128,5.71875 z "
           style="opacity:0.6;fill:url(#linearGradient12081);fill-opacity:1;fill-rule:nonzero;stroke:none;stroke-width:15;stroke-linecap:round;stroke-linejoin:round;stroke-miterlimit:4;stroke-dasharray:none;stroke-opacity:1" />
        <path
           sodipodi:nodetypes="ccsccccccc"
           id="path40353"
           d="M 212.71875,153.875 C 208.03907,159.24684 202.72483,164.15542 196.875,168.53125 C 196.81501,172.8894 196.36612,177.32288 195.46875,182.46875 C 193.58457,193.27348 190.88319,201.50601 187.9375,205.4375 C 189.74217,203.66278 191.47049,201.79795 193.09375,199.84375 C 204.22427,187.03354 211.13914,170.75017 212.71875,153.875 z M 45.65625,157.59375 C 47.806093,173.59547 54.487214,186.94692 65.158565,198.91647 C 61.431311,190.51172 58.980495,178.44781 58.928626,169.41184 C 53.947197,165.80597 49.83245,161.92223 45.65625,157.59375 z "
           style="opacity:0.3;fill:url(#linearGradient40396);fill-opacity:1;stroke:none" />
      </g>
      <g
         style="opacity:0.8;display:inline"
         inkscape:label="fluegel"
         id="layer3">
        <path
           id="path20032"
           d="M 200.28125,95.34375 C 202.92436,103.9355 206.78334,112.20916 209.46875,120.75 C 217.06764,129.9158 227.03781,137.00088 235.5625,145.21875 C 238.63612,148.82359 242.59246,152.4587 245.40625,156.5625 C 247.04232,156.83543 248.43214,156.44179 248.9375,154.46875 C 248.86518,145.7425 240.87668,139.45139 235.5625,133.21875 C 224.80371,122.84719 211.69967,114.2914 204.03125,101.0625 C 202.76469,99.552336 201.67582,97.208182 200.28125,95.34375 z "
           style="opacity:0.76000001;fill:url(#linearGradient21986);fill-opacity:1;display:inline" />
        <path
           id="path2179"
           d="M 54.40625,100.78125 C 49.385007,107.26482 44.654087,114.2534 38.25,119.5625 C 27.356844,129.64425 12.600215,138.30782 8.46875,153.5 C 7.8588547,156.11235 9.7419372,157.43377 11.875,157.5 C 18.070697,146.96707 29.426095,139.72914 38.25,131.5625 C 42.181038,128.3036 45.475302,124.42587 48.59375,120.40625 C 50.42822,113.84661 52.568181,107.33145 54.40625,100.78125 z "
           style="opacity:0.76000001;fill:url(#linearGradient21978);fill-opacity:1;display:inline" />
        <path
           mask="url(#mask25976)"
           id="path23937"
           d="M 216.3125,140.90625 C 198.70349,140.90625 184.40625,153.22624 184.40625,168.40625 C 184.40625,183.58625 198.70349,195.90626 216.3125,195.90625 C 233.92151,195.90625 248.1875,183.58624 248.1875,168.40625 C 248.1875,153.22625 233.92152,140.90625 216.3125,140.90625 z M 41,141.6875 C 23.390988,141.6875 9.0937497,154.00751 9.09375,169.1875 C 9.09375,184.3675 23.390987,196.6875 41,196.6875 C 58.609012,196.6875 72.906253,184.3675 72.90625,169.1875 C 72.90625,154.0075 58.60901,141.68751 41,141.6875 z "
           style="opacity:0.47000002;fill:#ffffff;fill-opacity:1;fill-rule:nonzero;stroke:none;stroke-width:2;stroke-linecap:round;stroke-linejoin:round;stroke-miterlimit:4;stroke-dasharray:none;stroke-opacity:1;display:inline" />
      </g>
      <g
         style="display:inline"
         inkscape:label="bauch"
         id="layer5">
        <path
           id="path27110"
           d="M 127,86.15625 C 126.87662,86.160372 126.74924,86.181235 126.625,86.1875 C 127.86781,86.18017 129.11621,86.206869 130.375,86.28125 C 129.17044,86.156403 128.09984,86.11951 127,86.15625 z M 157.0625,94.34375 C 154.83054,94.743184 152.5072,94.863213 150.1875,94.65625 C 153.12425,98.730126 148.67283,103.79166 145.84375,106.90625 C 140.52377,112.31236 136.49944,120.03559 129.375,123.125 C 122.32854,123.81122 118.17874,115.8231 113.28125,112.03125 C 110.82783,108.81826 106.45834,105.7008 104.40625,101.875 C 101.21081,101.97333 98.028091,101.34957 95.25,99.9375 C 94.441137,99.526365 93.672121,99.07999 92.9375,98.59375 C 89.640318,100.98175 86.490826,103.73645 83.40625,106.90625 C 70.105717,120.57427 60.87021,139.78452 59.3125,165.375 C 58.468733,179.23662 61.77278,190.54579 64.59375,197.84375 C 73.531897,195.54393 83.644472,195.47938 93.5,198 C 110.7,202.39903 120.9146,212.72497 120.96875,225.78125 C 120.97625,227.58831 120.72818,229.02284 120.28125,230.21875 C 125.57709,230.71492 131.29071,230.69618 137.0625,230.1875 C 135.0624,224.72386 137.2148,216.31382 142.9375,209.8125 C 153.22741,198.12253 173.79843,193.51502 191.90625,197.65625 C 193.27348,193.6239 194.47573,188.62748 195.46875,182.90625 C 197.38316,171.87659 197.39344,164.15352 195.5,153.34375 C 191.82508,132.36334 183.67004,116.47429 170.125,103.875 C 165.93323,99.975904 161.65679,96.869457 157.0625,94.34375 z "
           style="opacity:0.3;fill:url(#radialGradient27166);fill-opacity:1" />
        <path
           id="path5138"
           d="M 126.3125,86 C 125.8606,86.015095 125.40832,86.049781 124.9375,86.09375 C 124.91021,86.157161 124.87143,86.217575 124.84375,86.28125 C 125.44975,86.233228 126.05061,86.213553 126.625,86.1875 C 127.38384,86.183024 128.13977,86.193144 128.90625,86.21875 C 129.15823,86.226729 129.40375,86.238548 129.65625,86.25 C 129.83269,86.258253 130.01091,86.271279 130.1875,86.28125 C 130.53033,86.300608 130.8757,86.317741 131.21875,86.34375 C 129.35335,86.084153 127.85154,85.948588 126.3125,86 z M 156.75,94.375 C 154.6139,94.731332 152.40077,94.853717 150.1875,94.65625 C 150.30887,94.826304 150.4357,94.983255 150.53125,95.15625 C 150.54674,95.18341 150.54765,95.222711 150.5625,95.25 C 150.57315,95.259763 150.58312,95.271472 150.59375,95.28125 C 152.61526,99.199053 148.34469,103.80569 145.84375,106.90625 C 141.32338,112.5104 136.49944,120.03559 129.375,123.125 C 122.32854,123.81122 118.10961,116.58819 113.40625,111.53125 C 110.86439,108.80304 106.69112,105.42402 104.53125,101.96875 C 104.5256,101.98138 104.50562,101.98736 104.5,102 C 104.46875,101.95757 104.43748,101.91773 104.40625,101.875 C 101.21081,101.97333 98.028091,101.34957 95.25,99.9375 C 94.27155,99.440166 93.340208,98.890406 92.46875,98.28125 C 89.09207,100.70539 85.871413,103.51023 82.71875,106.75 C 78.72816,110.85085 75.131142,115.47279 71.96875,120.59375 C 67.54196,131.91252 65.000001,144.73543 65,158.34375 C 65,172.00986 67.535837,184.89582 72,196.25 C 78.731928,195.56869 85.834689,196.05913 92.8125,197.84375 C 110.0125,202.24279 120.2271,212.56872 120.28125,225.625 C 120.28872,227.42679 120.06941,228.8686 119.625,230.0625 C 124.9115,230.55621 130.61554,230.53762 136.375,230.03125 C 134.3749,224.56762 136.5273,216.15757 142.25,209.65625 C 151.00168,199.71381 167.21321,194.91695 183,196.25 C 187.4659,184.89339 190,172.01681 190,158.34375 C 190,144.49965 187.41499,131.46095 182.84375,120 C 179.15644,114.00692 174.69877,108.61267 169.4375,103.71875 C 165.35683,99.923 161.2051,96.865834 156.75,94.375 z "
           style="opacity:0.4;fill:url(#linearGradient27305);fill-opacity:1" />
      </g>
      <g
         style="display:inline"
         inkscape:label="fuesse"
         id="layer2">
        <path
           clip-path="url(#clipPath14090)"
           id="path13115"
           d="M 39.926188,233.0738 C 34.651553,227.79917 36.457005,217.9439 44.262521,209.40342 C 54.89171,197.7734 74.695333,193.18666 93.506979,197.99787 C 110.70698,202.39689 120.927,212.73605 120.98115,225.79233 C 120.99901,230.09872 119.6184,232.37831 117.3545,234.01995 C 114.3477,236.20031 95.079231,236.3278 79.949266,236.11629 C 64.81716,235.90475 42.394845,237.08237 39.926188,233.0738 z M 139.67515,233.95355 C 134.08341,229.55508 135.63215,218.10807 142.94265,209.80291 C 155.62955,195.38982 183.95768,191.77047 204.01033,202.00056 C 215.21503,207.71678 222.71048,220.35481 220.08777,229.10864 C 217.98535,236.1259 218.76589,235.99688 178.41546,235.99688 C 143.53154,235.99688 142.18236,235.92572 139.67515,233.95355 z "
           style="opacity:0.5;fill:none;fill-opacity:1;stroke:#ffffff;stroke-width:12;stroke-miterlimit:4;stroke-dasharray:none;stroke-opacity:1;filter:url(#filter14086)"
           sodipodi:nodetypes="csssszccssssc" />
        <path
           sodipodi:type="arc"
           style="opacity:0.8;fill:url(#linearGradient14116);fill-opacity:1;fill-rule:nonzero;stroke:none;stroke-width:12;stroke-linecap:round;stroke-linejoin:round;stroke-miterlimit:4;stroke-dasharray:none;stroke-opacity:1;display:inline"
           id="path14112"
           sodipodi:cx="74.131927"
           sodipodi:cy="214.62798"
           sodipodi:rx="23.472296"
           sodipodi:ry="17.730871"
           d="M 97.604223 214.62798 A 23.472296 17.730871 0 1 1  50.659632,214.62798 A 23.472296 17.730871 0 1 1  97.604223 214.62798 z"
           transform="matrix(1.1068291,0,0,1.0269374,101.86742,-3.8128825)" />
        <path
           transform="matrix(1.1068291,0,0,1.0269374,-8.7325806,-3.8128825)"
           d="M 97.604223 214.62798 A 23.472296 17.730871 0 1 1  50.659632,214.62798 A 23.472296 17.730871 0 1 1  97.604223 214.62798 z"
           sodipodi:ry="17.730871"
           sodipodi:rx="23.472296"
           sodipodi:cy="214.62798"
           sodipodi:cx="74.131927"
           id="path14094"
           style="opacity:0.8;fill:url(#linearGradient14110);fill-opacity:1;fill-rule:nonzero;stroke:none;stroke-width:12;stroke-linecap:round;stroke-linejoin:round;stroke-miterlimit:4;stroke-dasharray:none;stroke-opacity:1;display:inline"
           sodipodi:type="arc" />
      </g>
      <g
         style="opacity:0.7;display:inline"
         inkscape:label="lied"
         id="layer6">
        <path
           id="path12098"
           d=""
           style="fill:#000000" />
        <path
           sodipodi:nodetypes="ccccc"
           id="path12110"
           d="M 102.3125,36.125 C 91.781281,35.361468 83.389298,43.661306 79.3125,52.5625 C 85.696039,46.069511 93.077642,38.801025 103,39.6875 C 112.79423,38.910085 120.43793,45.787686 126.71875,52.125 C 123.04068,42.139158 113.02313,35.399797 102.3125,36.125 z "
           style="fill:url(#linearGradient13089);fill-opacity:1;filter:url(#filter13099)" />
        <path
           sodipodi:nodetypes="ccccc"
           style="fill:url(#linearGradient40271);fill-opacity:1;filter:url(#filter13099)"
           d="M 152.375,46.09375 C 143.89835,45.995889 135.42489,51.497358 131.0625,57.625 C 141.85001,49.462392 157.68089,48.169829 169.59375,54.40625 C 172.65787,56.019439 175.83747,59.26946 178.5,60.5625 C 173.88442,50.818372 162.79717,45.651384 152.375,46.09375 z "
           id="path40269" />
      </g>
      <g
         style="display:inline"
         inkscape:label="schatten2"
         id="layer11">
        <path
           clip-path="url(#clipPath40265)"
           sodipodi:nodetypes="csscscscsssscccsc"
           id="path27303"
           d="M 103.84375,45 C 90.700616,45 80.031252,58.728491 80.03125,75.65625 C 80.03125,92.584007 90.700616,106.34375 103.84375,106.34375 C 104.13839,106.34375 104.42669,106.32619 104.71875,106.3125 C 106.93182,109.65173 110.15593,115.06963 112.39306,117.89537 C 117.31973,124.11831 121.99081,138.95634 129.03727,138.27012 C 135.48625,137.20709 140.18584,124.2019 144.49283,117.32314 C 147.83985,111.97755 152.3507,103.46918 150.71875,99.625 C 151.71514,99.28248 152.52572,99.03125 152.75,99.03125 C 166.14131,99.03125 177,89.484051 177,77.71875 C 177,65.953449 166.14132,56.406248 152.75,56.40625 C 139.35869,56.40625 128.46876,65.953449 128.46875,77.71875 C 128.46875,82.536238 130.30351,86.991665 133.375,90.5625 C 131.12048,90.284127 128.85395,90.174353 126.625,90.1875 C 126.0304,90.21447 125.40957,90.261963 124.78125,90.3125 C 126.62166,85.961131 127.65625,80.956991 127.65625,75.65625 C 127.65625,58.728493 116.98688,45 103.84375,45 z "
           style="opacity:0.4;fill:url(#linearGradient40244);fill-opacity:1;stroke:none;display:inline;filter:url(#filter40258)" />
      </g>
      <g
         style="opacity:0.9;display:inline"
         inkscape:label="augen"
         id="layer7">
        <path
           id="path27308"
           d="M 103.84375,41 C 90.700616,41 80.031252,54.728491 80.03125,71.65625 C 80.03125,88.584007 90.700616,102.34375 103.84375,102.34375 C 104.13839,102.34375 104.42669,102.32619 104.71875,102.3125 C 103.38338,100.2976 102.7013,98.247336 103.40625,96.28125 C 105.75293,89.736429 116.51485,86.977391 124.78125,86.3125 C 126.02565,83.370296 126.87564,80.116478 127.3125,76.6875 C 126.26976,82.165702 122.82305,86.21875 118.71875,86.21875 C 113.79008,86.218747 109.8125,80.404153 109.8125,73.25 C 109.8125,66.095849 113.79007,60.28125 118.71875,60.28125 C 123.43962,60.281248 127.30715,65.60769 127.625,72.34375 C 127.62893,72.113429 127.65625,71.887732 127.65625,71.65625 C 127.65625,54.728493 116.98688,41 103.84375,41 z "
           style="opacity:0.4;fill:url(#radialGradient40339);fill-opacity:1;fill-rule:nonzero;stroke:none;stroke-width:0;stroke-linecap:round;stroke-linejoin:round;stroke-miterlimit:4;stroke-dasharray:none;stroke-opacity:1" />
        <path
           id="path27310"
           d="M 152.75,52.40625 C 139.35869,52.40625 128.46876,61.953449 128.46875,73.71875 C 128.46875,78.536238 130.30351,82.991665 133.375,86.5625 C 139.26391,87.289623 144.99434,89.222254 149.1875,93.53125 C 149.70767,93.987236 150.07439,94.45417 150.375,94.9375 C 151.15067,95.003308 151.95479,95.03125 152.75,95.03125 C 166.14131,95.03125 177,85.484051 177,73.71875 C 177,61.953449 166.14132,52.406248 152.75,52.40625 z M 136.09375,64.4375 C 140.26507,64.4375 143.65625,68.812354 143.65625,74.21875 C 143.65625,79.625144 140.26506,84 136.09375,84 C 131.92244,83.999997 128.5625,79.625146 128.5625,74.21875 C 128.56251,68.812353 131.92244,64.4375 136.09375,64.4375 z "
           style="opacity:0.4;fill:url(#radialGradient40333);fill-opacity:1;fill-rule:nonzero;stroke:none;stroke-width:0;stroke-linecap:round;stroke-linejoin:round;stroke-miterlimit:4;stroke-dasharray:none;stroke-opacity:1" />
        <path
           id="path30305"
           d="M 86.1875,52.9375 C 82.065953,59.521275 80.338416,68.028459 81.21875,75.46875 C 81.957999,87.613794 91.090472,101.50014 104.125,101.3125 C 103.20314,99.62074 102.81659,97.925805 103.40625,96.28125 C 103.67851,95.521937 104.08058,94.816508 104.5625,94.15625 C 93.692863,87.493626 86.125,72.719161 86.125,55.5625 C 86.125,54.682891 86.148297,53.803873 86.1875,52.9375 z "
           style="opacity:1;fill:url(#linearGradient39109);fill-opacity:1;fill-rule:nonzero;stroke:none;stroke-width:0;stroke-linecap:round;stroke-linejoin:round;stroke-miterlimit:4;stroke-dasharray:none;stroke-opacity:1" />
        <path
           id="path30309"
           d="M 103.875,42 C 103.49331,41.999278 103.10792,42.008002 102.71875,42.03125 C 97.32291,42.561497 92.894182,45.078567 89.46875,48.6875 C 99.079593,49.255054 107.46805,55.2965 112.34375,64.1875 C 113.96464,61.786887 116.22189,60.28125 118.71875,60.28125 C 121.93635,60.281249 124.77225,62.760054 126.34375,66.46875 C 126.23384,65.700488 126.09825,64.932317 125.9375,64.1875 C 123.90604,53.385822 115.70743,42.022386 103.875,42 z M 125.1875,82.1875 C 123.56106,84.662627 121.25946,86.21875 118.71875,86.21875 C 118.00122,86.21875 117.32494,86.076112 116.65625,85.84375 C 116.23977,90.458826 115.05364,94.788698 113.1875,98.65625 C 119.18974,95.194183 123.18473,89.041561 125.1875,82.1875 z "
           style="opacity:1;fill:url(#linearGradient39093);fill-opacity:1;fill-rule:nonzero;stroke:none;stroke-width:0;stroke-linecap:round;stroke-linejoin:round;stroke-miterlimit:4;stroke-dasharray:none;stroke-opacity:1" />
        <path
           id="path31291"
           d="M 151.5625,53.4375 C 148.3713,53.394513 145.18989,54.14757 142.28125,55.5 C 155.96438,58.556273 166.15625,70.141709 166.15625,83.9375 C 166.15625,86.346345 165.83558,88.666487 165.25,90.90625 C 168.46459,89.145592 171.24719,86.635273 173.21875,83.3125 C 180.6773,72.274949 172.18013,57.020626 159.84375,54.375 C 157.16165,53.632976 154.34789,53.311439 151.5625,53.4375 z "
           style="opacity:1;fill:url(#linearGradient38116);fill-opacity:1;fill-rule:nonzero;stroke:none;stroke-width:0;stroke-linecap:round;stroke-linejoin:round;stroke-miterlimit:4;stroke-dasharray:none;stroke-opacity:1" />
        <path
           id="path35178"
           d="M 131.46875,81.9375 C 132.37626,83.740059 133.53325,85.343287 134.875,86.75 C 140.23091,87.611191 145.34865,89.586357 149.1875,93.53125 C 149.2701,93.60366 149.32952,93.676811 149.40625,93.75 C 158.31902,94.857138 167.9028,91.64488 172.875,83.8125 C 167.96446,85.699384 162.19943,86.78125 156.03125,86.78125 C 149.55036,86.781249 143.53133,85.562247 138.46875,83.5 C 137.7212,83.821151 136.92408,84 136.09375,84 C 134.34122,83.999999 132.75105,83.236674 131.46875,81.9375 z "
           style="opacity:1;fill:url(#linearGradient40336);fill-opacity:1;fill-rule:nonzero;stroke:none;stroke-width:0;stroke-linecap:round;stroke-linejoin:round;stroke-miterlimit:4;stroke-dasharray:none;stroke-opacity:1" />
      </g>
      <g
         style="opacity:0.9;display:inline"
         inkscape:label="pupillen"
         id="layer8">
        <path
           transform="matrix(1.1257862,0,0,1.0943396,-16.169662,-7.0015435)"
           d="M 141.97362 74.216362 A 6.7124009 8.9498682 0 1 1  128.54881,74.216362 A 6.7124009 8.9498682 0 1 1  141.97362 74.216362 z"
           sodipodi:ry="8.9498682"
           sodipodi:rx="6.7124009"
           sodipodi:cy="74.216362"
           sodipodi:cx="135.26122"
           id="path9110"
           style="opacity:0.9;fill:#000000;fill-opacity:1;fill-rule:nonzero;stroke:none;stroke-width:20;stroke-linecap:round;stroke-linejoin:round;stroke-miterlimit:4;stroke-dasharray:none;stroke-opacity:1"
           sodipodi:type="arc" />
        <path
           transform="matrix(1.0930233,0,0,1.0696864,-12.290851,-6.3686396)"
           d="M 128.04222 74.427444 A 8.1688652 12.116095 0 1 1  111.70449,74.427444 A 8.1688652 12.116095 0 1 1  128.04222 74.427444 z"
           sodipodi:ry="12.116095"
           sodipodi:rx="8.1688652"
           sodipodi:cy="74.427444"
           sodipodi:cx="119.87335"
           id="path10081"
           style="opacity:0.9;fill:#000000;fill-opacity:1;fill-rule:nonzero;stroke:none;stroke-width:20;stroke-linecap:round;stroke-linejoin:round;stroke-miterlimit:4;stroke-dasharray:none;stroke-opacity:1"
           sodipodi:type="arc" />
        <path
           sodipodi:nodetypes="ccccs"
           id="path40275"
           d="M 117.96875,61.4375 C 116.25911,61.623622 114.97166,62.890482 113.90625,64.0625 C 117.32872,64.482849 119.51592,66.930143 120.71875,70 C 122.63092,69.710989 124.38271,69.115377 125.84375,68.3125 C 124.74724,64.497256 122.20647,60.976156 117.96875,61.4375 z "
           style="opacity:1;fill:url(#linearGradient40305);fill-opacity:1;fill-rule:nonzero;stroke:none;stroke-width:20;stroke-linecap:round;stroke-linejoin:round;stroke-miterlimit:4;stroke-dasharray:none;stroke-opacity:1" />
        <path
           id="path40279"
           d="M 113.90625,64.0625 C 109.3984,69.021445 109.98749,78.515737 114.5625,83.25 C 117.65416,86.581807 121.84512,84.910945 124.21875,81.84375 C 121.85618,82.860485 119.17195,82.75017 116.96875,80.5625 C 112.81006,76.597383 111.57438,69.403473 113.90625,64.0625 z "
           style="opacity:1;fill:url(#linearGradient40313);fill-opacity:1;fill-rule:nonzero;stroke:none;stroke-width:20;stroke-linecap:round;stroke-linejoin:round;stroke-miterlimit:4;stroke-dasharray:none;stroke-opacity:1" />
        <path
           style="opacity:1;fill:url(#linearGradient40319);fill-opacity:1;fill-rule:nonzero;stroke:none;stroke-width:20;stroke-linecap:round;stroke-linejoin:round;stroke-miterlimit:4;stroke-dasharray:none;stroke-opacity:1"
           d="M 135.60979,65.36791 C 134.17855,65.50852 133.10075,66.465594 132.20884,67.351017 C 135.07397,67.668577 136.905,69.517433 137.91195,71.836616 C 139.51274,71.618276 140.97924,71.16831 142.20236,70.561761 C 141.28442,67.679462 139.1574,65.019379 135.60979,65.36791 z "
           id="path40315"
           sodipodi:nodetypes="ccccs" />
        <path
           style="opacity:1;fill:url(#linearGradient40321);fill-opacity:1;fill-rule:nonzero;stroke:none;stroke-width:20;stroke-linecap:round;stroke-linejoin:round;stroke-miterlimit:4;stroke-dasharray:none;stroke-opacity:1"
           d="M 132.20884,67.351017 C 128.43509,71.097348 128.92825,78.269992 132.75822,81.846583 C 135.34643,84.36366 138.85489,83.101376 140.84198,80.784204 C 138.86416,81.552316 136.61704,81.468977 134.77263,79.81626 C 131.29117,76.820736 130.25672,71.385958 132.20884,67.351017 z "
           id="path40317" />
      </g>
      <g
         style="opacity:0.9;display:inline"
         inkscape:label="schnabel"
         id="layer4">
        <path
           clip-path="url(#clipPath39114)"
           id="path4149"
           d="M 126.625,86.1875 C 118.20753,86.569299 108.33448,88.96812 103.40625,96.28125 C 102.15022,102.95702 109.73797,107.37835 113.28006,112.01706 C 118.17755,115.80891 122.32854,123.81122 129.375,123.125 C 136.49944,120.03559 140.52679,112.31541 145.84677,106.9093 C 148.94072,103.50312 154.00389,97.75334 149.1875,93.53125 C 143.38902,87.572589 134.67607,86.140013 126.625,86.1875 z "
           style="opacity:0.3;fill:none;fill-opacity:1;stroke:#ffffff;stroke-width:10;stroke-miterlimit:4;stroke-dasharray:none;stroke-opacity:1;filter:url(#filter27236)" />
        <path
           sodipodi:nodetypes="ccccscc"
           id="path27169"
           d="M 126.96875,87.21875 C 126.3485,87.229238 125.74153,87.249028 125.125,87.28125 C 119.08061,87.550685 112.69226,89.393128 108.59375,92.09375 C 124.32194,93.135358 137.01343,101.80994 139.53125,112.9375 C 143.01287,108.95662 146.57984,104.93462 149.375,100.5625 C 153.02359,94.855452 144.32066,90.621951 139.84375,89 C 135.72991,87.626234 131.31053,87.145334 126.96875,87.21875 z "
           style="fill:url(#linearGradient30303);fill-opacity:1" />
        <path
           id="path27181"
           d="M 109.21875,91.71875 C 106.48678,93.375912 104.60561,95.388868 104.28125,97.5625 C 103.61761,102.0098 112.40487,108.68568 116.6875,113.8125 C 120.40137,117.90477 126.6154,125.6791 132.5,120.125 C 132.73142,119.91942 132.95879,119.70923 133.1875,119.5 C 127.95556,121.8635 122.71808,115.36484 119.4375,111.75 C 115.15487,106.62318 106.36761,99.947297 107.03125,95.5 C 107.23058,94.164224 108.01253,92.886975 109.21875,91.71875 z "
           style="fill:url(#linearGradient27200);fill-opacity:1" />
      </g>
    </g>
  </g>
</svg>
