<?xml version="1.0" encoding="UTF-8" standalone="no"?>
<!-- Created with Inkscape (http://www.inkscape.org/) -->
<svg
   xmlns:dc="http://purl.org/dc/elements/1.1/"
   xmlns:cc="http://web.resource.org/cc/"
   xmlns:rdf="http://www.w3.org/1999/02/22-rdf-syntax-ns#"
   xmlns:svg="http://www.w3.org/2000/svg"
   xmlns="http://www.w3.org/2000/svg"
   xmlns:sodipodi="http://sodipodi.sourceforge.net/DTD/sodipodi-0.dtd"
   xmlns:inkscape="http://www.inkscape.org/namespaces/inkscape"
   width="64px"
   height="64px"
   id="svg2943"
   sodipodi:version="0.32"
   inkscape:version="0.44"
   sodipodi:docbase="/home/ryx/Documents/scripts/python/screenlets/notes/themes/girlie"
   sodipodi:docname="note-pin.svg">
  <defs
     id="defs2945">
    <linearGradient
       id="linearGradient3153">
      <stop
         style="stop-color:#ffecf7;stop-opacity:1;"
         offset="0"
         id="stop3155" />
      <stop
         style="stop-color:#ffc7e8;stop-opacity:1;"
         offset="1"
         id="stop3157" />
    </linearGradient>
    <linearGradient
       id="linearGradient2984">
      <stop
         style="stop-color:#ff46fd;stop-opacity:1;"
         offset="0"
         id="stop2986" />
      <stop
         style="stop-color:#ae00ac;stop-opacity:1;"
         offset="1"
         id="stop2988" />
    </linearGradient>
  </defs>
  <sodipodi:namedview
     id="base"
     pagecolor="#ffffff"
     bordercolor="#666666"
     borderopacity="1.0"
     inkscape:pageopacity="0.0"
     inkscape:pageshadow="2"
     inkscape:zoom="5.5"
     inkscape:cx="32"
     inkscape:cy="31.242164"
     inkscape:current-layer="layer1"
     showgrid="true"
     inkscape:document-units="px"
     inkscape:grid-bbox="true"
     inkscape:window-width="989"
     inkscape:window-height="626"
     inkscape:window-x="38"
     inkscape:window-y="100" />
  <metadata
     id="metadata2948">
    <rdf:RDF>
      <cc:Work
         rdf:about="">
        <dc:format>image/svg+xml</dc:format>
        <dc:type
           rdf:resource="http://purl.org/dc/dcmitype/StillImage" />
      </cc:Work>
    </rdf:RDF>
  </metadata>
  <g
     id="layer1"
     inkscape:label="Layer 1"
     inkscape:groupmode="layer">
    <path
       style="fill:black;fill-opacity:0.20136521;stroke:none;stroke-width:1.70000005;stroke-linejoin:miter;stroke-miterlimit:4;stroke-dashoffset:0;stroke-opacity:1"
       d="M 22.615105,5.934657 C 19.930288,5.934657 17.597954,7.4175136 16.355374,9.5932819 C 15.107379,7.4381199 12.788662,5.9818651 10.119266,5.9818651 C 6.1364032,5.9818651 2.8910492,9.2248014 2.8910492,13.204697 C 2.8910492,14.874596 3.4716472,16.395979 4.4264552,17.618651 C 1.5380961,18.560465 -0.53408636,21.288086 -0.53408636,24.487424 C -0.53408636,28.467322 2.6876452,31.686654 6.6705092,31.686654 C 7.4437662,31.686654 8.1924182,31.557943 8.8909422,31.332593 C 8.8909182,31.340598 8.8909422,31.348186 8.8909422,31.356198 C 8.8909422,35.601422 12.343202,39.051112 16.591591,39.051112 C 20.558256,39.051112 23.8289,36.059747 24.244997,32.205943 C 25.06845,32.496818 25.944267,32.654419 26.866997,32.654419 C 31.229181,32.654419 34.780242,29.106003 34.780242,24.747069 C 34.780242,21.001109 32.16615,17.88465 28.662241,17.075759 C 29.400976,15.944443 29.8197,14.608164 29.819701,13.157489 C 29.819701,9.1775934 26.597968,5.9346571 22.615105,5.934657 z M 16.378996,16.745302 C 17.290472,18.314786 18.763229,19.518562 20.536402,20.049867 C 19.685363,21.191839 19.154661,22.563835 19.024618,24.062552 C 18.260597,23.808413 17.440696,23.684887 16.591591,23.684887 C 15.634559,23.684887 14.720633,23.861133 13.875104,24.180572 C 13.810752,22.622071 13.265789,21.176931 12.36332,20.026262 C 14.071111,19.461353 15.503317,18.283641 16.378996,16.745302 z "
       id="path3077" />
    <path
       style="fill:#ff7795;fill-opacity:1;stroke:none;stroke-width:3;stroke-linejoin:miter;stroke-miterlimit:5.4000001;stroke-dashoffset:0;stroke-opacity:1;stroke-dasharray:none;stroke-linecap:butt"
       d="M 19.706015,3.025566 C 17.021198,3.025566 14.688864,4.5084226 13.446284,6.6841909 C 12.198289,4.5290289 9.8795722,3.0727741 7.2101752,3.0727741 C 3.2273122,3.0727741 -0.018041818,6.3157104 -0.018041818,10.295607 C -0.018041818,11.965506 0.56255618,13.486889 1.5173642,14.709561 C -1.3709948,15.651375 -3.4431773,18.378996 -3.4431773,21.578334 C -3.4431773,25.558232 -0.22144582,28.777564 3.7614182,28.777564 C 4.5346752,28.777564 5.2833272,28.648853 5.9818512,28.423503 C 5.9818272,28.431508 5.9818512,28.439096 5.9818512,28.447108 C 5.9818512,32.692332 9.4341122,36.142022 13.682501,36.142022 C 17.649166,36.142022 20.91981,33.150657 21.335907,29.296853 C 22.15936,29.587728 23.035177,29.745329 23.957907,29.745329 C 28.320091,29.745329 31.871152,26.196913 31.871152,21.837979 C 31.871152,18.092019 29.25706,14.97556 25.753151,14.166669 C 26.491886,13.035353 26.91061,11.699074 26.910611,10.248399 C 26.910611,6.2685024 23.688878,3.0255661 19.706015,3.025566 z M 13.469906,13.836212 C 14.381382,15.405696 15.854139,16.609472 17.627312,17.140777 C 16.776273,18.282749 16.245571,19.654745 16.115528,21.153462 C 15.351507,20.899323 14.531606,20.775797 13.682501,20.775797 C 12.725469,20.775797 11.811543,20.952043 10.966014,21.271482 C 10.901662,19.712981 10.356699,18.267841 9.4542302,17.117172 C 11.162021,16.552263 12.594227,15.374551 13.469906,13.836212 z "
       id="path3022" />
    <path
       style="fill:white;fill-opacity:0.45392492;stroke:none;stroke-width:1.70000005;stroke-linejoin:miter;stroke-miterlimit:4;stroke-dashoffset:0;stroke-opacity:1"
       d="M 19.71875,3.03125 C 17.033931,3.0312499 14.68008,4.5117317 13.4375,6.6875 C 12.189504,4.5323381 9.888147,3.0625 7.21875,3.0625 C 3.235887,3.0624999 -0.03125,6.3013534 -0.03125,10.28125 C -0.031248,11.951149 0.576442,13.496078 1.53125,14.71875 C -1.35711,15.660564 -3.4375,18.394412 -3.4375,21.59375 C -3.437501,25.161965 -0.843595,28.082712 2.5625,28.65625 C 2.553793,28.408907 2.53125,28.155562 2.53125,27.90625 C 2.531248,15.947913 12.630884,6.1814839 25.28125,5.65625 C 23.960477,4.0500892 21.95911,3.0312501 19.71875,3.03125 z "
       id="path3088" />
    <path
       sodipodi:type="arc"
       style="opacity:1;fill:#ffc689;fill-opacity:1;stroke:black;stroke-width:1.70975256;stroke-linejoin:miter;stroke-miterlimit:4;stroke-dasharray:none;stroke-dashoffset:0;stroke-opacity:1"
       id="path3006"
       sodipodi:cx="15.727273"
       sodipodi:cy="18.818182"
       sodipodi:rx="9.545455"
       sodipodi:ry="9.545455"
       d="M 25.272728 18.818182 A 9.545455 9.545455 0 1 1  6.181818,18.818182 A 9.545455 9.545455 0 1 1  25.272728 18.818182 z"
       transform="matrix(0.99466,0,0,0.993932,-1.119726,0.297656)" />
    <path
       style="fill:black;fill-opacity:0.0784983;stroke:none;stroke-width:1.70000005;stroke-linejoin:round;stroke-miterlimit:5.4;stroke-dashoffset:0;stroke-opacity:1;stroke-dasharray:none;stroke-linecap:butt"
       d="M 28.90625 15.71875 C 27.577465 24.40666 18.097415 31.183368 6.53125 31.28125 C 7.6636871 34.123648 10.442551 36.15625 13.6875 36.15625 C 17.654165 36.156251 20.927653 33.135054 21.34375 29.28125 C 22.167203 29.572126 23.04602 29.75 23.96875 29.75 C 28.330934 29.75 31.875 26.202684 31.875 21.84375 C 31.874999 19.357094 30.705722 17.159742 28.90625 15.71875 z "
       id="path3161" />
    <path
       style="fill:black;fill-opacity:1;stroke:none;stroke-width:3;stroke-linecap:butt;stroke-linejoin:miter;stroke-miterlimit:5.4000001;stroke-dasharray:none;stroke-dashoffset:0;stroke-opacity:1"
       d="M 19.71875,1.53125 C 17.250106,1.5312499 15.021615,2.5919838 13.4375,4.25 C 11.854842,2.6116186 9.670099,1.5625 7.21875,1.5625 C 2.421665,1.5624999 -1.53125,5.4859166 -1.53125,10.28125 C -1.53125,11.674708 -1.086206,12.93041 -0.5,14.09375 C -3.133738,15.600385 -4.9375,18.365029 -4.9375,21.59375 C -4.9375,26.383148 -1.04116,30.28125 3.75,30.28125 C 4.12232,30.28125 4.453382,30.140179 4.8125,30.09375 C 5.618661,34.343824 9.210023,37.65625 13.6875,37.65625 C 17.856546,37.656251 21.228459,34.793219 22.34375,30.96875 C 22.885125,31.066396 23.399827,31.25 23.96875,31.25 C 29.144384,31.25 33.375,27.017347 33.375,21.84375 C 33.374999,18.030327 31.033998,14.838384 27.75,13.375 C 28.132299,12.393029 28.406249,11.360467 28.40625,10.25 C 28.406251,5.4606015 24.515835,1.5312501 19.71875,1.53125 z M 19.71875,4.53125 C 22.887391,4.5312501 25.406251,7.0796057 25.40625,10.25 C 25.406249,11.412035 25.084964,12.447922 24.5,13.34375 L 23.3125,15.15625 L 25.40625,15.625 C 28.246701,16.280729 30.374999,18.795633 30.375,21.84375 C 30.375,25.388021 27.517485,28.25 23.96875,28.25 C 23.216818,28.25 22.512694,28.111297 21.84375,27.875 L 20.0625,27.25 L 19.84375,29.125 C 19.508813,32.227115 16.900039,34.656251 13.6875,34.65625 C 10.251111,34.65625 7.46875,31.869514 7.46875,28.4375 L 7.5,26.375 L 5.53125,27 C 4.971935,27.18044 4.356802,27.281251 3.75,27.28125 C 0.575432,27.28125 -1.9375,24.764146 -1.9375,21.59375 C -1.9375,19.042103 -0.309102,16.867744 1.96875,16.125 L 4.03125,15.46875 L 2.6875,13.78125 C 1.922649,12.801826 1.46875,11.603465 1.46875,10.28125 C 1.46875,7.1167902 4.05011,4.5624999 7.21875,4.5625 C 9.34261,4.5625 11.165172,5.726009 12.15625,7.4375 L 13.46875,9.6875 L 14.75,7.4375 C 15.737267,5.7087874 17.586245,4.5312499 19.71875,4.53125 z "
       id="path3173"
       sodipodi:nodetypes="ccsscsscscsscsccscccsscccscccsscccsscccc" />
    <path
       sodipodi:type="arc"
       style="opacity:1;fill:white;fill-opacity:0.56313992;stroke:none;stroke-width:3;stroke-linecap:butt;stroke-linejoin:miter;stroke-miterlimit:5.4000001;stroke-dasharray:none;stroke-dashoffset:0;stroke-opacity:1"
       id="path3181"
       sodipodi:cx="12.727273"
       sodipodi:cy="16.545454"
       sodipodi:rx="5.818182"
       sodipodi:ry="5.6363635"
       d="M 18.545455 16.545454 A 5.818182 5.6363635 0 1 1  6.909091,16.545454 A 5.818182 5.6363635 0 1 1  18.545455 16.545454 z"
       transform="translate(0.727273,0)" />
  </g>
</svg>
