<?xml version="1.0" encoding="UTF-8" standalone="no"?>
<!-- Created with Inkscape (http://www.inkscape.org/) -->
<svg
   xmlns:dc="http://purl.org/dc/elements/1.1/"
   xmlns:cc="http://web.resource.org/cc/"
   xmlns:rdf="http://www.w3.org/1999/02/22-rdf-syntax-ns#"
   xmlns:svg="http://www.w3.org/2000/svg"
   xmlns="http://www.w3.org/2000/svg"
   xmlns:xlink="http://www.w3.org/1999/xlink"
   xmlns:sodipodi="http://sodipodi.sourceforge.net/DTD/sodipodi-0.dtd"
   xmlns:inkscape="http://www.inkscape.org/namespaces/inkscape"
   width="64"
   height="64"
   id="svg2"
   inkscape:label="Pozadí"
   sodipodi:version="0.32"
   inkscape:version="0.45"
   version="1.0"
   sodipodi:docname="icon.svg"
   inkscape:output_extension="org.inkscape.output.svg.inkscape"
   sodipodi:docbase="/home/vasek/.screenlets/Convert"
   sodipodi:modified="true">
  <defs
     id="defs2220">
    <linearGradient
       id="linearGradient14990">
      <stop
         style="stop-color:#ff9c9c;stop-opacity:1;"
         offset="0"
         id="stop14992" />
      <stop
         id="stop14998"
         offset="0.80769229"
         style="stop-color:#c75d5d;stop-opacity:1;" />
      <stop
         style="stop-color:#904848;stop-opacity:1;"
         offset="1"
         id="stop14994" />
    </linearGradient>
    <linearGradient
       id="linearGradient7204">
      <stop
         style="stop-color:#8bce82;stop-opacity:1;"
         offset="0"
         id="stop7206" />
      <stop
         id="stop7212"
         offset="0.78846157"
         style="stop-color:#427e3b;stop-opacity:1;" />
      <stop
         style="stop-color:#304f2d;stop-opacity:1;"
         offset="1"
         id="stop7208" />
    </linearGradient>
    <linearGradient
       id="linearGradient3160">
      <stop
         style="stop-color:#ffffff;stop-opacity:0.8114754;"
         offset="0"
         id="stop3162" />
      <stop
         style="stop-color:#ffffff;stop-opacity:0.05691057;"
         offset="1"
         id="stop3164" />
    </linearGradient>
    <linearGradient
       id="linearGradient2171">
      <stop
         id="stop2181"
         offset="0"
         style="stop-color:#adbcee;stop-opacity:1;" />
      <stop
         id="stop2179"
         offset="0.83336651"
         style="stop-color:#687dc3;stop-opacity:1;" />
      <stop
         style="stop-color:#526192;stop-opacity:1;"
         offset="1"
         id="stop2175" />
    </linearGradient>
    <linearGradient
       inkscape:collect="always"
       xlink:href="#linearGradient7204"
       id="linearGradient17948"
       gradientUnits="userSpaceOnUse"
       x1="48.408772"
       y1="38.764351"
       x2="48.408772"
       y2="61.855042" />
    <linearGradient
       inkscape:collect="always"
       xlink:href="#linearGradient14990"
       id="linearGradient17952"
       gradientUnits="userSpaceOnUse"
       x1="5.3278255"
       y1="36.514057"
       x2="5.3278255"
       y2="61.890244" />
    <linearGradient
       inkscape:collect="always"
       xlink:href="#linearGradient3160"
       id="linearGradient2205"
       gradientUnits="userSpaceOnUse"
       x1="31.320841"
       y1="5.6606302"
       x2="31.320841"
       y2="10.877339"
       gradientTransform="translate(3.033131,-3.7610824)" />
    <linearGradient
       inkscape:collect="always"
       xlink:href="#linearGradient2171"
       id="linearGradient2208"
       gradientUnits="userSpaceOnUse"
       gradientTransform="matrix(0.8466766,0,0,0.8466766,6.2315483,-3.0086844)"
       x1="32.029861"
       y1="5.2785845"
       x2="32.029861"
       y2="27.367781" />
    <linearGradient
       inkscape:collect="always"
       xlink:href="#linearGradient3160"
       id="linearGradient2223"
       x1="49.998276"
       y1="39.856346"
       x2="49.998276"
       y2="46.3419"
       gradientUnits="userSpaceOnUse" />
    <linearGradient
       inkscape:collect="always"
       xlink:href="#linearGradient3160"
       id="linearGradient2227"
       gradientUnits="userSpaceOnUse"
       gradientTransform="translate(-0.7279514,-3.033131)"
       x1="11.961041"
       y1="34.829704"
       x2="11.961041"
       y2="41.707546" />
    <linearGradient
       inkscape:collect="always"
       xlink:href="#linearGradient3160"
       id="linearGradient2247"
       x1="10.722064"
       y1="30.514462"
       x2="10.722064"
       y2="38.932911"
       gradientUnits="userSpaceOnUse" />
    <linearGradient
       inkscape:collect="always"
       xlink:href="#linearGradient3160"
       id="linearGradient2251"
       gradientUnits="userSpaceOnUse"
       gradientTransform="translate(3.033131,-3.7610824)"
       x1="31.320841"
       y1="5.6606302"
       x2="31.320841"
       y2="10.877339" />
    <linearGradient
       inkscape:collect="always"
       xlink:href="#linearGradient2171"
       id="linearGradient2254"
       gradientUnits="userSpaceOnUse"
       gradientTransform="matrix(0.8466766,0,0,0.8466766,6.2315483,-3.0086844)"
       x1="32.029861"
       y1="5.2785845"
       x2="32.029861"
       y2="27.367781" />
    <linearGradient
       inkscape:collect="always"
       xlink:href="#linearGradient14990"
       id="linearGradient2275"
       gradientUnits="userSpaceOnUse"
       x1="5.3278255"
       y1="36.514057"
       x2="5.3278255"
       y2="61.890244" />
    <linearGradient
       inkscape:collect="always"
       xlink:href="#linearGradient3160"
       id="linearGradient2277"
       gradientUnits="userSpaceOnUse"
       x1="10.722064"
       y1="30.514462"
       x2="10.722064"
       y2="38.932911" />
    <linearGradient
       inkscape:collect="always"
       xlink:href="#linearGradient7204"
       id="linearGradient2279"
       gradientUnits="userSpaceOnUse"
       x1="48.408772"
       y1="38.764351"
       x2="48.408772"
       y2="61.855042" />
    <linearGradient
       inkscape:collect="always"
       xlink:href="#linearGradient3160"
       id="linearGradient2281"
       gradientUnits="userSpaceOnUse"
       x1="49.998276"
       y1="39.856346"
       x2="49.998276"
       y2="46.3419" />
    <linearGradient
       inkscape:collect="always"
       xlink:href="#linearGradient2171"
       id="linearGradient2283"
       gradientUnits="userSpaceOnUse"
       gradientTransform="matrix(0.8466766,0,0,0.8466766,6.2315483,-3.0086844)"
       x1="32.029861"
       y1="5.2785845"
       x2="32.029861"
       y2="27.367781" />
    <linearGradient
       inkscape:collect="always"
       xlink:href="#linearGradient3160"
       id="linearGradient2285"
       gradientUnits="userSpaceOnUse"
       gradientTransform="translate(3.033131,-3.7610824)"
       x1="31.320841"
       y1="5.6606302"
       x2="31.320841"
       y2="10.877339" />
    <linearGradient
       inkscape:collect="always"
       xlink:href="#linearGradient2171"
       id="linearGradient2310"
       gradientUnits="userSpaceOnUse"
       gradientTransform="matrix(0.8466766,0,0,0.8466766,6.2315483,-3.0086844)"
       x1="32.029861"
       y1="5.2785845"
       x2="32.029861"
       y2="27.367781" />
    <linearGradient
       inkscape:collect="always"
       xlink:href="#linearGradient3160"
       id="linearGradient2312"
       gradientUnits="userSpaceOnUse"
       gradientTransform="translate(3.033131,-3.7610824)"
       x1="31.320841"
       y1="5.6606302"
       x2="31.320841"
       y2="10.877339" />
    <linearGradient
       inkscape:collect="always"
       xlink:href="#linearGradient7204"
       id="linearGradient2314"
       gradientUnits="userSpaceOnUse"
       x1="48.408772"
       y1="38.764351"
       x2="48.408772"
       y2="61.855042" />
    <linearGradient
       inkscape:collect="always"
       xlink:href="#linearGradient3160"
       id="linearGradient2316"
       gradientUnits="userSpaceOnUse"
       x1="49.998276"
       y1="39.856346"
       x2="49.998276"
       y2="46.3419" />
    <linearGradient
       inkscape:collect="always"
       xlink:href="#linearGradient14990"
       id="linearGradient2318"
       gradientUnits="userSpaceOnUse"
       x1="5.3278255"
       y1="36.514057"
       x2="5.3278255"
       y2="61.890244" />
    <linearGradient
       inkscape:collect="always"
       xlink:href="#linearGradient3160"
       id="linearGradient2320"
       gradientUnits="userSpaceOnUse"
       x1="10.722064"
       y1="30.514462"
       x2="10.722064"
       y2="38.932911" />
  </defs>
  <sodipodi:namedview
     id="base"
     pagecolor="#ffffff"
     bordercolor="#666666"
     borderopacity="1.0"
     inkscape:pageopacity="0.0"
     inkscape:pageshadow="2"
     inkscape:zoom="5.6294326"
     inkscape:cx="38.171382"
     inkscape:cy="26.216844"
     inkscape:document-units="px"
     inkscape:current-layer="layer1"
     width="64px"
     height="64px"
     inkscape:window-width="979"
     inkscape:window-height="714"
     inkscape:window-x="115"
     inkscape:window-y="78" />
  <metadata
     id="metadata2223">
    <rdf:RDF>
      <cc:Work
         rdf:about="">
        <dc:format>image/svg+xml</dc:format>
        <dc:type
           rdf:resource="http://purl.org/dc/dcmitype/StillImage" />
      </cc:Work>
    </rdf:RDF>
  </metadata>
  <g
     inkscape:label="Vrstva 1"
     inkscape:groupmode="layer"
     id="layer1">
    <g
       id="g2287"
       transform="translate(0.2230414,0.1605787)">
      <g
         transform="translate(0.3531617,0)"
         id="g2257">
        <rect
           style="fill:none;fill-opacity:1;stroke:#000000;stroke-width:0.80000001;stroke-linecap:round;stroke-linejoin:round;stroke-miterlimit:4;stroke-dasharray:none;stroke-opacity:0.31441046"
           id="rect3170"
           width="19.194899"
           height="19.194899"
           x="24.731564"
           y="1.8979747"
           ry="2.5400298" />
        <rect
           style="fill:url(#linearGradient2310);fill-opacity:1;stroke:#000000;stroke-width:0.80000001;stroke-linecap:round;stroke-linejoin:round;stroke-miterlimit:4;stroke-dasharray:none;stroke-opacity:1"
           id="rect2169"
           width="19.194899"
           height="19.194899"
           x="24.215286"
           y="1.4677432"
           ry="2.5400298" />
        <path
           style="fill:url(#linearGradient2312);fill-opacity:1;stroke:none;stroke-width:0.80000001;stroke-linecap:round;stroke-linejoin:round;stroke-miterlimit:4;stroke-dasharray:none;stroke-opacity:1"
           d="M 26.751881,1.8639176 L 40.876881,1.8639176 C 42.069376,1.8639176 43.001881,2.8276722 43.001881,4.0201676 L 43.001881,6.3255786 C 43.001881,6.3255786 36.94766,4.9539318 30.623964,4.9539318 C 26.849273,4.9539318 24.626881,8.0343516 24.626881,6.8418566 L 24.626881,4.0201676 C 24.626881,2.8276725 25.559386,1.8639176 26.751881,1.8639176 z "
           id="rect3154"
           sodipodi:nodetypes="ccccsccc" />
        <path
           style="font-size:9px;font-style:normal;font-weight:bold;fill:#000000;fill-opacity:0.78602618;stroke:none;stroke-width:1px;stroke-linecap:butt;stroke-linejoin:miter;stroke-opacity:1;font-family:URW Palladio L"
           d="M 27.301236,13.985693 L 28.849236,13.958693 L 29.245236,13.958693 L 31.315236,13.985693 C 31.297236,13.769693 31.297236,13.652693 31.297236,13.508693 C 31.297236,13.310693 31.306236,13.193693 31.324236,12.950693 L 31.288236,12.905693 L 28.570236,13.004693 L 28.552236,12.932693 L 30.118236,11.393693 C 30.712235,10.808693 31.045236,10.151692 31.045236,9.5756926 C 31.045236,8.6666933 30.244235,8.0186924 29.128236,8.0186924 C 28.597236,8.0186924 28.192235,8.1716928 27.679236,8.5586924 L 27.517236,10.043693 L 27.850236,10.070693 L 28.012236,9.4586924 C 28.084236,9.1886927 28.489236,8.9636924 28.885236,8.9636924 C 29.479235,8.9636924 29.857236,9.359693 29.857236,9.9716926 C 29.857236,10.646692 29.506235,11.330693 28.804236,12.032693 L 27.301236,13.526693 L 27.301236,13.985693 M 32.917236,9.1076924 C 32.917236,9.1076924 34.213236,9.0806924 34.213236,9.0806924 C 34.303236,9.0806924 34.735237,9.0896924 35.500236,9.1076924 L 35.554236,9.0086924 C 35.545236,8.8646925 35.545236,8.7386923 35.545236,8.6306924 C 35.545236,8.4506926 35.563236,8.3246922 35.608236,8.1266924 L 35.572236,8.0546924 L 33.979236,8.1086924 C 33.160237,8.0906924 32.971235,8.0816924 32.449236,8.0546924 L 32.386236,8.1266924 C 32.431236,8.7746917 32.440236,9.0446927 32.440236,9.3506924 L 32.440236,10.268693 C 32.440236,10.457693 32.431236,10.673694 32.386236,11.384693 L 32.557236,11.483693 C 32.854236,11.231693 33.169236,11.123693 33.565236,11.123693 C 34.294235,11.123693 34.762236,11.609694 34.762236,12.365693 C 34.762236,13.112692 34.312235,13.589693 33.619236,13.589693 C 32.998236,13.589693 32.539236,13.238692 32.224236,12.545693 L 31.954236,12.707693 C 32.125236,13.400692 32.179236,13.625693 32.233236,13.913693 C 32.566235,14.057693 32.845236,14.111693 33.250236,14.111693 C 34.681234,14.111693 35.824236,13.094692 35.824236,11.825693 C 35.824236,10.826694 35.140235,10.196693 34.051236,10.196693 C 33.664236,10.196693 33.394235,10.268693 32.881236,10.502693 L 32.917236,9.1076924 M 37.417236,9.1076924 C 37.417236,9.1076924 38.713236,9.0806924 38.713236,9.0806924 C 38.803236,9.0806924 39.235237,9.0896924 40.000236,9.1076924 L 40.054236,9.0086924 C 40.045236,8.8646925 40.045236,8.7386923 40.045236,8.6306924 C 40.045236,8.4506926 40.063236,8.3246922 40.108236,8.1266924 L 40.072236,8.0546924 L 38.479236,8.1086924 C 37.660237,8.0906924 37.471235,8.0816924 36.949236,8.0546924 L 36.886236,8.1266924 C 36.931236,8.7746917 36.940236,9.0446927 36.940236,9.3506924 L 36.940236,10.268693 C 36.940236,10.457693 36.931236,10.673694 36.886236,11.384693 L 37.057236,11.483693 C 37.354236,11.231693 37.669236,11.123693 38.065236,11.123693 C 38.794235,11.123693 39.262236,11.609694 39.262236,12.365693 C 39.262236,13.112692 38.812235,13.589693 38.119236,13.589693 C 37.498236,13.589693 37.039236,13.238692 36.724236,12.545693 L 36.454236,12.707693 C 36.625236,13.400692 36.679236,13.625693 36.733236,13.913693 C 37.066235,14.057693 37.345236,14.111693 37.750236,14.111693 C 39.181234,14.111693 40.324236,13.094692 40.324236,11.825693 C 40.324236,10.826694 39.640235,10.196693 38.551236,10.196693 C 38.164236,10.196693 37.894235,10.268693 37.381236,10.502693 L 37.417236,9.1076924"
           id="text5260" />
      </g>
      <path
         sodipodi:open="true"
         sodipodi:end="2.2019645"
         sodipodi:start="1.337939"
         transform="translate(2.7338719,0)"
         d="M 37.358574,58.908614 A 24.827406,24.827406 0 0 1 16.979074,54.795401"
         sodipodi:ry="24.827406"
         sodipodi:rx="24.827406"
         sodipodi:cy="34.751274"
         sodipodi:cx="31.629435"
         id="path17960"
         style="opacity:1;fill:none;fill-opacity:0.78431373;stroke:#000000;stroke-width:0.80000001;stroke-linecap:round;stroke-linejoin:round;stroke-miterlimit:4;stroke-dasharray:none;stroke-opacity:1"
         sodipodi:type="arc" />
      <path
         sodipodi:open="true"
         sodipodi:end="6.4552178"
         sodipodi:start="5.2155691"
         transform="translate(2.7338719,0)"
         d="M 43.601556,13.001138 A 24.827406,24.827406 0 0 1 56.09036,39.001358"
         sodipodi:ry="24.827406"
         sodipodi:rx="24.827406"
         sodipodi:cy="34.751274"
         sodipodi:cx="31.629435"
         id="path18931"
         style="opacity:1;fill:none;fill-opacity:0.78431373;stroke:#000000;stroke-width:0.80000001;stroke-linecap:round;stroke-linejoin:round;stroke-miterlimit:4;stroke-dasharray:none;stroke-opacity:1"
         sodipodi:type="arc" />
      <path
         sodipodi:open="true"
         sodipodi:end="4.1914801"
         sodipodi:start="3.3233442"
         transform="translate(2.7338719,0)"
         d="M 7.2109707,30.263657 A 24.827406,24.827406 0 0 1 19.273612,13.216796"
         sodipodi:ry="24.827406"
         sodipodi:rx="24.827406"
         sodipodi:cy="34.751274"
         sodipodi:cx="31.629435"
         id="path18933"
         style="opacity:1;fill:none;fill-opacity:0.78431373;stroke:#000000;stroke-width:0.80000001;stroke-linecap:round;stroke-linejoin:round;stroke-miterlimit:4;stroke-dasharray:none;stroke-opacity:1"
         sodipodi:type="arc" />
      <path
         inkscape:transform-center-y="1.7602926"
         inkscape:transform-center-x="1.8836059"
         transform="matrix(0.5924734,-3.9777735e-2,3.9777735e-2,0.5924734,10.121549,7.2827569)"
         d="M 19.798597,11.019569 L 16.539581,16.646014 L 13.296445,11.0104 L 19.798597,11.019569 z "
         inkscape:randomized="0"
         inkscape:rounded="1.0408341e-17"
         inkscape:flatsided="true"
         sodipodi:arg2="0.52500885"
         sodipodi:arg1="-0.5221887"
         sodipodi:r2="1.8770117"
         sodipodi:r1="3.7540233"
         sodipodi:cy="12.891994"
         sodipodi:cx="16.544874"
         sodipodi:sides="3"
         id="path18935"
         style="opacity:1;fill:#000000;fill-opacity:1;stroke:#000000;stroke-width:1.34723866;stroke-linecap:round;stroke-linejoin:round;stroke-miterlimit:4;stroke-dasharray:none;stroke-opacity:1"
         sodipodi:type="star" />
      <path
         inkscape:transform-center-y="-1.7145649"
         inkscape:transform-center-x="-0.16829361"
         transform="matrix(-0.3289686,0.4943548,-0.4943548,-0.3289686,70.821373,32.858357)"
         d="M 19.798597,11.019569 L 16.539581,16.646014 L 13.296445,11.0104 L 19.798597,11.019569 z "
         inkscape:randomized="0"
         inkscape:rounded="1.0408341e-17"
         inkscape:flatsided="true"
         sodipodi:arg2="0.52500885"
         sodipodi:arg1="-0.5221887"
         sodipodi:r2="1.8770117"
         sodipodi:r1="3.7540233"
         sodipodi:cy="12.891994"
         sodipodi:cx="16.544874"
         sodipodi:sides="3"
         id="path22817"
         style="fill:#000000;fill-opacity:1;stroke:#000000;stroke-width:1.34723866;stroke-linecap:round;stroke-linejoin:round;stroke-miterlimit:4;stroke-dasharray:none;stroke-opacity:1"
         sodipodi:type="star" />
      <path
         inkscape:transform-center-y="1.6533178"
         inkscape:transform-center-x="-1.9379753"
         transform="matrix(-0.2797735,-0.5237688,0.5237688,-0.2797735,19.479871,68.215104)"
         d="M 19.798597,11.019569 L 16.539581,16.646014 L 13.296445,11.0104 L 19.798597,11.019569 z "
         inkscape:randomized="0"
         inkscape:rounded="1.0408341e-17"
         inkscape:flatsided="true"
         sodipodi:arg2="0.52500885"
         sodipodi:arg1="-0.5221887"
         sodipodi:r2="1.8770117"
         sodipodi:r1="3.7540233"
         sodipodi:cy="12.891994"
         sodipodi:cx="16.544874"
         sodipodi:sides="3"
         id="path22819"
         style="opacity:1;fill:#000000;fill-opacity:1;stroke:#000000;stroke-width:1.34723866;stroke-linecap:round;stroke-linejoin:round;stroke-miterlimit:4;stroke-dasharray:none;stroke-opacity:1"
         sodipodi:type="star" />
      <g
         transform="translate(0.3531617,0)"
         id="g2263">
        <path
           sodipodi:type="arc"
           style="fill:none;fill-opacity:1;stroke:#000000;stroke-width:0.80000001;stroke-linecap:round;stroke-linejoin:round;stroke-miterlimit:4;stroke-dasharray:none;stroke-opacity:0.31372549"
           id="path7228"
           sodipodi:cx="48.772747"
           sodipodi:cy="50.290249"
           sodipodi:rx="11.161922"
           sodipodi:ry="11.161922"
           d="M 59.934669 50.290249 A 11.161922 11.161922 0 1 1  37.610825,50.290249 A 11.161922 11.161922 0 1 1  59.934669 50.290249 z"
           transform="translate(2.4222025,0.7589281)" />
        <path
           sodipodi:type="arc"
           style="fill:url(#linearGradient2314);fill-opacity:1;stroke:#000000;stroke-width:0.80000001;stroke-linecap:round;stroke-linejoin:round;stroke-miterlimit:4;stroke-dasharray:none;stroke-opacity:1"
           id="path6233"
           sodipodi:cx="48.772747"
           sodipodi:cy="50.290249"
           sodipodi:rx="11.161922"
           sodipodi:ry="11.161922"
           d="M 59.934669 50.290249 A 11.161922 11.161922 0 1 1  37.610825,50.290249 A 11.161922 11.161922 0 1 1  59.934669 50.290249 z"
           transform="translate(1.8198786,0.2426505)" />
        <path
           style="font-size:8px;font-style:normal;font-weight:bold;fill:#000000;fill-opacity:0.78602618;stroke:none;stroke-width:1px;stroke-linecap:butt;stroke-linejoin:miter;stroke-opacity:1;font-family:URW Palladio L"
           d="M 44.206063,47.912899 C 43.502064,47.912899 43.030063,48.168899 42.726063,48.704899 C 42.454063,49.176898 42.342063,49.8009 42.342063,50.776899 C 42.342063,52.560897 42.846064,53.328899 44.014063,53.328899 C 45.262062,53.328899 45.822063,52.424897 45.822063,50.408899 C 45.822063,49.552899 45.726063,49.016898 45.494063,48.608899 C 45.238063,48.152899 44.790062,47.912899 44.206063,47.912899 M 44.038063,48.312899 C 44.270063,48.312899 44.462063,48.456899 44.590063,48.728899 C 44.750063,49.072898 44.862063,50.1049 44.862063,51.176899 C 44.862063,52.312897 44.598062,52.928899 44.118063,52.928899 C 43.878063,52.928899 43.686063,52.784898 43.558063,52.512899 C 43.398063,52.168899 43.302063,51.288897 43.302063,50.216899 C 43.302063,49.336899 43.358063,48.928898 43.518063,48.632899 C 43.638063,48.416899 43.814063,48.312899 44.038063,48.312899 M 47.678063,51.512899 L 46.798063,52.632899 C 46.638063,52.824898 46.494063,52.904899 46.246063,52.920899 L 46.246063,53.192899 L 46.974063,53.192899 C 47.206063,52.832899 47.294063,52.704898 47.390063,52.568899 L 47.902063,51.864899 L 48.702063,53.216899 L 49.326063,53.192899 C 49.646063,53.200899 49.710063,53.200899 49.942063,53.216899 L 49.942063,52.920899 C 49.694063,52.896899 49.534063,52.744898 49.254063,52.288899 L 48.542063,51.072899 L 49.318063,50.160899 C 49.566063,49.872899 49.646063,49.824899 49.942063,49.816899 L 49.942063,49.520899 L 49.182063,49.520899 L 48.318063,50.720899 L 47.902063,50.040899 C 47.710063,49.736899 47.566063,49.552898 47.406063,49.424899 C 47.126063,49.496898 46.534063,49.624899 46.238063,49.680899 L 46.302063,49.968899 C 46.342063,49.960899 46.398063,49.960899 46.422063,49.960899 C 46.686063,49.960899 46.830063,50.072899 47.038063,50.424899 L 47.678063,51.512899 M 52.110063,48.232899 C 52.502063,48.216899 52.766063,48.208899 53.038063,48.208899 C 53.574062,48.208899 53.918063,48.264899 53.926063,48.360899 L 53.990063,48.960899 L 54.278063,48.960899 L 54.390063,47.824899 L 54.342063,47.768899 C 54.038063,47.744899 53.894063,47.736899 53.582063,47.736899 C 53.398063,47.736899 53.094062,47.744899 52.454063,47.760899 C 52.086063,47.768899 51.886063,47.768899 51.726063,47.768899 C 51.494063,47.768899 51.494062,47.768899 50.302063,47.744899 L 50.302063,48.040899 L 50.598063,48.064899 C 50.958063,48.096899 50.982063,48.144899 50.982063,48.848899 L 50.982063,52.112899 C 50.982063,52.824898 50.974063,52.840899 50.598063,52.872899 L 50.302063,52.896899 L 50.302063,53.216899 C 51.270062,53.192899 51.270063,53.192899 51.542063,53.192899 C 51.798063,53.192899 51.798064,53.192899 52.870063,53.216899 L 52.870063,52.896899 L 52.494063,52.872899 C 52.126063,52.848899 52.110063,52.816898 52.110063,52.112899 L 52.110063,50.616899 C 52.334063,50.600899 52.470063,50.592899 52.646063,50.592899 L 53.054063,50.592899 C 53.358063,50.592899 53.486063,50.680899 53.510063,50.888899 L 53.558063,51.288899 L 53.878063,51.288899 C 53.878063,51.288899 53.854063,50.424899 53.854063,50.424899 C 53.854063,50.336899 53.854063,50.224898 53.878063,49.600899 L 53.558063,49.600899 L 53.510063,50.024899 C 53.494063,50.152898 53.390063,50.192899 53.054063,50.192899 L 52.646063,50.192899 C 52.382063,50.192899 52.270063,50.192899 52.110063,50.176899 L 52.110063,48.232899 M 56.563188,48.232899 C 56.955188,48.216899 57.219188,48.208899 57.491188,48.208899 C 58.027187,48.208899 58.371188,48.264899 58.379188,48.360899 L 58.443188,48.960899 L 58.731188,48.960899 L 58.843188,47.824899 L 58.795188,47.768899 C 58.491188,47.744899 58.347188,47.736899 58.035188,47.736899 C 57.851188,47.736899 57.547187,47.744899 56.907188,47.760899 C 56.539188,47.768899 56.339188,47.768899 56.179188,47.768899 C 55.947188,47.768899 55.947187,47.768899 54.755188,47.744899 L 54.755188,48.040899 L 55.051188,48.064899 C 55.411188,48.096899 55.435188,48.144899 55.435188,48.848899 L 55.435188,52.112899 C 55.435188,52.824898 55.427188,52.840899 55.051188,52.872899 L 54.755188,52.896899 L 54.755188,53.216899 C 55.723187,53.192899 55.723188,53.192899 55.995188,53.192899 C 56.251188,53.192899 56.251189,53.192899 57.323188,53.216899 L 57.323188,52.896899 L 56.947188,52.872899 C 56.579188,52.848899 56.563188,52.816898 56.563188,52.112899 L 56.563188,50.616899 C 56.787188,50.600899 56.923188,50.592899 57.099188,50.592899 L 57.507188,50.592899 C 57.811188,50.592899 57.939188,50.680899 57.963188,50.888899 L 58.011188,51.288899 L 58.331188,51.288899 C 58.331188,51.288899 58.307188,50.424899 58.307188,50.424899 C 58.307188,50.336899 58.307188,50.224898 58.331188,49.600899 L 58.011188,49.600899 L 57.963188,50.024899 C 57.947188,50.152898 57.843188,50.192899 57.507188,50.192899 L 57.099188,50.192899 C 56.835188,50.192899 56.723188,50.192899 56.563188,50.176899 L 56.563188,48.232899"
           id="text11108" />
        <path
           style="fill:url(#linearGradient2316);fill-opacity:1;stroke:none;stroke-width:0.80000001;stroke-linecap:round;stroke-linejoin:round;stroke-miterlimit:4;stroke-dasharray:none;stroke-opacity:1"
           d="M 50.601129,39.773901 C 54.5166,39.773901 57.937599,41.858239 59.817007,44.979796 C 59.953557,45.089561 56.072565,43.99503 50.861797,43.99503 C 44.788177,43.99503 40.204965,47.660852 40.202437,47.675032 C 41.455639,43.11643 45.642775,39.773901 50.601129,39.773901 z "
           id="path2210"
           sodipodi:nodetypes="ccscc" />
      </g>
      <g
         transform="translate(0.3531617,0)"
         id="g2269">
        <path
           sodipodi:type="star"
           style="fill:none;fill-opacity:1;stroke:#000000;stroke-width:0.91550475;stroke-linecap:round;stroke-linejoin:round;stroke-miterlimit:4;stroke-dasharray:none;stroke-opacity:0.31372549"
           id="path15014"
           sodipodi:sides="3"
           sodipodi:cx="5.1320577"
           sodipodi:cy="52.196266"
           sodipodi:r1="15.078316"
           sodipodi:r2="7.5391579"
           sodipodi:arg1="-1.5707963"
           sodipodi:arg2="-0.52359875"
           inkscape:flatsided="true"
           inkscape:rounded="0.15"
           inkscape:randomized="0"
           d="M 5.1320581,37.11795 C 9.0495194,37.117951 20.148993,56.342803 18.190262,59.735424 C 16.231531,63.128045 -5.9674164,63.128045 -7.926147,59.735424 C -9.8848776,56.342803 1.2145967,37.11795 5.1320581,37.11795 z "
           transform="matrix(0.8738349,0,0,0.8738349,8.2199452,-0.6182271)" />
        <path
           sodipodi:type="star"
           style="fill:url(#linearGradient2318);fill-opacity:1;stroke:#000000;stroke-width:0.91550475;stroke-linecap:round;stroke-linejoin:round;stroke-miterlimit:4;stroke-dasharray:none;stroke-opacity:1"
           id="path14019"
           sodipodi:sides="3"
           sodipodi:cx="5.1320577"
           sodipodi:cy="52.196266"
           sodipodi:r1="15.078316"
           sodipodi:r2="7.5391579"
           sodipodi:arg1="-1.5707963"
           sodipodi:arg2="-0.52359875"
           inkscape:flatsided="true"
           inkscape:rounded="0.15"
           inkscape:randomized="0"
           d="M 5.1320581,37.11795 C 9.0495194,37.117951 20.148993,56.342803 18.190262,59.735424 C 16.231531,63.128045 -5.9674164,63.128045 -7.926147,59.735424 C -9.8848776,56.342803 1.2145967,37.11795 5.1320581,37.11795 z "
           transform="matrix(0.8738349,0,0,0.8738349,7.6176213,-1.0484584)" />
        <path
           style="font-size:8px;font-style:normal;font-weight:bold;fill:#000000;fill-opacity:0.78431373;stroke:none;stroke-width:1px;stroke-linecap:butt;stroke-linejoin:miter;stroke-opacity:1;font-family:URW Palladio L"
           d="M 6.126192,43.687216 C 5.4221927,43.687216 4.9501917,43.943217 4.646192,44.479216 C 4.3741922,44.951216 4.262192,45.575217 4.262192,46.551216 C 4.262192,48.335215 4.7661931,49.103216 5.934192,49.103216 C 7.1821907,49.103216 7.742192,48.199214 7.742192,46.183216 C 7.742192,45.327217 7.6461917,44.791216 7.414192,44.383216 C 7.1581922,43.927217 6.7101914,43.687216 6.126192,43.687216 M 5.958192,44.087216 C 6.1901917,44.087216 6.3821921,44.231217 6.510192,44.503216 C 6.6701918,44.847216 6.782192,45.879217 6.782192,46.951216 C 6.782192,48.087215 6.5181915,48.703216 6.038192,48.703216 C 5.7981922,48.703216 5.6061918,48.559216 5.478192,48.287216 C 5.3181921,47.943217 5.222192,47.063215 5.222192,45.991216 C 5.222192,45.111217 5.2781921,44.703216 5.438192,44.407216 C 5.5581919,44.191217 5.7341922,44.087216 5.958192,44.087216 M 8.174192,47.719216 C 8.2461919,48.079216 8.2701921,48.271217 8.374192,48.911216 C 8.7101916,49.055216 8.9741924,49.103216 9.366192,49.103216 C 10.63819,49.103216 11.662192,48.239215 11.662192,47.167216 C 11.662192,46.743217 11.494191,46.415216 11.174192,46.199216 C 10.974192,46.071216 10.806191,46.023216 10.446192,45.983216 C 11.062191,45.663217 11.342192,45.303216 11.342192,44.815216 C 11.342192,44.159217 10.734191,43.687216 9.894192,43.687216 C 9.4541924,43.687216 9.1341915,43.783217 8.670192,44.047216 L 8.422192,45.279216 L 8.702192,45.279216 C 8.8541918,44.727217 9.1501925,44.471216 9.638192,44.471216 C 10.142191,44.471216 10.454192,44.751217 10.454192,45.191216 C 10.454192,45.703216 10.094191,46.031216 9.550192,46.031216 L 9.270192,46.031216 L 9.118192,46.623216 L 9.174192,46.663216 C 9.3341918,46.615216 9.4861922,46.599216 9.662192,46.599216 C 10.270191,46.599216 10.670192,46.991217 10.670192,47.591216 C 10.670192,48.215216 10.262191,48.655216 9.678192,48.655216 C 9.3981923,48.655216 9.1261918,48.551216 8.918192,48.375216 C 8.7341922,48.207216 8.6221918,48.039216 8.446192,47.647216 L 8.174192,47.719216 M 15.942192,43.743216 L 14.814192,43.767216 L 14.582192,43.767216 C 14.382192,43.767216 13.934191,43.759216 13.238192,43.735216 C 13.126192,43.735216 12.798191,43.727216 12.446192,43.719216 L 12.366192,43.783216 C 12.390192,44.303216 12.398192,44.535217 12.398192,44.919216 C 12.398192,45.015216 12.398192,45.015217 12.390192,45.639216 L 12.702192,45.639216 L 12.766192,45.127216 C 12.806192,44.775217 12.894192,44.711216 13.270192,44.711216 L 15.070192,44.711216 L 15.102192,44.759216 L 12.702192,48.903216 L 12.750192,48.991216 C 13.118191,48.967216 13.118192,48.967216 13.190192,48.967216 C 13.246192,48.967216 13.342192,48.975216 13.478192,48.983216 C 13.502192,48.983216 13.566192,48.983216 13.630192,48.991216 C 13.750192,48.599217 14.110192,47.711216 14.318192,47.271216 L 15.198192,45.479216 C 15.518191,44.831217 15.670192,44.535216 15.942192,44.103216 L 15.942192,43.743216 M 19.942192,43.743216 L 18.814192,43.767216 L 18.582192,43.767216 C 18.382192,43.767216 17.934191,43.759216 17.238192,43.735216 C 17.126192,43.735216 16.798191,43.727216 16.446192,43.719216 L 16.366192,43.783216 C 16.390192,44.303216 16.398192,44.535217 16.398192,44.919216 C 16.398192,45.015216 16.398192,45.015217 16.390192,45.639216 L 16.702192,45.639216 L 16.766192,45.127216 C 16.806192,44.775217 16.894192,44.711216 17.270192,44.711216 L 19.070192,44.711216 L 19.102192,44.759216 L 16.702192,48.903216 L 16.750192,48.991216 C 17.118191,48.967216 17.118192,48.967216 17.190192,48.967216 C 17.246192,48.967216 17.342192,48.975216 17.478192,48.983216 C 17.502192,48.983216 17.566192,48.983216 17.630192,48.991216 C 17.750192,48.599217 18.110192,47.711216 18.318192,47.271216 L 19.198192,45.479216 C 19.518191,44.831217 19.670192,44.535216 19.942192,44.103216 L 19.942192,43.743216"
           id="text16954" />
        <path
           style="fill:url(#linearGradient2320);fill-opacity:1;stroke:none;stroke-width:0.91550475;stroke-linecap:round;stroke-linejoin:round;stroke-miterlimit:4;stroke-dasharray:none;stroke-opacity:1"
           d="M 12.096025,31.774965 C 12.360344,31.774965 12.850682,31.991536 13.406778,32.430341 C 13.962873,32.869146 14.593016,33.517359 15.263677,34.314548 C 15.951161,35.131736 16.672998,36.100547 17.389755,37.156388 C 17.519353,37.175618 14.844216,35.659649 12.428941,35.659649 C 9.5595548,35.659649 4.8064203,40.451894 4.8049652,40.34947 C 6.1149668,38.080481 7.5870516,35.908927 8.9283736,34.314548 C 9.5990347,33.517359 10.256485,32.869146 10.81258,32.430341 C 11.368675,31.991536 11.831706,31.774965 12.096025,31.774965 z "
           id="path2235"
           sodipodi:nodetypes="csscscssc" />
      </g>
    </g>
  </g>
</svg>
