<?xml version="1.0" encoding="UTF-8" standalone="no"?>
<!-- Created with Inkscape (http://www.inkscape.org/) -->
<svg
   xmlns:dc="http://purl.org/dc/elements/1.1/"
   xmlns:cc="http://web.resource.org/cc/"
   xmlns:rdf="http://www.w3.org/1999/02/22-rdf-syntax-ns#"
   xmlns:svg="http://www.w3.org/2000/svg"
   xmlns="http://www.w3.org/2000/svg"
   xmlns:xlink="http://www.w3.org/1999/xlink"
   xmlns:sodipodi="http://sodipodi.sourceforge.net/DTD/sodipodi-0.dtd"
   xmlns:inkscape="http://www.inkscape.org/namespaces/inkscape"
   width="32px"
   height="32px"
   id="svg3419"
   sodipodi:version="0.32"
   inkscape:version="0.45"
   sodipodi:docbase="/home/ryx/Documents/scripts/python/screenlets/screenlets-0.0.10/desktop-menu"
   sodipodi:docname="screenlets.svg"
   inkscape:output_extension="org.inkscape.output.svg.inkscape"
   sodipodi:modified="true">
  <defs
     id="defs3421">
    <linearGradient
       id="linearGradient5471">
      <stop
         id="stop5473"
         offset="0"
         style="stop-color:black;stop-opacity:0.39823008;" />
      <stop
         id="stop5475"
         offset="1"
         style="stop-color:black;stop-opacity:0;" />
    </linearGradient>
    <linearGradient
       inkscape:collect="always"
       xlink:href="#linearGradient5471"
       id="linearGradient3358"
       gradientUnits="userSpaceOnUse"
       gradientTransform="matrix(0.642275,0,0,0.642275,18.28332,18.25225)"
       x1="58.386326"
       y1="91.65625"
       x2="54.682812"
       y2="78.734375" />
    <linearGradient
       id="linearGradient5463"
       inkscape:collect="always">
      <stop
         id="stop5465"
         offset="0"
         style="stop-color:white;stop-opacity:1;" />
      <stop
         id="stop5467"
         offset="1"
         style="stop-color:white;stop-opacity:0;" />
    </linearGradient>
    <linearGradient
       inkscape:collect="always"
       xlink:href="#linearGradient5463"
       id="linearGradient3356"
       gradientUnits="userSpaceOnUse"
       gradientTransform="matrix(0.642275,0,0,0.642275,18.28332,18.25225)"
       x1="38.577778"
       y1="10.813652"
       x2="49.751614"
       y2="57.09375" />
    <linearGradient
       id="linearGradient2918">
      <stop
         style="stop-color:white;stop-opacity:0;"
         offset="0"
         id="stop2920" />
      <stop
         id="stop2926"
         offset="0.5"
         style="stop-color:white;stop-opacity:0;" />
      <stop
         style="stop-color:black;stop-opacity:0.60176992;"
         offset="1"
         id="stop2922" />
    </linearGradient>
    <radialGradient
       inkscape:collect="always"
       xlink:href="#linearGradient2918"
       id="radialGradient3354"
       gradientUnits="userSpaceOnUse"
       gradientTransform="matrix(1.222354,-3.291889e-7,3.344894e-7,1.240354,-11.19964,-12.40083)"
       cx="52.194855"
       cy="52.393955"
       fx="52.194855"
       fy="52.393955"
       r="41.277641" />
    <linearGradient
       id="linearGradient5395">
      <stop
         id="stop5397"
         offset="0"
         style="stop-color:black;stop-opacity:0.1460177;" />
      <stop
         id="stop5399"
         offset="1"
         style="stop-color:black;stop-opacity:0;" />
    </linearGradient>
    <radialGradient
       inkscape:collect="always"
       xlink:href="#linearGradient5395"
       id="radialGradient3352"
       gradientUnits="userSpaceOnUse"
       cx="55.282555"
       cy="57.493858"
       fx="55.282555"
       fy="57.493858"
       r="41.277641" />
    <linearGradient
       id="linearGradient3287">
      <stop
         id="stop3289"
         offset="0"
         style="stop-color:#ffffff;stop-opacity:1;" />
      <stop
         id="stop3291"
         offset="1"
         style="stop-color:#7f7f7f;stop-opacity:1;" />
    </linearGradient>
    <linearGradient
       inkscape:collect="always"
       xlink:href="#linearGradient3287"
       id="linearGradient3350"
       gradientUnits="userSpaceOnUse"
       gradientTransform="matrix(0.642275,0,0,0.642275,18.28332,18.25225)"
       x1="-9.9425411"
       y1="-11.316278"
       x2="109.36989"
       y2="122.19615" />
    <linearGradient
       inkscape:collect="always"
       xlink:href="#linearGradient5989"
       id="linearGradient3348"
       gradientUnits="userSpaceOnUse"
       gradientTransform="matrix(-0.660059,0,0,-0.660059,149.7162,83.56759)"
       x1="189.17828"
       y1="97.78125"
       x2="130.45938"
       y2="5.6419296" />
    <linearGradient
       id="linearGradient5989">
      <stop
         id="stop5991"
         offset="0"
         style="stop-color:#ffffff;stop-opacity:1;" />
      <stop
         style="stop-color:#bcbcbc;stop-opacity:1;"
         offset="0.56465238"
         id="stop2316" />
      <stop
         id="stop2318"
         offset="0.83716005"
         style="stop-color:#838383;stop-opacity:1;" />
      <stop
         id="stop5993"
         offset="1"
         style="stop-color:#3a3a3a;stop-opacity:1;" />
    </linearGradient>
    <linearGradient
       inkscape:collect="always"
       xlink:href="#linearGradient5989"
       id="linearGradient3346"
       gradientUnits="userSpaceOnUse"
       gradientTransform="matrix(-0.642275,0,0,-0.642275,147.0621,82.69205)"
       x1="113.03156"
       y1="-5.1532555"
       x2="178.13614"
       y2="84.281631" />
    <linearGradient
       id="linearGradient2760">
      <stop
         id="stop2762"
         offset="0"
         style="stop-color:#ffff81;stop-opacity:0.80973452;" />
      <stop
         style="stop-color:#fff21b;stop-opacity:0.81415927;"
         offset="0.5"
         id="stop2768" />
      <stop
         id="stop2764"
         offset="1"
         style="stop-color:#e9cc00;stop-opacity:0.82743365;" />
    </linearGradient>
    <linearGradient
       inkscape:collect="always"
       xlink:href="#linearGradient2760"
       id="linearGradient3511"
       gradientUnits="userSpaceOnUse"
       gradientTransform="matrix(2.1480034e-2,0,0,2.2427405e-2,10.213848,8.7617081)"
       x1="159.5"
       y1="75.362183"
       x2="194"
       y2="256.36218" />
  </defs>
  <sodipodi:namedview
     id="base"
     pagecolor="#ffffff"
     bordercolor="#666666"
     borderopacity="1.0"
     inkscape:pageopacity="0.0"
     inkscape:pageshadow="2"
     inkscape:zoom="8.9935144"
     inkscape:cx="6.9695169"
     inkscape:cy="15.755746"
     inkscape:current-layer="layer1"
     showgrid="true"
     inkscape:grid-bbox="true"
     inkscape:document-units="px"
     inkscape:window-width="896"
     inkscape:window-height="626"
     inkscape:window-x="191"
     inkscape:window-y="121"
     width="16px"
     height="16px" />
  <metadata
     id="metadata3424">
    <rdf:RDF>
      <cc:Work
         rdf:about="">
        <dc:format>image/svg+xml</dc:format>
        <dc:type
           rdf:resource="http://purl.org/dc/dcmitype/StillImage" />
      </cc:Work>
    </rdf:RDF>
  </metadata>
  <g
     id="layer1"
     inkscape:label="Layer 1"
     inkscape:groupmode="layer">
    <g
       id="g3802">
      <path
         transform="matrix(1.2058958,-0.2396741,0.1880565,0.982138,-11.345506,3.865622)"
         d="M 26.339067 28.697788 A 7.9410319 2.2014742 0 1 1  10.457003,28.697788 A 7.9410319 2.2014742 0 1 1  26.339067 28.697788 z"
         sodipodi:ry="2.2014742"
         sodipodi:rx="7.9410319"
         sodipodi:cy="28.697788"
         sodipodi:cx="18.398035"
         id="path3699"
         style="opacity:1;color:#000000;fill:#000000;fill-opacity:0.13310583;fill-rule:evenodd;stroke:none;stroke-width:0.2;stroke-linecap:butt;stroke-linejoin:miter;marker:none;marker-start:none;marker-mid:none;marker-end:none;stroke-miterlimit:4;stroke-dasharray:none;stroke-dashoffset:0;stroke-opacity:1;visibility:visible;display:inline;overflow:visible"
         sodipodi:type="arc" />
      <path
         sodipodi:nodetypes="ccccccccc"
         id="rect2345"
         d="M 4.3750261,2.2499998 L 27.625182,6.2499998 C 29.850571,6.485872 31.500208,8.0339998 31.500208,10.25 L 31.500208,20.5 C 31.500208,22.716 29.850571,23.792383 27.625182,24.5 L 4.3750261,30.5 C 2.2282616,30.5 0.5,28.716 0.5,26.5 L 0.5,6.2499998 C 0.5,4.0339998 2.2282616,2.2499998 4.3750261,2.2499998 z "
         style="color:#000000;fill:#f9f9f9;fill-opacity:1;fill-rule:evenodd;stroke:#909090;stroke-width:1;stroke-linecap:butt;stroke-linejoin:miter;marker:none;marker-start:none;marker-mid:none;marker-end:none;stroke-miterlimit:4;stroke-dashoffset:0;stroke-opacity:1;visibility:visible;display:inline;overflow:visible" />
      <path
         sodipodi:nodetypes="ccccc"
         id="rect2342"
         d="M 2.9218911,4.4999998 L 29.562694,8.2714278 L 29.562694,21.978572 L 2.9218911,27.75 L 2.9218911,4.4999998 z "
         style="color:#000000;fill:#409ce5;fill-opacity:1;fill-rule:evenodd;stroke:none;stroke-width:1;stroke-linecap:butt;stroke-linejoin:miter;marker:none;marker-start:none;marker-mid:none;marker-end:none;stroke-miterlimit:4;stroke-dashoffset:0;stroke-opacity:1;visibility:visible;display:inline;overflow:visible" />
      <g
         transform="matrix(7.6498916e-2,0,0,8.0094009e-2,23.73136,16.593365)"
         id="g5772"
         style="display:inline">
        <g
           inkscape:label="Ebene 1"
           id="g5774"
           transform="translate(-18.7168,-18.57414)" />
        <g
           id="g5776"
           inkscape:label="tmp"
           transform="translate(-18.7168,-18.57414)">
          <g
             id="g5048">
            <path
               transform="matrix(0.737852,0,0,0.737852,14.75382,14.72274)"
               d="M 91.646191 50.368549 A 41.277641 41.277641 0 1 1  9.0909081,50.368549 A 41.277641 41.277641 0 1 1  91.646191 50.368549 z"
               sodipodi:ry="41.277641"
               sodipodi:rx="41.277641"
               sodipodi:cy="50.368549"
               sodipodi:cx="50.368549"
               id="path3286"
               style="opacity:1;fill:#000000;fill-opacity:0.23549488;stroke:none;stroke-width:3.55200005;stroke-linecap:butt;stroke-linejoin:miter;stroke-miterlimit:4;stroke-dasharray:none;stroke-dashoffset:0;stroke-opacity:1"
               sodipodi:type="arc" />
            <path
               transform="matrix(0.684225,0,0,0.684225,16.17033,16.13926)"
               d="M 91.646191 50.368549 A 41.277641 41.277641 0 1 1  9.0909081,50.368549 A 41.277641 41.277641 0 1 1  91.646191 50.368549 z"
               sodipodi:ry="41.277641"
               sodipodi:rx="41.277641"
               sodipodi:cy="50.368549"
               sodipodi:cx="50.368549"
               id="path2335"
               style="opacity:1;fill:#f2f2f2;fill-opacity:1;stroke:none;stroke-width:3.55200005;stroke-linecap:butt;stroke-linejoin:miter;stroke-miterlimit:4;stroke-dasharray:none;stroke-dashoffset:0;stroke-opacity:1"
               sodipodi:type="arc" />
            <g
               transform="matrix(0.642275,0,0,0.642275,18.28332,18.09444)"
               id="g1896">
              <path
                 style="opacity:1;fill:#000000;fill-opacity:1;stroke:none;stroke-width:3.55200005;stroke-linecap:butt;stroke-linejoin:miter;stroke-miterlimit:4;stroke-dasharray:none;stroke-dashoffset:0;stroke-opacity:1"
                 d="M 49,10.1832 L 49,16.0582 L 50.125,16.08945 L 51,16.0582 L 51,10.1832 L 49,10.1832 z M 30.875,15.02695 L 29.125,16.02695 L 32.09375,21.1832 L 33.09375,20.65195 L 33.84375,20.1832 L 30.875,15.02695 z M 69.125,15.02695 L 66.21875,20.08945 L 67.125,20.65195 L 67.9375,21.08945 L 70.875,16.02695 L 69.125,15.02695 z M 15.84375,29.3082 L 14.84375,31.02695 L 20.09375,34.0582 L 20.65625,33.1207 L 21.09375,32.33945 L 15.84375,29.3082 z M 84.15625,29.3082 L 79.09375,32.21445 L 79.59375,33.1207 L 80.09375,33.9332 L 85.15625,31.02695 L 84.15625,29.3082 z M 10,49.1832 L 10,51.1832 L 16.0625,51.1832 L 16.09375,50.1207 L 16.0625,49.1832 L 10,49.1832 z M 84.1875,49.1832 L 84.15625,50.1207 L 84.1875,51.1832 L 90,51.1832 L 90,49.1832 L 84.1875,49.1832 z M 20.125,66.27695 L 14.84375,69.3082 L 15.84375,71.02695 L 21.125,67.9957 L 20.65625,67.15195 L 20.125,66.27695 z M 80.0625,66.3707 L 79.59375,67.15195 L 79.0625,68.08945 L 84.15625,71.02695 L 85.15625,69.3082 L 80.0625,66.3707 z M 32.15625,79.0582 L 29.125,84.3082 L 30.875,85.3082 L 33.90625,80.08945 L 33.09375,79.58945 L 32.15625,79.0582 z M 67.90625,79.15195 L 67.125,79.58945 L 66.15625,80.1832 L 69.125,85.3082 L 70.875,84.3082 L 67.90625,79.15195 z M 50.125,84.15195 L 49,84.1832 L 49,90.1832 L 51,90.1832 L 51,84.1832 L 50.125,84.15195 z "
                 id="rect2253" />
              <path
                 style="opacity:1;fill:#000000;fill-opacity:1;stroke:none;stroke-width:3.55200005;stroke-linecap:butt;stroke-linejoin:miter;stroke-miterlimit:4;stroke-dasharray:none;stroke-dashoffset:0;stroke-opacity:1"
                 d="M 46.34375,10.40195 L 45.375,10.52695 L 45.78125,14.40195 L 46.5625,14.3082 L 46.75,14.27695 L 46.34375,10.40195 z M 53.71875,10.40195 L 53.3125,14.2457 L 54.15625,14.3082 L 54.3125,14.33945 L 54.71875,10.52695 L 53.71875,10.40195 z M 42.21875,11.02695 L 41.25,11.21445 L 42.0625,15.08945 L 42.8125,14.90195 L 43.03125,14.8707 L 42.21875,11.02695 z M 57.875,11.02695 L 57.09375,14.7457 L 57.90625,14.90195 L 58.0625,14.9332 L 58.84375,11.21445 L 57.875,11.02695 z M 38.15625,12.0582 L 37.21875,12.3707 L 38.4375,16.1207 L 39.15625,15.8707 L 39.375,15.8082 L 38.15625,12.0582 z M 61.9375,12.0582 L 60.78125,15.65195 L 61.5625,15.8707 L 61.71875,15.9332 L 62.875,12.3707 L 61.9375,12.0582 z M 34.21875,13.4957 L 33.3125,13.90195 L 34.9375,17.5582 L 35.625,17.2457 L 35.84375,17.15195 L 34.21875,13.4957 z M 65.84375,13.4957 L 64.34375,16.90195 L 65.125,17.2457 L 65.25,17.3082 L 66.78125,13.90195 L 65.84375,13.4957 z M 26.9375,17.58945 L 26.125,18.1832 L 28.5,21.46445 L 29.0625,21.02695 L 29.3125,20.8707 L 26.9375,17.58945 z M 73.15625,17.58945 L 71,20.5582 L 71.6875,21.02695 L 71.8125,21.1207 L 73.96875,18.1832 L 73.15625,17.58945 z M 23.65625,20.1832 L 22.90625,20.83945 L 25.625,23.83945 L 26.09375,23.40195 L 26.34375,23.1832 L 23.65625,20.1832 z M 76.4375,20.1832 L 74,22.8707 L 74.625,23.40195 L 74.75,23.52695 L 77.1875,20.83945 L 76.4375,20.1832 z M 20.65625,23.1207 L 19.96875,23.83945 L 23,26.58945 L 23.40625,26.08945 L 23.65625,25.83945 L 20.65625,23.1207 z M 79.4375,23.1207 L 76.78125,25.52695 L 77.3125,26.08945 L 77.4375,26.2457 L 80.09375,23.83945 L 79.4375,23.1207 z M 17.96875,26.33945 L 17.375,27.15195 L 20.6875,29.5582 L 21.03125,29.0582 L 21.28125,28.7457 L 17.96875,26.33945 z M 82.09375,26.33945 L 79.21875,28.4332 L 79.71875,29.0582 L 79.84375,29.21445 L 82.6875,27.15195 L 82.09375,26.33945 z M 13.6875,33.52695 L 13.28125,34.4332 L 17.03125,36.1207 L 17.25,35.6207 L 17.4375,35.21445 L 13.6875,33.52695 z M 86.375,33.52695 L 83.1875,34.9332 L 83.5,35.6207 L 83.59375,35.83945 L 86.78125,34.4332 L 86.375,33.52695 z M 12.15625,37.40195 L 11.84375,38.3707 L 15.75,39.6207 L 15.875,39.15195 L 16.03125,38.65195 L 12.15625,37.40195 z M 87.9375,37.40195 L 84.625,38.46445 L 84.875,39.15195 L 84.96875,39.4332 L 88.25,38.3707 L 87.9375,37.40195 z M 11.03125,41.4332 L 10.8125,42.4332 L 14.8125,43.27695 L 14.90625,42.83945 L 15.03125,42.27695 L 11.03125,41.4332 z M 89.0625,41.4332 L 85.6875,42.15195 L 85.84375,42.83945 L 85.90625,43.15195 L 89.28125,42.4332 L 89.0625,41.4332 z M 10.3125,45.5582 L 10.21875,46.5582 L 14.28125,46.9957 L 14.3125,46.58945 L 14.40625,45.9957 L 10.3125,45.5582 z M 89.78125,45.5582 L 86.34375,45.9332 L 86.4375,46.58945 L 86.46875,46.90195 L 89.875,46.5582 L 89.78125,45.5582 z M 14.25,53.4957 L 10.21875,53.9332 L 10.3125,54.9332 L 14.375,54.4957 L 14.3125,54.15195 L 14.25,53.4957 z M 86.5,53.5582 L 86.4375,54.15195 L 86.375,54.5582 L 89.78125,54.9332 L 89.875,53.9332 L 86.5,53.5582 z M 14.78125,57.21445 L 10.8125,58.0582 L 11.03125,59.0582 L 14.96875,58.21445 L 14.90625,57.90195 L 14.78125,57.21445 z M 85.9375,57.33945 L 85.84375,57.90195 L 85.75,58.33945 L 89.0625,59.0582 L 89.28125,58.0582 L 85.9375,57.33945 z M 15.65625,60.8707 L 11.84375,62.1207 L 12.15625,63.08945 L 15.96875,61.83945 L 15.875,61.58945 L 15.65625,60.8707 z M 85.03125,61.0582 L 84.875,61.58945 L 84.71875,62.02695 L 87.9375,63.08945 L 88.25,62.1207 L 85.03125,61.0582 z M 16.9375,64.4332 L 13.28125,66.0582 L 13.6875,66.96445 L 17.34375,65.33945 L 17.25,65.1207 L 16.9375,64.4332 z M 83.6875,64.6832 L 83.5,65.1207 L 83.28125,65.58945 L 86.375,66.96445 L 86.78125,66.0582 L 83.6875,64.6832 z M 20.5625,71.02695 L 17.375,73.33945 L 17.96875,74.15195 L 21.15625,71.83945 L 21.03125,71.6832 L 20.5625,71.02695 z M 79.9375,71.33945 L 79.71875,71.6832 L 79.34375,72.15195 L 82.09375,74.15195 L 82.6875,73.33945 L 79.9375,71.33945 z M 22.875,74.02695 L 19.96875,76.65195 L 20.65625,77.3707 L 23.53125,74.77695 L 23.40625,74.65195 L 22.875,74.02695 z M 77.5625,74.3707 L 77.3125,74.65195 L 76.90625,75.08945 L 79.4375,77.3707 L 80.09375,76.65195 L 77.5625,74.3707 z M 25.5,76.77695 L 22.90625,79.65195 L 23.65625,80.3082 L 26.25,77.4332 L 26.09375,77.3082 L 25.5,76.77695 z M 74.875,77.08945 L 74.625,77.3082 L 74.125,77.7457 L 76.4375,80.3082 L 77.1875,79.65195 L 74.875,77.08945 z M 28.375,79.21445 L 26.125,82.3082 L 26.9375,82.90195 L 29.1875,79.8082 L 29.0625,79.71445 L 28.375,79.21445 z M 71.9375,79.52695 L 71.6875,79.71445 L 71.125,80.08945 L 73.15625,82.90195 L 73.96875,82.3082 L 71.9375,79.52695 z M 34.84375,83.1207 L 33.3125,86.58945 L 34.21875,86.9957 L 35.75,83.5582 L 35.625,83.4957 L 34.84375,83.1207 z M 65.34375,83.40195 L 65.125,83.4957 L 64.40625,83.77695 L 65.84375,86.9957 L 66.78125,86.58945 L 65.34375,83.40195 z M 38.375,84.58945 L 37.21875,88.1207 L 38.15625,88.4332 L 39.3125,84.90195 L 39.15625,84.8707 L 38.375,84.58945 z M 61.78125,84.77695 L 61.5625,84.8707 L 60.84375,85.08945 L 61.9375,88.4332 L 62.875,88.1207 L 61.78125,84.77695 z M 42.03125,85.65195 L 41.25,89.27695 L 42.21875,89.46445 L 42.96875,85.8707 L 42.8125,85.83945 L 42.03125,85.65195 z M 58.09375,85.77695 L 57.90625,85.83945 L 57.125,85.9957 L 57.875,89.46445 L 58.84375,89.27695 L 58.09375,85.77695 z M 45.75,86.33945 L 45.375,89.96445 L 46.34375,90.08945 L 46.71875,86.4332 L 46.5625,86.4332 L 45.75,86.33945 z M 54.34375,86.40195 L 54.15625,86.4332 L 53.34375,86.4957 L 53.71875,90.08945 L 54.71875,89.96445 L 54.34375,86.40195 z "
                 id="rect3176" />
            </g>
            <path
               id="path3036"
               d="M 50.480446,18.81984 C 33.088899,18.81984 18.962502,32.946237 18.962502,50.337785 C 18.962502,67.729333 33.088899,81.834964 50.480446,81.834965 C 67.871991,81.834965 81.977626,67.729333 81.977626,50.337785 C 81.977626,32.946236 67.871991,18.81984 50.480446,18.81984 z M 50.480446,20.792307 C 66.790644,20.792307 80.02592,34.027582 80.02592,50.337785 C 80.02592,66.647987 66.790644,79.88326 50.480446,79.88326 C 34.170239,79.883258 20.934969,66.647988 20.934969,50.337785 C 20.934969,34.027582 34.170246,20.792307 50.480446,20.792307 z "
               style="opacity:1;fill:#333333;fill-opacity:1;stroke:none;stroke-width:3.55200005;stroke-linecap:butt;stroke-linejoin:miter;stroke-miterlimit:4;stroke-dasharray:none;stroke-dashoffset:0;stroke-opacity:1" />
            <path
               id="path3038"
               d="M 50.479346,22.157058 C 34.929876,22.157058 22.299719,34.787215 22.299719,50.336684 C 22.299719,65.886155 34.929876,78.497747 50.479346,78.497748 C 66.028815,78.497748 78.640409,65.886156 78.640409,50.336684 C 78.640409,34.787214 66.028815,22.157058 50.479346,22.157058 z M 50.479346,23.920605 C 65.062003,23.920605 76.895425,35.754026 76.895425,50.336684 C 76.895425,64.919343 65.062003,76.752764 50.479346,76.752764 C 35.896683,76.752762 24.063266,64.919344 24.063266,50.336684 C 24.063266,35.754025 35.89669,23.920605 50.479346,23.920605 z "
               style="opacity:1;fill:#999999;fill-opacity:1;stroke:none;stroke-width:3.55200005;stroke-linecap:butt;stroke-linejoin:miter;stroke-miterlimit:4;stroke-dasharray:none;stroke-dashoffset:0;stroke-opacity:1" />
            <path
               id="path5592"
               d="M 50.4801,78.898588 C 66.246914,78.898588 79.041249,66.104256 79.041249,50.337438 C 79.041249,34.570622 66.24692,21.776291 50.4801,21.776289 C 34.713285,21.776289 21.91895,34.570622 21.91895,50.337438 C 21.91895,66.104255 34.713285,78.898588 50.4801,78.898588 z M 50.4801,76.851337 C 35.845705,76.851337 23.966201,64.971831 23.966201,50.337438 C 23.966201,35.703046 35.845705,23.823539 50.4801,23.823539 C 65.114494,23.823542 76.993999,35.703046 76.993999,50.337438 C 76.993999,64.971831 65.114494,76.851337 50.4801,76.851337 z "
               style="opacity:1;fill:url(#linearGradient3346);fill-opacity:1;stroke:none;stroke-width:3.55200005;stroke-linecap:butt;stroke-linejoin:miter;stroke-miterlimit:4;stroke-dasharray:none;stroke-dashoffset:0;stroke-opacity:1" />
            <path
               id="path5600"
               d="M 50.459751,81.628661 C 67.737421,81.628661 81.771321,67.594761 81.771321,50.31709 C 81.771321,33.039418 67.737421,19.026146 50.459751,19.026145 C 33.18208,19.026145 19.168806,33.039417 19.168806,50.31709 C 19.168806,67.594761 33.18208,81.628661 50.459751,81.628661 z M 50.459751,79.669109 C 34.256347,79.66911 21.107731,66.520496 21.107731,50.31709 C 21.107731,34.113684 34.256347,20.96507 50.459751,20.96507 C 66.663161,20.965072 79.811773,34.113683 79.811773,50.31709 C 79.811773,66.520497 66.663154,79.669109 50.459751,79.669109 z "
               style="opacity:1;fill:url(#linearGradient3348);fill-opacity:1;stroke:none;stroke-width:3.55200005;stroke-linecap:butt;stroke-linejoin:miter;stroke-miterlimit:4;stroke-dasharray:none;stroke-dashoffset:0;stroke-opacity:1" />
            <path
               id="path2044"
               d="M 50.479853,20.618209 C 34.08097,20.618209 20.760871,33.938308 20.760871,50.337192 C 20.760871,66.736076 34.08097,80.036595 50.479853,80.036596 C 66.878736,80.036596 80.179257,66.736077 80.179257,50.337192 C 80.179257,33.938307 66.878736,20.618209 50.479853,20.618209 z M 50.479853,22.478093 C 65.85911,22.478093 78.338951,34.957933 78.338951,50.337192 C 78.338951,65.71645 65.85911,78.196289 50.479853,78.196289 C 35.10059,78.196288 22.620754,65.716451 22.620754,50.337192 C 22.620754,34.957933 35.100597,22.478093 50.479853,22.478093 z "
               style="opacity:1;fill:url(#linearGradient3350);fill-opacity:1;stroke:none;stroke-width:3.55200005;stroke-linecap:butt;stroke-linejoin:miter;stroke-miterlimit:4;stroke-dasharray:none;stroke-dashoffset:0;stroke-opacity:1" />
            <rect
               y="49.419136"
               x="45.347229"
               height="2.3671055"
               width="22.086674"
               id="rect6413"
               style="opacity:1;fill:#000000;fill-opacity:0.23549488;stroke:none;stroke-width:3.55200005;stroke-linecap:butt;stroke-linejoin:miter;stroke-miterlimit:4;stroke-dasharray:none;stroke-dashoffset:0;stroke-opacity:1" />
            <rect
               y="49.26133"
               x="45.189423"
               height="2.3671055"
               width="22.086674"
               id="rect3613"
               style="opacity:1;fill:#000000;fill-opacity:1;stroke:none;stroke-width:3.55200005;stroke-linecap:butt;stroke-linejoin:miter;stroke-miterlimit:4;stroke-dasharray:none;stroke-dashoffset:0;stroke-opacity:1" />
            <rect
               transform="matrix(0,-1,1,0,0,0)"
               y="49.40287"
               x="-55.639893"
               height="2.3671055"
               width="30.560909"
               id="rect3742"
               style="opacity:1;fill:#000000;fill-opacity:0.23549488;stroke:none;stroke-width:3.55200005;stroke-linecap:butt;stroke-linejoin:miter;stroke-miterlimit:4;stroke-dasharray:none;stroke-dashoffset:0;stroke-opacity:1" />
            <rect
               transform="matrix(0,-1,1,0,0,0)"
               y="49.245064"
               x="-55.482082"
               height="2.3671055"
               width="30.560909"
               id="rect4629"
               style="opacity:1;fill:#000000;fill-opacity:1;stroke:none;stroke-width:3.55200005;stroke-linecap:butt;stroke-linejoin:miter;stroke-miterlimit:4;stroke-dasharray:none;stroke-dashoffset:0;stroke-opacity:1" />
            <path
               id="path4758"
               d="M 64.737143,61.077324 C 63.886099,60.22628 62.590855,60.117933 61.614815,60.736706 L 52.191063,51.312954 C 52.310871,50.907915 52.226702,50.440281 51.907215,50.120793 C 51.586565,49.800143 51.121188,49.715097 50.715053,49.836945 L 48.344922,47.466815 L 47.564341,48.247396 L 49.934471,50.617527 C 49.804353,51.027966 49.893023,51.484391 50.218319,51.809688 C 50.544641,52.13601 51.013301,52.239697 51.424673,52.107728 L 60.834233,61.517289 C 60.214342,62.493493 60.309159,63.80231 61.160658,64.653808 C 62.012157,65.505307 63.320974,65.600125 64.297178,64.980233 L 65.333223,66.016278 L 69.363864,69.252145 L 66.113805,65.235696 L 65.07776,64.199651 C 65.696534,63.223612 65.588186,61.928368 64.737143,61.077324 z M 64.041715,61.772751 C 64.644647,62.375684 64.644649,63.355447 64.041715,63.958381 C 63.438782,64.561314 62.459019,64.561314 61.856086,63.958381 C 61.253152,63.355447 61.253152,62.375685 61.856086,61.772751 C 62.45902,61.169819 63.438782,61.169819 64.041715,61.772751 z M 51.467251,50.560757 C 51.69387,50.787377 51.69387,51.157296 51.467251,51.383916 C 51.24063,51.610537 50.870711,51.610537 50.644091,51.383916 C 50.417471,51.157296 50.417471,50.787377 50.644091,50.560757 C 50.870711,50.334137 51.24063,50.334137 51.467251,50.560757 z "
               style="opacity:1;fill:#000000;fill-opacity:0.23549488;stroke:none;stroke-width:3.55200005;stroke-linecap:butt;stroke-linejoin:miter;stroke-miterlimit:4;stroke-dasharray:none;stroke-dashoffset:0;stroke-opacity:1" />
            <path
               id="path4760"
               d="M 64.263722,60.603903 C 63.412678,59.752859 62.117434,59.644512 61.141394,60.263286 L 51.717642,50.839533 C 51.83745,50.434494 51.753282,49.96686 51.433794,49.647372 C 51.113144,49.326722 50.647767,49.241677 50.241633,49.363524 L 47.871502,46.993394 L 47.09092,47.773975 L 49.461051,50.144106 C 49.330932,50.554546 49.419602,51.010971 49.744899,51.336267 C 50.071221,51.662589 50.539881,51.766276 50.951252,51.634308 L 60.360812,61.043868 C 59.740921,62.020072 59.835739,63.328889 60.687238,64.180388 C 61.538736,65.031887 62.847553,65.126704 63.823757,64.506813 L 64.859802,65.542858 L 68.890444,68.778725 L 65.640384,64.762276 L 64.604339,63.726231 C 65.223113,62.750191 65.114765,61.454947 64.263722,60.603903 z M 63.568295,61.299331 C 64.171227,61.902263 64.171228,62.882026 63.568295,63.48496 C 62.965361,64.087894 61.985598,64.087893 61.382665,63.48496 C 60.779731,62.882026 60.779732,61.902264 61.382665,61.299331 C 61.985599,60.696398 62.965361,60.696398 63.568295,61.299331 z M 50.99383,50.087337 C 51.22045,50.313956 51.22045,50.683876 50.99383,50.910496 C 50.76721,51.137116 50.39729,51.137116 50.17067,50.910496 C 49.944051,50.683876 49.944051,50.313956 50.17067,50.087337 C 50.39729,49.860717 50.76721,49.860717 50.99383,50.087337 z "
               style="opacity:1;fill:#ff0000;fill-opacity:1;stroke:none;stroke-width:3.55200005;stroke-linecap:butt;stroke-linejoin:miter;stroke-miterlimit:4;stroke-dasharray:none;stroke-dashoffset:0;stroke-opacity:1" />
            <path
               transform="matrix(0.642275,0,0,0.642275,18.28332,18.25225)"
               d="M 91.646191 50.368549 A 41.277641 41.277641 0 1 1  9.0909081,50.368549 A 41.277641 41.277641 0 1 1  91.646191 50.368549 z"
               sodipodi:ry="41.277641"
               sodipodi:rx="41.277641"
               sodipodi:cy="50.368549"
               sodipodi:cx="50.368549"
               id="path4902"
               style="opacity:1;fill:url(#radialGradient3352);fill-opacity:1;stroke:none;stroke-width:3.55200005;stroke-linecap:butt;stroke-linejoin:miter;stroke-miterlimit:4;stroke-dasharray:none;stroke-dashoffset:0;stroke-opacity:1"
               sodipodi:type="arc" />
            <path
               transform="matrix(0.649902,0,0,0.649902,17.89914,17.86807)"
               d="M 91.646191 50.368549 A 41.277641 41.277641 0 1 1  9.0909081,50.368549 A 41.277641 41.277641 0 1 1  91.646191 50.368549 z"
               sodipodi:ry="41.277641"
               sodipodi:rx="41.277641"
               sodipodi:cy="50.368549"
               sodipodi:cx="50.368549"
               id="path2916"
               style="opacity:1;fill:url(#radialGradient3354);fill-opacity:1;stroke:none;stroke-width:3.55200005;stroke-linecap:butt;stroke-linejoin:miter;stroke-miterlimit:4;stroke-dasharray:none;stroke-dashoffset:0;stroke-opacity:1"
               sodipodi:type="arc" />
            <path
               transform="matrix(0.642275,0,0,0.642275,18.28332,18.25225)"
               d="M 91.646191 50.368549 A 41.277641 41.277641 0 1 1  9.0909081,50.368549 A 41.277641 41.277641 0 1 1  91.646191 50.368549 z"
               sodipodi:ry="41.277641"
               sodipodi:rx="41.277641"
               sodipodi:cy="50.368549"
               sodipodi:cx="50.368549"
               id="path5044"
               style="opacity:1;fill:#d3d5fa;fill-opacity:0.29010237;stroke:none;stroke-width:3.55200005;stroke-linecap:butt;stroke-linejoin:miter;stroke-miterlimit:4;stroke-dasharray:none;stroke-dashoffset:0;stroke-opacity:1"
               sodipodi:type="arc" />
            <path
               sodipodi:nodetypes="cscsscc"
               id="path5458"
               d="M 50.637906,24.092933 C 36.003514,24.092933 24.124007,35.972439 24.124007,50.606832 C 24.124007,52.077829 24.254545,53.516095 24.485287,54.922114 C 24.467473,54.640193 24.445145,54.363929 24.445145,54.079129 C 24.445145,43.016218 38.007393,34.028118 54.732407,34.028118 C 62.22993,34.028118 69.089883,35.837562 74.381996,38.825107 C 70.043263,30.092694 61.044449,24.092933 50.637906,24.092933 z "
               style="opacity:0.54109593;fill:url(#linearGradient3356);fill-opacity:1;stroke:none;stroke-width:3.55200005;stroke-linecap:butt;stroke-linejoin:miter;stroke-miterlimit:4;stroke-dasharray:none;stroke-dashoffset:0;stroke-opacity:1" />
            <path
               sodipodi:nodetypes="cscsc"
               id="path5461"
               d="M 75.182078,60.521946 C 71.2525,70.247479 61.723239,77.120729 50.595003,77.120731 C 45.365007,77.120731 40.494113,75.583618 36.384677,72.966017 C 39.54875,73.707884 42.953575,74.110068 46.500502,74.110068 C 59.816886,74.110066 71.12154,68.42575 75.182078,60.521946 z "
               style="opacity:0.55136982;fill:url(#linearGradient3358);fill-opacity:1;stroke:none;stroke-width:3.55200005;stroke-linecap:butt;stroke-linejoin:miter;stroke-miterlimit:4;stroke-dasharray:none;stroke-dashoffset:0;stroke-opacity:1" />
          </g>
        </g>
      </g>
      <path
         sodipodi:nodetypes="ccccccccc"
         id="path2789"
         d="M 10.913949,9.912478 L 16.365562,9.912478 L 16.387109,11.869729 C 16.396742,12.794582 16.460373,14.658275 16.58104,15.525165 C 15.772995,15.517666 14.878757,15.51585 14.070712,15.508351 L 12.061374,15.469039 L 10.849305,15.311791 C 10.912653,14.606881 10.904458,13.90197 10.913949,13.19706 L 10.913949,9.912478 z "
         style="fill:#000000;fill-opacity:0.32423209;stroke:none;stroke-width:0.2;stroke-linejoin:miter;stroke-miterlimit:4;stroke-dasharray:none;stroke-dashoffset:0;stroke-opacity:1" />
      <path
         sodipodi:nodetypes="ccccccccc"
         id="rect1872"
         d="M 10.92269,9.37537 L 16.357136,9.925739 L 16.378616,11.326554 C 16.388218,12.248539 16.516088,14.017477 16.636376,14.88168 C 15.830875,14.874204 14.853534,14.939553 14.048033,14.932077 C 13.417484,14.970837 12.754304,14.936213 12.066501,14.915193 L 10.772329,14.735517 C 10.835477,14.032792 10.913229,13.352494 10.92269,12.64977 L 10.92269,9.37537 z "
         style="fill:url(#linearGradient3511);fill-opacity:1;stroke:#000000;stroke-width:0.2;stroke-linejoin:miter;stroke-miterlimit:4;stroke-dasharray:none;stroke-dashoffset:0;stroke-opacity:1" />
      <path
         transform="matrix(4.9827562e-2,0,0,5.1640645e-2,13.334843,7.995298)"
         sodipodi:open="true"
         sodipodi:end="6.2930189"
         sodipodi:start="0.46351537"
         d="M 18.035359,41.524144 A 7.9550548,3.0634372 0 1 1 18.874341,40.184619"
         sodipodi:ry="3.0634372"
         sodipodi:rx="7.9550548"
         sodipodi:cy="40.154495"
         sodipodi:cx="10.919671"
         id="path5705"
         style="opacity:0.92328766;fill:#000000;fill-opacity:0.33447098;stroke:none;stroke-width:3.94191217;stroke-linejoin:miter;stroke-miterlimit:4;stroke-dasharray:none;stroke-dashoffset:0;stroke-opacity:1"
         sodipodi:type="arc" />
      <g
         style="stroke-width:3.94191742;stroke-miterlimit:4;stroke-dasharray:none"
         transform="matrix(4.7424177e-2,-1.5844416e-2,1.5288125e-2,4.9149807e-2,4.4150783,10.726777)"
         id="g3823">
        <path
           id="path2008"
           d="M 188.27199,37.203598 L 189.60459,37.428574 C 190.33752,37.552311 192.36144,37.752528 194.10218,37.873498 C 197.1242,38.083509 197.29436,38.054627 197.86905,37.234145 C 198.28811,36.635844 198.47076,35.590404 198.47036,33.79224 C 198.46979,31.222288 198.12505,30.186197 196.54493,28.00558 C 195.92595,27.151379 195.9558,26.939093 197.46368,21.471256 L 199.02218,15.819817 L 200.85968,15.353656 C 203.64208,14.647777 204.90662,12.47683 203.34029,11.094943 C 201.46454,9.440057 195.52551,7.115181 191.80035,6.577556 C 190.35545,6.369022 189.9717,6.450177 189.31973,7.102143 C 188.20732,8.214549 188.33273,9.807163 189.65094,11.308526 C 190.25732,11.999146 190.75437,12.707744 190.75551,12.883185 C 190.75845,13.336844 186.66886,23.030649 186.24107,23.584029 C 186.04576,23.836685 185.60793,24.043403 185.26811,24.043403 C 184.92829,24.043403 183.77401,24.480058 182.70305,25.013745 C 181.23399,25.745804 180.44919,26.463435 179.50714,27.936086 C 178.82037,29.009688 178.25846,30.214093 178.25846,30.612544 C 178.25846,31.831561 180.06795,33.575045 182.7184,34.909788 C 184.1058,35.608474 185.24095,36.411993 185.24095,36.69539 C 185.24095,36.978788 184.51048,39.333297 183.61769,41.927638 C 182.72489,44.521978 183.24297,43.709653 182.9883,45.011365 C 182.81757,46.137005 185.19457,47.44286 185.49876,46.430758 L 188.27199,37.203598 z "
           style="fill:#1f1605;fill-opacity:1;stroke-width:3.94191742;stroke-miterlimit:4;stroke-dasharray:none"
           sodipodi:nodetypes="ccsssscccssssssssssssscsc" />
        <path
           sodipodi:type="arc"
           style="opacity:1;fill:#ffffff;fill-opacity:1;stroke:none;stroke-width:3.94191742;stroke-linejoin:miter;stroke-miterlimit:4;stroke-dasharray:none;stroke-dashoffset:0;stroke-opacity:1"
           id="path3821"
           sodipodi:cx="188.67079"
           sodipodi:cy="26.016031"
           sodipodi:rx="2.4982316"
           sodipodi:ry="2.4439223"
           d="M 190.90543,27.108697 A 2.4982316,2.4439223 0 1 1 191.1689,26.040063"
           transform="translate(4.000003,6.475504)"
           sodipodi:start="0.46351537"
           sodipodi:end="6.2930189"
           sodipodi:open="true" />
        <path
           id="path1998"
           d="M 196.59076,36.58105 C 197.22954,35.942274 197.36809,35.360349 197.3665,33.322764 C 197.36457,30.856574 197.25334,30.549124 195.45321,28.034289 C 194.84986,27.1914 194.87657,26.961161 196.10882,22.383879 C 198.27234,14.34731 198.39159,14.120919 200.46147,14.120919 C 201.63218,14.120919 202.88092,13.220383 202.88092,12.37612 C 202.88092,12.155749 201.51658,11.233446 199.84906,10.326561 C 196.24936,8.368865 191.17242,7.068212 190.21902,7.85946 C 189.36143,8.571199 189.53095,9.548686 190.75344,10.941027 C 191.35982,11.631647 191.85594,12.341336 191.85594,12.51811 C 191.85594,13.167489 187.14286,23.767478 186.65935,24.205526 C 186.38454,24.454496 185.45411,24.858079 184.59173,25.102379 C 182.66716,25.647575 180.66544,27.351758 179.67942,29.284515 L 178.93869,30.736472 L 179.79295,31.660387 C 180.26279,32.168539 181.88752,33.190147 183.40345,33.930623 C 185.75455,35.079043 186.17724,35.428388 186.27908,36.30723 C 186.39501,37.307791 186.41935,37.318611 187.12253,36.682238 C 187.784,36.083621 188.07555,36.067642 190.4944,36.497451 C 195.68251,37.419338 195.75153,37.420286 196.59076,36.58105 z M 190.97017,32.633059 C 190.70397,31.939356 191.34398,31.025892 192.09622,31.025892 C 192.72193,31.025892 193.11667,31.920966 192.82554,32.67964 C 192.54294,33.416094 191.25827,33.383842 190.97017,32.633059 z "
           style="fill:#910504;stroke-width:3.94191742;stroke-miterlimit:4;stroke-dasharray:none" />
        <path
           id="path1996"
           d="M 183.22029,32.214639 C 183.42274,32.066139 183.7722,31.531204 183.99687,31.025892 C 185.74471,27.094869 185.66653,27.176145 187.81826,27.053268 C 190.12716,26.921413 190.74434,26.533307 190.77688,25.19278 C 190.78977,24.661685 191.2543,22.821486 191.80916,21.103448 C 192.6621,18.462487 193.01344,17.852934 194.0826,17.159195 C 196.48577,15.599854 196.49668,15.572623 195.18752,14.402879 C 194.31176,13.620389 193.7016,13.373245 192.85157,13.456704 C 191.75158,13.564705 191.60125,13.793382 189.43049,18.660779 C 188.1817,21.460886 186.93491,23.955806 186.65983,24.205044 C 186.38476,24.454279 185.44657,24.86034 184.57498,25.107399 C 182.41853,25.718657 180.18479,27.789939 179.86948,29.470671 C 179.65611,30.608001 179.75827,30.905724 180.61458,31.642295 C 181.61749,32.50496 182.54635,32.708984 183.22029,32.214639 z "
           style="fill:#680607;stroke-width:3.94191742;stroke-miterlimit:4;stroke-dasharray:none" />
        <path
           style="fill:#c8b7b7;fill-opacity:1;stroke:none;stroke-width:3.94191742;stroke-linejoin:miter;stroke-miterlimit:4;stroke-dasharray:none;stroke-dashoffset:0;stroke-opacity:1"
           d="M 185.57767,37.688672 C 185.78261,38.766419 186.50409,38.991626 187.34567,38.240591 L 184.91018,46.063863 C 184.51269,46.408484 183.73312,45.799615 183.29383,45.117637 L 185.57767,37.688672 z "
           id="rect2931"
           sodipodi:nodetypes="ccccc" />
      </g>
      <path
         sodipodi:nodetypes="ccscc"
         id="path3404"
         d="M 2.9218908,4.4999998 L 2.9218908,21.3125 C 3.6629854,19.949511 4.7340835,18.588892 6.1914442,17.28125 C 11.077401,12.897241 19.248067,9.755156 28.684758,8.0937498 L 2.9218908,4.4999998 z "
         style="color:#000000;fill:#ffffff;fill-opacity:0.28668943;fill-rule:evenodd;stroke:none;stroke-width:1;stroke-linecap:butt;stroke-linejoin:miter;marker:none;marker-start:none;marker-mid:none;marker-end:none;stroke-miterlimit:4;stroke-dashoffset:0;stroke-opacity:1;visibility:visible;display:inline;overflow:visible" />
      <path
         sodipodi:nodetypes="ccc"
         id="path3317"
         d="M 3.3457223,27.624999 L 3.4062696,4.7499988 L 29.502148,8.7499988"
         style="fill:none;fill-opacity:0.75;fill-rule:evenodd;stroke:#145c96;stroke-width:1px;stroke-linecap:butt;stroke-linejoin:miter;stroke-opacity:1;display:inline" />
      <path
         transform="matrix(0.9687565,0,0,1,-37.281502,-29.5)"
         d="M 46.375 54.71875 A 0.71875 0.71875 0 1 1  44.9375,54.71875 A 0.71875 0.71875 0 1 1  46.375 54.71875 z"
         sodipodi:ry="0.71875"
         sodipodi:rx="0.71875"
         sodipodi:cy="54.71875"
         sodipodi:cx="45.65625"
         id="path3409"
         style="opacity:1;color:#000000;fill:#666666;fill-opacity:1;fill-rule:evenodd;stroke:#3a3a3a;stroke-width:0.35356715;stroke-linecap:butt;stroke-linejoin:miter;marker:none;marker-start:none;marker-mid:none;marker-end:none;stroke-miterlimit:4;stroke-dasharray:none;stroke-dashoffset:0;stroke-opacity:1;visibility:visible;display:inline;overflow:visible"
         sodipodi:type="arc" />
      <path
         transform="matrix(0.9687565,0,0,1,-34.859612,-29.9375)"
         d="M 46.375 54.71875 A 0.71875 0.71875 0 1 1  44.9375,54.71875 A 0.71875 0.71875 0 1 1  46.375 54.71875 z"
         sodipodi:ry="0.71875"
         sodipodi:rx="0.71875"
         sodipodi:cy="54.71875"
         sodipodi:cx="45.65625"
         id="path3411"
         style="opacity:1;color:#000000;fill:#666666;fill-opacity:1;fill-rule:evenodd;stroke:#3a3a3a;stroke-width:0.35356715;stroke-linecap:butt;stroke-linejoin:miter;marker:none;marker-start:none;marker-mid:none;marker-end:none;stroke-miterlimit:4;stroke-dasharray:none;stroke-dashoffset:0;stroke-opacity:1;visibility:visible;display:inline;overflow:visible"
         sodipodi:type="arc" />
      <path
         transform="matrix(0.9687565,0,0,1,-32.679909,-30.5)"
         d="M 46.375 54.71875 A 0.71875 0.71875 0 1 1  44.9375,54.71875 A 0.71875 0.71875 0 1 1  46.375 54.71875 z"
         sodipodi:ry="0.71875"
         sodipodi:rx="0.71875"
         sodipodi:cy="54.71875"
         sodipodi:cx="45.65625"
         id="path3413"
         style="opacity:1;color:#000000;fill:#666666;fill-opacity:1;fill-rule:evenodd;stroke:#3a3a3a;stroke-width:0.35356715;stroke-linecap:butt;stroke-linejoin:miter;marker:none;marker-start:none;marker-mid:none;marker-end:none;stroke-miterlimit:4;stroke-dasharray:none;stroke-dashoffset:0;stroke-opacity:1;visibility:visible;display:inline;overflow:visible"
         sodipodi:type="arc" />
      <path
         transform="matrix(0.9687565,0,0,1,-30.258018,-31)"
         d="M 46.375 54.71875 A 0.71875 0.71875 0 1 1  44.9375,54.71875 A 0.71875 0.71875 0 1 1  46.375 54.71875 z"
         sodipodi:ry="0.71875"
         sodipodi:rx="0.71875"
         sodipodi:cy="54.71875"
         sodipodi:cx="45.65625"
         id="path3415"
         style="opacity:1;color:#000000;fill:#666666;fill-opacity:1;fill-rule:evenodd;stroke:#3a3a3a;stroke-width:0.35356715;stroke-linecap:butt;stroke-linejoin:miter;marker:none;marker-start:none;marker-mid:none;marker-end:none;stroke-miterlimit:4;stroke-dasharray:none;stroke-dashoffset:0;stroke-opacity:1;visibility:visible;display:inline;overflow:visible"
         sodipodi:type="arc" />
    </g>
  </g>
</svg>
