<?xml version="1.0" encoding="UTF-8" standalone="no"?>
<!-- Created with Inkscape (http://www.inkscape.org/) -->
<svg
   xmlns:dc="http://purl.org/dc/elements/1.1/"
   xmlns:cc="http://web.resource.org/cc/"
   xmlns:rdf="http://www.w3.org/1999/02/22-rdf-syntax-ns#"
   xmlns:svg="http://www.w3.org/2000/svg"
   xmlns="http://www.w3.org/2000/svg"
   xmlns:sodipodi="http://sodipodi.sourceforge.net/DTD/sodipodi-0.dtd"
   xmlns:inkscape="http://www.inkscape.org/namespaces/inkscape"
   width="48px"
   height="48px"
   id="svg3177"
   sodipodi:version="0.32"
   inkscape:version="0.45"
   sodipodi:docbase="/home/ryx/Documents/scripts/python/screenlets/screenlets-0.0.9/src/share/screenlets/MailCheck/themes/default"
   sodipodi:docname="mailcheck-icon-refresh.svg"
   inkscape:output_extension="org.inkscape.output.svg.inkscape"
   sodipodi:modified="true">
  <defs
     id="defs3179" />
  <sodipodi:namedview
     id="base"
     pagecolor="#ffffff"
     bordercolor="#666666"
     borderopacity="1.0"
     inkscape:pageopacity="0.0"
     inkscape:pageshadow="2"
     inkscape:zoom="7"
     inkscape:cx="24"
     inkscape:cy="41.142857"
     inkscape:current-layer="layer1"
     showgrid="true"
     inkscape:grid-bbox="true"
     inkscape:document-units="px"
     inkscape:window-width="896"
     inkscape:window-height="626"
     inkscape:window-x="171"
     inkscape:window-y="338" />
  <metadata
     id="metadata3182">
    <rdf:RDF>
      <cc:Work
         rdf:about="">
        <dc:format>image/svg+xml</dc:format>
        <dc:type
           rdf:resource="http://purl.org/dc/dcmitype/StillImage" />
      </cc:Work>
    </rdf:RDF>
  </metadata>
  <g
     id="layer1"
     inkscape:label="Layer 1"
     inkscape:groupmode="layer">
    <g
       id="g3191">
      <path
         transform="translate(-55.980394,-44.729694)"
         d="M 100.98039 68.872551 A 20.588236 20.588236 0 1 1  59.803923,68.872551 A 20.588236 20.588236 0 1 1  100.98039 68.872551 z"
         sodipodi:ry="20.588236"
         sodipodi:rx="20.588236"
         sodipodi:cy="68.872551"
         sodipodi:cx="80.392159"
         id="path5614"
         style="opacity:1;fill:#999999;fill-opacity:0.25597271;stroke:none;stroke-width:2;stroke-linecap:butt;stroke-linejoin:miter;stroke-miterlimit:4;stroke-dasharray:none;stroke-dashoffset:0;stroke-opacity:1"
         sodipodi:type="arc" />
      <path
         id="path5595"
         d="M 22.39194,8.0428112 L 22.39194,11.238946 C 15.127492,12.135706 9.4999979,18.096741 9.4999979,25.357523 C 9.4999979,33.238814 16.117244,39.642855 24.276567,39.642855 C 24.45271,39.642855 24.620855,39.620978 24.795521,39.615064 C 19.276801,38.421783 15.126566,33.65892 15.126566,27.970016 C 15.126566,23.131501 16.879529,21.150315 22.39194,19.326557 L 22.39194,22.216974 L 29.247611,15.241062 L 22.39194,8.0428112 z M 24.959402,8.0428112 C 24.78325,8.0428142 24.615113,8.0646912 24.440447,8.0706042 C 29.959159,9.2638872 34.109402,14.026746 34.109402,19.715651 C 34.109402,24.554167 32.35644,26.535351 26.84403,28.359111 L 26.84403,25.468693 L 19.988357,32.444605 L 26.84403,39.642855 L 26.84403,36.446721 C 34.108476,35.549963 39.73597,29.588926 39.73597,22.328143 C 39.73597,14.446855 33.118725,8.0428122 24.959402,8.0428112 z "
         style="fill:#00c100;fill-opacity:1;stroke:#357a09;stroke-width:1;stroke-linecap:butt;stroke-linejoin:miter;stroke-miterlimit:4;stroke-dasharray:none;stroke-dashoffset:0;stroke-opacity:1" />
      <g
         transform="translate(-55.000002,-52.857145)"
         style="fill:#ffffff;fill-opacity:0.40614331"
         id="g5598">
        <path
           style="fill:#ffffff;fill-opacity:0.40614331;stroke:none;stroke-width:2;stroke-linecap:butt;stroke-linejoin:miter;stroke-miterlimit:4;stroke-dasharray:none;stroke-dashoffset:0;stroke-opacity:1"
           d="M 77.909801,62.215324 L 77.909801,64.413196 C 70.92414,65.273598 64.991403,71.253555 64.991403,78.219959 C 64.991403,82.305023 66.8532,85.973753 69.79794,88.486241 C 67.849498,86.139767 66.672378,83.162784 66.672378,79.926563 C 66.672378,72.960157 72.083906,67.240804 79.069567,66.380403 L 79.069567,63.367182 L 77.909801,62.215324 z "
           id="path5578"
           sodipodi:nodetypes="ccscsccc" />
        <path
           style="fill:#ffffff;fill-opacity:0.40614331;stroke:none;stroke-width:2;stroke-linecap:butt;stroke-linejoin:miter;stroke-miterlimit:4;stroke-dasharray:none;stroke-dashoffset:0;stroke-opacity:1"
           d="M 86.17602,64.021998 C 88.27082,66.355809 89.514741,69.288165 89.514741,72.46903 C 89.514741,77.412907 88.334725,79.433787 82.415564,81.545275 L 82.415564,84.513276 C 89.508431,82.405674 91.763986,80.116146 91.763986,74.524581 C 91.763986,70.32757 89.597512,66.551879 86.17602,64.021998 z "
           id="path5576"
           sodipodi:nodetypes="csccsc" />
        <path
           style="fill:#ffffff;fill-opacity:0.40614331;stroke:none;stroke-width:2;stroke-linecap:butt;stroke-linejoin:miter;stroke-miterlimit:4;stroke-dasharray:none;stroke-dashoffset:0;stroke-opacity:1"
           d="M 81.340471,79.57917 L 75.714516,85.335199 L 77.395491,87.149352 L 78.967626,85.521029 L 82.446606,84.489697 L 82.581162,81.460398 C 82.249296,81.57861 81.644675,81.876962 81.279046,81.992975 L 81.340471,79.57917 z "
           id="path5572"
           sodipodi:nodetypes="cccccccc" />
      </g>
    </g>
  </g>
</svg>
