<?xml version="1.0" encoding="UTF-8" standalone="no"?>
<!-- Created with Inkscape (http://www.inkscape.org/) -->
<svg
   xmlns:dc="http://purl.org/dc/elements/1.1/"
   xmlns:cc="http://web.resource.org/cc/"
   xmlns:rdf="http://www.w3.org/1999/02/22-rdf-syntax-ns#"
   xmlns:svg="http://www.w3.org/2000/svg"
   xmlns="http://www.w3.org/2000/svg"
   xmlns:xlink="http://www.w3.org/1999/xlink"
   xmlns:sodipodi="http://sodipodi.sourceforge.net/DTD/sodipodi-0.dtd"
   xmlns:inkscape="http://www.inkscape.org/namespaces/inkscape"
   sodipodi:docname="icon.svg"
   sodipodi:docbase="/home/hendrik/Desktop/screenlets/bzr/src/share/screenlets/Calendar"
   inkscape:version="0.44"
   sodipodi:version="0.32"
   id="svg1288"
   height="64"
   width="64"
   version="1.0">
  <defs
     id="defs3">
    <linearGradient
       id="linearGradient2563">
      <stop
         id="stop2565"
         offset="0"
         style="stop-color:#e2e2e2;stop-opacity:1;" />
      <stop
         id="stop2567"
         offset="1.0000000"
         style="stop-color:#9f9f9f;stop-opacity:1.0000000;" />
    </linearGradient>
    <linearGradient
       id="linearGradient2551"
       inkscape:collect="always">
      <stop
         id="stop2553"
         offset="0"
         style="stop-color:#000000;stop-opacity:1;" />
      <stop
         id="stop2555"
         offset="1"
         style="stop-color:#000000;stop-opacity:0;" />
    </linearGradient>
    <linearGradient
       id="linearGradient2526">
      <stop
         id="stop2528"
         offset="0.0000000"
         style="stop-color:#e7ebeb;stop-opacity:1.0000000;" />
      <stop
         style="stop-color:#e6ebeb;stop-opacity:1.0000000;"
         offset="0.50000000"
         id="stop2534" />
      <stop
         id="stop2530"
         offset="1.0000000"
         style="stop-color:#ffffff;stop-opacity:1.0000000;" />
    </linearGradient>
    <linearGradient
       gradientTransform="translate(0,0.785718)"
       gradientUnits="userSpaceOnUse"
       y2="28.428572"
       x2="42.214283"
       y1="14.428571"
       x1="13.357142"
       id="linearGradient2532"
       xlink:href="#linearGradient2526"
       inkscape:collect="always" />
    <radialGradient
       gradientUnits="userSpaceOnUse"
       gradientTransform="matrix(1,0,0,0.751938,0,7.193799)"
       r="18.428572"
       fy="29"
       fx="26"
       cy="29"
       cx="26"
       id="radialGradient2557"
       xlink:href="#linearGradient2551"
       inkscape:collect="always" />
    <linearGradient
       gradientTransform="translate(0,0.785718)"
       gradientUnits="userSpaceOnUse"
       y2="30.785713"
       x2="42.214283"
       y1="30.785713"
       x1="6.7857146"
       id="linearGradient2569"
       xlink:href="#linearGradient2563"
       inkscape:collect="always" />
    <linearGradient
       y2="28.428572"
       x2="42.214283"
       y1="14.428571"
       x1="13.357142"
       gradientTransform="translate(0,0.785718)"
       gradientUnits="userSpaceOnUse"
       id="linearGradient2582"
       xlink:href="#linearGradient2526"
       inkscape:collect="always" />
    <radialGradient
       inkscape:collect="always"
       xlink:href="#linearGradient2551"
       id="radialGradient1913"
       gradientUnits="userSpaceOnUse"
       gradientTransform="matrix(1,0,0,0.751938,0,7.193799)"
       cx="26"
       cy="29"
       fx="26"
       fy="29"
       r="18.428572" />
    <linearGradient
       inkscape:collect="always"
       xlink:href="#linearGradient2563"
       id="linearGradient1915"
       gradientUnits="userSpaceOnUse"
       gradientTransform="translate(0,0.785718)"
       x1="6.7857146"
       y1="30.785713"
       x2="42.214283"
       y2="30.785713" />
    <linearGradient
       inkscape:collect="always"
       xlink:href="#linearGradient2526"
       id="linearGradient1917"
       gradientUnits="userSpaceOnUse"
       gradientTransform="translate(0,0.785718)"
       x1="13.357142"
       y1="14.428571"
       x2="42.214283"
       y2="28.428572" />
  </defs>
  <sodipodi:namedview
     inkscape:window-y="48"
     inkscape:window-x="0"
     inkscape:window-height="694"
     inkscape:window-width="1024"
     inkscape:document-units="px"
     inkscape:grid-bbox="true"
     showgrid="false"
     inkscape:current-layer="layer1"
     inkscape:cy="30.307793"
     inkscape:cx="14.347528"
     inkscape:zoom="4.9497475"
     inkscape:pageshadow="2"
     inkscape:pageopacity="0.0"
     borderopacity="1.0"
     bordercolor="#666666"
     pagecolor="#ffffff"
     id="base"
     width="64px"
     height="64px" />
  <metadata
     id="metadata4">
    <rdf:RDF>
      <cc:Work
         rdf:about="">
        <dc:format>image/svg+xml</dc:format>
        <dc:type
           rdf:resource="http://purl.org/dc/dcmitype/StillImage" />
        <dc:title>Calendar</dc:title>
        <dc:creator>
          <cc:Agent>
            <dc:title>Jakub Steiner</dc:title>
          </cc:Agent>
        </dc:creator>
        <dc:source>http://jimmac.musichall.cz</dc:source>
        <dc:subject>
          <rdf:Bag>
            <rdf:li>calendar</rdf:li>
            <rdf:li>date</rdf:li>
            <rdf:li>time</rdf:li>
            <rdf:li>cal</rdf:li>
          </rdf:Bag>
        </dc:subject>
        <cc:license
           rdf:resource="http://creativecommons.org/licenses/by/2.0/" />
      </cc:Work>
      <cc:License
         rdf:about="http://creativecommons.org/licenses/by/2.0/">
        <cc:permits
           rdf:resource="http://web.resource.org/cc/Reproduction" />
        <cc:permits
           rdf:resource="http://web.resource.org/cc/Distribution" />
        <cc:requires
           rdf:resource="http://web.resource.org/cc/Notice" />
        <cc:requires
           rdf:resource="http://web.resource.org/cc/Attribution" />
        <cc:permits
           rdf:resource="http://web.resource.org/cc/DerivativeWorks" />
        <cc:requires
           rdf:resource="http://web.resource.org/cc/ShareAlike" />
      </cc:License>
    </rdf:RDF>
  </metadata>
  <g
     inkscape:groupmode="layer"
     inkscape:label="Layer 1"
     id="layer1">
    <g
       id="g1897"
       transform="matrix(1.528609,0,0,1.528609,-5.921893,-6.490931)">
      <path
         sodipodi:type="arc"
         style="opacity:1;color:black;fill:url(#radialGradient1913);fill-opacity:1;fill-rule:evenodd;stroke:none;stroke-width:0.99999964;stroke-linecap:butt;stroke-linejoin:miter;marker:none;marker-start:none;marker-mid:none;marker-end:none;stroke-miterlimit:4;stroke-dasharray:none;stroke-dashoffset:0;stroke-opacity:1;visibility:visible;display:inline;overflow:visible"
         id="path2549"
         sodipodi:cx="26"
         sodipodi:cy="29"
         sodipodi:rx="18.428572"
         sodipodi:ry="13.857142"
         d="M 44.428572 29 A 18.428572 13.857142 0 1 1  7.5714283,29 A 18.428572 13.857142 0 1 1  44.428572 29 z"
         transform="matrix(1.092008,0,0,0.536083,-3.549359,20.73933)" />
      <path
         style="fill:#a7a7a7;fill-opacity:1;fill-rule:evenodd;stroke:#656565;stroke-width:1px;stroke-linecap:butt;stroke-linejoin:miter;stroke-opacity:1"
         d="M 4.857143,38.428571 C 4.6428572,39.428571 5.4642859,40.464285 6.8214287,40.428571 L 43,40.428571 C 44.285714,40.392857 44.714286,39.214285 44.428572,38.249999 L 36.571429,9.4285713 L 10.571429,9.4285713 L 4.857143,38.428571 z "
         id="path1316"
         sodipodi:nodetypes="ccccccc" />
      <path
         style="opacity:0.10857143;color:black;fill:black;fill-opacity:1;fill-rule:evenodd;stroke:black;stroke-width:0.99999958;stroke-linecap:butt;stroke-linejoin:miter;marker:none;marker-start:none;marker-mid:none;marker-end:none;stroke-miterlimit:4;stroke-dasharray:none;stroke-dashoffset:0;stroke-opacity:1;visibility:visible;display:inline;overflow:visible;font-family:Bitstream Vera Sans"
         d="M 9.162504,30.806458 L 39.395095,30.806458 C 40.252297,30.806458 40.942392,31.478744 40.942392,32.313825 L 42.26958,37.11476 C 42.26958,37.949841 41.579486,38.622127 40.722283,38.622127 L 8.2777114,38.622127 C 7.4205088,38.622127 6.7304142,37.949841 6.7304142,37.11476 L 7.6152068,32.313825 C 7.6152068,31.478744 8.3053014,30.806458 9.162504,30.806458 z "
         id="path2575"
         sodipodi:nodetypes="ccccccccc" />
      <path
         sodipodi:nodetypes="ccccccc"
         id="path2520"
         d="M 6.0478436,37.805569 C 5.8479823,38.738255 5.6491963,39.385227 6.5227626,39.385227 L 42.837439,39.385227 C 43.753496,39.385227 43.579187,38.645537 43.312705,37.746161 L 35.770172,10.471961 L 11.520336,10.471961 L 6.0478436,37.805569 z "
         style="fill:none;fill-opacity:1;fill-rule:evenodd;stroke:white;stroke-width:0.9999997px;stroke-linecap:butt;stroke-linejoin:miter;stroke-opacity:0.3446328" />
      <path
         sodipodi:nodetypes="ccccccccc"
         id="path2518"
         d="M 9.6418018,29.928574 L 38.929626,29.928574 C 39.760041,29.928574 40.42857,30.579851 40.42857,31.388835 L 41.714284,36.039742 C 41.714284,36.848726 41.045755,37.500003 40.21534,37.500003 L 8.7846589,37.500003 C 7.9542438,37.500003 7.2857146,36.848726 7.2857146,36.039742 L 8.1428575,31.388835 C 8.1428575,30.579851 8.8113867,29.928574 9.6418018,29.928574 z "
         style="opacity:1;color:black;fill:#c5c5c5;fill-opacity:1;fill-rule:evenodd;stroke:#696969;stroke-width:0.99999964;stroke-linecap:butt;stroke-linejoin:miter;marker:none;marker-start:none;marker-mid:none;marker-end:none;stroke-miterlimit:4;stroke-dasharray:none;stroke-dashoffset:0;stroke-opacity:1;visibility:visible;display:inline;overflow:visible;font-family:Bitstream Vera Sans" />
      <path
         style="color:black;fill:url(#linearGradient1915);fill-opacity:1;fill-rule:evenodd;stroke:#696969;stroke-width:0.99999964;stroke-linecap:butt;stroke-linejoin:miter;marker:none;marker-start:none;marker-mid:none;marker-end:none;stroke-miterlimit:4;stroke-dashoffset:0;stroke-opacity:1;visibility:visible;display:inline;overflow:visible"
         d="M 9.6418018,27.785717 L 38.929626,27.785717 C 39.760041,27.785717 40.42857,28.436994 40.42857,29.245978 L 41.714284,33.896885 C 41.714284,34.705869 41.045755,35.357146 40.21534,35.357146 L 8.7846589,35.357146 C 7.9542438,35.357146 7.2857146,34.705869 7.2857146,33.896885 L 8.1428575,29.245978 C 8.1428575,28.436994 8.8113867,27.785717 9.6418018,27.785717 z "
         id="rect2225"
         sodipodi:nodetypes="ccccccccc" />
      <g
         id="g2578"
         transform="matrix(0.942549,0,0,0.942549,-0.222619,1.85586)">
        <path
           sodipodi:nodetypes="cczczcc"
           id="path2524"
           d="M 10.891973,11.500004 L 6.5714281,33.21429 C 6.5714281,33.21429 32.857143,33.214291 32.857143,33.214291 C 45.441975,33.214291 48.085306,29.21429 48.085306,29.21429 C 48.085306,29.21429 44.728164,28.035719 43.299593,23.071433 C 43.299593,23.071433 40.23864,11.500004 40.23864,11.500004 L 10.891973,11.500004 z "
           style="fill:url(#linearGradient1917);fill-opacity:1;fill-rule:evenodd;stroke:#696969;stroke-width:1.06095243px;stroke-linecap:butt;stroke-linejoin:miter;stroke-opacity:1" />
        <path
           style="fill:none;fill-opacity:1;fill-rule:evenodd;stroke:white;stroke-width:1.06095195px;stroke-linecap:butt;stroke-linejoin:miter;stroke-opacity:1"
           d="M 11.803734,12.474609 L 7.8122567,32.239668 C 7.8122567,32.239668 24.956518,32.239669 32.238382,32.239669 C 43.465021,32.239669 46.348811,29.388804 46.348811,29.388804 C 46.348811,29.388804 43.355751,27.525962 42.055419,23.007305 C 42.055419,23.007305 39.316856,12.546038 39.316856,12.546038 L 11.803734,12.474609 z "
           id="path2571"
           sodipodi:nodetypes="cccczcc" />
      </g>
      <path
         style="color:black;fill:#9b9b9b;fill-opacity:1;fill-rule:evenodd;stroke:#696969;stroke-width:0.99999952;stroke-linecap:butt;stroke-linejoin:miter;marker:none;marker-start:none;marker-mid:none;marker-end:none;stroke-miterlimit:4;stroke-dashoffset:0;stroke-opacity:1;visibility:visible;display:inline;overflow:visible"
         d="M 11.315699,7.4285707 L 36.494515,7.4285707 C 37.367632,7.4285707 38.070539,8.0973414 38.070539,8.9280566 L 38.427682,11.071942 C 38.427682,11.902657 37.724775,12.571428 36.851658,12.571428 L 10.958556,12.571428 C 10.085439,12.571428 9.3825323,11.902657 9.3825323,11.071942 L 9.7396752,8.9280566 C 9.7396752,8.0973414 10.442582,7.4285707 11.315699,7.4285707 z "
         id="rect2522"
         sodipodi:nodetypes="ccccccccc" />
      <path
         style="font-size:17.57787704px;font-style:normal;font-variant:normal;font-weight:bold;font-stretch:normal;line-height:100%;writing-mode:lr-tb;text-anchor:start;fill:black;fill-opacity:1;stroke:none;stroke-width:1px;stroke-linecap:butt;stroke-linejoin:miter;stroke-opacity:1;font-family:Segoe"
         d="M 20.969159,22.39302 C 21.957574,22.486777 22.691543,22.765423 23.171063,23.228961 C 23.651181,23.687301 23.849054,24.273239 23.76468,24.986779 C 23.64087,26.033659 23.075908,26.877412 22.069796,27.518037 C 21.063667,28.158665 19.762256,28.478977 18.165559,28.478978 C 16.939741,28.478977 15.906445,28.286269 15.065668,27.900851 L 15.30588,25.869594 C 16.189321,26.478973 17.193659,26.783661 18.318897,26.78366 C 19.217824,26.783661 19.926554,26.637828 20.445092,26.346159 C 20.964233,26.049284 21.255527,25.632617 21.318975,25.096154 C 21.385488,24.533656 21.176411,24.122197 20.691744,23.861775 C 20.207063,23.601362 19.398966,23.471154 18.26745,23.471149 L 16.994488,23.471149 L 17.20144,21.721144 L 18.559266,21.721144 C 19.451905,21.72115 20.149975,21.585733 20.653477,21.314892 C 21.157582,21.038857 21.439509,20.648231 21.499262,20.143013 C 21.555304,19.669062 21.408536,19.288853 21.05896,19.002385 C 20.709369,18.715935 20.154261,18.572705 19.393634,18.572696 C 18.431836,18.572705 17.490216,18.853956 16.568772,19.416448 L 16.798822,17.47113 C 17.831208,17.033639 18.988597,16.814889 20.270993,16.814878 C 21.509374,16.814889 22.459536,17.072702 23.121484,17.588317 C 23.7897,18.103954 24.076386,18.76281 23.981543,19.564886 C 23.893455,20.309689 23.59823,20.919065 23.095869,21.393017 C 22.594104,21.861775 21.885201,22.195109 20.969159,22.39302"
         id="text2541" />
      <path
         style="font-size:17.57787704px;font-style:normal;font-variant:normal;font-weight:bold;font-stretch:normal;line-height:100%;writing-mode:lr-tb;text-anchor:start;fill:black;fill-opacity:1;stroke:none;stroke-width:1px;stroke-linecap:butt;stroke-linejoin:miter;stroke-opacity:1;font-family:Segoe"
         d="M 33.007379,28.45554 L 30.499173,28.45554 L 29.387875,19.096134 L 26.295373,19.893012 L 26.086657,18.135194 L 31.627997,16.838314 L 33.007379,28.45554"
         id="text2545" />
      <path
         sodipodi:type="arc"
         style="opacity:0.52571429;color:black;fill:#fefefe;fill-opacity:1;fill-rule:evenodd;stroke:none;stroke-width:0.99999964;stroke-linecap:butt;stroke-linejoin:miter;marker:none;marker-start:none;marker-mid:none;marker-end:none;stroke-miterlimit:4;stroke-dasharray:none;stroke-dashoffset:0;stroke-opacity:1;visibility:visible;display:inline;overflow:visible"
         id="path2559"
         sodipodi:cx="11.5"
         sodipodi:cy="9.9285717"
         sodipodi:rx="1.3571428"
         sodipodi:ry="1.3571428"
         d="M 12.857143 9.9285717 A 1.3571428 1.3571428 0 1 1  10.142857,9.9285717 A 1.3571428 1.3571428 0 1 1  12.857143 9.9285717 z"
         transform="matrix(0.684211,0,0,0.684211,3.560154,2.278197)" />
      <path
         style="opacity:0.3028571;fill:none;fill-opacity:0.75;fill-rule:evenodd;stroke:white;stroke-width:1.00000012px;stroke-linecap:round;stroke-linejoin:miter;stroke-opacity:1"
         d="M 13.042053,8.6010151 L 36.371309,8.6010151"
         id="path2561"
         sodipodi:nodetypes="cc" />
    </g>
  </g>
</svg>
