<?xml version="1.0" encoding="UTF-8" standalone="no"?>
<!-- Created with Inkscape (http://www.inkscape.org/) -->
<svg
   xmlns:dc="http://purl.org/dc/elements/1.1/"
   xmlns:cc="http://web.resource.org/cc/"
   xmlns:rdf="http://www.w3.org/1999/02/22-rdf-syntax-ns#"
   xmlns:svg="http://www.w3.org/2000/svg"
   xmlns="http://www.w3.org/2000/svg"
   xmlns:xlink="http://www.w3.org/1999/xlink"
   xmlns:sodipodi="http://sodipodi.sourceforge.net/DTD/sodipodi-0.dtd"
   xmlns:inkscape="http://www.inkscape.org/namespaces/inkscape"
   width="98"
   height="50"
   id="svg2"
   sodipodi:version="0.32"
   inkscape:version="0.45"
   version="1.0"
   sodipodi:docbase="/home/nsierro/.screenlets/ACPIBattery/themes/default"
   sodipodi:docname="acpibattery-battery.svg"
   inkscape:output_extension="org.inkscape.output.svg.inkscape"
   sodipodi:modified="true">
  <defs
     id="defs4">
    <linearGradient
       id="linearGradient2805">
      <stop
         style="stop-color:black;stop-opacity:1;"
         offset="0"
         id="stop2807" />
      <stop
         style="stop-color:black;stop-opacity:0;"
         offset="1"
         id="stop2809" />
    </linearGradient>
    <linearGradient
       inkscape:collect="always"
       id="linearGradient2776">
      <stop
         style="stop-color:white;stop-opacity:1;"
         offset="0"
         id="stop2778" />
      <stop
         style="stop-color:white;stop-opacity:0;"
         offset="1"
         id="stop2780" />
    </linearGradient>
    <linearGradient
       id="linearGradient2760">
      <stop
         style="stop-color:#ff1f1f;stop-opacity:0.75663716;"
         offset="0"
         id="stop2762" />
      <stop
         style="stop-color:#cb0000;stop-opacity:0.80973452;"
         offset="1"
         id="stop2764" />
    </linearGradient>
    <linearGradient
       inkscape:collect="always"
       xlink:href="#linearGradient2776"
       id="linearGradient2782"
       x1="35.784313"
       y1="9.5986519"
       x2="36.764706"
       y2="49.549633"
       gradientUnits="userSpaceOnUse" />
    <linearGradient
       inkscape:collect="always"
       xlink:href="#linearGradient2805"
       id="linearGradient2811"
       x1="55.137867"
       y1="106.66622"
       x2="55.155025"
       y2="68.967857"
       gradientUnits="userSpaceOnUse"
       gradientTransform="matrix(0.942544,0,0,0.921824,2.781224,4.166134)" />
    <linearGradient
       y2="129.34454"
       x2="71.528184"
       y1="150.48783"
       x1="49.75035"
       id="linearGradient1875"
       xlink:href="#linearGradient1864"
       inkscape:collect="always"
       gradientTransform="scale(1.0123027,0.9878468)"
       gradientUnits="userSpaceOnUse" />
    <linearGradient
       y2="21.841769"
       x2="33.89451"
       y1="19.488885"
       x1="36.909282"
       id="linearGradient1872"
       xlink:href="#linearGradient1864"
       inkscape:collect="always"
       gradientTransform="scale(1.684253,0.593735)"
       gradientUnits="userSpaceOnUse" />
    <linearGradient
       y2="17.524179"
       x2="54.972651"
       y1="6.3908208"
       x1="70.862513"
       id="linearGradient1871"
       xlink:href="#linearGradient1864"
       inkscape:collect="always"
       gradientTransform="scale(1.2654625,0.7902249)"
       gradientUnits="userSpaceOnUse" />
    <linearGradient
       y2="20.89794"
       x2="65.888471"
       y1="23.480421"
       x1="60.063359"
       id="linearGradient1899"
       xlink:href="#linearGradient1874"
       inkscape:collect="always"
       gradientTransform="scale(1.1062026,0.9039935)"
       gradientUnits="userSpaceOnUse" />
    <linearGradient
       y2="33.451355"
       x2="44.079405"
       y1="37.148447"
       x1="40.244443"
       id="linearGradient1897"
       xlink:href="#linearGradient1864"
       inkscape:collect="always"
       gradientTransform="scale(1.5060779,0.6639763)"
       gradientUnits="userSpaceOnUse" />
    <linearGradient
       y2="29.25222"
       x2="38.929003"
       y1="31.992172"
       x1="35.220662"
       id="linearGradient1895"
       xlink:href="#linearGradient1864"
       inkscape:collect="always"
       gradientTransform="scale(1.6994649,0.5884205)"
       gradientUnits="userSpaceOnUse" />
    <linearGradient
       y2="38.236326"
       x2="46.991879"
       y1="48.29256"
       x1="30.004028"
       id="linearGradient1892"
       xlink:href="#linearGradient1864"
       inkscape:collect="always"
       gradientTransform="scale(1.1881952,0.8416125)"
       gradientUnits="userSpaceOnUse" />
    <linearGradient
       y2="55.364545"
       x2="57.766843"
       y1="64.189009"
       x1="37.100519"
       id="linearGradient1885"
       xlink:href="#linearGradient1880"
       inkscape:collect="always"
       gradientTransform="scale(0.9647977,1.0364867)"
       gradientUnits="userSpaceOnUse" />
    <linearGradient
       y2="28.712817"
       x2="138.16479"
       y1="13.649529"
       x1="159.22134"
       id="linearGradient1879"
       xlink:href="#linearGradient1880"
       inkscape:collect="always"
       gradientTransform="scale(0.7424299,1.3469285)"
       gradientUnits="userSpaceOnUse" />
    <linearGradient
       y2="68.13968"
       x2="139.04483"
       y1="87.531549"
       x1="105.24821"
       id="linearGradient1873"
       xlink:href="#linearGradient1874"
       inkscape:collect="always"
       gradientTransform="scale(0.8192924,1.2205655)"
       gradientUnits="userSpaceOnUse" />
    <linearGradient
       id="linearGradient1864">
      <stop
         id="stop1865"
         offset="0.0000000"
         style="stop-color:#ffffff;stop-opacity:1.0000000;" />
      <stop
         id="stop1866"
         offset="1.0000000"
         style="stop-color:#ffffff;stop-opacity:0.0000000;" />
    </linearGradient>
    <linearGradient
       id="linearGradient1874">
      <stop
         id="stop1875"
         offset="0.0000000"
         style="stop-color:#ffffff;stop-opacity:0.0000000;" />
      <stop
         id="stop1877"
         offset="0.50000000"
         style="stop-color:#ffffff;stop-opacity:0.24719101;" />
      <stop
         id="stop1876"
         offset="1.0000000"
         style="stop-color:#ffffff;stop-opacity:0.0000000;" />
    </linearGradient>
    <linearGradient
       id="linearGradient1880">
      <stop
         id="stop1881"
         offset="0.0000000"
         style="stop-color:#000000;stop-opacity:1.0000000;" />
      <stop
         id="stop1883"
         offset="1.0000000"
         style="stop-color:#000000;stop-opacity:0.0000000;" />
    </linearGradient>
  </defs>
  <sodipodi:namedview
     id="base"
     pagecolor="#ffffff"
     bordercolor="#666666"
     borderopacity="1.0"
     inkscape:pageopacity="0.0"
     inkscape:pageshadow="2"
     inkscape:zoom="8.18"
     inkscape:cx="49"
     inkscape:cy="25"
     inkscape:document-units="px"
     inkscape:current-layer="layer1"
     width="98px"
     height="50px"
     inkscape:window-width="989"
     inkscape:window-height="626"
     inkscape:window-x="436"
     inkscape:window-y="111"
     showborder="true" />
  <metadata
     id="metadata7">
    <rdf:RDF>
      <cc:Work
         rdf:about="">
        <dc:format>image/svg+xml</dc:format>
        <dc:type
           rdf:resource="http://purl.org/dc/dcmitype/StillImage" />
      </cc:Work>
    </rdf:RDF>
  </metadata>
  <g
     inkscape:label="Ebene 1"
     inkscape:groupmode="layer"
     id="layer1"
     transform="translate(-0.3969162,-0.1800056)">
    <g
       id="g1905"
       transform="matrix(0.2970605,0,0,0.2970605,-4.5673575,1.2681439)">
      <path
         transform="translate(-10,0)"
         sodipodi:nodetypes="cccccccc"
         id="path1195"
         d="M 84.09375,6.15625 C 78.273161,6.1306607 71.560546,7.1257849 64.65625,9.21875 C 46.244793,14.79999 33.362899,26.141219 35.90625,34.53125 C 35.90625,34.53125 76.037476,140.36064 76.049632,140.40074 C 78.592982,148.79077 95.901041,150.48749 114.3125,144.90625 C 132.72396,139.32501 145.60584,127.98378 143.0625,119.59375 L 102.46324,11.823529 C 100.39781,8.0483192 92.906634,6.1949944 84.09375,6.15625 z "
         style="fill:#000000;fill-opacity:1;fill-rule:evenodd;stroke:none;stroke-width:1pt;stroke-linecap:butt;stroke-linejoin:miter;stroke-opacity:1" />
      <path
         transform="translate(-10,0)"
         sodipodi:nodetypes="ccccccc"
         id="path1217"
         d="M 75.171876,34.41878 C 56.760419,40.00002 40.054996,40.164778 36.715994,35.025397 C 36.715994,35.025397 46.258984,61.148903 46.27114,61.189003 C 48.81449,69.579033 65.240197,71.275753 83.651653,65.694513 C 102.06311,60.113273 114.94499,48.772043 112.40165,40.382013 L 101.98506,12.054545 C 101.39022,20.338159 94.723231,27.325815 75.171876,34.41878 z "
         style="fill:#eca548;fill-opacity:1;fill-rule:evenodd;stroke:none;stroke-width:1pt;stroke-linecap:butt;stroke-linejoin:miter;stroke-opacity:1" />
      <path
         transform="translate(-10,0)"
         sodipodi:nodetypes="ccc"
         id="path1842"
         d="M 40.294118,31.764706 C 34.411765,15.588235 90.294118,3.8235298 96.176471,11.470588 C 103.52941,27.058824 49.705882,41.176471 40.294118,31.764706 z "
         style="fill:#dcdcdc;fill-opacity:1;fill-rule:evenodd;stroke:none;stroke-width:1pt;stroke-linecap:butt;stroke-linejoin:miter;stroke-opacity:1" />
      <path
         transform="translate(-10,0)"
         id="path1839"
         d="M 82.15625,6.6875 C 76.193653,6.9049989 69.88603,7.9375001 64.8125,9.8125 C 43.930147,15.988971 34.222425,28.023897 36.28125,33.90625 C 40.398897,43.90625 64.691173,38.836397 76.75,34.71875 C 95.279411,28.54228 103.57721,18.827205 101.8125,12.0625 C 101.07721,8.2022056 92.093912,6.3250018 82.15625,6.6875 z M 83.21875,11.78125 C 88.232537,11.42739 92.07353,12.066176 93.25,14.125 C 97.955886,21.772059 50.575369,39.713235 45.28125,29.125 C 42.413603,22.727941 68.17739,12.842831 83.21875,11.78125 z "
         style="fill:#eca548;fill-opacity:1;fill-rule:evenodd;stroke:none;stroke-width:1pt;stroke-linecap:butt;stroke-linejoin:miter;stroke-opacity:1" />
      <path
         transform="translate(-10,0)"
         sodipodi:nodetypes="ccccccccccccc"
         id="path1843"
         d="M 103.07857,12.78125 L 101.72214,11.404488 C 102.30197,13.553265 101.65597,17.388438 100.5,19.53125 C 99.344032,21.674062 97.389971,23.801256 94.84375,25.8125 C 89.751308,29.834988 82.32306,33.379512 74.4375,35.84375 C 66.55194,38.307988 58.205314,39.703916 51.28125,39.5 C 44.357186,39.296084 38.288985,37.118574 36.043045,33.443398 L 35.825176,34.775352 C 38.432176,39.041354 44.129946,40.540312 51.25,40.75 C 58.370054,40.959688 66.815707,39.530248 74.8125,37.03125 C 82.809293,34.532252 90.349797,30.9481 95.625,26.78125 C 98.262602,24.697825 100.3545,22.48012 101.625,20.125 C 102.8955,17.76988 103.74874,15.264826 103.07857,12.78125 z "
         style="fill:#000000;fill-opacity:1;fill-rule:evenodd;stroke:none;stroke-width:1pt;stroke-linecap:butt;stroke-linejoin:miter;stroke-opacity:1" />
      <path
         transform="translate(-10,0)"
         id="text1846"
         d="M 81.327499,39.820443 L 83.725592,46.17417 L 90.060479,43.783188 L 91.140536,46.64479 L 84.805649,49.035772 L 87.203742,55.389499 L 84.315422,56.47964 L 81.917329,50.125913 L 75.582443,52.516895 L 74.502386,49.655293 L 80.837272,47.264311 L 78.439179,40.910584 L 81.327499,39.820443"
         style="font-size:12px;font-style:normal;font-variant:normal;font-weight:bold;font-stretch:normal;writing-mode:lr-tb;text-anchor:start;fill:#000000;fill-opacity:1;stroke:none;stroke-width:1pt;stroke-linecap:butt;stroke-linejoin:miter;stroke-opacity:1;font-family:Bitstream Vera Sans" />
      <path
         transform="translate(-10,0)"
         id="text1850"
         d="M 121.25356,123.54734 C 123.45185,125.97006 120.94797,127.83135 119.90979,129.79543 C 122.03741,130.32106 125.44965,130.32602 125.03852,133.37063 C 122.41368,133.11792 119.71956,131.77755 117.07793,132.17459 C 115.09062,133.21442 112.25068,134.15274 112.69488,130.88156 C 115.88081,130.36839 118.06367,128.24583 119.70184,125.57966 C 120.21908,124.90222 120.73632,124.22477 121.25356,123.54734 z M 114.75095,120.60364 C 116.37865,124.64026 119.28684,117.16404 115.50958,119.12708 C 114.56353,119.24324 113.98187,119.75274 114.75095,120.60364 z M 112.46794,120.21886 C 110.48429,121.61744 106.63413,121.95176 108.14555,118.79123 C 111.40048,118.21948 115.32168,115.56343 118.03767,115.84391 C 118.97117,118.23096 121.52793,122.08254 118.54194,123.93372 C 116.57265,124.42886 114.28356,122.42201 113.61462,125.36448 C 112.28704,126.65715 110.87569,129.06511 110.3095,126.04961 C 109.57091,123.88556 114.50588,122.80509 112.46794,120.21886 z M 114.12505,106.29905 C 114.65028,108.56618 117.13391,111.5346 116.36674,113.33892 C 113.29552,115.06997 114.28616,107.1092 111.34034,110.523 C 111.95711,112.03546 114.0433,115.28258 110.75908,114.67663 C 110.39055,112.68676 108.37664,109.29535 106.95517,112.44807 C 107.78522,113.87549 109.70653,117.37157 106.49658,116.61065 C 105.94706,113.94932 101.57016,109.46435 106.34483,109.10795 C 108.93824,108.17165 111.53165,107.23535 114.12505,106.29905 z M 109.90056,96.077361 C 110.703,99.065296 113.54553,102.78378 113.04673,105.30575 C 110.23498,106.84495 111.38727,100.8343 108.39617,103.1693 C 106.22357,103.44009 102.78873,106.43448 101.49872,104.6154 C 100.02281,101.55901 105.68215,102.06008 107.44173,100.66675 C 112.20685,100.19404 104.91139,97.062176 109.90056,96.077361 z M 106.02497,86.699905 C 106.82742,89.687843 109.66994,93.406315 109.17114,95.92829 C 106.35939,97.467486 107.51169,91.456838 104.52059,93.791843 C 102.34799,94.062634 98.913154,97.057016 97.623148,95.23794 C 96.147229,92.181556 101.80657,92.682627 103.56615,91.289296 C 108.33127,90.816588 101.03581,87.684737 106.02497,86.699905 z M 96.628722,87.554809 C 95.717449,85.646797 95.600835,83.113706 93.036644,83.534315 C 90.919664,81.891654 92.690747,80.356958 94.818988,81.218858 C 97.714173,81.599107 102.20074,79.943908 104.0327,81.977779 C 106.2508,85.613462 99.795064,87.118802 98.080816,89.66806 C 96.625805,91.845585 95.056241,91.097684 95.227214,88.662148 C 95.520624,88.100894 96.230741,88.028101 96.628722,87.554809 z M 97.195304,83.573943 C 97.598565,85.202352 98.470404,87.049413 99.886814,84.939222 C 104.58632,82.094151 98.577584,84.013514 97.195304,83.573943 z M 96.082831,73.810897 C 98.297314,77.175359 99.312414,69.813729 95.968253,72.209292 C 95.202267,72.488095 95.937588,73.365695 96.082831,73.810897 z M 91.580565,75.533378 C 94.069352,79.722647 95.822816,70.877783 91.601466,73.809379 C 90.696733,74.072685 91.23594,75.051266 91.580565,75.533378 z M 96.272582,76.511192 C 95.674502,81.615576 88.676633,78.456984 89.098006,74.464003 C 86.444388,70.753572 93.439424,71.075399 95.452009,69.575737 C 97.445706,68.545314 99.046004,68.103488 99.441314,70.758279 C 101.84358,73.287122 100.18442,79.283108 96.27258,76.511188 L 96.272582,76.511192 z "
         style="font-size:12px;font-style:normal;font-variant:normal;font-weight:bold;font-stretch:normal;writing-mode:lr-tb;text-anchor:start;fill:#ffffff;fill-opacity:1;stroke:none;stroke-width:1pt;stroke-linecap:butt;stroke-linejoin:miter;stroke-opacity:1;font-family:Bitstream Vera Sans" />
      <path
         transform="translate(-10,0)"
         sodipodi:nodetypes="cccccccccccccccccc"
         id="path1886"
         d="M 86.4375,11.03125 C 78.538052,10.967814 70.841153,13.245409 63.461304,15.865998 C 57.473131,18.175611 51.367923,19.659487 46.414316,24.840031 C 44.663523,26.159626 43.480261,28.832354 45.354208,30.57561 C 48.168514,33.728259 52.860878,33.718296 56.7505,33.432019 C 65.526054,32.48681 73.942729,29.386397 81.825879,25.51883 C 85.915173,23.335431 90.23945,21.095245 93.135777,17.365612 C 94.587565,15.736992 93.949509,13.195118 91.981048,12.342094 C 90.307276,11.384007 88.334558,11.114776 86.4375,11.03125 z M 82.96875,12.34375 C 86.011676,12.19999 89.496638,11.972005 92.046663,13.941297 C 93.899698,15.925114 90.810162,18.05006 89.453216,19.339817 C 83.386379,23.959757 76.269433,26.993751 69.08725,29.427645 C 63.15751,31.249169 56.893552,32.955038 50.650718,32.018132 C 48.556681,31.644345 45.647895,30.390941 45.594318,28.238619 C 45.855661,26.105708 48.430395,24.046321 50.24581,22.741587 C 57.976518,18.078402 66.752101,15.66182 75.50598,13.556167 C 77.965101,12.999218 80.4542,12.552675 82.96875,12.34375 z "
         style="fill:#000000;fill-opacity:1;fill-rule:evenodd;stroke:none;stroke-width:1pt;stroke-linecap:butt;stroke-linejoin:miter;stroke-opacity:1" />
      <path
         transform="translate(-10,0)"
         sodipodi:nodetypes="ccccccc"
         id="path1856"
         d="M 64.125,11.6875 C 58.820832,13.487231 55.113424,16.691334 55.84375,18.84375 L 58.221772,23.881044 C 59.044126,25.961355 63.730059,25.965015 68.96875,24.1875 C 74.272918,22.387769 77.980325,19.183667 77.25,17.03125 C 77.195226,16.869819 75.08493,12.378606 75.0625,12.3125 C 74.697337,11.236292 69.913626,9.4434025 64.125,11.6875 z "
         style="fill:#c8c8c8;fill-opacity:1;fill-rule:evenodd;stroke:#000000;stroke-width:1pt;stroke-linecap:butt;stroke-linejoin:miter;stroke-opacity:1" />
      <path
         transform="translate(-10,0)"
         sodipodi:nodetypes="ccccccccccc"
         id="path1860"
         d="M 74.5,11.893574 C 74.223173,12.921789 73.237393,14.218014 71.78125,15.21875 C 70.325107,16.219486 68.409181,17.104227 66.4375,17.78125 C 64.465819,18.458273 62.44364,18.934115 60.6875,19.125 C 58.93136,19.315885 57.137371,19.384628 56.224597,18.431404 L 56.084413,19.65949 C 57.221243,20.197989 58.942419,20.54702 60.8125,20.34375 C 62.682581,20.14048 64.788992,19.674299 66.84375,18.96875 C 68.898508,18.263201 70.880807,17.341315 72.46875,16.25 C 74.056693,15.158685 75.538558,14.207226 75.6875,12.375 L 74.5,11.893574 z "
         style="fill:#000000;fill-opacity:1;fill-rule:evenodd;stroke:none;stroke-width:1pt;stroke-linecap:butt;stroke-linejoin:miter;stroke-opacity:1" />
      <path
         transform="translate(-10,0)"
         sodipodi:nodetypes="ccccc"
         id="path1872"
         d="M 54.928097,40.666642 C 68.539217,40.059388 82.936808,35.31817 94.117647,27.941176 C 94.149356,28.081401 135.62295,134.07992 135.58824,134.11765 C 133.86426,136.52034 115.72982,147.06948 98.360486,148.10709 C 98.360486,148.1071 54.928097,40.666642 54.928097,40.666642 z "
         style="fill:url(#linearGradient1873);fill-opacity:1;fill-rule:evenodd;stroke:none;stroke-width:1pt;stroke-linecap:butt;stroke-linejoin:miter;stroke-opacity:1" />
      <path
         transform="translate(-10,0)"
         sodipodi:nodetypes="ccccc"
         id="path1878"
         d="M 103.27553,15.57899 L 112.78949,41.461343 C 113.68109,47.479629 105.52301,55.684446 100.55725,58.315757 C 99.380778,55.37458 89.300315,30.659454 89.300315,30.659454 C 93.312506,29.322057 102.15778,22.585085 103.27553,15.57899 z "
         style="fill:url(#linearGradient1879);fill-opacity:1;fill-rule:evenodd;stroke:none;stroke-width:1pt;stroke-linecap:butt;stroke-linejoin:miter;stroke-opacity:1" />
      <path
         transform="translate(-10,0)"
         sodipodi:nodetypes="ccccc"
         id="path1884"
         d="M 37.112765,36.098358 L 47.031793,63.292097 C 51.266884,68.753134 57.842419,69.421833 67.761447,68.864584 C 67.872897,68.976034 59.291266,40.110549 59.291266,40.110549 C 53.16153,41.113597 41.682206,40.890697 37.112765,36.098358 z "
         style="fill:url(#linearGradient1885);fill-opacity:1;fill-rule:evenodd;stroke:none;stroke-width:1pt;stroke-linecap:butt;stroke-linejoin:miter;stroke-opacity:1" />
      <path
         transform="translate(-10,0)"
         sodipodi:nodetypes="cccc"
         id="path1891"
         d="M 49.893893,16.193651 C 47.316729,17.12143 34.327823,26.502307 36.183381,33.306019 C 39.069805,40.934424 58.450077,40.418991 68.861819,37.429481 C 62.26428,34.852317 47.007469,31.862807 49.893893,16.193651 z "
         style="fill:url(#linearGradient1892);fill-opacity:1;fill-rule:evenodd;stroke:none;stroke-width:1pt;stroke-linecap:butt;stroke-linejoin:miter;stroke-opacity:1" />
      <path
         transform="translate(-10,0)"
         sodipodi:nodetypes="cccc"
         id="path1893"
         d="M 60.298097,14.240032 C 60.298097,14.240032 56.079087,15.781305 56.388346,18.667728 C 58.862423,20.729459 70.098858,17.018344 70.92355,15.678218 C 66.065918,16.646222 62.241665,18.227721 60.298097,14.240032 z "
         style="fill:url(#linearGradient1895);fill-opacity:1;fill-rule:evenodd;stroke:none;stroke-width:1pt;stroke-linecap:butt;stroke-linejoin:miter;stroke-opacity:1" />
      <path
         transform="translate(-10,0)"
         sodipodi:nodetypes="cccc"
         id="path1896"
         d="M 57.316125,20.214027 C 57.316125,20.214027 58.34699,23.40971 59.377856,24.337489 C 63.088972,25.574527 65.975396,24.234403 67.830953,23.822056 C 61.027241,23.512797 61.027241,20.523286 57.316125,20.214027 z "
         style="fill:url(#linearGradient1897);fill-opacity:1;fill-rule:evenodd;stroke:none;stroke-width:1pt;stroke-linecap:butt;stroke-linejoin:miter;stroke-opacity:1" />
      <path
         transform="translate(-10,0)"
         sodipodi:nodetypes="ccccc"
         id="path1898"
         d="M 65.459963,19.286248 C 67.93404,18.770815 71.129723,17.224516 72.882195,15.884391 C 73.500714,16.709084 75.047012,20.007853 75.047012,20.007853 C 74.325406,21.244892 71.129724,23.203536 68.449473,23.718969 C 67.93404,23.10045 65.459963,19.286248 65.459963,19.286248 z "
         style="fill:url(#linearGradient1899);fill-opacity:1;fill-rule:evenodd;stroke:none;stroke-width:1pt;stroke-linecap:butt;stroke-linejoin:miter;stroke-opacity:1" />
      <path
         sodipodi:nodetypes="cccc"
         id="path1869"
         d="M 53.240233,12.819972 C 53.240233,12.819972 61.399126,10.054245 64.164852,12.405113 C 63.611707,14.064549 62.781989,14.894266 61.260839,15.309125 C 59.739689,14.617694 61.813984,11.575395 53.240233,12.819972 z "
         style="fill:url(#linearGradient1872);fill-opacity:1;fill-rule:evenodd;stroke:none;stroke-width:1pt;stroke-linecap:butt;stroke-linejoin:miter;stroke-opacity:1" />
      <path
         sodipodi:nodetypes="cccc"
         id="path1870"
         d="M 54.48481,9.6393867 C 65.271143,6.3205151 89.194675,4.5227926 91.822115,12.12854 C 93.343266,18.213138 87.258667,25.818885 78.13177,30.244048 C 85.737517,20.149147 72.185458,8.1182369 54.48481,9.6393867 z "
         style="fill:url(#linearGradient1871);fill-opacity:1;fill-rule:evenodd;stroke:none;stroke-width:1pt;stroke-linecap:butt;stroke-linejoin:miter;stroke-opacity:1" />
      <path
         sodipodi:nodetypes="cccc"
         id="path1873"
         d="M 53.118134,105.39439 C 53.118134,105.39439 65.716666,140.46598 67.24892,141.82798 C 69.972926,148.46774 90.402977,148.29749 96.361743,146.59499 C 77.804451,142.84948 67.58942,120.03592 53.118134,105.39439 z "
         style="fill:url(#linearGradient1875);fill-opacity:1;fill-rule:evenodd;stroke:none;stroke-width:1pt;stroke-linecap:butt;stroke-linejoin:miter;stroke-opacity:1" />
      <path
         sodipodi:nodetypes="ccccccccccccccccccccccccccccccc"
         id="path1876"
         d="M 74.15625,5.4375 C 68.262327,5.4115896 61.490535,6.4216138 54.53125,8.53125 C 45.330187,11.320457 37.503989,15.51171 32.21875,20.125 C 27.028464,24.65541 24.249453,29.649126 25.3125,34.125 C 25.317362,34.145471 25.307475,34.167051 25.3125,34.1875 C 25.586205,35.282319 65.456675,140.46017 65.46875,140.5 C 66.432349,143.6787 69.355844,145.89283 73.375,147.1875 C 77.270963,148.44249 82.292592,148.83303 87.875,148.46875 C 91.615633,148.10381 103.0333,146.15884 104.53125,145.40625 C 110.54276,143.58393 116.23055,141.02876 120.73994,138.28377 C 123.06405,136.70462 124.56705,135.85536 126.34375,134.09375 C 129.09262,131.76303 131.28008,129.34941 132.59375,126.90625 C 133.97243,124.34218 134.44878,121.72074 133.71875,119.3125 L 93.487425,12.044895 C 92.32307,9.9166849 89.338841,7.867231 86.03125,6.90625 C 82.723659,5.945269 78.605464,5.45706 74.15625,5.4375 z M 74.15625,6.6875 C 78.519916,6.706684 82.511547,7.180094 85.65625,8.09375 C 88.800953,9.007406 91.036418,10.384252 91.9375,12.03125 L 132.5,119.6875 C 133.11381,121.71234 132.73935,123.94944 131.46875,126.3125 C 130.19815,128.67556 128.04758,131.13883 125.1875,133.5 C 124.09268,134.13864 121.49951,136.2844 119.75,137.3125 C 117.6516,138.49855 110.09499,142.42796 104.1875,144.21875 C 99.098298,145.6141 94.100331,146.73575 88.64619,147.30998 C 82.964536,147.72918 77.543411,147.22195 73.75,146 C 69.956589,144.77805 67.495134,142.78921 66.6875,140.125 L 26.53125,34.0625 C 25.495109,30.232723 27.923829,25.55183 33.03125,21.09375 C 38.138671,16.63567 45.820262,12.4636 54.875,9.71875 C 61.724295,7.6424562 68.40902,6.6622345 74.15625,6.6875 z "
         style="fill:#000000;fill-opacity:1;fill-rule:evenodd;stroke:none;stroke-width:1pt;stroke-linecap:butt;stroke-linejoin:miter;stroke-opacity:1" />
    </g>
  </g>
</svg>
