<?xml version="1.0" encoding="UTF-8" standalone="no"?>
<!-- Created with Inkscape (http://www.inkscape.org/) -->
<svg
   xmlns:dc="http://purl.org/dc/elements/1.1/"
   xmlns:cc="http://web.resource.org/cc/"
   xmlns:rdf="http://www.w3.org/1999/02/22-rdf-syntax-ns#"
   xmlns:svg="http://www.w3.org/2000/svg"
   xmlns="http://www.w3.org/2000/svg"
   xmlns:xlink="http://www.w3.org/1999/xlink"
   xmlns:sodipodi="http://sodipodi.sourceforge.net/DTD/sodipodi-0.dtd"
   xmlns:inkscape="http://www.inkscape.org/namespaces/inkscape"
   width="64"
   height="64"
   id="svg2"
   sodipodi:version="0.32"
   inkscape:version="0.44"
   sodipodi:docbase="/home/ryx/Documents/scripts/python/screenlets-package/screenlets/notes"
   sodipodi:docname="icon.svg"
   version="1.0">
  <defs
     id="defs4">
    <linearGradient
       id="linearGradient3144">
      <stop
         style="stop-color:white;stop-opacity:0.37168142;"
         offset="0"
         id="stop3146" />
      <stop
         style="stop-color:white;stop-opacity:0;"
         offset="1"
         id="stop3148" />
    </linearGradient>
    <linearGradient
       id="linearGradient3109">
      <stop
         style="stop-color:#74b9ff;stop-opacity:1;"
         offset="0"
         id="stop3111" />
      <stop
         style="stop-color:#0067e9;stop-opacity:1;"
         offset="1"
         id="stop3113" />
    </linearGradient>
    <linearGradient
       id="linearGradient2811">
      <stop
         style="stop-color:#fbfbfb;stop-opacity:1;"
         offset="0"
         id="stop2813" />
      <stop
         id="stop2821"
         offset="0.25"
         style="stop-color:white;stop-opacity:1;" />
      <stop
         id="stop2819"
         offset="0"
         style="stop-color:#7f7f7f;stop-opacity:1;" />
      <stop
         style="stop-color:white;stop-opacity:1;"
         offset="1"
         id="stop2815" />
    </linearGradient>
    <linearGradient
       id="linearGradient2760">
      <stop
         style="stop-color:#ffff81;stop-opacity:0.80973452;"
         offset="0"
         id="stop2762" />
      <stop
         id="stop2768"
         offset="0.5"
         style="stop-color:#fff21b;stop-opacity:0.81415927;" />
      <stop
         style="stop-color:#e9cc00;stop-opacity:0.82743365;"
         offset="1"
         id="stop2764" />
    </linearGradient>
    <linearGradient
       inkscape:collect="always"
       xlink:href="#linearGradient2760"
       id="linearGradient2766"
       x1="159.5"
       y1="75.362183"
       x2="194"
       y2="256.36218"
       gradientUnits="userSpaceOnUse" />
    <linearGradient
       inkscape:collect="always"
       xlink:href="#linearGradient2760"
       id="linearGradient2793"
       gradientUnits="userSpaceOnUse"
       x1="159.5"
       y1="75.362183"
       x2="194"
       y2="256.36218"
       gradientTransform="translate(-21,-22)" />
    <linearGradient
       inkscape:collect="always"
       xlink:href="#linearGradient2760"
       id="linearGradient2799"
       gradientUnits="userSpaceOnUse"
       gradientTransform="translate(-21,-22)"
       x1="159.5"
       y1="75.362183"
       x2="194"
       y2="256.36218" />
    <linearGradient
       inkscape:collect="always"
       xlink:href="#linearGradient2760"
       id="linearGradient2802"
       gradientUnits="userSpaceOnUse"
       gradientTransform="matrix(0.698169,0,0,0.704737,-6.450952,12.96549)"
       x1="159.5"
       y1="75.362183"
       x2="194"
       y2="256.36218" />
    <linearGradient
       inkscape:collect="always"
       xlink:href="#linearGradient3109"
       id="linearGradient3119"
       gradientUnits="userSpaceOnUse"
       gradientTransform="matrix(0.72744,0,0,0.72744,54.12224,5.02717)"
       x1="164.2117"
       y1="26.643087"
       x2="180.79327"
       y2="35.643089" />
    <linearGradient
       inkscape:collect="always"
       xlink:href="#linearGradient3144"
       id="linearGradient3150"
       x1="181.58575"
       y1="13.665491"
       x2="173.10046"
       y2="33.653667"
       gradientUnits="userSpaceOnUse"
       gradientTransform="matrix(0.72744,0,0,0.72744,51.21248,7.93693)" />
    <linearGradient
       inkscape:collect="always"
       xlink:href="#linearGradient2760"
       id="linearGradient2858"
       gradientUnits="userSpaceOnUse"
       gradientTransform="matrix(0.698169,0,0,0.704737,-6.45095,12.96549)"
       x1="159.5"
       y1="75.362183"
       x2="194"
       y2="256.36218" />
    <linearGradient
       inkscape:collect="always"
       xlink:href="#linearGradient2760"
       id="linearGradient2862"
       gradientUnits="userSpaceOnUse"
       gradientTransform="matrix(0.698169,0,0,0.704737,-6.152395,13.66693)"
       x1="159.5"
       y1="75.362183"
       x2="194"
       y2="256.36218" />
    <linearGradient
       inkscape:collect="always"
       xlink:href="#linearGradient2760"
       id="linearGradient2865"
       gradientUnits="userSpaceOnUse"
       gradientTransform="matrix(0.225468,0,0,0.2276,-0.538201,7.639261)"
       x1="159.5"
       y1="75.362183"
       x2="194"
       y2="256.36218" />
  </defs>
  <sodipodi:namedview
     id="base"
     pagecolor="#ffffff"
     bordercolor="#666666"
     borderopacity="1.0"
     inkscape:pageopacity="0.0"
     inkscape:pageshadow="2"
     inkscape:zoom="1"
     inkscape:cx="32"
     inkscape:cy="32"
     inkscape:document-units="px"
     inkscape:current-layer="layer1"
     inkscape:window-width="989"
     inkscape:window-height="626"
     inkscape:window-x="177"
     inkscape:window-y="264"
     height="64px"
     width="64px" />
  <metadata
     id="metadata7">
    <rdf:RDF>
      <cc:Work
         rdf:about="">
        <dc:format>image/svg+xml</dc:format>
        <dc:type
           rdf:resource="http://purl.org/dc/dcmitype/StillImage" />
      </cc:Work>
    </rdf:RDF>
  </metadata>
  <g
     inkscape:label="Ebene 1"
     inkscape:groupmode="layer"
     id="layer1"
     transform="translate(-4.000003,-6.475504)">
    <path
       style="opacity:1;fill:black;fill-opacity:0.32423209;stroke:none;stroke-width:2;stroke-linejoin:miter;stroke-miterlimit:4;stroke-dashoffset:0;stroke-opacity:1"
       d="M 6.8105056,15.31762 L 64.03409,15.31762 L 64.260269,35.180392 C 64.361382,44.566077 65.029294,61.085698 66.295893,69.883163 C 57.814137,69.807061 48.427654,70.187577 39.945901,70.111472 L 18.854599,70.111472 L 6.1319657,70.111472 C 6.7969008,62.957831 6.7108874,55.804188 6.8105056,48.650548 L 6.8105056,15.31762 z "
       id="path2789"
       sodipodi:nodetypes="ccccccccc" />
    <path
       style="opacity:1;fill:url(#linearGradient2865);fill-opacity:1;stroke:black;stroke-width:0.64792347;stroke-linejoin:miter;stroke-miterlimit:4;stroke-dasharray:none;stroke-dashoffset:0;stroke-opacity:1"
       d="M 6.9022412,13.86689 L 63.945625,13.86689 L 64.171093,33.668086 C 64.271887,43.024676 65.614096,58.582688 66.876708,67.352885 C 58.421662,67.277017 48.162871,68.339148 39.707824,68.263279 C 33.089181,68.65662 26.128027,68.704204 18.908408,68.490882 L 5.323965,68.263279 C 5.9868073,61.131814 6.802936,54.227945 6.9022412,47.096484 L 6.9022412,13.86689 z "
       id="rect1872"
       sodipodi:nodetypes="ccccccccc" />
    <path
       sodipodi:type="arc"
       style="opacity:0.92328766;fill:black;fill-opacity:0.33447098;stroke:none;stroke-width:1.58599997;stroke-linejoin:miter;stroke-miterlimit:4;stroke-dasharray:none;stroke-dashoffset:0;stroke-opacity:1"
       id="path5705"
       sodipodi:cx="10.919671"
       sodipodi:cy="40.154495"
       sodipodi:rx="7.9550548"
       sodipodi:ry="3.0634372"
       d="M 18.035359,41.524144 A 7.9550548,3.0634372 0 1 1 18.874341,40.184619"
       sodipodi:start="0.46351537"
       sodipodi:end="6.2930189"
       sodipodi:open="true"
       transform="matrix(0.323962,0,0,0.323962,33.69792,6.86637)" />
    <g
       id="g3823"
       transform="matrix(0.308336,-9.939823e-2,9.939823e-2,0.308336,-24.29538,24.00201)">
      <path
         sodipodi:nodetypes="ccsssscccssssssssssssscsc"
         style="fill:#1f1605;fill-opacity:1"
         d="M 188.27199,37.203598 L 189.60459,37.428574 C 190.33752,37.552311 192.36144,37.752528 194.10218,37.873498 C 197.1242,38.083509 197.29436,38.054627 197.86905,37.234145 C 198.28811,36.635844 198.47076,35.590404 198.47036,33.79224 C 198.46979,31.222288 198.12505,30.186197 196.54493,28.00558 C 195.92595,27.151379 195.9558,26.939093 197.46368,21.471256 L 199.02218,15.819817 L 200.85968,15.353656 C 203.64208,14.647777 204.90662,12.47683 203.34029,11.094943 C 201.46454,9.440057 195.52551,7.115181 191.80035,6.577556 C 190.35545,6.369022 189.9717,6.450177 189.31973,7.102143 C 188.20732,8.214549 188.33273,9.807163 189.65094,11.308526 C 190.25732,11.999146 190.75437,12.707744 190.75551,12.883185 C 190.75845,13.336844 186.66886,23.030649 186.24107,23.584029 C 186.04576,23.836685 185.60793,24.043403 185.26811,24.043403 C 184.92829,24.043403 183.77401,24.480058 182.70305,25.013745 C 181.23399,25.745804 180.44919,26.463435 179.50714,27.936086 C 178.82037,29.009688 178.25846,30.214093 178.25846,30.612544 C 178.25846,31.831561 180.06795,33.575045 182.7184,34.909788 C 184.1058,35.608474 185.24095,36.411993 185.24095,36.69539 C 185.24095,36.978788 184.51048,39.333297 183.61769,41.927638 C 182.72489,44.521978 183.24297,43.709653 182.9883,45.011365 C 182.81757,46.137005 185.19457,47.44286 185.49876,46.430758 L 188.27199,37.203598 z "
         id="path2008" />
      <path
         sodipodi:open="true"
         sodipodi:end="6.2930189"
         sodipodi:start="0.46351537"
         transform="translate(4.000003,6.475504)"
         d="M 190.90543,27.108697 A 2.4982316,2.4439223 0 1 1 191.1689,26.040063"
         sodipodi:ry="2.4439223"
         sodipodi:rx="2.4982316"
         sodipodi:cy="26.016031"
         sodipodi:cx="188.67079"
         id="path3821"
         style="opacity:1;fill:white;fill-opacity:1;stroke:none;stroke-width:1.58599997;stroke-linejoin:miter;stroke-miterlimit:4;stroke-dasharray:none;stroke-dashoffset:0;stroke-opacity:1"
         sodipodi:type="arc" />
      <path
         style="fill:#910504"
         d="M 196.59076,36.58105 C 197.22954,35.942274 197.36809,35.360349 197.3665,33.322764 C 197.36457,30.856574 197.25334,30.549124 195.45321,28.034289 C 194.84986,27.1914 194.87657,26.961161 196.10882,22.383879 C 198.27234,14.34731 198.39159,14.120919 200.46147,14.120919 C 201.63218,14.120919 202.88092,13.220383 202.88092,12.37612 C 202.88092,12.155749 201.51658,11.233446 199.84906,10.326561 C 196.24936,8.368865 191.17242,7.068212 190.21902,7.85946 C 189.36143,8.571199 189.53095,9.548686 190.75344,10.941027 C 191.35982,11.631647 191.85594,12.341336 191.85594,12.51811 C 191.85594,13.167489 187.14286,23.767478 186.65935,24.205526 C 186.38454,24.454496 185.45411,24.858079 184.59173,25.102379 C 182.66716,25.647575 180.66544,27.351758 179.67942,29.284515 L 178.93869,30.736472 L 179.79295,31.660387 C 180.26279,32.168539 181.88752,33.190147 183.40345,33.930623 C 185.75455,35.079043 186.17724,35.428388 186.27908,36.30723 C 186.39501,37.307791 186.41935,37.318611 187.12253,36.682238 C 187.784,36.083621 188.07555,36.067642 190.4944,36.497451 C 195.68251,37.419338 195.75153,37.420286 196.59076,36.58105 z M 190.97017,32.633059 C 190.70397,31.939356 191.34398,31.025892 192.09622,31.025892 C 192.72193,31.025892 193.11667,31.920966 192.82554,32.67964 C 192.54294,33.416094 191.25827,33.383842 190.97017,32.633059 z "
         id="path1998" />
      <path
         style="fill:#680607"
         d="M 183.22029,32.214639 C 183.42274,32.066139 183.7722,31.531204 183.99687,31.025892 C 185.74471,27.094869 185.66653,27.176145 187.81826,27.053268 C 190.12716,26.921413 190.74434,26.533307 190.77688,25.19278 C 190.78977,24.661685 191.2543,22.821486 191.80916,21.103448 C 192.6621,18.462487 193.01344,17.852934 194.0826,17.159195 C 196.48577,15.599854 196.49668,15.572623 195.18752,14.402879 C 194.31176,13.620389 193.7016,13.373245 192.85157,13.456704 C 191.75158,13.564705 191.60125,13.793382 189.43049,18.660779 C 188.1817,21.460886 186.93491,23.955806 186.65983,24.205044 C 186.38476,24.454279 185.44657,24.86034 184.57498,25.107399 C 182.41853,25.718657 180.18479,27.789939 179.86948,29.470671 C 179.65611,30.608001 179.75827,30.905724 180.61458,31.642295 C 181.61749,32.50496 182.54635,32.708984 183.22029,32.214639 z "
         id="path1996" />
      <path
         sodipodi:nodetypes="ccccc"
         id="rect2931"
         d="M 185.57767,37.688672 C 185.78261,38.766419 186.50409,38.991626 187.34567,38.240591 L 184.91018,46.063863 C 184.51269,46.408484 183.73312,45.799615 183.29383,45.117637 L 185.57767,37.688672 z "
         style="fill:#c8b7b7;fill-opacity:1;stroke:none;stroke-width:1.58599997;stroke-linejoin:miter;stroke-miterlimit:4;stroke-dashoffset:0;stroke-opacity:1" />
    </g>
  </g>
</svg>
