<?xml version="1.0" encoding="UTF-8" standalone="no"?>
<!-- Created with Inkscape (http://www.inkscape.org/) -->
<svg
   xmlns:dc="http://purl.org/dc/elements/1.1/"
   xmlns:cc="http://web.resource.org/cc/"
   xmlns:rdf="http://www.w3.org/1999/02/22-rdf-syntax-ns#"
   xmlns:svg="http://www.w3.org/2000/svg"
   xmlns="http://www.w3.org/2000/svg"
   xmlns:xlink="http://www.w3.org/1999/xlink"
   xmlns:sodipodi="http://sodipodi.sourceforge.net/DTD/sodipodi-0.dtd"
   xmlns:inkscape="http://www.inkscape.org/namespaces/inkscape"
   width="100"
   height="100"
   id="svg2"
   sodipodi:version="0.32"
   inkscape:version="0.45"
   version="1.0"
   sodipodi:docbase="/home/ryx/Documents/scripts/python/screenlets/screenlets-0.0.8/src/share/screenlets/Flower/themes/default"
   sodipodi:docname="flower-dead.svg"
   inkscape:output_extension="org.inkscape.output.svg.inkscape"
   sodipodi:modified="true">
  <defs
     id="defs4">
    <linearGradient
       id="linearGradient3369">
      <stop
         style="stop-color:#552200;stop-opacity:1;"
         offset="0"
         id="stop3371" />
      <stop
         style="stop-color:#9e3f00;stop-opacity:1;"
         offset="1"
         id="stop3373" />
    </linearGradient>
    <linearGradient
       inkscape:collect="always"
       id="linearGradient3192">
      <stop
         style="stop-color:#000000;stop-opacity:1;"
         offset="0"
         id="stop3194" />
      <stop
         style="stop-color:#000000;stop-opacity:0;"
         offset="1"
         id="stop3196" />
    </linearGradient>
    <linearGradient
       inkscape:collect="always"
       id="linearGradient3180">
      <stop
         style="stop-color:#ffffff;stop-opacity:1;"
         offset="0"
         id="stop3182" />
      <stop
         style="stop-color:#ffffff;stop-opacity:0;"
         offset="1"
         id="stop3184" />
    </linearGradient>
    <linearGradient
       id="linearGradient3148">
      <stop
         style="stop-color:#000000;stop-opacity:0;"
         offset="0"
         id="stop3150" />
      <stop
         style="stop-color:#000000;stop-opacity:1;"
         offset="1"
         id="stop3152" />
    </linearGradient>
    <linearGradient
       inkscape:collect="always"
       xlink:href="#linearGradient3192"
       id="linearGradient2247"
       gradientUnits="userSpaceOnUse"
       gradientTransform="matrix(1.0018731,0,0,1.0287744,4.5476887e-2,-5.44003)"
       x1="82.555283"
       y1="85.257988"
       x2="53.808353"
       y2="80.343979" />
    <linearGradient
       inkscape:collect="always"
       xlink:href="#linearGradient3180"
       id="linearGradient2249"
       gradientUnits="userSpaceOnUse"
       gradientTransform="matrix(1.0018731,0,0,1.0497294,4.5476887e-2,-7.095478)"
       x1="32.676598"
       y1="66.9375"
       x2="56.925751"
       y2="84.159706" />
    <linearGradient
       inkscape:collect="always"
       xlink:href="#linearGradient3148"
       id="linearGradient2251"
       gradientUnits="userSpaceOnUse"
       x1="33.652336"
       y1="36.240788"
       x2="35.135136"
       y2="47.051598" />
    <linearGradient
       inkscape:collect="always"
       xlink:href="#linearGradient3369"
       id="linearGradient2253"
       gradientUnits="userSpaceOnUse"
       gradientTransform="translate(0.7371007,-0.4914005)"
       x1="56.495468"
       y1="66.194832"
       x2="42.011978"
       y2="62.755028" />
  </defs>
  <sodipodi:namedview
     id="base"
     pagecolor="#ffffff"
     bordercolor="#666666"
     borderopacity="1.0"
     inkscape:pageopacity="0.0"
     inkscape:pageshadow="2"
     inkscape:zoom="5.6568542"
     inkscape:cx="55.693664"
     inkscape:cy="36.164967"
     inkscape:document-units="px"
     inkscape:current-layer="layer1"
     width="100px"
     height="100px"
     inkscape:window-width="896"
     inkscape:window-height="678"
     inkscape:window-x="274"
     inkscape:window-y="86" />
  <metadata
     id="metadata7">
    <rdf:RDF>
      <cc:Work
         rdf:about="">
        <dc:format>image/svg+xml</dc:format>
        <dc:type
           rdf:resource="http://purl.org/dc/dcmitype/StillImage" />
      </cc:Work>
    </rdf:RDF>
  </metadata>
  <g
     inkscape:label="Ebene 1"
     inkscape:groupmode="layer"
     id="layer1">
    <g
       id="g2238"
       transform="translate(-80,0)">
      <path
         transform="matrix(0.7703349,0,0,0.4815516,13.980226,48.188849)"
         d="M 73.710073 89.680588 A 25.675676 7.1253071 0 1 1  22.358721,89.680588 A 25.675676 7.1253071 0 1 1  73.710073 89.680588 z"
         sodipodi:ry="7.1253071"
         sodipodi:rx="25.675676"
         sodipodi:cy="89.680588"
         sodipodi:cx="48.034397"
         id="path3353"
         style="opacity:1;color:#000000;fill:#000000;fill-opacity:0.33447098;fill-rule:evenodd;stroke:none;stroke-width:2;stroke-linecap:butt;stroke-linejoin:miter;marker:none;marker-start:none;marker-mid:none;marker-end:none;stroke-miterlimit:4;stroke-dasharray:none;stroke-dashoffset:0;stroke-opacity:0.36177476;visibility:visible;display:inline;overflow:visible"
         sodipodi:type="arc" />
      <path
         sodipodi:nodetypes="csccccccsc"
         id="path2160"
         d="M 51.015768,59.019115 C 41.640009,59.019115 34.015235,60.190296 34.015235,61.65535 C 34.015235,61.781254 34.094402,61.919894 34.203086,62.04114 L 34.015235,62.04114 L 37.960111,89.593004 C 47.283816,92.875911 54.797431,92.686724 63.789649,89.593004 L 67.734525,62.298334 L 67.484057,62.298334 C 67.802073,62.095474 67.984993,61.873458 67.984993,61.65535 C 67.984993,60.190293 60.39153,59.019114 51.015768,59.019115 z "
         style="opacity:1;color:#000000;fill:#999999;fill-opacity:1;fill-rule:evenodd;stroke:#525252;stroke-width:1;stroke-linecap:butt;stroke-linejoin:miter;marker:none;marker-start:none;marker-mid:none;marker-end:none;stroke-miterlimit:4;stroke-dasharray:none;stroke-dashoffset:0;stroke-opacity:1;visibility:visible;display:inline;overflow:visible" />
      <path
         sodipodi:nodetypes="csccccccsc"
         id="path3351"
         d="M 51.013829,60.673117 C 42.798979,60.673117 36.118308,61.726775 36.118308,63.044813 C 36.118308,63.158084 36.187671,63.282813 36.2829,63.391891 L 36.118308,63.391891 L 39.574728,88.179008 C 47.74397,91.132486 54.327246,90.962281 62.206046,88.179008 L 65.662465,63.623276 L 65.44301,63.623276 C 65.721649,63.440772 65.88192,63.241036 65.88192,63.044813 C 65.88192,61.726772 59.228682,60.673117 51.013829,60.673117 z "
         style="opacity:1;color:#000000;fill:none;fill-opacity:1;fill-rule:evenodd;stroke:#ffffff;stroke-width:1.80272925;stroke-linecap:butt;stroke-linejoin:miter;marker:none;marker-start:none;marker-mid:none;marker-end:none;stroke-miterlimit:4;stroke-dasharray:none;stroke-dashoffset:0;stroke-opacity:0.36177476;visibility:visible;display:inline;overflow:visible" />
      <path
         sodipodi:nodetypes="csccccccsc"
         id="path3190"
         d="M 51.015768,59.019115 C 41.640009,59.019115 34.015235,60.190296 34.015235,61.65535 C 34.015235,61.781254 34.094402,61.919894 34.203086,62.04114 L 34.015235,62.04114 L 37.960111,89.593004 C 47.283816,92.875911 54.797431,92.686724 63.789649,89.593004 L 67.734525,62.298334 L 67.484057,62.298334 C 67.802073,62.095474 67.984993,61.873458 67.984993,61.65535 C 67.984993,60.190293 60.39153,59.019114 51.015768,59.019115 z "
         style="opacity:1;color:#000000;fill:url(#linearGradient2247);fill-opacity:1;fill-rule:evenodd;stroke:none;stroke-width:1;stroke-linecap:butt;stroke-linejoin:miter;marker:none;marker-start:none;marker-mid:none;marker-end:none;stroke-miterlimit:4;stroke-dasharray:none;stroke-dashoffset:0;stroke-opacity:1;visibility:visible;display:inline;overflow:visible" />
      <path
         id="path3156"
         d="M 36.425992,63.170786 C 36.267898,63.245713 36.155229,63.28946 36.050289,63.36761 C 36.15191,63.293986 36.277401,63.241621 36.425992,63.170786 z M 35.737204,64.154907 L 39.275069,87.642603 C 40.570587,87.977746 41.883001,88.245282 43.188635,88.495508 C 43.822833,79.687413 48.099784,71.790787 54.616249,66.024737 C 53.451623,66.067321 52.26945,66.090345 51.015768,66.090345 C 43.321631,66.090343 36.931613,65.254341 35.893747,64.154907 L 35.737204,64.154907 z "
         style="opacity:1;color:#000000;fill:url(#linearGradient2249);fill-opacity:1;fill-rule:evenodd;stroke:none;stroke-width:2;stroke-linecap:butt;stroke-linejoin:miter;marker:none;marker-start:none;marker-mid:none;marker-end:none;stroke-miterlimit:4;stroke-dasharray:none;stroke-dashoffset:0;stroke-opacity:1;visibility:visible;display:inline;overflow:visible" />
      <path
         transform="matrix(1.0018731,0,0,1.0287744,10.630377,23.122994)"
         d="M 57.248159 37.469288 A 16.953318 2.5798526 0 1 1  23.341524,37.469288 A 16.953318 2.5798526 0 1 1  57.248159 37.469288 z"
         sodipodi:ry="2.5798526"
         sodipodi:rx="16.953318"
         sodipodi:cy="37.469288"
         sodipodi:cx="40.294842"
         id="path2175"
         style="color:#000000;fill:url(#linearGradient2251);fill-opacity:1;fill-rule:evenodd;stroke:#525252;stroke-width:0.98499393;stroke-linecap:butt;stroke-linejoin:miter;marker:none;marker-start:none;marker-mid:none;marker-end:none;stroke-miterlimit:4;stroke-dasharray:none;stroke-dashoffset:0;stroke-opacity:1;visibility:visible;display:inline;overflow:visible"
         sodipodi:type="arc" />
      <path
         id="path3358"
         d="M 49.330851,60.712863 C 44.235088,60.855104 39.889438,61.66604 37.330851,62.810291 C 40.332067,63.417472 45.658072,63.8211 51.737101,63.8211 C 56.72137,63.8211 61.160349,63.571348 64.268351,63.138804 C 64.465538,63.051231 64.685809,62.952334 64.862101,62.860832 C 62.071875,61.554642 56.908127,60.712862 50.987101,60.712863 C 50.43188,60.712862 49.871645,60.697769 49.330851,60.712863 z "
         style="color:#000000;fill:url(#linearGradient2253);fill-opacity:1;fill-rule:evenodd;stroke:none;stroke-width:1;stroke-linecap:butt;stroke-linejoin:miter;marker:none;marker-start:none;marker-mid:none;marker-end:none;stroke-miterlimit:4;stroke-dasharray:none;stroke-dashoffset:0;stroke-opacity:0.30034132;visibility:visible;display:inline;overflow:visible" />
    </g>
    <g
       id="g2248"
       style="fill:#774120;fill-opacity:1;stroke:#643716;stroke-opacity:1">
      <path
         sodipodi:nodetypes="cscscc"
         id="path3384"
         d="M 52.544539,62.407862 C 52.544539,62.407862 42.753119,62.429226 39.17353,59.950859 C 33.651337,56.127508 33.393515,64.933789 33.393515,64.933789 C 33.393515,64.933789 33.375643,57.287086 37.699329,61.67076 C 40.013449,64.018355 48.859035,62.653562 48.859035,62.653562 C 50.087536,62.976473 51.316038,63.378202 52.544539,62.407862 z "
         style="fill:#774120;fill-opacity:1;fill-rule:evenodd;stroke:#643716;stroke-width:1px;stroke-linecap:butt;stroke-linejoin:round;stroke-opacity:1" />
    </g>
    <g
       id="g3239"
       style="fill:#ffe6d5;fill-opacity:0.43003414;stroke:none"
       transform="matrix(0.8423787,0,0,0.8423787,6.6474483,9.7714137)">
      <path
         sodipodi:nodetypes="ccscc"
         id="path3241"
         d="M 38.991234,60.680045 C 36.518402,57.779217 34.974483,59.313539 34.974483,59.313539 C 34.974483,59.313539 35.989465,58.606989 38.501433,61.488464 C 39.467162,62.596251 45.176647,62.76294 45.176647,62.76294 C 39.818074,61.575581 39.63226,61.159661 38.991234,60.680045 z "
         style="fill:#ffe6d5;fill-opacity:0.43003414;fill-rule:evenodd;stroke:none;stroke-width:1px;stroke-linecap:butt;stroke-linejoin:round;stroke-opacity:1" />
    </g>
    <path
       style="fill:#8a4d26;fill-opacity:1;fill-rule:evenodd;stroke:#5f3618;stroke-width:1px;stroke-linecap:butt;stroke-linejoin:round;stroke-opacity:1"
       d="M 49.026621,62.162162 C 49.026621,62.162162 61.77898,63.380446 64.762935,60.209993 C 68.694138,56.033089 68.559478,64.946596 68.559478,64.946596 C 68.559478,64.946596 68.969832,56.48556 65.530029,61.399564 C 63.639659,64.100092 52.712125,62.407862 52.712125,62.407862 C 51.483624,62.730773 50.255122,63.132502 49.026621,62.162162 z "
       id="path2202"
       sodipodi:nodetypes="cscscc" />
    <path
       style="fill:#8a4d26;fill-opacity:1;fill-rule:evenodd;stroke:#603519;stroke-width:1px;stroke-linecap:butt;stroke-linejoin:miter;stroke-opacity:1"
       d="M 48.260038,62.700117 L 50.204582,63.760777 C 50.204582,63.760777 48.260038,66.942758 49.143921,69.947962 C 50.027805,72.953166 52.679455,79.317127 51.795572,81.792 C 50.911688,84.266874 52.149125,91.337942 52.149125,91.337942 C 52.149125,91.337942 52.325902,84.266874 53.386562,82.499107 C 54.447222,80.73134 50.911688,72.776389 51.442018,68.887302 C 51.972348,64.998214 54.447222,63.760777 54.447222,63.760777 L 54.447222,62.700117 C 52.384827,61.424317 50.322433,62.155465 48.260038,62.700117 z "
       id="path6228"
       sodipodi:nodetypes="ccsscssccc" />
  </g>
</svg>
