<?xml version="1.0" encoding="UTF-8" standalone="no"?>
<!-- Created with Inkscape (http://www.inkscape.org/) -->
<svg
   xmlns:dc="http://purl.org/dc/elements/1.1/"
   xmlns:cc="http://web.resource.org/cc/"
   xmlns:rdf="http://www.w3.org/1999/02/22-rdf-syntax-ns#"
   xmlns:svg="http://www.w3.org/2000/svg"
   xmlns="http://www.w3.org/2000/svg"
   xmlns:xlink="http://www.w3.org/1999/xlink"
   xmlns:sodipodi="http://sodipodi.sourceforge.net/DTD/sodipodi-0.dtd"
   xmlns:inkscape="http://www.inkscape.org/namespaces/inkscape"
   width="100"
   height="100"
   id="svg2"
   sodipodi:version="0.32"
   inkscape:version="0.44"
   version="1.0"
   sodipodi:docbase="/home/ryx/Documents/scripts/python/screenlets/clock/themes/time4linux-white"
   sodipodi:docname="clock-marks.svg">
  <defs
     id="defs4">
    <linearGradient
       id="linearGradient5989">
      <stop
         style="stop-color:#ffffff;stop-opacity:1;"
         offset="0"
         id="stop5991" />
      <stop
         id="stop2316"
         offset="0.56465238"
         style="stop-color:#bcbcbc;stop-opacity:1;" />
      <stop
         style="stop-color:#838383;stop-opacity:1;"
         offset="0.83716005"
         id="stop2318" />
      <stop
         style="stop-color:#3a3a3a;stop-opacity:1;"
         offset="1"
         id="stop5993" />
    </linearGradient>
    <radialGradient
       inkscape:collect="always"
       xlink:href="#linearGradient5989"
       id="radialGradient11602"
       gradientUnits="userSpaceOnUse"
       cx="26.926001"
       cy="40.177113"
       fx="26.926001"
       fy="40.177113"
       r="1.2070918" />
    <linearGradient
       id="linearGradient2769">
      <stop
         style="stop-color:white;stop-opacity:1;"
         offset="0"
         id="stop2771" />
      <stop
         style="stop-color:white;stop-opacity:0;"
         offset="1"
         id="stop2773" />
    </linearGradient>
    <linearGradient
       inkscape:collect="always"
       xlink:href="#linearGradient2769"
       id="linearGradient2779"
       gradientUnits="userSpaceOnUse"
       x1="51.696075"
       y1="9.0686274"
       x2="51.422745"
       y2="39.08149" />
  </defs>
  <sodipodi:namedview
     id="base"
     pagecolor="#ffffff"
     bordercolor="#666666"
     borderopacity="1.0"
     inkscape:pageopacity="0.0"
     inkscape:pageshadow="2"
     inkscape:zoom="4.08"
     inkscape:cx="30.392157"
     inkscape:cy="49.877451"
     inkscape:document-units="px"
     inkscape:current-layer="layer1"
     width="100px"
     height="100px"
     inkscape:window-width="989"
     inkscape:window-height="626"
     inkscape:window-x="214"
     inkscape:window-y="97" />
  <metadata
     id="metadata7">
    <rdf:RDF>
      <cc:Work
         rdf:about="">
        <dc:format>image/svg+xml</dc:format>
        <dc:type
           rdf:resource="http://purl.org/dc/dcmitype/StillImage" />
      </cc:Work>
    </rdf:RDF>
  </metadata>
  <g
     inkscape:label="Ebene 1"
     inkscape:groupmode="layer"
     id="layer1">
    <path
       style="font-size:7.96548605px;font-style:normal;font-weight:normal;fill:black;fill-opacity:1;stroke:none;stroke-width:1px;stroke-linecap:butt;stroke-linejoin:miter;stroke-opacity:1;font-family:Bitstream Vera Sans"
       d="M 46.085224,24.5839 L 47.368725,24.5839 L 47.368725,20.153876 L 45.972432,20.433913 L 45.972432,19.718264 L 47.360946,19.438227 L 48.146605,19.438227 L 48.146605,24.5839 L 49.430106,24.5839 L 49.430106,25.245098 L 46.085224,25.245098 L 46.085224,24.5839 M 51.697625,24.5839 L 54.43965,24.5839 L 54.43965,25.245098 L 50.752501,25.245098 L 50.752501,24.5839 C 51.050687,24.275342 51.456481,23.86177 51.969883,23.343182 C 52.485874,22.822006 52.80999,22.486221 52.942232,22.335828 C 53.193743,22.053202 53.368766,21.814653 53.467301,21.620179 C 53.568422,21.42312 53.618984,21.229947 53.618987,21.040659 C 53.618984,20.732105 53.510081,20.480591 53.292278,20.286116 C 53.077062,20.091651 52.795729,19.994416 52.448278,19.994411 C 52.201948,19.994416 51.941359,20.0372 51.66651,20.122761 C 51.394251,20.208333 51.102546,20.33798 50.791395,20.511701 L 50.791395,19.718264 C 51.107732,19.591216 51.403326,19.495278 51.678178,19.430449 C 51.953027,19.365631 52.204541,19.33322 52.432721,19.333214 C 53.034278,19.33322 53.51397,19.483609 53.871798,19.784384 C 54.229618,20.085169 54.408531,20.487073 54.408535,20.990097 C 54.408531,21.228651 54.363154,21.455532 54.272406,21.670741 C 54.184242,21.883365 54.022184,22.134879 53.786231,22.425285 C 53.721404,22.500482 53.515267,22.718288 53.167817,23.078703 C 52.820362,23.43653 52.330298,23.938262 51.697625,24.5839"
       id="text2807" />
    <path
       style="font-size:7.96548605px;font-style:normal;font-weight:normal;fill:black;fill-opacity:1;stroke:none;stroke-width:1px;stroke-linecap:butt;stroke-linejoin:miter;stroke-opacity:1;font-family:Bitstream Vera Sans"
       d="M 79.426639,50.393605 C 79.80261,50.473989 80.095611,50.641233 80.305643,50.895338 C 80.518259,51.149447 80.624569,51.463192 80.624573,51.836572 C 80.624569,52.409611 80.427506,52.853002 80.033385,53.166746 C 79.639256,53.480491 79.079183,53.637363 78.353165,53.637363 C 78.109428,53.637363 77.857914,53.61273 77.598622,53.563464 C 77.341921,53.516792 77.076145,53.445486 76.801296,53.349548 L 76.801296,52.591115 C 77.019101,52.71817 77.25765,52.814108 77.516945,52.87893 C 77.776236,52.943754 78.047197,52.976166 78.329829,52.976165 C 78.822483,52.976166 79.197161,52.878931 79.453865,52.684461 C 79.713154,52.489992 79.842801,52.207363 79.842804,51.836572 C 79.842801,51.494307 79.72223,51.227235 79.48109,51.035356 C 79.242538,50.840889 78.909346,50.743654 78.481515,50.743651 L 77.80476,50.743651 L 77.80476,50.098011 L 78.51263,50.098011 C 78.898975,50.098015 79.194568,50.021523 79.399413,49.868537 C 79.604251,49.712965 79.706672,49.489973 79.706675,49.19956 C 79.706672,48.901378 79.600362,48.6732 79.387745,48.515027 C 79.177714,48.35427 78.875638,48.273889 78.481515,48.273884 C 78.2663,48.273889 78.035529,48.297225 77.789203,48.343893 C 77.542873,48.390571 77.271912,48.463173 76.976318,48.561699 L 76.976318,47.861608 C 77.274505,47.77864 77.553244,47.716409 77.812539,47.674917 C 78.074423,47.633436 78.320751,47.612692 78.551524,47.612686 C 79.147896,47.612692 79.619809,47.748821 79.967265,48.021073 C 80.314714,48.290743 80.48844,48.656346 80.488444,49.117883 C 80.48844,49.439411 80.396391,49.711668 80.212297,49.934657 C 80.028195,50.155059 79.766309,50.308042 79.426639,50.393605"
       id="text2815" />
    <path
       style="font-size:7.96548605px;font-style:normal;font-weight:normal;fill:black;fill-opacity:1;stroke:none;stroke-width:1px;stroke-linecap:butt;stroke-linejoin:miter;stroke-opacity:1;font-family:Bitstream Vera Sans"
       d="M 50.05593,76.888899 C 49.703289,76.888903 49.423252,77.009474 49.21582,77.250613 C 49.010977,77.491759 48.908556,77.822357 48.908558,78.24241 C 48.908556,78.659873 49.010977,78.990472 49.21582,79.234206 C 49.423252,79.475349 49.703289,79.59592 50.05593,79.59592 C 50.408566,79.59592 50.687305,79.475349 50.89215,79.234206 C 51.099581,78.990472 51.203298,78.659873 51.203302,78.24241 C 51.203298,77.822357 51.099581,77.491759 50.89215,77.250613 C 50.687305,77.009474 50.408566,76.888903 50.05593,76.888899 M 51.615578,74.426911 L 51.615578,75.14256 C 51.418511,75.049219 51.218856,74.977914 51.016611,74.928643 C 50.816952,74.879383 50.618593,74.85475 50.421533,74.854744 C 49.902944,74.85475 49.506226,75.029772 49.231378,75.379813 C 48.959118,75.729863 48.803542,76.258821 48.76465,76.966687 C 48.917631,76.741106 49.109508,76.568676 49.340281,76.449397 C 49.571049,76.327533 49.825157,76.2666 50.102603,76.266596 C 50.686009,76.2666 51.146254,76.444215 51.483339,76.799443 C 51.823008,77.152085 51.992845,77.633073 51.99285,78.24241 C 51.992845,78.838785 51.816526,79.317181 51.463892,79.677597 C 51.111249,80.038015 50.641929,80.218223 50.05593,80.218224 C 49.384359,80.218223 48.870959,79.961523 48.515728,79.448123 C 48.160496,78.932131 47.98288,78.185367 47.982881,77.20783 C 47.98288,76.289936 48.200686,75.55873 48.6363,75.01421 C 49.071911,74.467107 49.656616,74.193553 50.390418,74.193547 C 50.587478,74.193553 50.785837,74.213 50.985496,74.251888 C 51.187741,74.290788 51.397768,74.349129 51.615578,74.426911"
       id="text2819" />
    <path
       style="font-size:7.96548605px;font-style:normal;font-weight:normal;fill:black;fill-opacity:1;stroke:none;stroke-width:1px;stroke-linecap:butt;stroke-linejoin:miter;stroke-opacity:1;font-family:Bitstream Vera Sans"
       d="M 20.334385,53.403999 L 20.334385,52.68835 C 20.531447,52.781696 20.731102,52.853002 20.933352,52.902267 C 21.135599,52.951533 21.333958,52.976166 21.52843,52.976165 C 22.047014,52.976166 22.442435,52.80244 22.714696,52.454986 C 22.989543,52.104942 23.146416,51.574688 23.185313,50.864223 C 23.03492,51.087217 22.844339,51.25835 22.613572,51.377623 C 22.382798,51.4969 22.127394,51.556537 21.847361,51.556535 C 21.266542,51.556537 20.806297,51.381515 20.466624,51.031467 C 20.129543,50.678831 19.961002,50.197842 19.961003,49.5885 C 19.961002,48.99213 20.137321,48.513735 20.489961,48.153313 C 20.842598,47.792901 21.311918,47.612692 21.897923,47.612686 C 22.569489,47.612692 23.081592,47.870689 23.434235,48.386676 C 23.789462,48.900081 23.967078,49.646845 23.967082,50.626969 C 23.967078,51.542276 23.749272,52.273482 23.313663,52.82059 C 22.88064,53.365105 22.297231,53.637363 21.563435,53.637363 C 21.36637,53.637363 21.166714,53.617916 20.964467,53.579022 C 20.762217,53.540128 20.55219,53.481787 20.334385,53.403999 M 21.897923,50.942011 C 22.250559,50.942013 22.529298,50.821442 22.734143,50.580297 C 22.941574,50.339157 23.045291,50.008559 23.045295,49.5885 C 23.045291,49.171043 22.941574,48.841741 22.734143,48.600593 C 22.529298,48.356863 22.250559,48.234995 21.897923,48.23499 C 21.545282,48.234995 21.265246,48.356863 21.057813,48.600593 C 20.85297,48.841741 20.750549,49.171043 20.75055,49.5885 C 20.750549,50.008559 20.85297,50.339157 21.057813,50.580297 C 21.265246,50.821442 21.545282,50.942013 21.897923,50.942011"
       id="text2823" />
    <path
       style="opacity:0.5;fill:black;fill-opacity:1;fill-rule:evenodd;stroke:none;stroke-width:0.78075945px;stroke-linecap:round;stroke-linejoin:round;stroke-opacity:1"
       d="M 64.5,24.1875 C 64.41754,24.226212 64.351212,24.29254 64.3125,24.375 L 62.6875,27.21875 C 62.612045,27.396144 62.677361,27.602057 62.84127,27.703525 C 63.00518,27.804993 63.218613,27.771638 63.34375,27.625 L 65,24.75 C 65.095383,24.602621 65.080669,24.409702 64.964039,24.278493 C 64.847408,24.147284 64.657546,24.110054 64.5,24.1875 L 64.5,24.1875 z "
       id="path4859" />
    <path
       style="opacity:0.5;fill:black;fill-opacity:1;fill-rule:evenodd;stroke:none;stroke-width:0.78075945px;stroke-linecap:round;stroke-linejoin:round;stroke-opacity:1"
       d="M 75.34375,34.875 C 75.287743,34.884227 75.234421,34.905556 75.1875,34.9375 L 72.34375,36.59375 C 72.202285,36.653922 72.1093,36.79151 72.106225,36.945209 C 72.103149,37.098909 72.190557,37.240106 72.329502,37.305888 C 72.468447,37.371671 72.633062,37.349792 72.75,37.25 L 75.59375,35.625 C 75.800857,35.555964 75.912786,35.332107 75.84375,35.125 C 75.774714,34.917893 75.550857,34.805964 75.34375,34.875 L 75.34375,34.875 z "
       id="path4871" />
    <path
       style="opacity:0.5;fill:black;fill-opacity:1;fill-rule:evenodd;stroke:none;stroke-width:0.78076011px;stroke-linecap:round;stroke-linejoin:round;stroke-opacity:1"
       d="M 72.4375,62.53125 C 72.286886,62.578792 72.179752,62.712394 72.166069,62.86974 C 72.152387,63.027085 72.234853,63.177175 72.375,63.25 L 75.25,64.90625 C 75.439848,65.009803 75.677697,64.939848 75.78125,64.75 C 75.884803,64.560152 75.814848,64.322303 75.625,64.21875 L 72.78125,62.5625 C 72.677743,62.499247 72.550716,62.487699 72.4375,62.53125 z "
       id="path4883" />
    <path
       style="opacity:0.5;fill:black;fill-opacity:1;fill-rule:evenodd;stroke:none;stroke-width:0.78076053px;stroke-linecap:round;stroke-linejoin:round;stroke-opacity:1"
       d="M 63.0625,72.03125 C 62.925062,72.038464 62.801575,72.117507 62.737475,72.239296 C 62.673376,72.361085 62.678134,72.507626 62.75,72.625 L 64.375,75.5 C 64.487183,75.689848 64.732027,75.752808 64.921875,75.640625 C 65.111723,75.528442 65.174683,75.283598 65.0625,75.09375 L 63.40625,72.25 C 63.341818,72.118333 63.209063,72.033853 63.0625,72.03125 L 63.0625,72.03125 z "
       id="path4889" />
    <path
       style="opacity:0.5;fill:black;fill-opacity:1;fill-rule:evenodd;stroke:none;stroke-width:0.78076082px;stroke-linecap:round;stroke-linejoin:round;stroke-opacity:1"
       d="M 36.96875,72.09375 C 36.874596,72.126076 36.796346,72.193147 36.75,72.28125 L 35.09375,75.125 C 34.981567,75.314848 35.044527,75.559692 35.234375,75.671875 C 35.424223,75.784058 35.669067,75.721098 35.78125,75.53125 L 37.4375,72.6875 C 37.545736,72.545737 37.544138,72.348646 37.43362,72.208656 C 37.323101,72.068665 37.131762,72.02137 36.96875,72.09375 z "
       id="path4901" />
    <path
       style="opacity:0.5;fill:black;fill-opacity:1;fill-rule:evenodd;stroke:none;stroke-width:0.78076053px;stroke-linecap:round;stroke-linejoin:round;stroke-opacity:1"
       d="M 27.46875,62.59375 C 27.434642,62.609941 27.403064,62.630993 27.375,62.65625 L 24.5,64.28125 C 24.463634,64.306927 24.431927,64.338634 24.40625,64.375 C 24.268667,64.519105 24.261663,64.743689 24.389998,64.896087 C 24.518334,65.048485 24.740834,65.079802 24.90625,64.96875 L 27.75,63.3125 C 27.916798,63.215856 27.988092,63.011938 27.917846,62.832419 C 27.847599,62.6529 27.656842,62.551523 27.46875,62.59375 z "
       id="path4907" />
    <path
       style="opacity:0.5;fill:black;fill-opacity:1;fill-rule:evenodd;stroke:none;stroke-width:0.78076082px;stroke-linecap:round;stroke-linejoin:round;stroke-opacity:1"
       d="M 24.59375,34.9375 C 24.412737,34.949185 24.263614,35.084002 24.233794,35.262924 C 24.203973,35.441846 24.301311,35.617739 24.46875,35.6875 L 27.3125,37.3125 C 27.429438,37.412294 27.594054,37.434174 27.733001,37.368392 C 27.871947,37.30261 27.959356,37.161411 27.95628,37.00771 C 27.953204,36.854009 27.860217,36.716421 27.71875,36.65625 L 24.875,35 C 24.792647,34.944072 24.69204,34.921715 24.59375,34.9375 z "
       id="path4919" />
    <path
       style="opacity:0.5;fill:black;fill-opacity:1;fill-rule:evenodd;stroke:none;stroke-width:0.78076053px;stroke-linecap:round;stroke-linejoin:round;stroke-opacity:1"
       d="M 35.25,24.21875 C 35.12935,24.252535 35.032244,24.342171 34.98893,24.459737 C 34.945616,24.577304 34.961357,24.708515 35.03125,24.8125 L 36.6875,27.65625 C 36.747671,27.797716 36.885259,27.890703 37.03896,27.893779 C 37.192661,27.896855 37.333859,27.809446 37.399641,27.6705 C 37.465424,27.531554 37.443544,27.366938 37.34375,27.25 L 35.71875,24.40625 C 35.629364,24.237543 35.431077,24.158228 35.25,24.21875 z "
       id="path4925" />
  </g>
</svg>
