<?xml version="1.0" encoding="UTF-8" standalone="no"?>
<!-- Created with Inkscape (http://www.inkscape.org/) -->
<svg
   xmlns:dc="http://purl.org/dc/elements/1.1/"
   xmlns:cc="http://web.resource.org/cc/"
   xmlns:rdf="http://www.w3.org/1999/02/22-rdf-syntax-ns#"
   xmlns:svg="http://www.w3.org/2000/svg"
   xmlns="http://www.w3.org/2000/svg"
   xmlns:sodipodi="http://sodipodi.sourceforge.net/DTD/sodipodi-0.dtd"
   xmlns:inkscape="http://www.inkscape.org/namespaces/inkscape"
   width="100"
   height="100"
   id="svg2"
   sodipodi:version="0.32"
   inkscape:version="0.44"
   version="1.0"
   sodipodi:docbase="/home/ryx/programs/cairo-clock-0.3.2/themes/osx"
   sodipodi:docname="clock-drop-shadow.svg">
  <defs
     id="defs4">
    <linearGradient
       id="linearGradient2769">
      <stop
         style="stop-color:white;stop-opacity:1;"
         offset="0"
         id="stop2771" />
      <stop
         style="stop-color:white;stop-opacity:0;"
         offset="1"
         id="stop2773" />
    </linearGradient>
  </defs>
  <sodipodi:namedview
     id="base"
     pagecolor="#ffffff"
     bordercolor="#666666"
     borderopacity="1.0"
     inkscape:pageopacity="0.0"
     inkscape:pageshadow="2"
     inkscape:zoom="4.07"
     inkscape:cx="50"
     inkscape:cy="43.44051"
     inkscape:document-units="px"
     inkscape:current-layer="layer3"
     width="100px"
     height="100px"
     inkscape:window-width="989"
     inkscape:window-height="626"
     inkscape:window-x="120"
     inkscape:window-y="194" />
  <metadata
     id="metadata7">
    <rdf:RDF>
      <cc:Work
         rdf:about="">
        <dc:format>image/svg+xml</dc:format>
        <dc:type
           rdf:resource="http://purl.org/dc/dcmitype/StillImage" />
      </cc:Work>
    </rdf:RDF>
  </metadata>
  <g
     inkscape:groupmode="layer"
     id="layer3"
     inkscape:label="face-shadow">
    <g
       id="g4123">
      <path
         style="opacity:0.025;fill:black;fill-opacity:1;stroke:none;stroke-width:4.43092966;stroke-linejoin:miter;stroke-miterlimit:4;stroke-dashoffset:0;stroke-opacity:1"
         d="M 11.59375,6.53125 C 5.1361737,7.2857179 6.5416106,15.537656 6.6875,20 C 6.8977933,43.766656 6.2817664,67.636167 6.96875,91.34375 C 9.5675715,97.7773 18.228122,94.11879 23.375,95.0625 C 46.135779,94.78438 69.041352,95.600582 91.71875,94.6875 C 98.185853,91.63715 94.120734,82.788572 95.25,77.375 C 94.969086,54.936952 95.791881,32.357232 94.875,10 C 91.976127,3.6504105 83.036026,7.5752295 77.75,6.5 C 55.699012,6.5212863 33.639558,6.4577271 11.59375,6.53125 z "
         id="path4125" />
      <path
         style="opacity:0.025;fill:black;fill-opacity:1;stroke:none;stroke-width:4.43092966;stroke-linejoin:miter;stroke-miterlimit:4;stroke-dashoffset:0;stroke-opacity:1"
         d="M 11.71875,6.25 C 5.9780902,6.6439767 5.6356649,13.720962 6.4375,18 C 6.6440962,42.437427 6.0367302,67.183273 6.71875,91.4375 C 9.5405347,98.244545 18.672082,94.278743 24.1875,95.3125 C 46.688687,95.037921 69.417655,95.845836 91.78125,94.9375 C 98.407064,91.982935 94.441906,83.046811 95.5,77.5625 C 95.240166,55.070821 95.999846,32.290457 95.15625,9.96875 C 92.292362,3.3781761 83.216258,7.2833496 77.75,6.25 C 55.752704,6.2500269 33.651584,6.2499641 11.71875,6.25 z "
         id="path4130" />
      <path
         style="opacity:0.025;fill:black;fill-opacity:1;stroke:none;stroke-width:4.43092966;stroke-linejoin:miter;stroke-miterlimit:4;stroke-dashoffset:0;stroke-opacity:1"
         d="M 11.46875,6 C 5.2624978,6.6773865 5.5951699,14.442434 6.15625,19 C 6.3840489,43.14846 5.7132706,67.578561 6.46875,91.5625 C 9.4009295,98.53266 18.720212,94.576846 24.34375,95.59375 C 46.712276,95.388236 69.201615,95.993098 91.5,95.3125 C 98.460815,92.896269 94.977113,83.784508 95.78125,78.40625 C 95.572022,55.682538 96.185619,32.847334 95.5,10.1875 C 93.142173,3.3566385 84.007224,6.6979093 78.75,5.96875 C 56.323477,5.990038 33.89266,5.9264741 11.46875,6 z "
         id="path4135" />
      <path
         style="opacity:0.025;fill:black;fill-opacity:1;stroke:none;stroke-width:4.43092966;stroke-linejoin:miter;stroke-miterlimit:4;stroke-dashoffset:0;stroke-opacity:1"
         d="M 11.46875,5.75 C 5.6261446,6.2440913 5.0523718,13.495648 5.90625,18 C 6.1599955,42.533541 5.4147195,67.198807 6.25,91.65625 C 8.8917657,98.480343 17.916088,95.071922 23.3125,95.84375 C 46.057715,95.638591 68.911869,96.242626 91.59375,95.5625 C 98.667111,93.168464 95.301804,83.85841 96.03125,78.4375 C 95.822848,55.671283 96.434508,32.799235 95.75,10.09375 C 93.380648,3.1582786 84.132777,6.3835266 78.75,5.71875 C 56.323477,5.740038 33.89266,5.6764741 11.46875,5.75 z "
         id="path4140" />
      <path
         style="opacity:0.025;fill:black;fill-opacity:1;stroke:none;stroke-width:4.43092966;stroke-linejoin:miter;stroke-miterlimit:4;stroke-dashoffset:0;stroke-opacity:1"
         d="M 11.59375,5.46875 C 5.5134012,5.892889 4.6883158,13.258065 5.625,18 C 5.8544637,42.517595 5.1797826,67.133437 5.9375,91.59375 C 8.4950471,98.674362 17.763402,95.481718 23.3125,96.125 C 46.07912,95.895883 68.949961,96.569782 91.65625,95.8125 C 98.861983,93.428636 95.670534,83.978777 96.3125,78.4375 C 96.078542,55.650128 96.763842,32.760143 96,10.03125 C 93.618935,2.927599 84.25107,6.0279032 78.75,5.4375 C 56.365492,5.4586751 33.97393,5.3953759 11.59375,5.46875 z "
         id="path4145" />
      <path
         style="opacity:0.025;fill:black;fill-opacity:1;stroke:none;stroke-width:4.43092966;stroke-linejoin:miter;stroke-miterlimit:4;stroke-dashoffset:0;stroke-opacity:1"
         d="M 11.4375,5.21875 C 4.8133043,5.8290965 4.6250855,13.954616 5.375,19 C 5.6468487,43.264335 4.8453957,67.651577 5.75,91.84375 C 8.559447,99.145368 18.35079,95.571166 24.28125,96.375 C 46.757509,96.148551 69.330068,96.816226 91.75,96.0625 C 99.359453,93.543507 95.790074,83.41857 96.5625,77.46875 C 96.33579,54.971763 97.004091,32.377906 96.25,9.9375 C 93.721477,2.4085495 83.690494,5.9492192 77.75,5.1875 C 55.646346,5.2088137 33.538776,5.1451894 11.4375,5.21875 z "
         id="path4150" />
      <path
         style="opacity:0.025;fill:black;fill-opacity:1;stroke:none;stroke-width:4.43092966;stroke-linejoin:miter;stroke-miterlimit:4;stroke-dashoffset:0;stroke-opacity:1"
         d="M 11.5,4.9375 C 5.4270468,5.3875519 4.0655565,12.553804 5.09375,17.526315 C 5.3226837,42.222799 4.649242,67.016455 5.40625,91.65625 C 7.6824202,98.78813 16.818215,96.345339 22.381578,96.65625 C 45.519861,96.405794 68.771534,97.143433 91.84375,96.3125 C 98.984749,94.065493 96.524791,84.915825 96.84375,79.368422 C 96.593176,56.219257 97.331098,32.960092 96.5,9.875 C 94.463285,3.1335765 85.828423,4.9989694 80.539474,4.90625 C 57.526934,4.9275015 34.50964,4.8640232 11.5,4.9375 z "
         id="path4155" />
      <path
         style="opacity:0.025;fill:black;fill-opacity:1;stroke:none;stroke-width:4.43092966;stroke-linejoin:miter;stroke-miterlimit:4;stroke-dashoffset:0;stroke-opacity:1"
         d="M 11.4375,4.6875 C 6.3252842,5.0234062 3.8380931,10.659104 4.84375,15.289473 C 4.9504744,40.542618 4.6319756,65.830967 5,91.0625 C 5.7330832,95.751064 11.195851,97.756025 15.539473,96.90625 C 40.884933,96.75639 66.276394,97.203363 91.59375,96.6875 C 96.810614,95.488309 97.796392,89.420656 97.09375,84.894737 C 96.942325,59.987735 97.392975,35.036334 96.875,10.15625 C 95.786065,5.2957276 90.191575,3.8702637 85.802632,4.65625 C 61.01475,4.6772329 36.223011,4.6143832 11.4375,4.6875 z "
         id="path4160" />
      <path
         style="opacity:0.025;fill:black;fill-opacity:1;stroke:none;stroke-width:4.43092966;stroke-linejoin:miter;stroke-miterlimit:4;stroke-dashoffset:0;stroke-opacity:1"
         d="M 11.03125,4.46875 C 6.7760798,4.9704343 3.9034692,9.4046799 4.59375,13.578947 C 4.6357648,39.279451 4.509949,65.081183 4.65625,90.71875 C 5.2281341,95.211855 9.8308865,97.850663 14.192434,97.15625 C 39.762183,97.114389 65.426101,97.239847 90.9375,97.09375 C 95.44935,96.451771 98.009991,91.907391 97.34375,87.557566 C 97.301796,61.987901 97.427471,36.323786 97.28125,10.8125 C 96.588119,6.1108709 91.920956,3.6623726 87.381579,4.40625 C 61.944474,4.4482664 36.404768,4.3224503 11.03125,4.46875 z "
         id="path4165" />
      <path
         style="opacity:0.025;fill:black;fill-opacity:1;stroke:none;stroke-width:4.43092966;stroke-linejoin:miter;stroke-miterlimit:4;stroke-dashoffset:0;stroke-opacity:1"
         d="M 11.375,4.15625 C 9.2405058,4.4131606 7.3188649,5.4214086 6.0007097,7.0930403 C 4.7478213,8.6443399 4.1493919,10.853328 4.3125,12.921052 C 4.3197903,38.647174 4.2979231,64.37451 4.323427,90.099874 C 4.5604395,94.316501 8.3598271,97.661061 12.582237,97.4375 C 38.392027,97.424043 64.203884,97.464414 90.012383,97.417317 C 92.674504,97.377156 95.15115,95.828282 96.46875,93.65625 C 98.083036,91.185001 97.526934,88.1344 97.625,85.351976 C 97.612499,60.814044 97.650002,36.274329 97.606251,11.737511 C 97.545438,9.1789023 96.204992,6.8749965 94.15625,5.4375 C 92.698433,4.499054 90.774871,3.9822878 88.960527,4.125 C 63.146899,4.1384687 37.331203,4.0980714 11.518867,4.1451833 L 11.387676,4.1552749 L 11.375,4.15625 z "
         id="path4170" />
      <path
         style="opacity:0.025;fill:black;fill-opacity:1;stroke:none;stroke-width:4.43092966;stroke-linejoin:miter;stroke-miterlimit:4;stroke-dashoffset:0;stroke-opacity:1"
         d="M 11.34375,3.90625 C 7.3950387,4.2280097 4.1122392,7.7254487 4.0625,11.694079 C 4.0759683,37.872838 4.0355718,64.053666 4.0826833,90.231133 C 4.3223464,94.245747 7.8848336,97.643884 11.912441,97.666342 C 37.616556,97.715717 63.324192,97.67339 89.02966,97.6875 C 91.376173,97.816469 93.755402,97.051601 95.415437,95.387667 C 97.162133,93.731081 98.002276,91.309505 97.875,88.904605 C 97.862499,63.182463 97.900001,37.458538 97.856251,11.737511 C 97.840098,7.7619917 94.544736,4.2336669 90.59375,3.90625 C 78.472793,3.8331593 66.346618,3.895962 54.223659,3.875 C 39.945281,3.8938101 25.664221,3.8374194 11.387516,3.9031239 L 11.34375,3.90625 z "
         id="path4175" />
      <path
         style="opacity:0.025;fill:black;fill-opacity:1;stroke:none;stroke-width:4.43092966;stroke-linejoin:miter;stroke-miterlimit:4;stroke-dashoffset:0;stroke-opacity:1"
         d="M 11.3125,3.625 C 6.1949702,4.132135 3.079565,8.9868071 3.78125,13.973685 C 3.8232386,39.456833 3.6974852,64.977951 3.84375,90.4375 C 4.2589462,95.516068 9.263951,98.668275 14.161185,97.96875 C 39.772901,97.905677 65.394292,98.094522 91,97.875 C 95.826846,97.226114 98.864827,92.299425 98.15625,87.588815 C 98.093182,61.977104 98.282015,36.355679 98.0625,10.75 C 97.431973,5.8972434 92.563267,2.8989467 87.776315,3.59375 C 62.288769,3.6147354 36.79818,3.5518795 11.3125,3.625 z "
         id="path4180" />
      <path
         style="opacity:0.025;fill:black;fill-opacity:1;stroke:none;stroke-width:4.43092966;stroke-linejoin:miter;stroke-miterlimit:4;stroke-dashoffset:0;stroke-opacity:1"
         d="M 11.3125,3.375 C 5.9327078,3.7380798 2.5003616,9.4543084 3.53125,14.631579 C 3.6390621,40.187895 3.3180051,65.774867 3.6875,91.3125 C 4.6337747,96.630421 10.435313,99.114222 15.476974,98.21875 C 40.8207,98.089459 66.223271,98.47455 91.53125,98.03125 C 97.15742,97.028047 99.359997,90.758322 98.40625,85.615131 C 98.277535,60.490666 98.661267,35.30746 98.21875,10.21875 C 97.267085,4.6242642 90.958502,2.352978 85.802631,3.34375 C 60.972981,3.3647525 36.140284,3.3018568 11.3125,3.375 z "
         id="path4185" />
      <path
         style="opacity:0.025;fill:black;fill-opacity:1;stroke:none;stroke-width:4.43092966;stroke-linejoin:miter;stroke-miterlimit:4;stroke-dashoffset:0;stroke-opacity:1"
         d="M 11.28125,3.125 C 4.7438466,3.5554942 1.9953026,10.881549 3.28125,16.605264 C 3.4679389,41.654778 2.9208542,66.768776 3.53125,91.78125 C 4.8826479,97.948504 12.212744,99.486937 17.713817,98.46875 C 42.472469,98.260676 67.328387,98.871626 92.03125,98.1875 C 98.654178,96.659789 99.537347,88.773443 98.65625,83.115131 C 98.447828,58.663554 99.059602,34.114495 98.375,9.71875 C 96.993546,3.5351093 89.696566,2.1029324 84.223683,3.09375 C 59.90995,3.1152098 35.593111,3.0512435 11.28125,3.125 z "
         id="path4190" />
      <path
         style="opacity:0.025;fill:black;fill-opacity:1;stroke:none;stroke-width:4.43092966;stroke-linejoin:miter;stroke-miterlimit:4;stroke-dashoffset:0;stroke-opacity:1"
         d="M 11.25,2.84375 C 4.4152477,3.3753718 1.6965017,10.93925 3,17 C 3.2092832,41.935879 2.5955344,66.95736 3.28125,91.84375 C 4.8264924,98.801561 13.207982,99.701829 19.1875,98.75 C 43.485318,98.517069 67.886082,99.200022 92.125,98.4375 C 99.072768,96.782356 99.821462,88.445388 98.9375,82.5625 C 98.704875,58.277501 99.387098,33.872857 98.625,9.65625 C 97.093009,2.7639813 88.687013,1.8522298 82.75,2.8125 C 58.917079,2.833978 35.081048,2.7699689 11.25,2.84375 z "
         id="path4195" />
      <path
         style="opacity:0.025;fill:black;fill-opacity:1;stroke:none;stroke-width:4.43092966;stroke-linejoin:miter;stroke-miterlimit:4;stroke-dashoffset:0;stroke-opacity:1"
         d="M 11.25,2.59375 C 4.3318033,3.0233706 1.3249876,10.903919 2.75,17 C 2.9618625,41.953896 2.3420552,67.011458 3.03125,91.90625 C 4.4455021,98.528245 12.390464,100.08026 18.1875,99 C 42.84978,98.766728 67.615413,99.450487 92.21875,98.6875 C 99.28294,96.996683 100.10321,88.545228 99.1875,82.5625 C 98.949601,58.244532 99.644258,33.821303 98.875,9.5625 C 97.39048,2.9814019 89.552152,1.4923259 83.75,2.5625 C 59.583744,2.5839516 35.414383,2.5200044 11.25,2.59375 z "
         id="path4200" />
      <path
         style="opacity:0.025;fill:black;fill-opacity:1;stroke:none;stroke-width:4.43092966;stroke-linejoin:miter;stroke-miterlimit:4;stroke-dashoffset:0;stroke-opacity:1"
         d="M 11.21875,2.3125 C 4.1795668,2.8041522 1.032177,10.772429 2.46875,17 C 2.7033998,41.971812 2.0164709,67.068502 2.78125,91.96875 C 4.2434361,98.728001 12.283159,100.37721 18.1875,99.28125 C 42.867583,99.024642 67.672612,99.776824 92.28125,98.9375 C 99.453529,97.226262 100.42323,88.657898 99.46875,82.5625 C 99.208237,58.231571 99.9696,33.740306 99.125,9.5 C 97.629649,2.8286333 89.642774,1.1677482 83.75,2.28125 C 59.573328,2.3027186 35.393549,2.2387314 11.21875,2.3125 z "
         id="path4205" />
      <path
         style="opacity:0.025;fill:black;fill-opacity:1;stroke:none;stroke-width:4.43092966;stroke-linejoin:miter;stroke-miterlimit:4;stroke-dashoffset:0;stroke-opacity:1"
         d="M 11.21875,2.0625 C 4.5477578,2.4867072 0.83778705,9.8463013 2.21875,16 C 2.4520744,41.327007 1.768249,66.771872 2.53125,92.03125 C 4.007842,98.897685 12.13723,100.65143 18.1875,99.53125 C 42.900645,99.27401 67.725517,100.0277 92.375,99.1875 C 99.624293,97.435291 100.71686,88.80121 99.71875,82.5625 C 99.456137,58.193741 100.22249,33.711097 99.375,9.40625 C 97.817934,2.6324191 89.769315,0.89786252 83.75,2.03125 C 59.573328,2.0527186 35.393549,1.9887314 11.21875,2.0625 z "
         id="path4210" />
      <path
         style="opacity:0.025;fill:black;fill-opacity:1;stroke:none;stroke-width:4.43092966;stroke-linejoin:miter;stroke-miterlimit:4;stroke-dashoffset:0;stroke-opacity:1"
         d="M 11.625,1.78125 C 4.6103553,1.8874885 0.49395714,9.5821802 1.9375,16 C 2.1951487,41.335674 1.4405998,66.873354 2.28125,92.09375 C 3.7732736,99.110595 12.035659,100.9285 18.1875,99.8125 C 42.930387,99.533793 67.797918,100.35151 92.46875,99.4375 C 99.84162,97.647727 101.00008,88.878024 100,82.5625 C 99.717516,58.175283 100.54411,33.654788 99.625,9.34375 C 98.104334,2.4943976 89.877485,0.57601893 83.75,1.75 C 59.71086,1.7710402 35.651821,1.7080567 11.625,1.78125 z "
         id="path4215" />
      <path
         style="opacity:0.025;fill:black;fill-opacity:1;stroke:none;stroke-width:4.43092966;stroke-linejoin:miter;stroke-miterlimit:4;stroke-dashoffset:0;stroke-opacity:1"
         d="M 11.15625,1.53125 C 3.7195526,2.0290621 0.16922626,10.356729 1.6875,17 C 1.923082,42.037486 1.2339199,67.177017 2,92.15625 C 3.5662425,99.262343 11.879027,101.24594 18.1875,100.0625 C 42.922544,99.805581 67.762172,100.55853 92.4375,99.71875 C 99.509803,98.078431 101.37783,89.832879 100.25,83.5625 C 99.990137,58.840205 100.74999,33.99834 99.90625,9.34375 C 98.340632,2.2960521 90.035941,0.28829731 83.75,1.5 C 59.552496,1.5214916 35.351881,1.4574502 11.15625,1.53125 z "
         id="path4220" />
    </g>
  </g>
</svg>
