<?xml version="1.0" encoding="UTF-8" standalone="no"?>
<!-- Created with Inkscape (http://www.inkscape.org/) -->
<svg
   xmlns:dc="http://purl.org/dc/elements/1.1/"
   xmlns:cc="http://web.resource.org/cc/"
   xmlns:rdf="http://www.w3.org/1999/02/22-rdf-syntax-ns#"
   xmlns:svg="http://www.w3.org/2000/svg"
   xmlns="http://www.w3.org/2000/svg"
   xmlns:sodipodi="http://sodipodi.sourceforge.net/DTD/sodipodi-0.dtd"
   xmlns:inkscape="http://www.inkscape.org/namespaces/inkscape"
   width="100"
   height="100"
   id="svg2"
   sodipodi:version="0.32"
   inkscape:version="0.44"
   version="1.0"
   sodipodi:docbase="/home/ryx/programs/cairo-clock-0.3.2/themes/osx"
   sodipodi:docname="clock-frame.svg">
  <defs
     id="defs4">
    <linearGradient
       id="linearGradient2202">
      <stop
         style="stop-color:#cfd3d3;stop-opacity:1;"
         offset="0"
         id="stop2204" />
      <stop
         style="stop-color:#f7fcf9;stop-opacity:1;"
         offset="1"
         id="stop2206" />
    </linearGradient>
  </defs>
  <sodipodi:namedview
     id="base"
     pagecolor="#ffffff"
     bordercolor="#666666"
     borderopacity="1.0"
     inkscape:pageopacity="0.0"
     inkscape:pageshadow="2"
     inkscape:zoom="4.08"
     inkscape:cx="74.817671"
     inkscape:cy="49.877451"
     inkscape:document-units="px"
     inkscape:current-layer="layer1"
     showguides="true"
     inkscape:guide-bbox="true"
     inkscape:window-width="989"
     inkscape:window-height="626"
     inkscape:window-x="48"
     inkscape:window-y="139">
    <sodipodi:guide
       orientation="horizontal"
       position="50"
       id="guide1307" />
    <sodipodi:guide
       orientation="vertical"
       position="50"
       id="guide1309" />
    <sodipodi:guide
       orientation="horizontal"
       position="100"
       id="guide1311" />
    <sodipodi:guide
       orientation="vertical"
       position="0"
       id="guide1313" />
    <sodipodi:guide
       orientation="vertical"
       position="100"
       id="guide1315" />
    <sodipodi:guide
       orientation="horizontal"
       position="0"
       id="guide1317" />
    <sodipodi:guide
       orientation="horizontal"
       position="90.060241"
       id="guide1319" />
    <sodipodi:guide
       orientation="vertical"
       position="10.040161"
       id="guide1321" />
    <sodipodi:guide
       orientation="vertical"
       position="90.060241"
       id="guide1323" />
    <sodipodi:guide
       orientation="horizontal"
       position="10.040161"
       id="guide1325" />
  </sodipodi:namedview>
  <metadata
     id="metadata7">
    <rdf:RDF>
      <cc:Work
         rdf:about="">
        <dc:format>image/svg+xml</dc:format>
        <dc:type
           rdf:resource="http://purl.org/dc/dcmitype/StillImage" />
      </cc:Work>
    </rdf:RDF>
  </metadata>
  <g
     inkscape:label="Ebene 1"
     inkscape:groupmode="layer"
     id="layer1">
    <path
       style="opacity:1;fill:black;fill-opacity:1;stroke:none;stroke-width:2;stroke-linejoin:miter;stroke-miterlimit:4;stroke-dasharray:none;stroke-dashoffset:0;stroke-opacity:1"
       d="M 12.40625 4.40625 C 7.97425 4.40625 4.40625 7.9742505 4.40625 12.40625 L 4.40625 87.84375 C 4.40625 92.27575 7.97425 95.843749 12.40625 95.84375 L 88.3125 95.84375 C 92.7445 95.84375 96.3125 92.275749 96.3125 87.84375 L 96.3125 12.40625 C 96.3125 7.97425 92.7445 4.40625 88.3125 4.40625 L 12.40625 4.40625 z M 50.1875 14.3125 C 70.021952 14.3125 86.125 30.415546 86.125 50.25 C 86.125004 70.084453 70.021954 86.1875 50.1875 86.1875 C 30.353045 86.1875 14.25 70.084454 14.25 50.25 C 14.25 30.415545 30.353046 14.3125 50.1875 14.3125 z "
       id="rect2783" />
    <path
       style="font-size:4.2965374px;font-style:normal;font-weight:normal;fill:red;fill-opacity:1;stroke:none;stroke-width:1px;stroke-linecap:butt;stroke-linejoin:miter;stroke-opacity:1;font-family:Bitstream Vera Sans"
       d="M 51.1875 90 L 49.65625 91.65625 L 49.65625 92 L 51.3125 92 L 51.3125 92.625 L 51.8125 92.625 L 51.8125 92 L 52.34375 92 L 52.34375 91.71875 L 51.8125 91.71875 L 51.8125 90 L 51.1875 90 z M 51.3125 90.3125 L 51.3125 91.71875 L 50.0625 91.71875 L 51.3125 90.3125 z "
       id="path1899" />
    <path
       style="fill:#555;fill-opacity:1;stroke:none;stroke-width:4.43092966;stroke-linejoin:miter;stroke-miterlimit:4;stroke-dasharray:none;stroke-dashoffset:0;stroke-opacity:1;opacity:0.91438356"
       d="M 12.625 4.4375 C 8.1930002 4.4374999 4.625 8.3028626 4.625 13.09375 L 4.625 50.25 C 4.6672047 50.249296 4.7076353 50.25 4.75 50.25 L 14.25 50.25 C 14.25 30.415545 30.353046 14.3125 50.1875 14.3125 C 70.021952 14.3125 86.125 30.415546 86.125 50.25 L 96.25 50.25 L 96.25 13.09375 C 96.250003 8.3028626 92.682002 4.4375 88.25 4.4375 L 12.625 4.4375 z "
       id="rect2760" />
    <path
       style="font-size:4.2965374px;font-style:normal;font-weight:normal;fill:white;fill-opacity:1;stroke:none;stroke-width:1px;stroke-linecap:butt;stroke-linejoin:miter;stroke-opacity:1;font-family:Bitstream Vera Sans"
       d="M 37.13501,89.99737 L 40.279519,89.99737 L 40.279519,90.297896 L 38.959971,90.297896 L 38.959971,92.636663 L 38.454558,92.636663 L 38.454558,90.297896 L 37.13501,90.297896 L 37.13501,89.99737"
       id="path1909" />
    <path
       style="font-size:4.2965374px;font-style:normal;font-weight:normal;fill:white;fill-opacity:1;stroke:none;stroke-width:1px;stroke-linecap:butt;stroke-linejoin:miter;stroke-opacity:1;font-family:Bitstream Vera Sans"
       d="M 40.767503,89.99737 L 41.270424,89.99737 L 41.270424,92.636663 L 40.767503,92.636663 L 40.767503,89.99737"
       id="path1907" />
    <path
       style="font-size:4.2965374px;font-style:normal;font-weight:normal;fill:white;fill-opacity:1;stroke:none;stroke-width:1px;stroke-linecap:butt;stroke-linejoin:miter;stroke-opacity:1;font-family:Bitstream Vera Sans"
       d="M 42.271289,89.99737 L 43.020693,89.99737 L 43.969274,91.79343 L 44.922834,89.99737 L 45.672237,89.99737 L 45.672237,92.636663 L 45.181764,92.636663 L 45.181764,90.319105 L 44.223225,92.129312 L 43.717812,92.129312 L 42.759274,90.319105 L 42.759274,92.636663 L 42.271289,92.636663 L 42.271289,89.99737"
       id="path1905" />
    <path
       style="font-size:4.2965374px;font-style:normal;font-weight:normal;fill:white;fill-opacity:1;stroke:none;stroke-width:1px;stroke-linecap:butt;stroke-linejoin:miter;stroke-opacity:1;font-family:Bitstream Vera Sans"
       d="M 46.673103,89.99737 L 49.023392,89.99737 L 49.023392,90.297896 L 47.176024,90.297896 L 47.176024,91.079254 L 48.94621,91.079254 L 48.94621,91.379772 L 47.176024,91.379772 L 47.176024,92.336146 L 49.068207,92.336146 L 49.068207,92.636663 L 46.673103,92.636663 L 46.673103,89.99737"
       id="path1903" />
    <path
       style="font-size:4.2965374px;font-style:normal;font-weight:normal;fill:white;fill-opacity:1;stroke:none;stroke-width:1px;stroke-linecap:butt;stroke-linejoin:miter;stroke-opacity:1;font-family:Bitstream Vera Sans"
       d="M 53.146357,89.99737 L 53.64928,89.99737 L 53.64928,92.336146 L 55.459301,92.336146 L 55.459301,92.636663 L 53.146357,92.636663 L 53.146357,89.99737"
       id="path1897" />
    <path
       style="opacity:1;fill:black;fill-opacity:1;stroke:none;stroke-width:2;stroke-linejoin:miter;stroke-miterlimit:4;stroke-dasharray:none;stroke-dashoffset:0;stroke-opacity:1"
       d="M 12.40625,3.40625 C 7.43755,3.40625 3.40625,7.4375477 3.40625,12.40625 L 3.40625,87.84375 C 3.40625,92.812453 7.43755,96.843749 12.40625,96.84375 L 88.3125,96.84375 C 93.2812,96.84375 97.3125,92.812452 97.3125,87.84375 L 97.3125,12.40625 C 97.3125,7.4375472 93.2812,3.40625 88.3125,3.40625 L 12.40625,3.40625 z M 12.40625,5.40625 L 88.3125,5.40625 C 92.2078,5.40625 95.3125,8.5109528 95.3125,12.40625 L 95.3125,87.84375 C 95.3125,91.739046 92.2078,94.84375 88.3125,94.84375 L 12.40625,94.84375 C 8.51095,94.843749 5.40625,91.739047 5.40625,87.84375 L 5.40625,12.40625 C 5.40625,8.5109533 8.51095,5.40625 12.40625,5.40625 z "
       id="path2809"
       sodipodi:nodetypes="cccccccccccccccccc" />
    <path
       style="font-size:4.2965374px;font-style:normal;font-weight:normal;fill:white;fill-opacity:1;stroke:none;stroke-width:1px;stroke-linecap:butt;stroke-linejoin:miter;stroke-opacity:1;font-family:Bitstream Vera Sans"
       d="M 55.98463,89.99737 L 56.487552,89.99737 L 56.487552,92.636663 L 55.98463,92.636663 L 55.98463,89.99737"
       id="path1895" />
    <path
       style="font-size:4.2965374px;font-style:normal;font-weight:normal;fill:white;fill-opacity:1;stroke:none;stroke-width:1px;stroke-linecap:butt;stroke-linejoin:miter;stroke-opacity:1;font-family:Bitstream Vera Sans"
       d="M 57.488417,89.99737 L 58.165619,89.99737 L 59.813809,92.205326 L 59.813809,89.99737 L 60.301793,89.99737 L 60.301793,92.636663 L 59.624591,92.636663 L 57.976401,90.428706 L 57.976401,92.636663 L 57.488417,92.636663 L 57.488417,89.99737"
       id="path1893" />
    <path
       style="font-size:4.2965374px;font-style:normal;font-weight:normal;fill:white;fill-opacity:1;stroke:none;stroke-width:1px;stroke-linecap:butt;stroke-linejoin:miter;stroke-opacity:1;font-family:Bitstream Vera Sans"
       d="M 61.245395,89.99737 L 61.750806,89.99737 L 61.750806,91.600744 C 61.750805,91.883592 61.823007,92.087476 61.967412,92.212396 C 62.111813,92.336146 62.345847,92.398012 62.669511,92.398012 C 62.991511,92.398012 63.224715,92.336146 63.36912,92.212396 C 63.513521,92.087476 63.585723,91.883592 63.585725,91.600744 L 63.585725,89.99737 L 64.091138,89.99737 L 64.091138,91.64494 C 64.091134,91.989073 63.970798,92.248933 63.730129,92.42453 C 63.491114,92.600135 63.137575,92.687929 62.669511,92.687929 C 62.199784,92.687929 61.844585,92.600135 61.603914,92.42453 C 61.3649,92.248933 61.245394,91.989073 61.245395,91.64494 L 61.245395,89.99737"
       id="path1891" />
    <path
       style="font-size:4.2965374px;font-style:normal;font-weight:normal;fill:white;fill-opacity:1;stroke:none;stroke-width:1px;stroke-linecap:butt;stroke-linejoin:miter;stroke-opacity:1;font-family:Bitstream Vera Sans"
       d="M 64.857968,89.99737 L 65.398236,89.99737 L 66.321919,90.978484 L 67.250583,89.99737 L 67.79085,89.99737 L 66.595788,91.26487 L 67.870522,92.636663 L 67.330253,92.636663 L 66.284573,91.514121 L 65.231425,92.636663 L 64.688668,92.636663 L 66.015685,91.227743 L 64.857968,89.99737"
       id="text2831" />
  </g>
</svg>
