<?xml version="1.0" encoding="UTF-8" standalone="no"?>
<!-- Created with Inkscape (http://www.inkscape.org/) -->
<svg
   xmlns:dc="http://purl.org/dc/elements/1.1/"
   xmlns:cc="http://web.resource.org/cc/"
   xmlns:rdf="http://www.w3.org/1999/02/22-rdf-syntax-ns#"
   xmlns:svg="http://www.w3.org/2000/svg"
   xmlns="http://www.w3.org/2000/svg"
   xmlns:sodipodi="http://sodipodi.sourceforge.net/DTD/sodipodi-0.dtd"
   xmlns:inkscape="http://www.inkscape.org/namespaces/inkscape"
   width="100"
   height="100"
   id="svg2"
   sodipodi:version="0.32"
   inkscape:version="0.44"
   version="1.0"
   sodipodi:docbase="/home/ryx/Documents/scripts/python/screenlets/current/screenlets/clock/themes/berlin-city"
   sodipodi:docname="clock-marks.svg">
  <defs
     id="defs4">
    <linearGradient
       id="linearGradient5989">
      <stop
         style="stop-color:#ffffff;stop-opacity:1;"
         offset="0"
         id="stop5991" />
      <stop
         id="stop2316"
         offset="0.56465238"
         style="stop-color:#bcbcbc;stop-opacity:1;" />
      <stop
         style="stop-color:#838383;stop-opacity:1;"
         offset="0.83716005"
         id="stop2318" />
      <stop
         style="stop-color:#3a3a3a;stop-opacity:1;"
         offset="1"
         id="stop5993" />
    </linearGradient>
    <linearGradient
       id="linearGradient3287">
      <stop
         style="stop-color:#ffffff;stop-opacity:1;"
         offset="0"
         id="stop3289" />
      <stop
         style="stop-color:#7f7f7f;stop-opacity:1;"
         offset="1"
         id="stop3291" />
    </linearGradient>
    <linearGradient
       id="linearGradient2202">
      <stop
         style="stop-color:#a5adad;stop-opacity:1;"
         offset="0"
         id="stop2204" />
      <stop
         style="stop-color:#e8f4ed;stop-opacity:1;"
         offset="1"
         id="stop2206" />
    </linearGradient>
    <linearGradient
       id="linearGradient1529">
      <stop
         id="stop1531"
         offset="0"
         style="stop-color:#a5adad;stop-opacity:1;" />
      <stop
         id="stop1533"
         offset="1"
         style="stop-color:#e8f4ed;stop-opacity:1;" />
    </linearGradient>
  </defs>
  <sodipodi:namedview
     id="base"
     pagecolor="#ffffff"
     bordercolor="#666666"
     borderopacity="1.0"
     inkscape:pageopacity="0.0"
     inkscape:pageshadow="2"
     inkscape:zoom="4.07"
     inkscape:cx="50.425566"
     inkscape:cy="44.016152"
     inkscape:document-units="px"
     inkscape:current-layer="layer2"
     showguides="true"
     inkscape:guide-bbox="true"
     inkscape:window-width="989"
     inkscape:window-height="624"
     inkscape:window-x="158"
     inkscape:window-y="212">
    <sodipodi:guide
       orientation="horizontal"
       position="50"
       id="guide1307" />
    <sodipodi:guide
       orientation="vertical"
       position="50"
       id="guide1309" />
    <sodipodi:guide
       orientation="horizontal"
       position="100"
       id="guide1311" />
    <sodipodi:guide
       orientation="vertical"
       position="0"
       id="guide1313" />
    <sodipodi:guide
       orientation="vertical"
       position="100"
       id="guide1315" />
    <sodipodi:guide
       orientation="horizontal"
       position="0"
       id="guide1317" />
    <sodipodi:guide
       orientation="horizontal"
       position="90.060241"
       id="guide1319" />
    <sodipodi:guide
       orientation="vertical"
       position="10.040161"
       id="guide1321" />
    <sodipodi:guide
       orientation="vertical"
       position="90.060241"
       id="guide1323" />
    <sodipodi:guide
       orientation="horizontal"
       position="10.040161"
       id="guide1325" />
  </sodipodi:namedview>
  <metadata
     id="metadata7">
    <rdf:RDF>
      <cc:Work
         rdf:about="">
        <dc:format>image/svg+xml</dc:format>
        <dc:type
           rdf:resource="http://purl.org/dc/dcmitype/StillImage" />
      </cc:Work>
    </rdf:RDF>
  </metadata>
  <g
     inkscape:label="Ebene 1"
     inkscape:groupmode="layer"
     id="layer1" />
  <g
     inkscape:groupmode="layer"
     id="layer2"
     inkscape:label="tmp">
    <g
       id="g1896"
       transform="translate(0,-0.2457)">
      <path
         id="rect2253"
         d="M 49,10.1832 L 49,16.0582 L 50.125,16.08945 L 51,16.0582 L 51,10.1832 L 49,10.1832 z M 30.875,15.02695 L 29.125,16.02695 L 32.09375,21.1832 L 33.09375,20.65195 L 33.84375,20.1832 L 30.875,15.02695 z M 69.125,15.02695 L 66.21875,20.08945 L 67.125,20.65195 L 67.9375,21.08945 L 70.875,16.02695 L 69.125,15.02695 z M 15.84375,29.3082 L 14.84375,31.02695 L 20.09375,34.0582 L 20.65625,33.1207 L 21.09375,32.33945 L 15.84375,29.3082 z M 84.15625,29.3082 L 79.09375,32.21445 L 79.59375,33.1207 L 80.09375,33.9332 L 85.15625,31.02695 L 84.15625,29.3082 z M 10,49.1832 L 10,51.1832 L 16.0625,51.1832 L 16.09375,50.1207 L 16.0625,49.1832 L 10,49.1832 z M 84.1875,49.1832 L 84.15625,50.1207 L 84.1875,51.1832 L 90,51.1832 L 90,49.1832 L 84.1875,49.1832 z M 20.125,66.27695 L 14.84375,69.3082 L 15.84375,71.02695 L 21.125,67.9957 L 20.65625,67.15195 L 20.125,66.27695 z M 80.0625,66.3707 L 79.59375,67.15195 L 79.0625,68.08945 L 84.15625,71.02695 L 85.15625,69.3082 L 80.0625,66.3707 z M 32.15625,79.0582 L 29.125,84.3082 L 30.875,85.3082 L 33.90625,80.08945 L 33.09375,79.58945 L 32.15625,79.0582 z M 67.90625,79.15195 L 67.125,79.58945 L 66.15625,80.1832 L 69.125,85.3082 L 70.875,84.3082 L 67.90625,79.15195 z M 50.125,84.15195 L 49,84.1832 L 49,90.1832 L 51,90.1832 L 51,84.1832 L 50.125,84.15195 z "
         style="opacity:1;fill:black;fill-opacity:1;stroke:none;stroke-width:3.55200005;stroke-linecap:butt;stroke-linejoin:miter;stroke-miterlimit:4;stroke-dasharray:none;stroke-dashoffset:0;stroke-opacity:1" />
      <path
         id="rect3176"
         d="M 46.34375,10.40195 L 45.375,10.52695 L 45.78125,14.40195 L 46.5625,14.3082 L 46.75,14.27695 L 46.34375,10.40195 z M 53.71875,10.40195 L 53.3125,14.2457 L 54.15625,14.3082 L 54.3125,14.33945 L 54.71875,10.52695 L 53.71875,10.40195 z M 42.21875,11.02695 L 41.25,11.21445 L 42.0625,15.08945 L 42.8125,14.90195 L 43.03125,14.8707 L 42.21875,11.02695 z M 57.875,11.02695 L 57.09375,14.7457 L 57.90625,14.90195 L 58.0625,14.9332 L 58.84375,11.21445 L 57.875,11.02695 z M 38.15625,12.0582 L 37.21875,12.3707 L 38.4375,16.1207 L 39.15625,15.8707 L 39.375,15.8082 L 38.15625,12.0582 z M 61.9375,12.0582 L 60.78125,15.65195 L 61.5625,15.8707 L 61.71875,15.9332 L 62.875,12.3707 L 61.9375,12.0582 z M 34.21875,13.4957 L 33.3125,13.90195 L 34.9375,17.5582 L 35.625,17.2457 L 35.84375,17.15195 L 34.21875,13.4957 z M 65.84375,13.4957 L 64.34375,16.90195 L 65.125,17.2457 L 65.25,17.3082 L 66.78125,13.90195 L 65.84375,13.4957 z M 26.9375,17.58945 L 26.125,18.1832 L 28.5,21.46445 L 29.0625,21.02695 L 29.3125,20.8707 L 26.9375,17.58945 z M 73.15625,17.58945 L 71,20.5582 L 71.6875,21.02695 L 71.8125,21.1207 L 73.96875,18.1832 L 73.15625,17.58945 z M 23.65625,20.1832 L 22.90625,20.83945 L 25.625,23.83945 L 26.09375,23.40195 L 26.34375,23.1832 L 23.65625,20.1832 z M 76.4375,20.1832 L 74,22.8707 L 74.625,23.40195 L 74.75,23.52695 L 77.1875,20.83945 L 76.4375,20.1832 z M 20.65625,23.1207 L 19.96875,23.83945 L 23,26.58945 L 23.40625,26.08945 L 23.65625,25.83945 L 20.65625,23.1207 z M 79.4375,23.1207 L 76.78125,25.52695 L 77.3125,26.08945 L 77.4375,26.2457 L 80.09375,23.83945 L 79.4375,23.1207 z M 17.96875,26.33945 L 17.375,27.15195 L 20.6875,29.5582 L 21.03125,29.0582 L 21.28125,28.7457 L 17.96875,26.33945 z M 82.09375,26.33945 L 79.21875,28.4332 L 79.71875,29.0582 L 79.84375,29.21445 L 82.6875,27.15195 L 82.09375,26.33945 z M 13.6875,33.52695 L 13.28125,34.4332 L 17.03125,36.1207 L 17.25,35.6207 L 17.4375,35.21445 L 13.6875,33.52695 z M 86.375,33.52695 L 83.1875,34.9332 L 83.5,35.6207 L 83.59375,35.83945 L 86.78125,34.4332 L 86.375,33.52695 z M 12.15625,37.40195 L 11.84375,38.3707 L 15.75,39.6207 L 15.875,39.15195 L 16.03125,38.65195 L 12.15625,37.40195 z M 87.9375,37.40195 L 84.625,38.46445 L 84.875,39.15195 L 84.96875,39.4332 L 88.25,38.3707 L 87.9375,37.40195 z M 11.03125,41.4332 L 10.8125,42.4332 L 14.8125,43.27695 L 14.90625,42.83945 L 15.03125,42.27695 L 11.03125,41.4332 z M 89.0625,41.4332 L 85.6875,42.15195 L 85.84375,42.83945 L 85.90625,43.15195 L 89.28125,42.4332 L 89.0625,41.4332 z M 10.3125,45.5582 L 10.21875,46.5582 L 14.28125,46.9957 L 14.3125,46.58945 L 14.40625,45.9957 L 10.3125,45.5582 z M 89.78125,45.5582 L 86.34375,45.9332 L 86.4375,46.58945 L 86.46875,46.90195 L 89.875,46.5582 L 89.78125,45.5582 z M 14.25,53.4957 L 10.21875,53.9332 L 10.3125,54.9332 L 14.375,54.4957 L 14.3125,54.15195 L 14.25,53.4957 z M 86.5,53.5582 L 86.4375,54.15195 L 86.375,54.5582 L 89.78125,54.9332 L 89.875,53.9332 L 86.5,53.5582 z M 14.78125,57.21445 L 10.8125,58.0582 L 11.03125,59.0582 L 14.96875,58.21445 L 14.90625,57.90195 L 14.78125,57.21445 z M 85.9375,57.33945 L 85.84375,57.90195 L 85.75,58.33945 L 89.0625,59.0582 L 89.28125,58.0582 L 85.9375,57.33945 z M 15.65625,60.8707 L 11.84375,62.1207 L 12.15625,63.08945 L 15.96875,61.83945 L 15.875,61.58945 L 15.65625,60.8707 z M 85.03125,61.0582 L 84.875,61.58945 L 84.71875,62.02695 L 87.9375,63.08945 L 88.25,62.1207 L 85.03125,61.0582 z M 16.9375,64.4332 L 13.28125,66.0582 L 13.6875,66.96445 L 17.34375,65.33945 L 17.25,65.1207 L 16.9375,64.4332 z M 83.6875,64.6832 L 83.5,65.1207 L 83.28125,65.58945 L 86.375,66.96445 L 86.78125,66.0582 L 83.6875,64.6832 z M 20.5625,71.02695 L 17.375,73.33945 L 17.96875,74.15195 L 21.15625,71.83945 L 21.03125,71.6832 L 20.5625,71.02695 z M 79.9375,71.33945 L 79.71875,71.6832 L 79.34375,72.15195 L 82.09375,74.15195 L 82.6875,73.33945 L 79.9375,71.33945 z M 22.875,74.02695 L 19.96875,76.65195 L 20.65625,77.3707 L 23.53125,74.77695 L 23.40625,74.65195 L 22.875,74.02695 z M 77.5625,74.3707 L 77.3125,74.65195 L 76.90625,75.08945 L 79.4375,77.3707 L 80.09375,76.65195 L 77.5625,74.3707 z M 25.5,76.77695 L 22.90625,79.65195 L 23.65625,80.3082 L 26.25,77.4332 L 26.09375,77.3082 L 25.5,76.77695 z M 74.875,77.08945 L 74.625,77.3082 L 74.125,77.7457 L 76.4375,80.3082 L 77.1875,79.65195 L 74.875,77.08945 z M 28.375,79.21445 L 26.125,82.3082 L 26.9375,82.90195 L 29.1875,79.8082 L 29.0625,79.71445 L 28.375,79.21445 z M 71.9375,79.52695 L 71.6875,79.71445 L 71.125,80.08945 L 73.15625,82.90195 L 73.96875,82.3082 L 71.9375,79.52695 z M 34.84375,83.1207 L 33.3125,86.58945 L 34.21875,86.9957 L 35.75,83.5582 L 35.625,83.4957 L 34.84375,83.1207 z M 65.34375,83.40195 L 65.125,83.4957 L 64.40625,83.77695 L 65.84375,86.9957 L 66.78125,86.58945 L 65.34375,83.40195 z M 38.375,84.58945 L 37.21875,88.1207 L 38.15625,88.4332 L 39.3125,84.90195 L 39.15625,84.8707 L 38.375,84.58945 z M 61.78125,84.77695 L 61.5625,84.8707 L 60.84375,85.08945 L 61.9375,88.4332 L 62.875,88.1207 L 61.78125,84.77695 z M 42.03125,85.65195 L 41.25,89.27695 L 42.21875,89.46445 L 42.96875,85.8707 L 42.8125,85.83945 L 42.03125,85.65195 z M 58.09375,85.77695 L 57.90625,85.83945 L 57.125,85.9957 L 57.875,89.46445 L 58.84375,89.27695 L 58.09375,85.77695 z M 45.75,86.33945 L 45.375,89.96445 L 46.34375,90.08945 L 46.71875,86.4332 L 46.5625,86.4332 L 45.75,86.33945 z M 54.34375,86.40195 L 54.15625,86.4332 L 53.34375,86.4957 L 53.71875,90.08945 L 54.71875,89.96445 L 54.34375,86.40195 z "
         style="opacity:1;fill:black;fill-opacity:1;stroke:none;stroke-width:3.55200005;stroke-linecap:butt;stroke-linejoin:miter;stroke-miterlimit:4;stroke-dasharray:none;stroke-dashoffset:0;stroke-opacity:1" />
    </g>
  </g>
</svg>
