<?xml version="1.0" encoding="UTF-8" standalone="no"?>
<!-- Created with Inkscape (http://www.inkscape.org/) -->
<svg
   xmlns:dc="http://purl.org/dc/elements/1.1/"
   xmlns:cc="http://web.resource.org/cc/"
   xmlns:rdf="http://www.w3.org/1999/02/22-rdf-syntax-ns#"
   xmlns:svg="http://www.w3.org/2000/svg"
   xmlns="http://www.w3.org/2000/svg"
   xmlns:xlink="http://www.w3.org/1999/xlink"
   xmlns:sodipodi="http://sodipodi.sourceforge.net/DTD/sodipodi-0.dtd"
   xmlns:inkscape="http://www.inkscape.org/namespaces/inkscape"
   width="100"
   height="100"
   id="svg2"
   sodipodi:version="0.32"
   inkscape:version="0.44"
   version="1.0"
   sodipodi:docbase="/home/ryx/Documents/scripts/python/screenlets/current/screenlets/clock/themes/station"
   sodipodi:docname="clock-frame.svg">
  <defs
     id="defs4">
    <linearGradient
       id="linearGradient5602">
      <stop
         style="stop-color:gray;stop-opacity:1;"
         offset="0"
         id="stop5604" />
      <stop
         style="stop-color:#dfdfdf;stop-opacity:1;"
         offset="1"
         id="stop5606" />
    </linearGradient>
    <linearGradient
       id="linearGradient5989">
      <stop
         style="stop-color:#ffffff;stop-opacity:1;"
         offset="0"
         id="stop5991" />
      <stop
         id="stop2316"
         offset="0.56465238"
         style="stop-color:#bcbcbc;stop-opacity:1;" />
      <stop
         style="stop-color:#838383;stop-opacity:1;"
         offset="0.83716005"
         id="stop2318" />
      <stop
         style="stop-color:#3a3a3a;stop-opacity:1;"
         offset="1"
         id="stop5993" />
    </linearGradient>
    <linearGradient
       id="linearGradient3287">
      <stop
         style="stop-color:#ffffff;stop-opacity:1;"
         offset="0"
         id="stop3289" />
      <stop
         style="stop-color:#7f7f7f;stop-opacity:1;"
         offset="1"
         id="stop3291" />
    </linearGradient>
    <linearGradient
       id="linearGradient2202">
      <stop
         style="stop-color:#a5adad;stop-opacity:1;"
         offset="0"
         id="stop2204" />
      <stop
         style="stop-color:#eee;stop-opacity:1;"
         offset="1"
         id="stop2206" />
    </linearGradient>
    <linearGradient
       id="linearGradient1529">
      <stop
         id="stop1531"
         offset="0"
         style="stop-color:#a5adad;stop-opacity:1;" />
      <stop
         id="stop1533"
         offset="1"
         style="stop-color:#e8f4ed;stop-opacity:1;" />
    </linearGradient>
    <linearGradient
       inkscape:collect="always"
       xlink:href="#linearGradient5602"
       id="linearGradient5608"
       x1="189.17828"
       y1="97.78125"
       x2="130.45938"
       y2="5.6419296"
       gradientUnits="userSpaceOnUse" />
    <linearGradient
       inkscape:collect="always"
       xlink:href="#linearGradient5602"
       id="linearGradient6501"
       x1="113.03156"
       y1="-5.1532555"
       x2="178.13614"
       y2="84.281631"
       gradientUnits="userSpaceOnUse" />
    <linearGradient
       inkscape:collect="always"
       xlink:href="#linearGradient5989"
       id="linearGradient6505"
       gradientUnits="userSpaceOnUse"
       x1="113.03156"
       y1="-5.1532555"
       x2="178.13614"
       y2="84.281631"
       gradientTransform="matrix(-1,0,0,-1,200.5043,100.3306)" />
    <linearGradient
       inkscape:collect="always"
       xlink:href="#linearGradient5989"
       id="linearGradient6507"
       gradientUnits="userSpaceOnUse"
       x1="189.17828"
       y1="97.78125"
       x2="130.45938"
       y2="5.6419296"
       gradientTransform="matrix(-1.02769,0,0,-1.02769,204.6365,101.6938)" />
    <linearGradient
       inkscape:collect="always"
       xlink:href="#linearGradient3287"
       id="linearGradient2807"
       x1="-9.9425411"
       y1="-11.316278"
       x2="109.36989"
       y2="122.19615"
       gradientUnits="userSpaceOnUse" />
  </defs>
  <sodipodi:namedview
     id="base"
     pagecolor="#ffffff"
     bordercolor="#666666"
     borderopacity="1.0"
     inkscape:pageopacity="0.0"
     inkscape:pageshadow="2"
     inkscape:zoom="5"
     inkscape:cx="50"
     inkscape:cy="54.415024"
     inkscape:document-units="px"
     inkscape:current-layer="layer2"
     showguides="true"
     inkscape:guide-bbox="true"
     inkscape:window-width="989"
     inkscape:window-height="716"
     inkscape:window-x="184"
     inkscape:window-y="46">
    <sodipodi:guide
       orientation="horizontal"
       position="50"
       id="guide1307" />
    <sodipodi:guide
       orientation="vertical"
       position="50"
       id="guide1309" />
    <sodipodi:guide
       orientation="horizontal"
       position="100"
       id="guide1311" />
    <sodipodi:guide
       orientation="vertical"
       position="0"
       id="guide1313" />
    <sodipodi:guide
       orientation="vertical"
       position="100"
       id="guide1315" />
    <sodipodi:guide
       orientation="horizontal"
       position="0"
       id="guide1317" />
    <sodipodi:guide
       orientation="horizontal"
       position="90.060241"
       id="guide1319" />
    <sodipodi:guide
       orientation="vertical"
       position="10.040161"
       id="guide1321" />
    <sodipodi:guide
       orientation="vertical"
       position="90.060241"
       id="guide1323" />
    <sodipodi:guide
       orientation="horizontal"
       position="10.040161"
       id="guide1325" />
  </sodipodi:namedview>
  <metadata
     id="metadata7">
    <rdf:RDF>
      <cc:Work
         rdf:about="">
        <dc:format>image/svg+xml</dc:format>
        <dc:type
           rdf:resource="http://purl.org/dc/dcmitype/StillImage" />
      </cc:Work>
    </rdf:RDF>
  </metadata>
  <g
     inkscape:label="Ebene 1"
     inkscape:groupmode="layer"
     id="layer1" />
  <g
     inkscape:groupmode="layer"
     id="layer2"
     inkscape:label="tmp">
    <path
       style="opacity:1;fill:#333;fill-opacity:1;stroke:none;stroke-width:3.55200005;stroke-linecap:butt;stroke-linejoin:miter;stroke-miterlimit:4;stroke-dasharray:none;stroke-dashoffset:0;stroke-opacity:1"
       d="M 50.129839,0.8837227 C 23.051785,0.8837227 1.057459,22.878048 1.057459,49.956103 C 1.057459,77.034159 23.051785,98.996153 50.129839,98.996155 C 77.20789,98.996155 99.16989,77.03416 99.16989,49.956103 C 99.16989,22.878046 77.20789,0.8837228 50.129839,0.8837227 z M 50.129839,3.9547874 C 75.52427,3.9547872 96.13115,24.561666 96.13115,49.956103 C 96.13115,75.35054 75.52427,95.957416 50.129839,95.957416 C 24.735395,95.957413 4.128524,75.350541 4.128524,49.956103 C 4.128524,24.561665 24.735406,3.9547874 50.129839,3.9547874 z "
       id="path3036" />
    <path
       style="opacity:1;fill:#999;fill-opacity:1;stroke:none;stroke-width:3.55200005;stroke-linecap:butt;stroke-linejoin:miter;stroke-miterlimit:4;stroke-dasharray:none;stroke-dashoffset:0;stroke-opacity:1"
       d="M 50.128126,6.0796579 C 25.918125,6.0796579 6.2533942,25.744388 6.2533942,49.95439 C 6.2533942,74.164394 25.918125,93.800218 50.128126,93.80022 C 74.338128,93.80022 93.973956,74.164395 93.973956,49.95439 C 93.973956,25.744387 74.338128,6.079658 50.128126,6.0796579 z M 50.128126,8.8254415 C 72.832833,8.8254414 91.257075,27.249681 91.257075,49.95439 C 91.257075,72.6591 72.832833,91.083339 50.128126,91.083339 C 27.423411,91.083336 8.9991778,72.659101 8.9991778,49.95439 C 8.9991778,27.24968 27.423421,8.8254415 50.128126,8.8254415 z "
       id="path3038" />
    <path
       style="opacity:1;fill:url(#linearGradient6505);fill-opacity:1;stroke:none;stroke-width:3.55200005;stroke-linecap:butt;stroke-linejoin:miter;stroke-miterlimit:4;stroke-dasharray:none;stroke-dashoffset:0;stroke-opacity:1"
       d="M 50.1293,94.424314 C 74.6777,94.424314 94.59805,74.503969 94.59805,49.955564 C 94.59805,25.40716 74.67771,5.4868166 50.1293,5.4868136 C 25.5809,5.4868136 5.66055,25.407161 5.66055,49.955564 C 5.66055,74.503968 25.5809,94.424314 50.1293,94.424314 z M 50.1293,91.236814 C 27.34404,91.236814 8.84805,72.740822 8.84805,49.955564 C 8.84805,27.170306 27.34404,8.6743136 50.1293,8.6743136 C 72.91456,8.6743176 91.41055,27.170306 91.41055,49.955564 C 91.41055,72.740822 72.91456,91.236814 50.1293,91.236814 z "
       id="path5592" />
    <path
       style="opacity:1;fill:url(#linearGradient6507);fill-opacity:1;stroke:none;stroke-width:3.55200005;stroke-linecap:butt;stroke-linejoin:miter;stroke-miterlimit:4;stroke-dasharray:none;stroke-dashoffset:0;stroke-opacity:1"
       d="M 50.097618,98.674946 C 76.99837,98.674946 98.84868,76.824635 98.84868,49.923882 C 98.84868,23.023127 76.99837,1.2049339 50.097618,1.2049319 C 23.196865,1.2049319 1.378668,23.023126 1.378668,49.923882 C 1.378668,76.824636 23.196865,98.674946 50.097618,98.674946 z M 50.097618,95.62399 C 24.869462,95.623991 4.397509,75.152041 4.397509,49.923882 C 4.397509,24.695723 24.869462,4.2237725 50.097618,4.2237725 C 75.325783,4.2237756 95.79773,24.695722 95.79773,49.923882 C 95.79773,75.152042 75.325772,95.62399 50.097618,95.62399 z "
       id="path5600" />
    <path
       style="opacity:1;fill:url(#linearGradient2807);fill-opacity:1.0;stroke:none;stroke-width:3.55200005;stroke-linecap:butt;stroke-linejoin:miter;stroke-miterlimit:4;stroke-dasharray:none;stroke-dashoffset:0;stroke-opacity:1"
       d="M 50.128916,3.6837227 C 24.596406,3.6837227 3.857459,24.422669 3.857459,49.95518 C 3.857459,75.487692 24.596406,96.196153 50.128916,96.196155 C 75.661426,96.196155 96.369891,75.487693 96.369891,49.95518 C 96.369891,24.422668 75.661426,3.6837228 50.128916,3.6837227 z M 50.128916,6.5794991 C 74.073902,6.5794989 93.504595,26.010191 93.504595,49.95518 C 93.504595,73.900169 74.073902,93.330859 50.128916,93.330859 C 26.18392,93.330857 6.7532354,73.90017 6.7532354,49.95518 C 6.7532354,26.01019 26.183931,6.5794991 50.128916,6.5794991 z "
       id="path2044" />
  </g>
</svg>
