<?xml version="1.0" encoding="UTF-8" standalone="no"?>
<!-- Created with Inkscape (http://www.inkscape.org/) -->
<svg
   xmlns:dc="http://purl.org/dc/elements/1.1/"
   xmlns:cc="http://web.resource.org/cc/"
   xmlns:rdf="http://www.w3.org/1999/02/22-rdf-syntax-ns#"
   xmlns:svg="http://www.w3.org/2000/svg"
   xmlns="http://www.w3.org/2000/svg"
   xmlns:xlink="http://www.w3.org/1999/xlink"
   xmlns:sodipodi="http://sodipodi.sourceforge.net/DTD/sodipodi-0.dtd"
   xmlns:inkscape="http://www.inkscape.org/namespaces/inkscape"
   width="100"
   height="100"
   id="svg2"
   sodipodi:version="0.32"
   inkscape:version="0.45"
   version="1.0"
   sodipodi:docbase="/home/ryx/Desktop/python/screenlets/screenlets-0.0.9/src/share/screenlets/CPUMeter/themes/cpu"
   sodipodi:docname="cpumeter-bg.svg"
   inkscape:output_extension="org.inkscape.output.svg.inkscape"
   sodipodi:modified="true">
  <defs
     id="defs4">
    <linearGradient
       id="linearGradient3692">
      <stop
         style="stop-color:#999999;stop-opacity:1;"
         offset="0"
         id="stop3694" />
      <stop
         style="stop-color:#636363;stop-opacity:1;"
         offset="1"
         id="stop3696" />
    </linearGradient>
    <linearGradient
       id="linearGradient2805">
      <stop
         style="stop-color:black;stop-opacity:1;"
         offset="0"
         id="stop2807" />
      <stop
         style="stop-color:black;stop-opacity:0;"
         offset="1"
         id="stop2809" />
    </linearGradient>
    <linearGradient
       inkscape:collect="always"
       id="linearGradient2776">
      <stop
         style="stop-color:white;stop-opacity:1;"
         offset="0"
         id="stop2778" />
      <stop
         style="stop-color:white;stop-opacity:0;"
         offset="1"
         id="stop2780" />
    </linearGradient>
    <linearGradient
       id="linearGradient2760">
      <stop
         style="stop-color:#ff1f1f;stop-opacity:0.75663716;"
         offset="0"
         id="stop2762" />
      <stop
         style="stop-color:#cb0000;stop-opacity:0.80973452;"
         offset="1"
         id="stop2764" />
    </linearGradient>
    <linearGradient
       inkscape:collect="always"
       xlink:href="#linearGradient2776"
       id="linearGradient2782"
       x1="35.784313"
       y1="9.5986519"
       x2="36.764706"
       y2="49.549633"
       gradientUnits="userSpaceOnUse" />
    <linearGradient
       inkscape:collect="always"
       xlink:href="#linearGradient2805"
       id="linearGradient2811"
       x1="55.137867"
       y1="106.66622"
       x2="55.155025"
       y2="68.967857"
       gradientUnits="userSpaceOnUse"
       gradientTransform="matrix(0.942544,0,0,0.921824,2.781224,4.166134)" />
  </defs>
  <sodipodi:namedview
     id="base"
     pagecolor="#ffffff"
     bordercolor="#666666"
     borderopacity="1.0"
     inkscape:pageopacity="0.0"
     inkscape:pageshadow="2"
     inkscape:zoom="4.07"
     inkscape:cx="51.309539"
     inkscape:cy="50"
     inkscape:document-units="px"
     inkscape:current-layer="layer1"
     width="100px"
     height="100px"
     inkscape:window-width="989"
     inkscape:window-height="626"
     inkscape:window-x="239"
     inkscape:window-y="76"
     showgrid="true" />
  <metadata
     id="metadata7">
    <rdf:RDF>
      <cc:Work
         rdf:about="">
        <dc:format>image/svg+xml</dc:format>
        <dc:type
           rdf:resource="http://purl.org/dc/dcmitype/StillImage" />
      </cc:Work>
    </rdf:RDF>
  </metadata>
  <g
     inkscape:label="Ebene 1"
     inkscape:groupmode="layer"
     id="layer1">
    <g
       id="g4932"
       style="fill:#000000;fill-opacity:0.24573376"
       transform="translate(-58,2)">
      <rect
         y="15"
         x="-33"
         height="10"
         width="3"
         id="rect4864"
         style="color:#000000;fill:#000000;fill-opacity:0.24573376;fill-rule:evenodd;stroke:none;stroke-width:1;stroke-linecap:butt;stroke-linejoin:round;marker:none;marker-start:none;marker-mid:none;marker-end:none;stroke-miterlimit:4;stroke-dasharray:none;stroke-dashoffset:0;stroke-opacity:1;visibility:visible;display:inline;overflow:visible" />
      <rect
         y="35"
         x="-33"
         height="10"
         width="3"
         id="rect4866"
         style="color:#000000;fill:#000000;fill-opacity:0.24573376;fill-rule:evenodd;stroke:none;stroke-width:1;stroke-linecap:butt;stroke-linejoin:round;marker:none;marker-start:none;marker-mid:none;marker-end:none;stroke-miterlimit:4;stroke-dasharray:none;stroke-dashoffset:0;stroke-opacity:1;visibility:visible;display:inline;overflow:visible" />
      <rect
         transform="scale(-1,1)"
         y="15"
         x="-53"
         height="10"
         width="3"
         id="rect4868"
         style="color:#000000;fill:#000000;fill-opacity:0.24573376;fill-rule:evenodd;stroke:none;stroke-width:1;stroke-linecap:butt;stroke-linejoin:round;marker:none;marker-start:none;marker-mid:none;marker-end:none;stroke-miterlimit:4;stroke-dasharray:none;stroke-dashoffset:0;stroke-opacity:1;visibility:visible;display:inline;overflow:visible" />
      <rect
         transform="scale(-1,1)"
         y="35"
         x="-53"
         height="10"
         width="3"
         id="rect4870"
         style="color:#000000;fill:#000000;fill-opacity:0.24573376;fill-rule:evenodd;stroke:none;stroke-width:1;stroke-linecap:butt;stroke-linejoin:round;marker:none;marker-start:none;marker-mid:none;marker-end:none;stroke-miterlimit:4;stroke-dasharray:none;stroke-dashoffset:0;stroke-opacity:1;visibility:visible;display:inline;overflow:visible" />
      <rect
         transform="scale(-1,1)"
         y="55"
         x="-53"
         height="10"
         width="3"
         id="rect4872"
         style="color:#000000;fill:#000000;fill-opacity:0.24573376;fill-rule:evenodd;stroke:none;stroke-width:1;stroke-linecap:butt;stroke-linejoin:round;marker:none;marker-start:none;marker-mid:none;marker-end:none;stroke-miterlimit:4;stroke-dasharray:none;stroke-dashoffset:0;stroke-opacity:1;visibility:visible;display:inline;overflow:visible" />
      <rect
         transform="scale(-1,1)"
         y="75"
         x="-53"
         height="10"
         width="3"
         id="rect4874"
         style="color:#000000;fill:#000000;fill-opacity:0.24573376;fill-rule:evenodd;stroke:none;stroke-width:1;stroke-linecap:butt;stroke-linejoin:round;marker:none;marker-start:none;marker-mid:none;marker-end:none;stroke-miterlimit:4;stroke-dasharray:none;stroke-dashoffset:0;stroke-opacity:1;visibility:visible;display:inline;overflow:visible" />
      <rect
         transform="matrix(0,1,-1,0,0,0)"
         y="-45"
         x="7"
         height="10"
         width="3"
         id="rect4876"
         style="color:#000000;fill:#000000;fill-opacity:0.24573376;fill-rule:evenodd;stroke:none;stroke-width:1;stroke-linecap:butt;stroke-linejoin:round;marker:none;marker-start:none;marker-mid:none;marker-end:none;stroke-miterlimit:4;stroke-dasharray:none;stroke-dashoffset:0;stroke-opacity:1;visibility:visible;display:inline;overflow:visible" />
      <rect
         transform="matrix(0,1,-1,0,0,0)"
         y="-25"
         x="7"
         height="10"
         width="3"
         id="rect4878"
         style="color:#000000;fill:#000000;fill-opacity:0.24573376;fill-rule:evenodd;stroke:none;stroke-width:1;stroke-linecap:butt;stroke-linejoin:round;marker:none;marker-start:none;marker-mid:none;marker-end:none;stroke-miterlimit:4;stroke-dasharray:none;stroke-dashoffset:0;stroke-opacity:1;visibility:visible;display:inline;overflow:visible" />
      <rect
         transform="matrix(0,1,-1,0,0,0)"
         y="-5"
         x="7"
         height="10"
         width="3"
         id="rect4880"
         style="color:#000000;fill:#000000;fill-opacity:0.24573376;fill-rule:evenodd;stroke:none;stroke-width:1;stroke-linecap:butt;stroke-linejoin:round;marker:none;marker-start:none;marker-mid:none;marker-end:none;stroke-miterlimit:4;stroke-dasharray:none;stroke-dashoffset:0;stroke-opacity:1;visibility:visible;display:inline;overflow:visible" />
      <rect
         transform="matrix(0,1,-1,0,0,0)"
         y="15"
         x="7"
         height="10"
         width="3"
         id="rect4882"
         style="color:#000000;fill:#000000;fill-opacity:0.24573376;fill-rule:evenodd;stroke:none;stroke-width:1;stroke-linecap:butt;stroke-linejoin:round;marker:none;marker-start:none;marker-mid:none;marker-end:none;stroke-miterlimit:4;stroke-dasharray:none;stroke-dashoffset:0;stroke-opacity:1;visibility:visible;display:inline;overflow:visible" />
      <rect
         transform="matrix(0,-1,-1,0,0,0)"
         y="15"
         x="-93"
         height="10"
         width="3"
         id="rect4884"
         style="color:#000000;fill:#000000;fill-opacity:0.24573376;fill-rule:evenodd;stroke:none;stroke-width:1;stroke-linecap:butt;stroke-linejoin:round;marker:none;marker-start:none;marker-mid:none;marker-end:none;stroke-miterlimit:4;stroke-dasharray:none;stroke-dashoffset:0;stroke-opacity:1;visibility:visible;display:inline;overflow:visible" />
      <rect
         y="55"
         x="-33"
         height="10"
         width="3"
         id="rect4886"
         style="color:#000000;fill:#000000;fill-opacity:0.24573376;fill-rule:evenodd;stroke:none;stroke-width:1;stroke-linecap:butt;stroke-linejoin:round;marker:none;marker-start:none;marker-mid:none;marker-end:none;stroke-miterlimit:4;stroke-dasharray:none;stroke-dashoffset:0;stroke-opacity:1;visibility:visible;display:inline;overflow:visible" />
      <rect
         y="75"
         x="-33"
         height="10"
         width="3"
         id="rect4888"
         style="color:#000000;fill:#000000;fill-opacity:0.24573376;fill-rule:evenodd;stroke:none;stroke-width:1;stroke-linecap:butt;stroke-linejoin:round;marker:none;marker-start:none;marker-mid:none;marker-end:none;stroke-miterlimit:4;stroke-dasharray:none;stroke-dashoffset:0;stroke-opacity:1;visibility:visible;display:inline;overflow:visible" />
      <rect
         transform="matrix(0,-1,-1,0,0,0)"
         y="-5"
         x="-93"
         height="10"
         width="3"
         id="rect4890"
         style="color:#000000;fill:#000000;fill-opacity:0.24573376;fill-rule:evenodd;stroke:none;stroke-width:1;stroke-linecap:butt;stroke-linejoin:round;marker:none;marker-start:none;marker-mid:none;marker-end:none;stroke-miterlimit:4;stroke-dasharray:none;stroke-dashoffset:0;stroke-opacity:1;visibility:visible;display:inline;overflow:visible" />
      <rect
         transform="matrix(0,-1,-1,0,0,0)"
         y="-25"
         x="-93"
         height="10"
         width="3"
         id="rect4892"
         style="color:#000000;fill:#000000;fill-opacity:0.24573376;fill-rule:evenodd;stroke:none;stroke-width:1;stroke-linecap:butt;stroke-linejoin:round;marker:none;marker-start:none;marker-mid:none;marker-end:none;stroke-miterlimit:4;stroke-dasharray:none;stroke-dashoffset:0;stroke-opacity:1;visibility:visible;display:inline;overflow:visible" />
      <rect
         transform="matrix(0,-1,-1,0,0,0)"
         y="-45"
         x="-93"
         height="10"
         width="3"
         id="rect4894"
         style="color:#000000;fill:#000000;fill-opacity:0.24573376;fill-rule:evenodd;stroke:none;stroke-width:1;stroke-linecap:butt;stroke-linejoin:round;marker:none;marker-start:none;marker-mid:none;marker-end:none;stroke-miterlimit:4;stroke-dasharray:none;stroke-dashoffset:0;stroke-opacity:1;visibility:visible;display:inline;overflow:visible" />
      <rect
         y="10"
         x="-30"
         height="80.171989"
         width="80.171989"
         id="rect4914"
         style="opacity:1;color:#000000;fill:#000000;fill-opacity:0.24573376;fill-rule:evenodd;stroke:none;stroke-width:1;stroke-linecap:butt;stroke-linejoin:round;marker:none;marker-start:none;marker-mid:none;marker-end:none;stroke-miterlimit:4;stroke-dasharray:none;stroke-dashoffset:0;stroke-opacity:1;visibility:visible;display:inline;overflow:visible" />
    </g>
    <path
       style="color:#000000;fill:#cccccc;fill-opacity:1;fill-rule:evenodd;stroke:none;stroke-width:1;stroke-linecap:butt;stroke-linejoin:round;stroke-miterlimit:4;stroke-dashoffset:0;stroke-opacity:1;marker:none;marker-start:none;marker-mid:none;marker-end:none;visibility:visible;display:inline;overflow:visible"
       d="M 7,17 L 10,15 L 10,25 L 7,23 L 7,17 z "
       id="rect3684"
       sodipodi:nodetypes="ccccc" />
    <path
       style="color:#000000;fill:#cccccc;fill-opacity:1;fill-rule:evenodd;stroke:none;stroke-width:1;stroke-linecap:butt;stroke-linejoin:round;stroke-miterlimit:4;stroke-dashoffset:0;stroke-opacity:1;marker:none;marker-start:none;marker-mid:none;marker-end:none;visibility:visible;display:inline;overflow:visible"
       d="M 7,37 L 10,35 L 10,45 L 7,43 L 7,37 z "
       id="rect3700"
       sodipodi:nodetypes="ccccc" />
    <path
       style="color:#000000;fill:#000000;fill-opacity:0.25255971;fill-rule:evenodd;stroke:none;stroke-width:1;stroke-linecap:butt;stroke-linejoin:round;marker:none;marker-start:none;marker-mid:none;marker-end:none;stroke-miterlimit:4;stroke-dashoffset:0;stroke-opacity:1;visibility:visible;display:inline;overflow:visible"
       d="M 19,9 L 17.15625,11.78125 L 11.78125,11.78125 L 11.78125,17.15625 L 9,19 L 9,25 L 11.78125,26.84375 L 11.78125,37.15625 L 9,39 L 9,45 L 11.78125,46.84375 L 11.78125,57.15625 L 9,59 L 9,65 L 11.78125,66.84375 L 11.78125,77.15625 L 9,79 L 9,85 L 11.78125,86.84375 L 11.78125,92.21875 L 17.15625,92.21875 L 19,95 L 25,95 L 26.84375,92.21875 L 37.15625,92.21875 L 39,95 L 45,95 L 46.84375,92.21875 L 57.15625,92.21875 L 59,95 L 65,95 L 66.84375,92.21875 L 77.15625,92.21875 L 79,95 L 85,95 L 86.84375,92.21875 L 92.21875,92.21875 L 92.21875,86.84375 L 95,85 L 95,79 L 92.21875,77.15625 L 92.21875,66.84375 L 95,65 L 95,59 L 92.21875,57.15625 L 92.21875,46.84375 L 95,45 L 95,39 L 92.21875,37.15625 L 92.21875,26.84375 L 95,25 L 95,19 L 92.21875,17.15625 L 92.21875,11.78125 L 86.84375,11.78125 L 85,9 L 79,9 L 77.15625,11.78125 L 66.84375,11.78125 L 65,9 L 59,9 L 57.15625,11.78125 L 46.84375,11.78125 L 45,9 L 39,9 L 37.15625,11.78125 L 26.84375,11.78125 L 25,9 L 19,9 z "
       id="path2231" />
    <path
       transform="scale(-1,1)"
       style="color:#000000;fill:#808080;fill-opacity:1;fill-rule:evenodd;stroke:none;stroke-width:1;stroke-linecap:butt;stroke-linejoin:round;stroke-miterlimit:4;stroke-dashoffset:0;stroke-opacity:1;marker:none;marker-start:none;marker-mid:none;marker-end:none;visibility:visible;display:inline;overflow:visible"
       d="M -93,17 L -90,15 L -90,25 L -93,23 L -93,17 z "
       id="rect3712"
       sodipodi:nodetypes="ccccc" />
    <path
       transform="scale(-1,1)"
       style="color:#000000;fill:#808080;fill-opacity:1;fill-rule:evenodd;stroke:none;stroke-width:1;stroke-linecap:butt;stroke-linejoin:round;stroke-miterlimit:4;stroke-dashoffset:0;stroke-opacity:1;marker:none;marker-start:none;marker-mid:none;marker-end:none;visibility:visible;display:inline;overflow:visible"
       d="M -93,37 L -90,35 L -90,45 L -93,43 L -93,37 z "
       id="rect3714"
       sodipodi:nodetypes="ccccc" />
    <path
       transform="scale(-1,1)"
       style="color:#000000;fill:#808080;fill-opacity:1;fill-rule:evenodd;stroke:none;stroke-width:1;stroke-linecap:butt;stroke-linejoin:round;stroke-miterlimit:4;stroke-dashoffset:0;stroke-opacity:1;marker:none;marker-start:none;marker-mid:none;marker-end:none;visibility:visible;display:inline;overflow:visible"
       d="M -93,57 L -90,55 L -90,65 L -93,63 L -93,57 z "
       id="rect3716"
       sodipodi:nodetypes="ccccc" />
    <path
       transform="scale(-1,1)"
       style="color:#000000;fill:#808080;fill-opacity:1;fill-rule:evenodd;stroke:none;stroke-width:1;stroke-linecap:butt;stroke-linejoin:round;stroke-miterlimit:4;stroke-dashoffset:0;stroke-opacity:1;marker:none;marker-start:none;marker-mid:none;marker-end:none;visibility:visible;display:inline;overflow:visible"
       d="M -93,77 L -90,75 L -90,85 L -93,83 L -93,77 z "
       id="rect3718"
       sodipodi:nodetypes="ccccc" />
    <path
       transform="matrix(0,1,-1,0,0,0)"
       style="color:#000000;fill:#cccccc;fill-opacity:1;fill-rule:evenodd;stroke:none;stroke-width:1;stroke-linecap:butt;stroke-linejoin:round;stroke-miterlimit:4;stroke-dashoffset:0;stroke-opacity:1;marker:none;marker-start:none;marker-mid:none;marker-end:none;visibility:visible;display:inline;overflow:visible"
       d="M 7,-83 L 10,-85 L 10,-75 L 7,-77 L 7,-83 z "
       id="rect3728"
       sodipodi:nodetypes="ccccc" />
    <path
       transform="matrix(0,1,-1,0,0,0)"
       style="color:#000000;fill:#cccccc;fill-opacity:1;fill-rule:evenodd;stroke:none;stroke-width:1;stroke-linecap:butt;stroke-linejoin:round;stroke-miterlimit:4;stroke-dashoffset:0;stroke-opacity:1;marker:none;marker-start:none;marker-mid:none;marker-end:none;visibility:visible;display:inline;overflow:visible"
       d="M 7,-63 L 10,-65 L 10,-55 L 7,-57 L 7,-63 z "
       id="rect3730"
       sodipodi:nodetypes="ccccc" />
    <path
       transform="matrix(0,1,-1,0,0,0)"
       style="color:#000000;fill:#cccccc;fill-opacity:1;fill-rule:evenodd;stroke:none;stroke-width:1;stroke-linecap:butt;stroke-linejoin:round;stroke-miterlimit:4;stroke-dashoffset:0;stroke-opacity:1;marker:none;marker-start:none;marker-mid:none;marker-end:none;visibility:visible;display:inline;overflow:visible"
       d="M 7,-43 L 10,-45 L 10,-35 L 7,-37 L 7,-43 z "
       id="rect3732"
       sodipodi:nodetypes="ccccc" />
    <path
       transform="matrix(0,1,-1,0,0,0)"
       style="color:#000000;fill:#cccccc;fill-opacity:1;fill-rule:evenodd;stroke:none;stroke-width:1;stroke-linecap:butt;stroke-linejoin:round;stroke-miterlimit:4;stroke-dashoffset:0;stroke-opacity:1;marker:none;marker-start:none;marker-mid:none;marker-end:none;visibility:visible;display:inline;overflow:visible"
       d="M 7,-23 L 10,-25 L 10,-15 L 7,-17 L 7,-23 z "
       id="rect3734"
       sodipodi:nodetypes="ccccc" />
    <path
       transform="matrix(0,-1,-1,0,0,0)"
       style="color:#000000;fill:#808080;fill-opacity:1;fill-rule:evenodd;stroke:none;stroke-width:1;stroke-linecap:butt;stroke-linejoin:round;stroke-miterlimit:4;stroke-dashoffset:0;stroke-opacity:1;marker:none;marker-start:none;marker-mid:none;marker-end:none;visibility:visible;display:inline;overflow:visible"
       d="M -93,-23 L -90,-25 L -90,-15 L -93,-17 L -93,-23 z "
       id="rect3742"
       sodipodi:nodetypes="ccccc" />
    <rect
       style="opacity:1;fill:#000000;fill-opacity:1;stroke:#878787;stroke-width:1.99999988;stroke-linecap:butt;stroke-linejoin:miter;stroke-miterlimit:4;stroke-dasharray:none;stroke-dashoffset:0;stroke-opacity:1"
       id="rect4190"
       width="78"
       height="78"
       x="11"
       y="11" />
    <rect
       style="opacity:1;fill:#1a1a1a;fill-opacity:1;stroke:none;stroke-width:1.99999988;stroke-linecap:butt;stroke-linejoin:miter;stroke-miterlimit:4;stroke-dasharray:none;stroke-dashoffset:0;stroke-opacity:1"
       id="rect4192"
       width="68.134659"
       height="67.151863"
       x="16.021059"
       y="16.689236" />
    <path
       style="color:#000000;fill:#cccccc;fill-opacity:1;fill-rule:evenodd;stroke:none;stroke-width:1;stroke-linecap:butt;stroke-linejoin:round;stroke-miterlimit:4;stroke-dashoffset:0;stroke-opacity:1;marker:none;marker-start:none;marker-mid:none;marker-end:none;visibility:visible;display:inline;overflow:visible"
       d="M 7,57 L 10,55 L 10,65 L 7,63 L 7,57 z "
       id="rect4670"
       sodipodi:nodetypes="ccccc" />
    <path
       style="color:#000000;fill:#cccccc;fill-opacity:1;fill-rule:evenodd;stroke:none;stroke-width:1;stroke-linecap:butt;stroke-linejoin:round;stroke-miterlimit:4;stroke-dashoffset:0;stroke-opacity:1;marker:none;marker-start:none;marker-mid:none;marker-end:none;visibility:visible;display:inline;overflow:visible"
       d="M 7,77 L 10,75 L 10,85 L 7,83 L 7,77 z "
       id="rect4672"
       sodipodi:nodetypes="ccccc" />
    <path
       transform="matrix(0,-1,-1,0,0,0)"
       style="color:#000000;fill:#808080;fill-opacity:1;fill-rule:evenodd;stroke:none;stroke-width:1;stroke-linecap:butt;stroke-linejoin:round;stroke-miterlimit:4;stroke-dashoffset:0;stroke-opacity:1;marker:none;marker-start:none;marker-mid:none;marker-end:none;visibility:visible;display:inline;overflow:visible"
       d="M -93,-43 L -90,-45 L -90,-35 L -93,-37 L -93,-43 z "
       id="rect4674"
       sodipodi:nodetypes="ccccc" />
    <path
       transform="matrix(0,-1,-1,0,0,0)"
       style="color:#000000;fill:#808080;fill-opacity:1;fill-rule:evenodd;stroke:none;stroke-width:1;stroke-linecap:butt;stroke-linejoin:round;stroke-miterlimit:4;stroke-dashoffset:0;stroke-opacity:1;marker:none;marker-start:none;marker-mid:none;marker-end:none;visibility:visible;display:inline;overflow:visible"
       d="M -93,-63 L -90,-65 L -90,-55 L -93,-57 L -93,-63 z "
       id="rect4676"
       sodipodi:nodetypes="ccccc" />
    <path
       transform="matrix(0,-1,-1,0,0,0)"
       style="color:#000000;fill:#808080;fill-opacity:1;fill-rule:evenodd;stroke:none;stroke-width:1;stroke-linecap:butt;stroke-linejoin:round;stroke-miterlimit:4;stroke-dashoffset:0;stroke-opacity:1;marker:none;marker-start:none;marker-mid:none;marker-end:none;visibility:visible;display:inline;overflow:visible"
       d="M -93,-83 L -90,-85 L -90,-75 L -93,-77 L -93,-83 z "
       id="rect4678"
       sodipodi:nodetypes="ccccc" />
    <path
       transform="scale(1.0461554,0.955881)"
       style="font-size:5.02034426px;font-style:normal;font-variant:normal;font-weight:normal;font-stretch:normal;text-align:end;line-height:100%;writing-mode:lr-tb;text-anchor:end;fill:#808080;fill-opacity:1;stroke:none;stroke-width:1px;stroke-linecap:butt;stroke-linejoin:miter;stroke-opacity:1;font-family:Bitstream Vera Sans"
       d="M 34.502411,64.090531 L 34.953457,64.090531 L 34.953457,67.904816 L 34.502411,67.904816 L 34.502411,64.090531 M 35.894772,65.159315 L 36.345819,65.159315 L 36.345819,67.904816 L 35.894772,67.904816 L 35.894772,65.159315 M 35.894772,64.090531 L 36.345819,64.090531 L 36.345819,64.661693 L 35.894772,64.661693 L 35.894772,64.090531 M 39.569331,66.24771 L 39.569331,67.904816 L 39.118284,67.904816 L 39.118284,66.262418 C 39.118282,66.002578 39.067621,65.808105 38.966301,65.678999 C 38.864977,65.549897 38.712994,65.485346 38.510352,65.485343 C 38.26685,65.485346 38.074829,65.562971 37.934287,65.71822 C 37.793742,65.873474 37.723471,66.085106 37.723472,66.353117 L 37.723472,67.904816 L 37.269974,67.904816 L 37.269974,65.159315 L 37.723472,65.159315 L 37.723472,65.585848 C 37.831329,65.420794 37.957982,65.29741 38.103429,65.215696 C 38.250508,65.133987 38.41965,65.093132 38.610857,65.093129 C 38.92626,65.093132 39.164857,65.191185 39.326648,65.38729 C 39.488434,65.581765 39.569328,65.868571 39.569331,66.24771 M 40.4273,66.821323 L 40.4273,65.159315 L 40.878346,65.159315 L 40.878346,66.804164 C 40.878345,67.064007 40.929006,67.259297 41.030329,67.390034 C 41.13165,67.519139 41.283633,67.58369 41.486278,67.58369 C 41.729777,67.58369 41.921798,67.506065 42.062343,67.350813 C 42.204519,67.195562 42.275608,66.98393 42.27561,66.715916 L 42.27561,65.159315 L 42.726657,65.159315 L 42.726657,67.904816 L 42.27561,67.904816 L 42.27561,67.483185 C 42.166115,67.649877 42.038645,67.774078 41.893201,67.855789 C 41.749387,67.935866 41.581879,67.975904 41.390676,67.975905 C 41.075269,67.975904 40.835855,67.877851 40.672434,67.681744 C 40.50901,67.485637 40.427299,67.19883 40.4273,66.821323 M 45.942814,65.159315 L 44.950022,66.495295 L 45.994293,67.904816 L 45.462352,67.904816 L 44.663215,66.826226 L 43.864078,67.904816 L 43.332137,67.904816 L 44.39847,66.46833 L 43.422837,65.159315 L 43.954778,65.159315 L 44.682826,66.1374 L 45.410874,65.159315 L 45.942814,65.159315 M 50.200792,66.534517 C 50.20079,66.20277 50.132152,65.942929 49.994879,65.754991 C 49.859237,65.565423 49.672118,65.470638 49.433523,65.470635 C 49.194924,65.470638 49.006988,65.565423 48.869714,65.754991 C 48.734073,65.942929 48.666252,66.20277 48.666253,66.534517 C 48.666252,66.866266 48.734073,67.126925 48.869714,67.316494 C 49.006988,67.504431 49.194924,67.598398 49.433523,67.598398 C 49.672118,67.598398 49.859237,67.504431 49.994879,67.316494 C 50.132152,67.126925 50.20079,66.866266 50.200792,66.534517 M 48.666253,65.576043 C 48.761037,65.412623 48.880336,65.29169 49.024149,65.213244 C 49.169594,65.13317 49.342821,65.093132 49.543833,65.093129 C 49.877213,65.093132 50.147677,65.225504 50.355226,65.490246 C 50.564405,65.754993 50.668995,66.103083 50.668998,66.534517 C 50.668995,66.965953 50.564405,67.314043 50.355226,67.578787 C 50.147677,67.843532 49.877213,67.975904 49.543833,67.975905 C 49.342821,67.975904 49.169594,67.936683 49.024149,67.85824 C 48.880336,67.778163 48.761037,67.656413 48.666253,67.492991 L 48.666253,67.904816 L 48.212755,67.904816 L 48.212755,64.090531 L 48.666253,64.090531 L 48.666253,65.576043 M 52.480538,65.475538 C 52.238671,65.47554 52.047467,65.570325 51.906925,65.759893 C 51.76638,65.947831 51.696109,66.206039 51.696109,66.534517 C 51.696109,66.862997 51.765563,67.122022 51.904473,67.311591 C 52.045016,67.499528 52.237037,67.593496 52.480538,67.593495 C 52.720768,67.593496 52.911155,67.498711 53.0517,67.30914 C 53.192242,67.119571 53.262513,66.861363 53.262516,66.534517 C 53.262513,66.209307 53.192242,65.951917 53.0517,65.762345 C 52.911155,65.571142 52.720768,65.47554 52.480538,65.475538 M 52.480538,65.093129 C 52.872751,65.093132 53.180802,65.220601 53.404693,65.475538 C 53.62858,65.730479 53.740524,66.083472 53.740527,66.534517 C 53.740524,66.98393 53.62858,67.336922 53.404693,67.593495 C 53.180802,67.848435 52.872751,67.975904 52.480538,67.975905 C 52.086688,67.975904 51.77782,67.848435 51.553932,67.593495 C 51.331676,67.336922 51.220549,66.98393 51.220549,66.534517 C 51.220549,66.083472 51.331676,65.730479 51.553932,65.475538 C 51.77782,65.220601 52.086688,65.093132 52.480538,65.093129 M 56.611045,65.159315 L 55.618253,66.495295 L 56.662524,67.904816 L 56.130583,67.904816 L 55.331446,66.826226 L 54.532309,67.904816 L 54.000368,67.904816 L 55.066701,66.46833 L 54.091068,65.159315 L 54.623009,65.159315 L 55.351057,66.1374 L 56.079105,65.159315 L 56.611045,65.159315 M 59.540397,66.500198 L 58.550055,65.159315 L 59.479113,65.159315 L 60.04047,65.97316 L 60.609181,65.159315 L 61.538239,65.159315 L 60.547898,66.495295 L 61.587266,67.904816 L 60.658208,67.904816 L 60.04047,67.037041 L 59.430086,67.904816 L 58.501029,67.904816 L 59.540397,66.500198 M 63.969969,66.071213 C 63.969966,65.613632 63.926659,65.29169 63.840048,65.105385 C 63.755066,64.917452 63.611254,64.823484 63.408612,64.823481 C 63.205966,64.823484 63.061337,64.917452 62.974725,65.105385 C 62.888109,65.29169 62.844802,65.613632 62.844804,66.071213 C 62.844802,66.533701 62.888109,66.859729 62.974725,67.049298 C 63.061337,67.238869 63.205966,67.333654 63.408612,67.333653 C 63.60962,67.333654 63.753431,67.238869 63.840048,67.049298 C 63.926659,66.859729 63.969966,66.533701 63.969969,66.071213 M 64.913735,66.078567 C 64.913731,66.684867 64.782993,67.153072 64.52152,67.483185 C 64.260041,67.811665 63.889072,67.975904 63.408612,67.975905 C 62.926514,67.975904 62.554727,67.811665 62.293252,67.483185 C 62.031775,67.153072 61.901037,66.684867 61.901038,66.078567 C 61.901037,65.470638 62.031775,65.002432 62.293252,64.67395 C 62.554727,64.343839 62.926514,64.178783 63.408612,64.178779 C 63.889072,64.178783 64.260041,64.343839 64.52152,64.67395 C 64.782993,65.002432 64.913731,65.470638 64.913735,66.078567 M 65.487347,64.244965 L 68.245105,64.244965 L 68.245105,64.776906 L 66.818425,67.904816 L 65.899172,67.904816 L 67.249861,64.938694 L 65.487347,64.938694 L 65.487347,64.244965 M 68.91432,66.103081 L 70.453761,66.103081 L 70.453761,66.816421 L 68.91432,66.816421 L 68.91432,66.103081 M 71.191616,64.244965 L 72.135382,64.244965 L 72.135382,67.904816 L 71.191616,67.904816 L 71.191616,64.244965 M 73.064442,64.244965 L 74.008208,64.244965 L 74.008208,67.904816 L 73.064442,67.904816 L 73.064442,64.244965 M 74.937263,64.244965 L 75.881029,64.244965 L 75.881029,67.904816 L 74.937263,67.904816 L 74.937263,64.244965 M 20.436622,72.513335 L 20.436622,73.969431 L 19.983124,73.969431 L 19.983124,70.179659 L 20.436622,70.179659 L 20.436622,70.596387 C 20.531406,70.432967 20.650705,70.312034 20.794518,70.233589 C 20.939963,70.153514 21.11319,70.113476 21.314202,70.113473 C 21.647582,70.113476 21.918046,70.245848 22.125595,70.51059 C 22.334774,70.775337 22.439364,71.123427 22.439367,71.554861 C 22.439364,71.986298 22.334774,72.334388 22.125595,72.599132 C 21.918046,72.863876 21.647582,72.996249 21.314202,72.996249 C 21.11319,72.996249 20.939963,72.957027 20.794518,72.878584 C 20.650705,72.798507 20.531406,72.676758 20.436622,72.513335 M 21.971161,71.554861 C 21.971159,71.223115 21.902521,70.963273 21.765248,70.775335 C 21.629606,70.585767 21.442487,70.490982 21.203892,70.490979 C 20.965293,70.490982 20.777357,70.585767 20.640083,70.775335 C 20.504442,70.963273 20.436621,71.223115 20.436622,71.554861 C 20.436621,71.88661 20.504442,72.147269 20.640083,72.336838 C 20.777357,72.524775 20.965293,72.618743 21.203892,72.618742 C 21.442487,72.618743 21.629606,72.524775 21.765248,72.336838 C 21.902521,72.147269 21.971159,71.88661 21.971161,71.554861 M 24.250907,70.495882 C 24.00904,70.495884 23.817836,70.59067 23.677294,70.780237 C 23.536749,70.968175 23.466478,71.226383 23.466478,71.554861 C 23.466478,71.883341 23.535932,72.142366 23.674842,72.331936 C 23.815385,72.519872 24.007406,72.61384 24.250907,72.61384 C 24.491137,72.61384 24.681524,72.519055 24.822069,72.329484 C 24.962611,72.139915 25.032882,71.881707 25.032885,71.554861 C 25.032882,71.229651 24.962611,70.972261 24.822069,70.782689 C 24.681524,70.591487 24.491137,70.495884 24.250907,70.495882 M 24.250907,70.113473 C 24.64312,70.113476 24.951171,70.240945 25.175062,70.495882 C 25.398949,70.750824 25.510893,71.103816 25.510896,71.554861 C 25.510893,72.004274 25.398949,72.357267 25.175062,72.61384 C 24.951171,72.868779 24.64312,72.996249 24.250907,72.996249 C 23.857058,72.996249 23.548189,72.868779 23.324301,72.61384 C 23.102046,72.357267 22.990918,72.004274 22.990919,71.554861 C 22.990918,71.103816 23.102046,70.750824 23.324301,70.495882 C 23.548189,70.240945 23.857058,70.113476 24.250907,70.113473 M 25.99381,70.179659 L 26.444857,70.179659 L 27.008665,72.32213 L 27.570022,70.179659 L 28.101962,70.179659 L 28.665771,72.32213 L 29.227127,70.179659 L 29.678174,70.179659 L 28.959931,72.92516 L 28.427991,72.92516 L 27.837218,70.67483 L 27.243993,72.92516 L 26.712053,72.92516 L 25.99381,70.179659 M 32.712933,71.439648 L 32.712933,71.660269 L 30.639099,71.660269 C 30.658709,71.970773 30.75186,72.207735 30.918552,72.371157 C 31.086876,72.532946 31.32057,72.61384 31.619635,72.61384 C 31.792861,72.61384 31.960369,72.592595 32.12216,72.550105 C 32.28558,72.507615 32.447368,72.443881 32.607525,72.3589 L 32.607525,72.785434 C 32.445734,72.854071 32.27986,72.906366 32.109903,72.942319 C 31.939942,72.978272 31.767531,72.996249 31.59267,72.996249 C 31.154696,72.996249 30.807424,72.868779 30.550851,72.61384 C 30.295911,72.358901 30.168442,72.014079 30.168442,71.579374 C 30.168442,71.129964 30.289374,70.773703 30.53124,70.51059 C 30.774739,70.245848 31.102401,70.113476 31.514228,70.113473 C 31.883561,70.113476 32.17527,70.232774 32.389356,70.471369 C 32.605071,70.708334 32.71293,71.031093 32.712933,71.439648 M 32.261886,71.307276 C 32.258615,71.060509 32.189161,70.863585 32.053522,70.716503 C 31.919514,70.569425 31.741383,70.495884 31.51913,70.495882 C 31.267458,70.495884 31.065631,70.566973 30.913649,70.709149 C 30.7633,70.851328 30.676686,71.051521 30.653807,71.309727 L 32.261886,71.307276 M 35.044157,70.60129 C 34.993494,70.571876 34.93793,70.550631 34.877466,70.537555 C 34.818632,70.522849 34.753263,70.515495 34.681358,70.515493 C 34.426418,70.515495 34.230311,70.598841 34.093037,70.765529 C 33.957395,70.930588 33.889575,71.168368 33.889576,71.478869 L 33.889576,72.92516 L 33.436078,72.92516 L 33.436078,70.179659 L 33.889576,70.179659 L 33.889576,70.606192 C 33.98436,70.439504 34.107744,70.31612 34.259728,70.23604 C 34.411709,70.154331 34.596377,70.113476 34.813731,70.113473 C 34.844779,70.113476 34.879098,70.115927 34.916687,70.120827 C 34.954272,70.124098 34.995945,70.129818 35.041705,70.137986 L 35.044157,70.60129 M 37.762694,71.439648 L 37.762694,71.660269 L 35.68886,71.660269 C 35.70847,71.970773 35.801621,72.207735 35.968313,72.371157 C 36.136637,72.532946 36.370331,72.61384 36.669396,72.61384 C 36.842622,72.61384 37.01013,72.592595 37.171921,72.550105 C 37.335341,72.507615 37.497129,72.443881 37.657286,72.3589 L 37.657286,72.785434 C 37.495495,72.854071 37.329621,72.906366 37.159664,72.942319 C 36.989702,72.978272 36.817292,72.996249 36.642431,72.996249 C 36.204457,72.996249 35.857184,72.868779 35.600612,72.61384 C 35.345672,72.358901 35.218202,72.014079 35.218203,71.579374 C 35.218202,71.129964 35.339135,70.773703 35.581001,70.51059 C 35.8245,70.245848 36.152162,70.113476 36.563988,70.113473 C 36.933322,70.113476 37.225031,70.232774 37.439117,70.471369 C 37.654832,70.708334 37.762691,71.031093 37.762694,71.439648 M 37.311647,71.307276 C 37.308376,71.060509 37.238922,70.863585 37.103283,70.716503 C 36.969275,70.569425 36.791144,70.495884 36.568891,70.495882 C 36.317219,70.495884 36.115392,70.566973 35.96341,70.709149 C 35.81306,70.851328 35.726446,71.051521 35.703568,71.309727 L 37.311647,71.307276 M 40.309635,70.596387 L 40.309635,69.110875 L 40.760682,69.110875 L 40.760682,72.92516 L 40.309635,72.92516 L 40.309635,72.513335 C 40.214848,72.676758 40.094733,72.798507 39.949288,72.878584 C 39.805475,72.957027 39.632247,72.996249 39.429604,72.996249 C 39.097855,72.996249 38.827391,72.863876 38.618211,72.599132 C 38.410664,72.334388 38.30689,71.986298 38.306891,71.554861 C 38.30689,71.123427 38.410664,70.775337 38.618211,70.51059 C 38.827391,70.245848 39.097855,70.113476 39.429604,70.113473 C 39.632247,70.113476 39.805475,70.153514 39.949288,70.233589 C 40.094733,70.312034 40.214848,70.432967 40.309635,70.596387 M 38.772645,71.554861 C 38.772644,71.88661 38.840465,72.147269 38.976106,72.336838 C 39.11338,72.524775 39.301316,72.618743 39.539915,72.618742 C 39.77851,72.618743 39.966446,72.524775 40.103723,72.336838 C 40.240996,72.147269 40.309633,71.88661 40.309635,71.554861 C 40.309633,71.223115 40.240996,70.963273 40.103723,70.775335 C 39.966446,70.585767 39.77851,70.490982 39.539915,70.490979 C 39.301316,70.490982 39.11338,70.585767 38.976106,70.775335 C 38.840465,70.963273 38.772644,71.223115 38.772645,71.554861 M 45.25889,71.554861 C 45.258888,71.223115 45.19025,70.963273 45.052978,70.775335 C 44.917335,70.585767 44.730216,70.490982 44.491621,70.490979 C 44.253022,70.490982 44.065086,70.585767 43.927813,70.775335 C 43.792171,70.963273 43.724351,71.223115 43.724351,71.554861 C 43.724351,71.88661 43.792171,72.147269 43.927813,72.336838 C 44.065086,72.524775 44.253022,72.618743 44.491621,72.618742 C 44.730216,72.618743 44.917335,72.524775 45.052978,72.336838 C 45.19025,72.147269 45.258888,71.88661 45.25889,71.554861 M 43.724351,70.596387 C 43.819136,70.432967 43.938434,70.312034 44.082247,70.233589 C 44.227692,70.153514 44.40092,70.113476 44.601931,70.113473 C 44.935311,70.113476 45.205775,70.245848 45.413325,70.51059 C 45.622503,70.775337 45.727093,71.123427 45.727096,71.554861 C 45.727093,71.986298 45.622503,72.334388 45.413325,72.599132 C 45.205775,72.863876 44.935311,72.996249 44.601931,72.996249 C 44.40092,72.996249 44.227692,72.957027 44.082247,72.878584 C 43.938434,72.798507 43.819136,72.676758 43.724351,72.513335 L 43.724351,72.92516 L 43.270854,72.92516 L 43.270854,69.110875 L 43.724351,69.110875 L 43.724351,70.596387 M 47.61708,73.180099 C 47.489609,73.506944 47.365408,73.72021 47.244476,73.819899 C 47.123543,73.919586 46.961754,73.96943 46.759111,73.969431 L 46.398764,73.969431 L 46.398764,73.591924 L 46.663509,73.591924 C 46.787709,73.591924 46.884129,73.562508 46.952767,73.503676 C 47.021403,73.444843 47.097395,73.305934 47.180742,73.086948 L 47.261636,72.881036 L 46.151179,70.179659 L 46.62919,70.179659 L 47.487159,72.327033 L 48.345128,70.179659 L 48.823139,70.179659 L 47.61708,73.180099 M 52.79431,70.260553 L 52.79431,70.687087 C 52.666838,70.62172 52.534466,70.572693 52.397193,70.540006 C 52.259916,70.507324 52.117739,70.490982 51.97066,70.490979 C 51.74677,70.490982 51.578445,70.525301 51.465684,70.593936 C 51.354556,70.662575 51.298992,70.765532 51.298993,70.902804 C 51.298992,71.007397 51.339031,71.089925 51.419109,71.15039 C 51.499185,71.209224 51.660156,71.265604 51.902022,71.319532 L 52.056457,71.353851 C 52.376764,71.42249 52.603921,71.519726 52.737929,71.64556 C 52.873568,71.769763 52.941388,71.943808 52.941391,72.167696 C 52.941388,72.422636 52.840066,72.624463 52.637424,72.773177 C 52.436413,72.921891 52.159412,72.996249 51.80642,72.996249 C 51.659339,72.996249 51.505722,72.981541 51.345568,72.952125 C 51.187048,72.924343 51.01954,72.881853 50.843044,72.824655 L 50.843044,72.3589 C 51.009734,72.445515 51.173974,72.510884 51.335763,72.555008 C 51.49755,72.597498 51.657705,72.618743 51.816226,72.618742 C 52.028674,72.618743 52.192096,72.58279 52.306494,72.510883 C 52.420888,72.437344 52.478085,72.334388 52.478087,72.202015 C 52.478085,72.079448 52.436413,71.985481 52.353069,71.920111 C 52.271356,71.854743 52.090774,71.791825 51.811323,71.731357 L 51.654437,71.694587 C 51.374984,71.635756 51.173157,71.545874 51.048956,71.42494 C 50.924755,71.302374 50.862654,71.134866 50.862654,70.922415 C 50.862654,70.66421 50.954171,70.464834 51.137204,70.324288 C 51.320237,70.183747 51.580079,70.113476 51.916731,70.113473 C 52.08342,70.113476 52.240306,70.125732 52.387388,70.150243 C 52.534466,70.174759 52.670107,70.211529 52.79431,70.260553 M 55.637864,70.285067 L 55.637864,70.706697 C 55.510392,70.636428 55.382105,70.584133 55.253004,70.549812 C 55.125532,70.513861 54.996428,70.495884 54.865692,70.495882 C 54.573164,70.495884 54.346007,70.589035 54.184219,70.775335 C 54.02243,70.960004 53.941536,71.219846 53.941537,71.554861 C 53.941536,71.889878 54.02243,72.150537 54.184219,72.336838 C 54.346007,72.521506 54.573164,72.61384 54.865692,72.61384 C 54.996428,72.61384 55.125532,72.596681 55.253004,72.562362 C 55.382105,72.526409 55.510392,72.473297 55.637864,72.403025 L 55.637864,72.819752 C 55.512026,72.878585 55.381288,72.922709 55.24565,72.952125 C 55.111641,72.981541 54.968646,72.996249 54.816665,72.996249 C 54.403205,72.996249 54.074725,72.866328 53.831227,72.606486 C 53.587726,72.346644 53.465977,71.996103 53.465977,71.554861 C 53.465977,71.107085 53.588543,70.754909 53.833678,70.498333 C 54.080445,70.241762 54.417913,70.113476 54.846081,70.113473 C 54.984989,70.113476 55.120629,70.128184 55.253004,70.157597 C 55.385374,70.185382 55.513661,70.227872 55.637864,70.285067 M 58.018114,70.60129 C 57.967451,70.571876 57.911887,70.550631 57.851423,70.537555 C 57.792589,70.522849 57.72722,70.515495 57.655315,70.515493 C 57.400375,70.515495 57.204268,70.598841 57.066994,70.765529 C 56.931352,70.930588 56.863532,71.168368 56.863533,71.478869 L 56.863533,72.92516 L 56.410035,72.92516 L 56.410035,70.179659 L 56.863533,70.179659 L 56.863533,70.606192 C 56.958317,70.439504 57.081701,70.31612 57.233685,70.23604 C 57.385667,70.154331 57.570334,70.113476 57.787688,70.113473 C 57.818736,70.113476 57.853055,70.115927 57.890644,70.120827 C 57.928229,70.124098 57.969902,70.129818 58.015662,70.137986 L 58.018114,70.60129 M 60.736653,71.439648 L 60.736653,71.660269 L 58.662819,71.660269 C 58.682429,71.970773 58.77558,72.207735 58.942272,72.371157 C 59.110596,72.532946 59.34429,72.61384 59.643355,72.61384 C 59.816581,72.61384 59.984089,72.592595 60.14588,72.550105 C 60.3093,72.507615 60.471088,72.443881 60.631245,72.3589 L 60.631245,72.785434 C 60.469454,72.854071 60.30358,72.906366 60.133623,72.942319 C 59.963661,72.978272 59.791251,72.996249 59.61639,72.996249 C 59.178416,72.996249 58.831143,72.868779 58.574571,72.61384 C 58.319631,72.358901 58.192161,72.014079 58.192162,71.579374 C 58.192161,71.129964 58.313094,70.773703 58.55496,70.51059 C 58.798459,70.245848 59.126121,70.113476 59.537947,70.113473 C 59.907281,70.113476 60.19899,70.232774 60.413076,70.471369 C 60.628791,70.708334 60.73665,71.031093 60.736653,71.439648 M 60.285606,71.307276 C 60.282335,71.060509 60.212881,70.863585 60.077242,70.716503 C 59.943234,70.569425 59.765103,70.495884 59.54285,70.495882 C 59.291178,70.495884 59.089351,70.566973 58.937369,70.709149 C 58.787019,70.851328 58.700405,71.051521 58.677527,71.309727 L 60.285606,71.307276 M 63.82534,71.439648 L 63.82534,71.660269 L 61.751507,71.660269 C 61.771117,71.970773 61.864268,72.207735 62.03096,72.371157 C 62.199284,72.532946 62.432978,72.61384 62.732043,72.61384 C 62.905269,72.61384 63.072777,72.592595 63.234568,72.550105 C 63.397988,72.507615 63.559776,72.443881 63.719933,72.3589 L 63.719933,72.785434 C 63.558142,72.854071 63.392268,72.906366 63.222311,72.942319 C 63.052349,72.978272 62.879938,72.996249 62.705078,72.996249 C 62.267104,72.996249 61.919831,72.868779 61.663259,72.61384 C 61.408319,72.358901 61.280849,72.014079 61.28085,71.579374 C 61.280849,71.129964 61.401782,70.773703 61.643648,70.51059 C 61.887147,70.245848 62.214809,70.113476 62.626635,70.113473 C 62.995968,70.113476 63.287678,70.232774 63.501764,70.471369 C 63.717479,70.708334 63.825338,71.031093 63.82534,71.439648 M 63.374294,71.307276 C 63.371023,71.060509 63.301569,70.863585 63.16593,70.716503 C 63.031921,70.569425 62.853791,70.495884 62.631538,70.495882 C 62.379866,70.495884 62.178039,70.566973 62.026057,70.709149 C 61.875707,70.851328 61.789093,71.051521 61.766215,71.309727 L 63.374294,71.307276 M 66.847842,71.268054 L 66.847842,72.92516 L 66.396796,72.92516 L 66.396796,71.282762 C 66.396793,71.022922 66.346132,70.828449 66.244813,70.699343 C 66.143488,70.570242 65.991506,70.50569 65.788863,70.505687 C 65.545362,70.50569 65.353341,70.583315 65.212798,70.738565 C 65.072254,70.893818 65.001982,71.10545 65.001983,71.373462 L 65.001983,72.92516 L 64.548485,72.92516 L 64.548485,70.179659 L 65.001983,70.179659 L 65.001983,70.606192 C 65.109841,70.441138 65.236494,70.317754 65.381941,70.23604 C 65.52902,70.154331 65.698162,70.113476 65.889368,70.113473 C 66.204772,70.113476 66.443369,70.211529 66.60516,70.407634 C 66.766945,70.602109 66.847839,70.888916 66.847842,71.268054 M 67.752386,69.110875 L 68.203432,69.110875 L 68.203432,72.92516 L 67.752386,72.92516 L 67.752386,69.110875 M 71.49313,71.439648 L 71.49313,71.660269 L 69.419296,71.660269 C 69.438906,71.970773 69.532057,72.207735 69.698749,72.371157 C 69.867073,72.532946 70.100767,72.61384 70.399832,72.61384 C 70.573058,72.61384 70.740566,72.592595 70.902357,72.550105 C 71.065777,72.507615 71.227566,72.443881 71.387722,72.3589 L 71.387722,72.785434 C 71.225931,72.854071 71.060057,72.906366 70.8901,72.942319 C 70.720139,72.978272 70.547728,72.996249 70.372868,72.996249 C 69.934894,72.996249 69.587621,72.868779 69.331048,72.61384 C 69.076108,72.358901 68.948639,72.014079 68.948639,71.579374 C 68.948639,71.129964 69.069571,70.773703 69.311437,70.51059 C 69.554936,70.245848 69.882598,70.113476 70.294425,70.113473 C 70.663758,70.113476 70.955467,70.232774 71.169553,70.471369 C 71.385268,70.708334 71.493127,71.031093 71.49313,71.439648 M 71.042083,71.307276 C 71.038813,71.060509 70.969358,70.863585 70.833719,70.716503 C 70.699711,70.569425 70.52158,70.495884 70.299327,70.495882 C 70.047655,70.495884 69.845828,70.566973 69.693846,70.709149 C 69.543497,70.851328 69.456883,71.051521 69.434004,71.309727 L 71.042083,71.307276 M 72.679578,69.400133 L 72.679578,70.179659 L 73.608636,70.179659 L 73.608636,70.530201 L 72.679578,70.530201 L 72.679578,72.020615 C 72.679577,72.244505 72.70981,72.388317 72.770278,72.452051 C 72.832377,72.515787 72.957395,72.547654 73.145333,72.547654 L 73.608636,72.547654 L 73.608636,72.92516 L 73.145333,72.92516 C 72.797241,72.92516 72.55701,72.860608 72.424639,72.731504 C 72.292266,72.600766 72.22608,72.363804 72.22608,72.020615 L 72.22608,70.530201 L 71.895149,70.530201 L 71.895149,70.179659 L 72.22608,70.179659 L 72.22608,69.400133 L 72.679578,69.400133 M 75.954569,70.260553 L 75.954569,70.687087 C 75.827098,70.62172 75.694725,70.572693 75.557452,70.540006 C 75.420176,70.507324 75.277998,70.490982 75.130919,70.490979 C 74.907029,70.490982 74.738704,70.525301 74.625943,70.593936 C 74.514815,70.662575 74.459251,70.765532 74.459252,70.902804 C 74.459251,71.007397 74.49929,71.089925 74.579368,71.15039 C 74.659444,71.209224 74.820415,71.265604 75.062282,71.319532 L 75.216716,71.353851 C 75.537023,71.42249 75.76418,71.519726 75.898189,71.64556 C 76.033827,71.769763 76.101648,71.943808 76.10165,72.167696 C 76.101648,72.422636 76.000326,72.624463 75.797684,72.773177 C 75.596672,72.921891 75.319671,72.996249 74.966679,72.996249 C 74.819598,72.996249 74.665981,72.981541 74.505828,72.952125 C 74.347307,72.924343 74.179799,72.881853 74.003303,72.824655 L 74.003303,72.3589 C 74.169994,72.445515 74.334233,72.510884 74.496022,72.555008 C 74.65781,72.597498 74.817964,72.618743 74.976485,72.618742 C 75.188933,72.618743 75.352355,72.58279 75.466753,72.510883 C 75.581147,72.437344 75.638345,72.334388 75.638347,72.202015 C 75.638345,72.079448 75.596672,71.985481 75.513328,71.920111 C 75.431615,71.854743 75.251033,71.791825 74.971582,71.731357 L 74.814696,71.694587 C 74.535243,71.635756 74.333416,71.545874 74.209215,71.42494 C 74.085014,71.302374 74.022913,71.134866 74.022914,70.922415 C 74.022913,70.66421 74.11443,70.464834 74.297464,70.324288 C 74.480496,70.183747 74.740338,70.113476 75.07699,70.113473 C 75.243679,70.113476 75.400565,70.125732 75.547647,70.150243 C 75.694725,70.174759 75.830366,70.211529 75.954569,70.260553"
       id="text2207" />
    <path
       style="font-size:12px;font-style:normal;font-weight:normal;fill:#4d4d4d;fill-opacity:1;stroke:none;stroke-width:1px;stroke-linecap:butt;stroke-linejoin:miter;stroke-opacity:1;font-family:Bitstream Vera Sans"
       d="M 58.361328,49.262897 L 59.632812,49.262897 L 61.806641,52.514851 L 63.992188,49.262897 L 65.263672,49.262897 L 62.451172,53.464069 L 65.451172,58.010944 L 64.179688,58.010944 L 61.71875,54.290241 L 59.240234,58.010944 L 57.962891,58.010944 L 61.085938,53.341022 L 58.361328,49.262897 M 67.320312,57.014851 L 69.253906,57.014851 L 69.253906,50.341022 L 67.150391,50.762897 L 67.150391,49.684772 L 69.242188,49.262897 L 70.425781,49.262897 L 70.425781,57.014851 L 72.359375,57.014851 L 72.359375,58.010944 L 67.320312,58.010944 L 67.320312,57.014851 M 74.960938,57.014851 L 76.894531,57.014851 L 76.894531,50.341022 L 74.791016,50.762897 L 74.791016,49.684772 L 76.882812,49.262897 L 78.066406,49.262897 L 78.066406,57.014851 L 80,57.014851 L 80,58.010944 L 74.960938,58.010944 L 74.960938,57.014851"
       id="text2227" />
  </g>
</svg>
